<svg width="281" height="350" viewBox="0 0 281 350" fill="none" xmlns="http://www.w3.org/2000/svg">
<path d="M15.6328 6.76562C15.6366 4.67023 16.8777 3.36622 17.5078 2.85938C18.1255 2.36352 18.7264 2.16011 18.9531 2.07812C19.4526 1.89765 19.8709 1.81836 19.9688 1.80469C20.2271 1.76888 20.4411 1.7679 20.5156 1.76562C20.6779 1.76092 20.8482 1.76409 20.9062 1.76562C21.0504 1.76961 21.2187 1.79623 21.375 1.80469C21.7089 1.8228 22.183 1.84219 22.7812 1.88281L30.0078 2.39062L37.1953 2.85938C38.2578 2.93157 39.5869 2.96885 41.1797 2.97656L51.1797 3.01562L61.1797 3.09375C62.7739 3.10129 64.39 3.07741 65.9844 3.01562L85.9844 2.23438C87.7292 2.16691 89.4737 2.13712 91.2188 2.15625L111.219 2.39062C112.714 2.40707 114.214 2.32977 115.711 2.19531L135.711 0.398438C137.602 0.228193 139.521 0.19409 141.414 0.28125L151.414 0.710938L161.414 1.17969C163.103 1.25754 164.803 1.34699 166.492 1.45312L176.492 2.07812L186.492 2.74219C187.857 2.82726 189.225 2.7802 190.594 2.625L210.594 0.359375C212.568 0.134775 214.554 0.092305 216.531 0.242188L226.531 0.984375L236.531 1.76562C238.05 1.8815 239.584 1.9399 241.102 1.92188L251.102 1.76562L261.102 1.64844L263.641 2C264.526 2.25009 265.426 2.65859 266.258 3.32812C267.961 4.70093 268.708 6.56354 268.953 8.21094L271.688 26.8047C271.957 28.6487 272.052 30.5385 272 32.4688L271.727 42.4688L271.453 52.5078C271.412 54.0455 271.423 55.5826 271.492 57.1172L272.43 77.1172C272.508 78.835 272.527 80.5542 272.547 82.2734L272.781 102.273L273.016 117.273L273.133 127.273C273.156 128.962 273.172 130.663 273.172 132.352V152.352C273.172 153.902 273.228 155.451 273.328 157L273.953 167L274.617 177C274.728 178.712 274.792 180.443 274.852 182.156L275.203 192.117L275.555 202.117C275.61 203.699 275.732 205.303 275.867 206.883L276.688 216.844L277.547 226.844C277.713 228.794 277.72 230.749 277.547 232.703L276.648 242.742L275.789 252.742C275.654 254.263 275.551 255.797 275.555 257.312L275.633 277.312C275.636 278.705 275.753 280.097 275.984 281.492L279.266 301.414C279.58 303.306 279.773 305.211 279.812 307.117L280.203 327.117C280.254 329.584 279.705 332.226 277.898 334.383L268.289 345.867C266.202 348.358 263.232 349.09 260.594 349.031L250.555 348.797L240.477 348.562C238.258 348.513 236.081 348.104 233.992 347.352L224.5 343.953L215.008 340.516C213.674 340.036 212.295 339.689 210.906 339.422L191.141 335.594C189.188 335.218 187.281 334.687 185.438 333.953L176.102 330.203L166.766 326.492C165.958 326.173 165.258 326.095 164.617 326.18L155.32 327.43L146.023 328.641C144.536 328.837 142.966 329.074 141.375 329.344L121.609 332.703C119.91 332.992 118.196 333.254 116.492 333.484L106.609 334.812L96.6875 336.18C95.2348 336.376 93.7877 336.636 92.3516 337L82.5859 339.5L72.8203 341.961C71.0359 342.414 69.2325 342.785 67.4297 343.055L57.5859 344.539L47.7812 345.984C46.1457 346.229 44.4813 346.481 42.8203 346.727L32.8203 348.211L22.8594 349.695C21.4387 349.905 19.8064 349.856 18.2109 349.266C16.5576 348.652 15.2313 347.564 14.3047 346.18L5.16406 332.43C3.45901 329.874 3.25249 326.974 3.91406 324.305L6.33594 314.617L8.71875 304.93C9.1301 303.27 9.58703 301.62 10.0469 299.969L12.7031 290.32L15.3984 280.672C15.7403 279.444 15.9378 278.169 15.9844 276.883L16.3359 266.844L16.7266 256.766C16.7685 255.577 16.6315 254.423 16.3359 253.289L13.7969 243.602L11.2969 233.953C10.871 232.321 10.4511 230.663 10.0469 229.031L7.66406 219.383L5.24219 209.695C4.80662 207.936 4.46184 206.144 4.1875 204.344L2.66406 194.461L1.17969 184.539C0.859564 182.439 0.801509 180.321 1.0625 178.211L2.3125 168.211L3.5625 158.25C3.76664 156.611 3.9691 154.958 4.14844 153.328L6.33594 133.484C6.5202 131.81 6.71393 130.119 6.92188 128.445L8.13281 118.523L9.38281 108.602C9.5772 107.034 9.73224 105.452 9.85156 103.875L10.5938 93.9141L11.375 83.9141C11.5024 82.2323 11.6136 80.551 11.7656 78.875L12.6641 68.9141L13.6016 58.9922C13.7489 57.368 13.871 55.7387 13.9922 54.1094L14.7344 44.1094L15.4766 34.1484C15.591 32.6091 15.6323 31.0452 15.6328 29.5V6.76562ZM61.375 46.0234C64.1219 46.1999 66.2255 48.551 66.0625 51.2969L66.0234 51.4141V51.6875L65.9844 51.9609L62.4688 71.7266C61.9145 74.8606 61.908 76.6004 62.0391 77.3516L65.6328 97.1953C65.9324 98.8586 66.2097 100.523 66.4922 102.156L68.1719 111.883L69.8516 121.648C70.0684 122.897 70.4525 124.099 70.9453 125.281L74.7344 134.461L78.5625 143.641C79.1713 145.101 79.835 146.555 80.5156 148.016L84.7734 157.195L89.0703 166.336C90.0415 168.42 90.583 170.639 90.75 172.938L91.4922 183.133L92.2344 193.367C92.4048 195.743 92.0883 198.075 91.2969 200.32L84.5781 219.461C83.9616 221.209 83.2479 222.919 82.4688 224.578L78.2109 233.602L73.9922 242.664C73.4555 243.808 73.0542 244.96 72.8203 246.141L70.9453 255.711L69.0312 265.281C68.8968 265.971 68.9532 266.593 69.1875 267.234L75.9062 285.438C76.2984 286.5 76.7771 287.342 77.3125 288.016L82.7422 294.852L89.4609 303.289L89.6172 303.484L89.7344 303.641L89.7734 303.719C91.2999 306.017 90.7012 309.142 88.4062 310.672C86.1964 312.14 83.2708 311.583 81.6875 309.5L81.6484 309.539L74.9297 301.062L69.5 294.266C68.2277 292.667 67.2534 290.836 66.5312 288.875L63.1719 279.773L59.8125 270.711C58.9351 268.328 58.7346 265.818 59.2266 263.328L61.1406 253.758L63.0156 244.227C63.4113 242.225 64.054 240.272 64.9297 238.406L69.1875 229.344L73.4062 220.32C74.0399 218.971 74.6186 217.576 75.125 216.141L78.5234 206.57L81.8828 197C82.2142 196.06 82.3475 195.091 82.2734 194.07L80.7891 173.68C80.7091 172.577 80.4591 171.523 80.0078 170.555L75.7109 161.414L71.4531 152.273C70.7132 150.686 70.008 149.062 69.3438 147.469L65.5156 138.328L61.6875 129.148C60.9072 127.277 60.3526 125.321 60.0078 123.328L56.6484 103.875C56.3702 102.267 56.0844 100.632 55.7891 98.9922L52.1953 79.1484C51.7337 76.5859 52.0206 73.3804 52.625 69.9688L56.1406 50.2422C56.528 47.7103 58.7699 45.8586 61.375 46.0234ZM25.6328 29.5391C25.6318 31.3243 25.5698 33.1114 25.4375 34.8906L24.6953 44.8516L23.9531 54.8516C23.8279 56.5342 23.6756 58.213 23.5234 59.8906L22.625 69.8516L21.7266 79.7734C21.5785 81.4057 21.4599 83.057 21.3359 84.6953L20.5938 94.6562L19.8125 104.656C19.6808 106.393 19.5191 108.125 19.3047 109.852L18.0547 119.773L16.8438 129.695C16.6415 131.323 16.437 132.95 16.2578 134.578L14.0703 154.422C13.8857 156.1 13.6944 157.814 13.4844 159.5L10.9844 179.422C10.8343 180.626 10.8815 181.822 11.0625 183.016L12.5469 192.938L14.0703 202.859C14.299 204.357 14.6073 205.854 14.9688 207.312L17.3516 216.961L19.7344 226.648C20.1277 228.236 20.5308 229.825 20.9453 231.414L23.4844 241.102L26.0234 250.75C26.5677 252.837 26.8048 254.997 26.7266 257.156L26.3359 267.195L25.9844 277.273C25.9087 279.329 25.5962 281.351 25.0469 283.328L19.6562 302.625C19.2212 304.187 18.8342 305.782 18.4453 307.352L13.6016 326.727C13.5727 326.844 13.5698 326.937 13.5625 327L18.0547 333.758L22 339.656L31.375 338.328L41.3359 336.844C42.997 336.598 44.6615 336.346 46.2969 336.102L56.1016 334.617L65.9453 333.172C67.415 332.952 68.8926 332.646 70.3594 332.273L80.125 329.812L89.8906 327.312C91.6969 326.854 93.5224 326.506 95.3594 326.258L105.281 324.93L115.164 323.562C116.752 323.348 118.345 323.128 119.93 322.859L139.695 319.5C141.398 319.211 143.079 318.971 144.695 318.758L153.992 317.508L163.328 316.297C165.78 315.974 168.19 316.286 170.477 317.195L179.812 320.945L189.148 324.656C190.399 325.154 191.687 325.533 193.016 325.789L202.938 327.703L212.82 329.578C214.721 329.944 216.583 330.484 218.406 331.141L227.898 334.539L237.391 337.977C238.464 338.362 239.576 338.537 240.711 338.562L250.75 338.797L260.828 339.031H260.906L265.438 333.68L270.164 328.016C270.188 327.918 270.25 327.688 270.242 327.312L270.008 317.312L269.812 307.312C269.783 305.895 269.658 304.474 269.422 303.055L267.742 293.094L266.102 283.133C265.783 281.214 265.638 279.285 265.633 277.352L265.594 267.312L265.555 257.312C265.551 255.503 265.668 253.694 265.828 251.883L266.688 241.844L267.586 231.805C267.707 230.432 267.701 229.066 267.586 227.703L266.727 217.703L265.906 207.703C265.758 205.961 265.616 204.214 265.555 202.469L265.242 192.469L264.891 182.469C264.834 180.858 264.721 179.235 264.617 177.625L263.992 167.664L263.328 157.664C263.214 155.895 263.172 154.124 263.172 152.352V132.352C263.172 130.708 263.155 129.034 263.133 127.391L263.016 117.391L262.859 107.391C262.837 105.726 262.84 104.055 262.82 102.391L262.664 92.3906L262.547 82.3906C262.528 80.7819 262.503 79.1543 262.43 77.5469L261.961 67.5859L261.531 57.5859C261.45 55.8048 261.405 54.0182 261.453 52.2344L261.727 42.1953L262 32.1953C262.037 30.8023 261.986 29.488 261.805 28.25L260.438 18.9531L259.344 11.6484L251.219 11.7656L241.219 11.9219C239.408 11.9433 237.598 11.8646 235.789 11.7266L225.789 10.9844L215.789 10.2031C214.439 10.1001 213.08 10.1272 211.727 10.2812L191.727 12.5469C189.776 12.7685 187.822 12.8252 185.867 12.7031L165.867 11.4531C164.231 11.3503 162.582 11.2551 160.945 11.1797L140.945 10.2422C139.505 10.1759 138.051 10.2296 136.609 10.3594L116.609 12.1562C114.778 12.3208 112.935 12.4108 111.102 12.3906L91.1016 12.1562C89.5259 12.1391 87.9509 12.1735 86.375 12.2344L76.375 12.5859L66.375 12.9766C64.636 13.044 62.8798 13.102 61.1406 13.0938L51.1406 13.0156L41.1406 12.9766C39.4092 12.9683 37.8663 12.9499 36.5312 12.8594L29.3047 12.3516L25.6328 12.0781V29.5391Z" fill="#0254D9"/>
<path d="M138.834 43.2344C141.467 44.0414 142.951 46.8097 142.155 49.4453L142.115 49.5625L142.037 49.8359L141.92 50.0703L134.303 67.7656C133.106 70.5428 132.919 71.9141 132.936 72.2969L133.561 81.9062L134.147 91.5156C134.217 92.6223 134.454 93.7142 134.85 94.7969L141.569 113.156C142.319 115.209 142.713 117.343 142.74 119.523L142.858 129.211L142.975 138.859C142.993 140.302 142.986 141.694 142.897 142.453L142.662 144.523V144.562L142.35 147.023L142.272 146.984C142.028 149.477 140.028 151.468 137.467 151.516C134.712 151.557 132.44 149.346 132.389 146.594V146.477L132.35 146.125L132.428 145.773L132.701 143.312L132.975 141.281V139.016L132.74 119.641C132.726 118.605 132.521 117.595 132.155 116.594L125.436 98.2344C124.715 96.2635 124.278 94.2241 124.147 92.1406L122.975 72.9219C122.801 70.0875 123.795 66.9028 125.123 63.8203L132.74 46.125L132.78 46.1641C133.732 43.7731 136.328 42.4701 138.834 43.2344Z" fill="#0254D9"/>
<path d="M177.712 66C180.463 65.7568 182.898 67.8196 183.142 70.5703V70.7266L183.181 70.8047L184.431 90.6484C184.638 93.9431 184.816 96.3599 184.978 97.9141L185.993 107.875L187.048 117.797C187.249 119.725 187.278 121.68 187.165 123.617L185.993 143.617C185.871 145.724 185.492 147.794 184.821 149.789L181.657 159.242L178.454 168.656C177.831 170.505 177.051 172.316 176.11 174.047L171.306 182.914L166.462 191.82C166.106 192.475 165.945 193.123 165.993 193.852L166.696 203.891L167.36 213.969C167.452 215.337 167.65 216.668 167.985 217.953L172.985 237.094C173.367 238.557 173.808 240.023 174.313 241.469L177.634 250.922L180.915 260.336C181.421 261.782 182.01 263.225 182.634 264.633L190.759 282.992C191.422 284.49 191.907 285.465 192.204 286L194.626 290.414L194.665 290.453L195.681 289.555L198.532 295.844L198.571 295.922C199.541 298.062 198.778 300.431 197.009 301.82L197.048 301.859L196.579 302.289L196.032 302.602L195.759 302.719C194.115 303.601 192.561 303.337 191.774 303.07C191.026 302.812 190.503 302.417 190.29 302.25C189.84 301.897 189.556 301.535 189.47 301.43C189.241 301.15 189.044 300.895 188.962 300.766C188.765 300.455 188.552 300.059 188.337 299.672L185.876 295.258L183.454 290.844C182.936 289.908 182.308 288.61 181.618 287.055L173.493 268.695C172.762 267.046 172.095 265.354 171.501 263.656L168.181 254.203L164.899 244.789C164.305 243.089 163.749 241.362 163.298 239.633L158.298 220.492C157.8 218.586 157.493 216.618 157.36 214.633L156.696 204.555L156.032 194.516C155.857 191.891 156.418 189.365 157.673 187.055L162.517 178.148L167.321 169.242C167.99 168.011 168.566 166.745 169.001 165.453L175.329 146.625C175.715 145.478 175.961 144.258 176.032 143.031L177.204 123.031C177.285 121.633 177.232 120.241 177.087 118.852L176.071 108.891L175.017 98.9297C174.833 97.1651 174.64 94.5949 174.431 91.2734L173.181 71.4297C172.944 68.6868 174.97 66.2478 177.712 66Z" fill="#0254D9"/>
<path d="M116.601 206.234C119.137 205.404 121.817 206.746 122.773 209.203L122.812 209.164L130.468 227.602C131.771 230.74 132.705 233.484 133.124 235.648L135.038 245.57L136.952 255.453C137.319 257.35 137.542 259.274 137.617 261.195L138.398 281.195C138.466 282.945 138.48 284.586 138.437 286.117L138.202 294.594L137.968 303.031C137.947 303.756 137.934 304.404 137.89 304.906C137.871 305.128 137.811 305.505 137.734 305.883C137.701 306.043 137.601 306.478 137.382 306.977C137.276 307.218 137.005 307.77 136.484 308.344C135.954 308.926 134.711 309.984 132.773 309.984H131.874L131.718 309.945L131.679 309.984C131.616 309.984 131.546 309.948 131.484 309.945L130.859 309.828V309.789C128.494 309.392 126.679 307.462 126.679 304.984V299.047L128.046 299.242L128.202 294.281L128.437 285.844C128.473 284.57 128.459 283.154 128.398 281.586L128.007 271.586L127.656 261.586C127.601 260.178 127.418 258.767 127.148 257.367L125.234 247.445L123.32 237.562C123.1 236.427 122.455 234.429 121.21 231.43L113.593 213.031L113.437 212.641L113.398 212.562C112.539 209.939 113.978 207.094 116.601 206.234Z" fill="#0254D9"/>
<path d="M229.681 238.859C229.68 237.264 229.748 235.568 229.915 233.781L231.79 213.859C231.924 212.429 231.934 210.966 231.868 209.523L231.439 199.523L230.97 189.484C230.92 188.391 230.684 187.33 230.267 186.32L222.61 167.805C222.024 166.387 221.394 164.979 220.696 163.625L211.556 145.891C210.394 143.634 209.844 141.197 209.954 138.664L210.423 128.586L210.853 118.508C210.974 115.795 211.914 113.302 213.587 111.164L226.009 95.3047C226.591 94.5632 227.006 93.7608 227.22 92.8438L231.751 73.2344C231.914 72.5328 231.875 71.8843 231.634 71.2031L224.915 52.2188C224.602 51.3364 223.667 49.6494 221.79 47.0625L210.149 31.0078L209.915 30.6172L209.837 30.5391C208.439 28.1605 209.256 25.104 211.634 23.7031C213.902 22.3709 216.719 23.0609 218.196 25.1875L218.274 25.1484L229.915 41.2031C231.92 43.9665 233.519 46.5779 234.329 48.8594L241.048 67.8438C241.927 70.32 242.107 72.9006 241.517 75.4609L239.212 85.2656L236.946 95.0703C236.403 97.4168 235.386 99.5813 233.899 101.477L221.478 117.336C221.091 117.829 220.884 118.309 220.853 118.938L220.423 129.016L219.954 139.094C219.918 139.908 220.067 140.627 220.423 141.32L229.564 159.055C230.389 160.657 231.176 162.303 231.868 163.977L235.696 173.234L239.524 182.531C240.38 184.605 240.867 186.774 240.97 189.016L241.439 199.055L241.868 209.094C241.954 210.994 241.928 212.907 241.751 214.797L239.876 234.719C239.734 236.246 239.68 237.625 239.681 238.859V255.891C239.681 256.6 239.654 257.183 239.642 257.609C239.636 257.809 239.624 258.073 239.603 258.312C239.594 258.41 239.587 258.672 239.524 258.977C239.501 259.092 239.389 259.499 239.173 259.992C239.071 260.224 238.829 260.792 238.314 261.359C237.788 261.936 236.534 263 234.603 263H233.548L232.806 262.766L232.649 262.688C230.479 262.044 228.926 260.083 229.056 257.727V257.609L229.446 251.125L229.681 251.164V238.859Z" fill="#0254D9"/>
</svg>
