<svg width="137" height="353" viewBox="0 0 137 353" fill="none" xmlns="http://www.w3.org/2000/svg">
<path d="M7.92139 93C8.04581 93 9.02904 93.0386 10.6167 93.0781L30.6167 93.5469C32.2028 93.5864 33.7963 93.6171 35.3823 93.5859L55.3823 93.1953C57.1907 93.1595 59.186 93.4329 60.9683 94.4062L62.687 95.6172L67.8823 100.383L73.1167 105.109C75.2943 107.095 76.0275 109.799 76.1636 112.219L76.7495 122.219L77.2964 132.219C77.3942 133.96 77.4335 135.711 77.4526 137.453L77.687 157.453C77.7062 159.211 77.6928 160.969 77.6089 162.727L77.1011 172.727L76.6323 182.727C76.5521 184.402 76.451 186.09 76.3589 187.766L75.2651 207.766C75.127 210.279 74.2771 213.101 71.7886 215.031L66.1245 219.445L60.4604 223.82C58.285 225.5 55.6843 225.938 53.312 225.852L33.312 225.148C31.5691 225.085 29.8412 224.979 28.1558 224.836L8.93701 223.195C7.3095 223.057 5.25008 222.45 3.7417 220.656C2.26092 218.893 2.01714 216.798 2.10107 215.227L2.60889 205.227L3.15576 195.227C3.23596 193.721 3.25857 192.2 3.19482 190.695L2.33545 170.695C2.25567 168.794 2.29491 166.891 2.4917 164.992L4.60107 144.992C4.74984 143.561 4.76952 142.123 4.71826 140.695L4.01514 120.695C3.95671 119.087 3.8766 117.647 3.78076 116.398L2.53076 100.383C2.47919 99.7127 2.43268 99.1547 2.41357 98.7422C2.40491 98.5525 2.40941 98.2847 2.41357 98.0391C2.41511 97.9487 2.44446 97.671 2.4917 97.3359C2.50897 97.2145 2.54677 96.7202 2.76514 96.1641C2.871 95.896 3.15158 95.2983 3.70264 94.6797C4.31501 93.9944 5.58968 93 7.45264 93H7.92139ZM13.1167 107.609L13.7417 115.617C13.8503 117.028 13.9528 118.592 14.0151 120.305L14.7183 140.305C14.7872 142.203 14.7195 144.113 14.5229 146.008L13.5073 156.008L12.4526 166.008C12.3045 167.434 12.2752 168.882 12.3354 170.305L12.7651 180.305L13.1558 190.305C13.2324 192.126 13.253 193.953 13.1558 195.773L12.6089 205.773L12.1792 213.43L19.4058 214.055L29.0151 214.875C30.5295 215.004 32.0811 215.09 33.6636 215.148L43.6636 215.5L53.6636 215.891C54.126 215.908 54.3919 215.836 54.4839 215.812C54.5588 215.793 54.4985 215.828 54.3667 215.93L60.0308 211.516L65.2261 207.414C65.2321 207.359 65.3001 207.293 65.3042 207.219L66.3979 187.219C66.4887 185.566 66.5532 183.91 66.6323 182.258L67.1401 172.258L67.6089 162.258C67.6836 160.695 67.7039 159.133 67.687 157.57L67.4526 137.57C67.4351 135.979 67.3858 134.357 67.2964 132.766L66.2026 112.766C66.1875 112.509 66.1074 112.352 66.0854 112.258L61.1636 107.766L56.1636 103.195C56.0622 103.179 55.8849 103.191 55.6167 103.195L35.6167 103.586C33.8779 103.62 32.1211 103.59 30.3823 103.547L20.3823 103.312L12.7651 103.117L13.1167 107.609Z" fill="#0254D9"/>
<path d="M30.6948 127.234L39.6401 128.016L48.5854 128.836C50.2698 128.987 52.2198 129.632 53.6636 131.336C54.3497 132.147 54.7622 133.045 55.0308 133.914L55.4214 136.414L55.812 156.414C55.8452 158.094 55.8789 159.773 55.8901 161.453L55.9683 171.453L56.0073 181.453C56.0177 183.014 55.6961 184.956 54.3667 186.609C53.0006 188.306 51.1356 189.056 49.4839 189.305L31.0464 192.039C29.3807 192.288 27.0539 192.123 25.1479 190.359C23.3899 188.726 22.9383 186.584 22.8433 185.125L22.1401 174.539L21.4761 163.953C21.3508 162.019 21.3089 160.11 21.3979 158.25L21.8667 148.25L22.3745 138.25C22.447 136.736 22.5019 135.503 22.5698 134.969L22.7651 133.367L22.9995 131.766C23.3533 129.055 25.4558 127.924 26.1636 127.625C26.9706 127.288 27.7438 127.189 28.1167 127.156C28.9489 127.084 29.8793 127.161 30.6948 127.234ZM32.3354 138.758L31.3979 158.758C31.3286 160.22 31.3343 161.749 31.437 163.328L32.1401 173.914L32.6089 181.688L38.7808 180.789L45.9683 179.656V171.531L45.8901 161.531C45.8792 159.891 45.8444 158.25 45.812 156.609L45.6167 146.609L45.4214 138.562L38.7417 137.977L32.4136 137.391C32.3935 137.765 32.3606 138.233 32.3354 138.758Z" fill="#0254D9"/>
<path d="M46.1213 144.008L103.309 266.373L83.8614 273.914L26.6742 151.549L46.1213 144.008Z" fill="white"/>
<path d="M104.198 252.536C105.436 255.12 105.79 258.264 103.828 261.04L99.4389 267.298L94.9973 273.535C94.3346 274.472 92.6683 276.37 89.7228 276.333C86.8537 276.294 85.0607 274.43 84.3278 273.534L79.1097 267.156L73.9081 260.812C72.8079 259.468 71.8088 257.928 70.8775 256.261L61.0257 238.679C60.1196 237.055 59.3234 235.379 58.6043 233.682L54.6982 224.495L50.8284 215.294C50.231 213.884 49.5472 212.501 48.8404 211.133L39.6442 193.296C38.8061 191.675 38.0447 190.01 37.3652 188.328L33.6047 179.085L29.8806 169.827C29.0764 167.835 28.5934 165.731 28.7078 163.636L29.1045 156.292L29.5376 148.934C29.6445 147.054 30.413 143.736 34.0554 142.584L38.6309 141.144L43.1701 139.718L44.885 139.429C45.4892 139.413 46.127 139.491 46.7586 139.664C47.9492 139.993 48.8531 140.618 49.4957 141.194C50.6809 142.264 51.3858 143.612 51.8183 144.599L59.8492 162.888C60.4839 164.339 61.1299 165.794 61.8305 167.219L70.6625 185.197C71.4078 186.713 72.1608 188.245 72.8854 189.769L81.499 207.832C82.1795 209.263 82.8721 210.703 83.626 212.107L88.4062 220.954L93.15 229.816C93.9775 231.357 94.7938 232.918 95.5483 234.487L99.8551 243.519L104.198 252.536ZM90.5646 247.205L86.2579 238.174C85.5698 236.743 84.8492 235.318 84.0945 233.913L79.3142 225.065L74.5704 216.204C73.7404 214.658 72.9583 213.095 72.2085 211.518L63.595 193.456C62.8909 191.975 62.1623 190.498 61.4383 189.025L52.6062 171.047C51.8379 169.484 51.1224 167.882 50.4264 166.291L46.411 157.147L43.3184 150.069L42.2457 150.443L39.6865 151.227L39.3234 157.262L38.9267 164.606C38.9102 164.954 38.9913 165.609 39.4191 166.672L46.8672 185.186C47.4301 186.58 48.0919 187.948 48.7857 189.291L57.982 207.128C58.808 208.726 59.5663 210.364 60.2644 212.011L68.0767 230.385C68.6537 231.747 69.3069 233.086 70.0349 234.391L74.9244 243.196L79.8503 251.987C80.5542 253.248 81.247 254.269 81.8818 255.045L87.0834 261.388L89.1713 263.923L90.8406 261.603L94.7921 255.974L90.5646 247.205Z" fill="#0254D9"/>
<path d="M69.6596 263.123C69.2953 252.824 77.3489 244.18 87.6478 243.816L92.0576 243.66C102.356 243.295 111.001 251.349 111.365 261.648V261.648C111.729 271.947 103.676 280.591 93.3767 280.955L88.9669 281.111C78.6681 281.475 70.0239 273.422 69.6596 263.123V263.123Z" fill="white"/>
<path d="M90.3301 239.734C92.6176 240.333 95.2807 241.15 98.194 242.153C105.65 244.724 110.642 249.973 112.654 257.55C113.639 261.261 113.712 264.98 112.651 268.533C111.592 272.073 109.483 275.125 106.645 277.736C100.836 283.072 93.7915 284.966 86.0852 283.27C78.5562 281.608 72.7971 277.248 69.0594 270.466C67.1248 266.954 66.1818 263.216 66.5551 259.336C66.9281 255.481 68.5356 251.889 71.023 248.625C73.1767 245.8 75.2681 243.463 77.2309 241.8C78.9944 240.308 81.5797 238.567 84.6254 238.685L90.3301 239.734ZM83.6764 249.428C82.5051 250.421 80.934 252.108 78.9762 254.676C77.3572 256.8 76.6756 258.665 76.5163 260.274C76.3629 261.859 76.6843 263.635 77.8013 265.662C80.1673 269.951 83.5573 272.466 88.2412 273.501C92.7671 274.497 96.4935 273.518 99.8964 270.391C101.646 268.782 102.594 267.193 103.052 265.668C103.507 264.143 103.56 262.334 102.973 260.12C101.839 255.851 99.3271 253.126 94.9325 251.61C89.4057 249.707 86.1067 248.935 84.5913 248.77C84.4067 248.884 84.0975 249.072 83.6764 249.428Z" fill="#0254D9"/>
</svg>
