<svg width="138" height="353" viewBox="0 0 138 353" fill="none" xmlns="http://www.w3.org/2000/svg">
<path d="M8.76123 95C8.88566 95 9.86888 95.0386 11.4565 95.0781L31.4565 95.5469C33.0426 95.5864 34.6361 95.6171 36.2222 95.5859L56.2222 95.1953C58.0305 95.1595 60.0259 95.4329 61.8081 96.4062L63.5269 97.6172L68.7222 102.383L73.9565 107.109C76.1341 109.095 76.8673 111.799 77.0034 114.219L77.5894 124.219L78.1362 134.219C78.2341 135.96 78.2733 137.711 78.2925 139.453L78.5269 159.453C78.546 161.211 78.5326 162.969 78.4487 164.727L77.9409 174.727L77.4722 184.727C77.3919 186.402 77.2908 188.09 77.1987 189.766L76.105 209.766C75.9669 212.279 75.1169 215.101 72.6284 217.031L66.9644 221.445L61.3003 225.82C59.1248 227.5 56.5242 227.938 54.1519 227.852L34.1519 227.148C32.4089 227.085 30.681 226.979 28.9956 226.836L9.77686 225.195C8.14935 225.057 6.08992 224.45 4.58154 222.656C3.10076 220.893 2.85699 218.798 2.94092 217.227L3.44873 207.227L3.99561 197.227C4.07581 195.721 4.09842 194.2 4.03467 192.695L3.17529 172.695C3.09552 170.794 3.13475 168.891 3.33154 166.992L5.44092 146.992C5.58968 145.561 5.60937 144.123 5.55811 142.695L4.85498 122.695C4.79655 121.087 4.71645 119.647 4.62061 118.398L3.37061 102.383C3.31903 101.713 3.27252 101.155 3.25342 100.742C3.24476 100.553 3.24925 100.285 3.25342 100.039C3.25495 99.9487 3.2843 99.671 3.33154 99.3359C3.34881 99.2145 3.38662 98.7202 3.60498 98.1641C3.71084 97.896 3.99142 97.2983 4.54248 96.6797C5.15486 95.9944 6.42953 95 8.29248 95H8.76123ZM13.9565 109.609L14.5815 117.617C14.6901 119.028 14.7926 120.592 14.855 122.305L15.5581 142.305C15.6271 144.203 15.5594 146.113 15.3628 148.008L14.3472 158.008L13.2925 168.008C13.1443 169.434 13.115 170.882 13.1753 172.305L13.605 182.305L13.9956 192.305C14.0722 194.126 14.0929 195.953 13.9956 197.773L13.4487 207.773L13.019 215.43L20.2456 216.055L29.855 216.875C31.3694 217.004 32.9209 217.09 34.5034 217.148L44.5034 217.5L54.5034 217.891C54.9658 217.908 55.2317 217.836 55.3237 217.812C55.3986 217.793 55.3384 217.828 55.2065 217.93L60.8706 213.516L66.0659 209.414C66.0719 209.359 66.14 209.293 66.144 209.219L67.2378 189.219C67.3286 187.566 67.393 185.91 67.4722 184.258L67.98 174.258L68.4487 164.258C68.5235 162.695 68.5438 161.133 68.5269 159.57L68.2925 139.57C68.275 137.979 68.2256 136.357 68.1362 134.766L67.0425 114.766C67.0274 114.509 66.9472 114.352 66.9253 114.258L62.0034 109.766L57.0034 105.195C56.9021 105.179 56.7247 105.191 56.4565 105.195L36.4565 105.586C34.7177 105.62 32.961 105.59 31.2222 105.547L21.2222 105.312L13.605 105.117L13.9565 109.609Z" fill="#0254D9"/>
<path d="M31.5347 129.234L40.48 130.016L49.4253 130.836C51.1097 130.987 53.0596 131.632 54.5034 133.336C55.1896 134.147 55.602 135.045 55.8706 135.914L56.2612 138.414L56.6519 158.414C56.685 160.094 56.7187 161.773 56.73 163.453L56.8081 173.453L56.8472 183.453C56.8576 185.014 56.5359 186.956 55.2065 188.609C53.8404 190.306 51.9754 191.056 50.3237 191.305L31.8862 194.039C30.2206 194.288 27.8938 194.123 25.9878 192.359C24.2298 190.726 23.7782 188.584 23.6831 187.125L22.98 176.539L22.3159 165.953C22.1907 164.019 22.1487 162.11 22.2378 160.25L22.7065 150.25L23.2144 140.25C23.2869 138.736 23.3418 137.503 23.4097 136.969L23.605 135.367L23.8394 133.766C24.1931 131.055 26.2957 129.924 27.0034 129.625C27.8104 129.288 28.5836 129.189 28.9565 129.156C29.7888 129.084 30.7192 129.161 31.5347 129.234ZM33.1753 140.758L32.2378 160.758C32.1685 162.22 32.1742 163.749 32.2769 165.328L32.98 175.914L33.4487 183.688L39.6206 182.789L46.8081 181.656V173.531L46.73 163.531C46.719 161.891 46.6843 160.25 46.6519 158.609L46.4565 148.609L46.2612 140.562L39.5815 139.977L33.2534 139.391C33.2334 139.765 33.2004 140.233 33.1753 140.758Z" fill="#0254D9"/>
<path d="M31.9119 145.377L75.8125 177.362L74.9042 198.029L31.0036 166.044L31.9119 145.377Z" fill="white"/>
<path d="M32.0367 140.312C32.2031 140.432 33.0309 141.079 34.2432 142.001L50.3873 154.246C51.6674 155.22 52.954 156.189 54.2373 157.092L70.419 168.479C71.6033 169.312 73.0674 170.627 74.3387 172.704C75.6895 174.911 76.3487 177.174 76.5673 179.08L77.6262 188.349L78.6868 197.58C78.8916 199.387 78.7562 201.822 77.1581 202.709C75.754 203.486 73.9956 202.58 72.9262 201.881L64.7866 196.554L56.6786 191.251C55.2637 190.324 53.8509 189.332 52.4411 188.325L36.2662 176.782C35.0127 175.886 33.527 174.463 32.2604 172.292C30.9563 170.054 30.3431 167.796 30.1282 165.946L28.9739 155.882L27.7881 145.795C27.6898 144.949 27.5995 144.249 27.5513 143.77C27.5286 143.545 27.5329 143.289 27.5173 143.061C27.511 142.969 27.4781 142.728 27.4781 142.469C27.4782 142.385 27.4807 141.991 27.5509 141.555C27.5793 141.381 27.6692 140.754 28 140.231C28.3227 139.724 29.4806 138.494 31.6894 140.059L32.0367 140.312ZM36.9594 159.526L37.8751 167.603L44.698 172.494L52.7854 178.265C54.0668 179.181 55.3571 180.072 56.644 180.916L64.7836 186.242L70.2012 189.746L69.6424 184.667L68.8434 177.641L62.0785 172.914L53.9877 167.22C52.5808 166.231 51.1622 165.166 49.7588 164.099L41.6868 157.976L36.2966 153.847L36.9594 159.526Z" fill="#0254D9"/>
<path d="M64.4989 192.123C64.1347 181.824 72.1882 173.18 82.4871 172.816L86.8969 172.66C97.1958 172.295 105.84 180.349 106.204 190.648V190.648C106.569 200.947 98.515 209.591 88.2161 209.955L83.8063 210.111C73.5074 210.475 64.8632 202.422 64.4989 192.123V192.123Z" fill="white"/>
<path d="M85.1695 168.734C87.4569 169.333 90.1201 170.15 93.0333 171.153C100.489 173.724 105.481 178.973 107.493 186.55C108.478 190.261 108.551 193.98 107.49 197.533C106.432 201.073 104.322 204.125 101.484 206.736C95.6754 212.072 88.6309 213.966 80.9245 212.27C73.3956 210.608 67.6364 206.248 63.8988 199.466C61.9641 195.954 61.0211 192.216 61.3944 188.336C61.7675 184.481 63.3749 180.889 65.8623 177.625C68.0161 174.8 70.1075 172.463 72.0702 170.8C73.8338 169.308 76.4191 167.567 79.4648 167.685L85.1695 168.734ZM78.5158 178.428C77.3445 179.421 75.7734 181.108 73.8155 183.676C72.1965 185.8 71.5149 187.665 71.3557 189.274C71.2023 190.859 71.5236 192.635 72.6407 194.662C75.0067 198.951 78.3967 201.466 83.0805 202.501C87.6065 203.497 91.3328 202.518 94.7357 199.391C96.4854 197.782 97.4335 196.193 97.891 194.668C98.3461 193.143 98.3996 191.334 97.8121 189.12C96.6787 184.851 94.1665 182.126 89.7718 180.61C84.2451 178.707 80.946 177.935 79.4306 177.77C79.246 177.884 78.9369 178.072 78.5158 178.428Z" fill="#0254D9"/>
</svg>
