<svg width="138" height="353" viewBox="0 0 138 353" fill="none" xmlns="http://www.w3.org/2000/svg">
<path d="M8.76123 97C8.88566 97 9.86888 97.0386 11.4565 97.0781L31.4565 97.5469C33.0426 97.5864 34.6361 97.6171 36.2222 97.5859L56.2222 97.1953C58.0305 97.1595 60.0259 97.4329 61.8081 98.4062L63.5269 99.6172L68.7222 104.383L73.9565 109.109C76.1341 111.095 76.8673 113.799 77.0034 116.219L77.5894 126.219L78.1362 136.219C78.2341 137.96 78.2733 139.711 78.2925 141.453L78.5269 161.453C78.546 163.211 78.5326 164.969 78.4487 166.727L77.9409 176.727L77.4722 186.727C77.3919 188.402 77.2908 190.09 77.1987 191.766L76.105 211.766C75.9669 214.279 75.1169 217.101 72.6284 219.031L66.9644 223.445L61.3003 227.82C59.1248 229.5 56.5242 229.938 54.1519 229.852L34.1519 229.148C32.4089 229.085 30.681 228.979 28.9956 228.836L9.77686 227.195C8.14935 227.057 6.08992 226.45 4.58154 224.656C3.10076 222.893 2.85699 220.798 2.94092 219.227L3.44873 209.227L3.99561 199.227C4.07581 197.721 4.09842 196.2 4.03467 194.695L3.17529 174.695C3.09552 172.794 3.13475 170.891 3.33154 168.992L5.44092 148.992C5.58968 147.561 5.60937 146.123 5.55811 144.695L4.85498 124.695C4.79655 123.087 4.71645 121.647 4.62061 120.398L3.37061 104.383C3.31903 103.713 3.27252 103.155 3.25342 102.742C3.24476 102.553 3.24925 102.285 3.25342 102.039C3.25495 101.949 3.2843 101.671 3.33154 101.336C3.34881 101.214 3.38662 100.72 3.60498 100.164C3.71084 99.896 3.99142 99.2983 4.54248 98.6797C5.15486 97.9944 6.42953 97 8.29248 97H8.76123ZM13.9565 111.609L14.5815 119.617C14.6901 121.028 14.7926 122.592 14.855 124.305L15.5581 144.305C15.6271 146.203 15.5594 148.113 15.3628 150.008L14.3472 160.008L13.2925 170.008C13.1443 171.434 13.115 172.882 13.1753 174.305L13.605 184.305L13.9956 194.305C14.0722 196.126 14.0929 197.953 13.9956 199.773L13.4487 209.773L13.019 217.43L20.2456 218.055L29.855 218.875C31.3694 219.004 32.9209 219.09 34.5034 219.148L44.5034 219.5L54.5034 219.891C54.9658 219.908 55.2317 219.836 55.3237 219.812C55.3986 219.793 55.3384 219.828 55.2065 219.93L60.8706 215.516L66.0659 211.414C66.0719 211.359 66.14 211.293 66.144 211.219L67.2378 191.219C67.3286 189.566 67.393 187.91 67.4722 186.258L67.98 176.258L68.4487 166.258C68.5235 164.695 68.5438 163.133 68.5269 161.57L68.2925 141.57C68.275 139.979 68.2256 138.357 68.1362 136.766L67.0425 116.766C67.0274 116.509 66.9472 116.352 66.9253 116.258L62.0034 111.766L57.0034 107.195C56.9021 107.179 56.7247 107.191 56.4565 107.195L36.4565 107.586C34.7177 107.62 32.961 107.59 31.2222 107.547L21.2222 107.312L13.605 107.117L13.9565 111.609Z" fill="#0254D9"/>
<path d="M31.5347 131.234L40.48 132.016L49.4253 132.836C51.1097 132.987 53.0596 133.632 54.5034 135.336C55.1896 136.147 55.602 137.045 55.8706 137.914L56.2612 140.414L56.6519 160.414C56.685 162.094 56.7187 163.773 56.73 165.453L56.8081 175.453L56.8472 185.453C56.8576 187.014 56.5359 188.956 55.2065 190.609C53.8404 192.306 51.9754 193.056 50.3237 193.305L31.8862 196.039C30.2206 196.288 27.8938 196.123 25.9878 194.359C24.2298 192.726 23.7782 190.584 23.6831 189.125L22.98 178.539L22.3159 167.953C22.1907 166.019 22.1487 164.11 22.2378 162.25L22.7065 152.25L23.2144 142.25C23.2869 140.736 23.3418 139.503 23.4097 138.969L23.605 137.367L23.8394 135.766C24.1931 133.055 26.2957 131.924 27.0034 131.625C27.8104 131.288 28.5836 131.189 28.9565 131.156C29.7888 131.084 30.7192 131.161 31.5347 131.234ZM33.1753 142.758L32.2378 162.758C32.1685 164.22 32.1742 165.749 32.2769 167.328L32.98 177.914L33.4487 185.688L39.6206 184.789L46.8081 183.656V175.531L46.73 165.531C46.719 163.891 46.6843 162.25 46.6519 160.609L46.4565 150.609L46.2612 142.562L39.5815 141.977L33.2534 141.391C33.2334 141.765 33.2004 142.233 33.1753 142.758Z" fill="#0254D9"/>
<path d="M30.8394 163.02L66.1953 40L87.3394 46.0768L51.9834 169.097L30.8394 163.02Z" fill="white"/>
<path d="M59.2472 41.1245C59.7431 40.3337 60.403 39.5633 61.2949 38.9493C62.1955 38.3296 63.1629 38.0158 64.0921 37.8429L66.759 37.7559L85.7816 40.2966C87.3007 40.5014 89.6423 41.2297 91.0134 43.5886C92.3178 45.8413 91.8976 48.1704 91.4602 49.529L88.2954 59.2681L85.1789 68.9805C84.7077 70.4355 84.3096 71.8975 84.0024 73.357L81.916 83.1622L79.8671 92.9781C79.4857 94.7897 78.9852 96.5738 78.41 98.3308L72.2099 117.358C71.7316 118.82 71.3019 120.295 70.9367 121.789L66.1632 141.226C65.7303 142.997 65.2493 144.758 64.6526 146.482L58.0771 165.402C57.5823 166.831 56.6999 168.442 55.0873 169.583C53.4045 170.77 51.4911 171.05 49.8001 170.867L41.0448 169.936L32.3003 168.968C31.5573 168.887 30.9009 168.826 30.4495 168.761C30.2457 168.731 29.9756 168.687 29.7146 168.631C29.619 168.61 29.2949 168.541 28.9262 168.404C28.7902 168.354 28.2928 168.139 27.736 167.737C27.5884 167.63 24.866 165.711 25.8397 162.315L26.0123 161.714C26.0494 161.585 26.3548 160.662 26.8319 159.145L32.8068 140.053C33.2828 138.539 33.7525 137.016 34.1607 135.483L39.3096 116.154C39.7434 114.523 40.1821 112.876 40.6372 111.251L46.0114 91.9864C46.4388 90.461 46.863 88.9213 47.2151 87.3738L49.4141 77.601L51.6507 67.839C52.0374 66.1403 52.4467 64.4317 52.9088 62.7543L55.5959 53.1218L58.2455 43.4785L59.2472 41.1245ZM65.2285 55.8089L62.5414 65.4414C62.1203 66.9707 61.7277 68.5155 61.3752 70.0648L59.1761 79.8376L56.9396 89.5996C56.5517 91.3035 56.1146 92.9931 55.6439 94.6735L50.2697 113.939C49.8275 115.517 49.4069 117.106 48.9853 118.691L43.8363 138.02C43.3891 139.701 42.8748 141.381 42.353 143.04L39.3655 152.586L37.1925 159.44L42.1227 159.963L49.0915 160.747L51.905 152.654L55.1927 143.194C55.6857 141.769 56.1241 140.314 56.4819 138.85L58.8311 129.121L61.2179 119.402C61.642 117.668 62.1412 115.955 62.6961 114.258L65.7961 104.745L68.9337 95.2415C69.396 93.8294 69.7926 92.3604 70.0995 90.9025L74.1972 71.2706C74.5767 69.4709 75.0805 67.6912 75.6543 65.9179L78.7815 56.1681L80.8359 49.7271L74.9188 48.9613L67.3601 47.9676L65.2285 55.8089Z" fill="#0254D9"/>
<path d="M58.4989 31.1229C58.1347 20.8241 66.1882 12.1798 76.4871 11.8156L80.8969 11.6596C91.1958 11.2953 99.84 19.3489 100.204 29.6478V29.6478C100.569 39.9466 92.515 48.5908 82.2161 48.9551L77.8063 49.1111C67.5074 49.4754 58.8632 41.4218 58.4989 31.1229V31.1229Z" fill="white"/>
<path d="M79.1695 7.73382C81.4569 8.33286 84.1201 9.14991 87.0333 10.1527C94.4892 12.7244 99.4813 17.9728 101.493 25.5496C102.478 29.2613 102.551 32.9796 101.49 36.5331C100.432 40.0725 98.3223 43.1253 95.4839 45.7356C89.6754 51.0718 82.6309 52.9662 74.9245 51.2705C67.3956 49.6083 61.6364 45.2478 57.8988 38.4659C55.9641 34.9539 55.0211 31.2157 55.3944 27.3365C55.7675 23.4811 57.3749 19.8889 59.8623 16.625C62.0161 13.7996 64.1075 11.4629 66.0702 9.79972C67.8338 8.30764 70.4191 6.56694 73.4648 6.68482L79.1695 7.73382ZM72.5158 17.4282C71.3445 18.4207 69.7734 20.1078 67.8155 22.6758C66.1965 24.7997 65.5149 26.6651 65.3557 28.274C65.2023 29.8593 65.5236 31.6349 66.6407 33.6617C69.0067 37.9512 72.3967 40.4664 77.0805 41.5006C81.6065 42.4966 85.3328 41.5176 88.7357 38.3914C90.4854 36.7816 91.4335 35.193 91.891 33.6675C92.3461 32.1427 92.3996 30.3343 91.8121 28.12C90.6787 23.8512 88.1665 21.1257 83.7718 19.6098C78.2451 17.7075 74.946 16.9354 73.4306 16.7705C73.246 16.8837 72.9369 17.0716 72.5158 17.4282Z" fill="#0254D9"/>
</svg>
