<svg width="218" height="92" viewBox="0 0 218 92" fill="none" xmlns="http://www.w3.org/2000/svg">
<path d="M7 7H211.664V85H7V7Z" fill="white" fill-opacity="0.87"/>
<path d="M134.734 0.398438L144.734 0.867188L154.734 1.375C156.412 1.45534 158.096 1.51718 159.773 1.60938L179.773 2.70312C181.228 2.78305 182.693 2.76962 184.148 2.66406L194.148 1.96094L204.148 1.21875L206.609 1.375C207.476 1.54782 208.371 1.87031 209.227 2.42969C211.046 3.62279 211.979 5.40482 212.352 7.07812L214.227 15.5938L216.141 24.1094C216.526 25.8514 216.727 27.7033 216.805 29.6172L217.195 39.6172L217.625 49.6172C217.698 51.434 217.682 53.2694 217.586 55.0859L216.492 75.0859C216.342 77.9012 215.15 81.047 211.883 82.6641L205.086 86.0234L198.25 89.4219C196.036 90.5164 193.607 90.7166 191.297 90.4766L181.297 89.4609L171.297 88.4062C169.866 88.2582 168.428 88.1981 167 88.25L157 88.6406L147 88.9922C145.378 89.0512 143.739 89.1267 142.117 89.2266L122.117 90.4766C120.338 90.5857 118.545 90.6111 116.766 90.5938L106.766 90.5156L96.7656 90.3984C95.2195 90.3836 93.6639 90.4231 92.1172 90.5156L82.1172 91.1016L72.1172 91.7266C70.2685 91.8368 68.4192 91.8251 66.5703 91.7266L56.5703 91.2188L46.5703 90.6719C44.8807 90.5815 43.1817 90.4734 41.4922 90.3594L31.4922 89.6953L21.4922 88.9922C19.2131 88.8384 16.6815 88.21 14.6953 86.375L9.69531 81.7656L4.73438 77.1562C2.583 75.1637 1.89477 72.4376 1.76562 70.0859L0.671875 50.0859L0.515625 44.8125L0.554688 34.8125V20.8281L0.476562 8.5625C0.472915 8.01654 0.468342 7.43211 0.515625 6.92188C0.53527 6.71085 0.592925 6.20823 0.75 5.67188C0.822326 5.4268 1.04389 4.83496 1.49219 4.1875C1.92831 3.55807 3.25304 2 5.63281 2H6.84375C7.02796 2 8.01891 2.03834 9.61719 2.07812L29.6172 2.54688C31.2033 2.58636 32.7968 2.61706 34.3828 2.58594L54.3828 2.19531C56.0694 2.16193 57.7743 2.12847 59.4609 2.11719L79.4609 1.96094C81.0451 1.95036 82.642 1.93276 84.2266 1.84375L94.2266 1.25781L104.227 0.710938C105.966 0.613322 107.721 0.534778 109.461 0.515625L119.461 0.4375L129.461 0.320312C131.219 0.30127 132.977 0.314383 134.734 0.398438ZM119.539 10.4375L109.539 10.5156C107.953 10.5333 106.36 10.5828 104.773 10.6719L94.7734 11.2578L84.7734 11.8047C83.0287 11.9026 81.2841 11.9492 79.5391 11.9609L59.5391 12.1172C57.9002 12.1281 56.2561 12.163 54.6172 12.1953L34.6172 12.5859C32.8784 12.6204 31.1216 12.5901 29.3828 12.5469L19.3828 12.3125L10.4766 12.0781L10.5156 14.6172L10.5547 20.75V34.8516L10.5156 44.8516C10.512 46.4137 10.5473 47.9765 10.6328 49.5391L11.7266 69.5391L11.8047 70.0469L16.4922 74.4219L21.2969 78.875C21.3977 78.9106 21.6685 78.9977 22.1562 79.0312L32.1562 79.6953L42.1562 80.3984C43.794 80.5089 45.4404 80.5842 47.0781 80.6719L67.0781 81.7656C68.5564 81.8447 70.0528 81.815 71.5312 81.7266L91.5312 80.5547C93.313 80.4482 95.1004 80.381 96.8828 80.3984L106.883 80.5156L116.883 80.5938C118.428 80.6087 119.985 80.5718 121.531 80.4766L131.531 79.8516L141.531 79.2656C143.237 79.1607 144.943 79.0541 146.648 78.9922L166.648 78.2891C168.549 78.2201 170.455 78.2872 172.352 78.4844L182.352 79.5L192.352 80.5547C193.322 80.6545 193.712 80.4764 193.797 80.4375L200.633 77.0781L206.531 74.1094L207.039 64.5781L207.586 54.5781C207.666 53.0705 207.685 51.5542 207.625 50.0469L207.234 40.0469L206.805 30.0469C206.748 28.6396 206.615 27.3859 206.375 26.2969L204.461 17.7812L203.016 11.3359L194.852 11.9219L184.852 12.6641C182.977 12.7996 181.102 12.8061 179.227 12.7031L159.227 11.6094C157.573 11.5185 155.919 11.4151 154.266 11.3359L134.266 10.3984C132.697 10.3233 131.108 10.303 129.539 10.3203L119.539 10.4375Z" fill="black"/>
<path d="M29.9062 68V62.375H38.1875C39.2708 62.375 40.1042 62.0521 40.6875 61.4062C41.2708 60.7604 41.5625 59.8438 41.5625 58.6562V31.9062C41.5625 30.7188 41.2708 29.8021 40.6875 29.1562C40.1042 28.5104 39.2708 28.1875 38.1875 28.1875H29.9062V22.5625H38C41.0417 22.5625 43.3854 23.3854 45.0312 25.0312C46.6771 26.6771 47.5 29.0208 47.5 32.0625V58.5C47.5 60.5208 47.125 62.2396 46.375 63.6562C45.625 65.0729 44.5417 66.1562 43.125 66.9062C41.7083 67.6354 39.9896 68 37.9688 68H29.9062ZM26.125 68V22.5625H32.0625V68H26.125ZM62.8125 68.4688C59.8542 68.4688 57.5521 67.6458 55.9062 66C54.2604 64.3542 53.4375 62.0417 53.4375 59.0625V44.25C53.4375 41.2917 54.2604 39.0104 55.9062 37.4062C57.5521 35.8021 59.8542 35 62.8125 35C65.7708 35 68.0521 35.8021 69.6562 37.4062C71.2604 39.0104 72.0625 41.2917 72.0625 44.25V59.1562C72.0625 62.1146 71.2604 64.4062 69.6562 66.0312C68.0521 67.6562 65.7708 68.4688 62.8125 68.4688ZM62.75 62.6875C63.8125 62.6875 64.6354 62.3646 65.2188 61.7188C65.8229 61.0521 66.125 60.1146 66.125 58.9062V44.5C66.125 43.3333 65.8229 42.4271 65.2188 41.7812C64.6354 41.1146 63.8125 40.7812 62.75 40.7812C61.7083 40.7812 60.8854 41.1146 60.2812 41.7812C59.6771 42.4271 59.375 43.3333 59.375 44.5V58.9062C59.375 60.1146 59.6771 61.0521 60.2812 61.7188C60.8854 62.3646 61.7083 62.6875 62.75 62.6875ZM62.75 17.4688L70.7812 26.625L67.4375 29.7812L62.75 24.0938L58.0625 29.7812L54.7188 26.625L62.75 17.4688ZM101.438 68.4688C99.2083 68.4688 97.3021 68.0104 95.7188 67.0938C94.1562 66.1771 92.9583 64.8542 92.125 63.125C91.2917 61.3958 90.875 59.3021 90.875 56.8438V33.75C90.875 31.2708 91.2917 29.1667 92.125 27.4375C92.9583 25.7083 94.1562 24.3854 95.7188 23.4688C97.3021 22.5521 99.2083 22.0938 101.438 22.0938C103.688 22.0938 105.594 22.5521 107.156 23.4688C108.74 24.3854 109.938 25.7083 110.75 27.4375C111.583 29.1667 112 31.2604 112 33.7188V35.6562H106V33.7188C106 32.4688 105.823 31.4167 105.469 30.5625C105.115 29.6875 104.594 29.0208 103.906 28.5625C103.24 28.1042 102.417 27.875 101.438 27.875C100 27.875 98.875 28.3854 98.0625 29.4062C97.2708 30.4271 96.875 31.875 96.875 33.75V56.8438C96.875 58.6979 97.2708 60.1354 98.0625 61.1562C98.875 62.1771 100 62.6875 101.438 62.6875C102.896 62.6875 104.021 62.1771 104.812 61.1562C105.604 60.1354 106 58.6979 106 56.8438V54.9062H112V56.8438C112 59.3021 111.583 61.3958 110.75 63.125C109.938 64.8542 108.74 66.1771 107.156 67.0938C105.594 68.0104 103.688 68.4688 101.438 68.4688ZM117.938 68V22.5625H123.875V68H117.938ZM131.812 68V45.4688C131.812 43.8021 131.479 42.5625 130.812 41.75C130.167 40.9375 129.177 40.5312 127.844 40.5312C126.51 40.5312 125.51 40.9583 124.844 41.8125C124.198 42.6458 123.875 43.9167 123.875 45.625L123.219 41.0312C123.969 38.9688 124.99 37.4479 126.281 36.4688C127.573 35.4896 129.031 35 130.656 35C132.948 35 134.698 35.75 135.906 37.25C137.135 38.75 137.75 40.9167 137.75 43.75V68H131.812ZM157.875 68V35.5625H163.812V68H157.875ZM150.562 35.5625V59.125C150.562 60.2917 150.875 61.1771 151.5 61.7812C152.125 62.3854 153.042 62.6875 154.25 62.6875C155.479 62.6875 156.385 62.375 156.969 61.75C157.573 61.125 157.875 60.2083 157.875 59L158.312 63C157.729 64.8333 156.906 66.2083 155.844 67.125C154.781 68.0208 153.458 68.4688 151.875 68.4688C149.479 68.4688 147.667 67.6979 146.438 66.1562C145.229 64.6146 144.625 62.3542 144.625 59.375V35.5625H150.562ZM151.188 80.8125V74.875H157.125V80.8125H151.188ZM170.688 81.1875V35.5625H176.625V81.1875H170.688ZM182.625 68.4688C181.104 68.4688 179.771 67.9896 178.625 67.0312C177.479 66.0521 176.667 64.6771 176.188 62.9062L176.625 57.875C176.625 58.9583 176.771 59.8854 177.062 60.6562C177.375 61.4271 177.812 62.0208 178.375 62.4375C178.958 62.8333 179.646 63.0312 180.438 63.0312C181.625 63.0312 182.552 62.5729 183.219 61.6562C183.906 60.7188 184.25 59.4167 184.25 57.75V45.5625C184.25 43.9583 183.906 42.7083 183.219 41.8125C182.552 40.8958 181.625 40.4375 180.438 40.4375C179.646 40.4375 178.958 40.6354 178.375 41.0312C177.812 41.4271 177.375 42 177.062 42.75C176.771 43.4792 176.625 44.375 176.625 45.4375L175.969 40.9375C176.656 39 177.615 37.5312 178.844 36.5312C180.094 35.5104 181.448 35 182.906 35C185.24 35 187.031 35.8958 188.281 37.6875C189.552 39.4792 190.188 42.0208 190.188 45.3125V57.9688C190.188 61.3021 189.531 63.8854 188.219 65.7188C186.906 67.5521 185.042 68.4688 182.625 68.4688Z" fill="black"/>
</svg>
