<svg width="281" height="350" viewBox="0 0 281 350" fill="none" xmlns="http://www.w3.org/2000/svg">
<path d="M66.0452 51.3157C66.2196 48.5597 64.1268 46.1843 61.3709 46.01C58.615 45.8356 56.2395 47.9284 56.0652 50.6843L61.0552 51L66.0452 51.3157ZM61.0489 51.0998L65.9722 51.9723L66.0212 51.6957L66.0389 51.4155L61.0489 51.0998ZM57.5512 70.8376L62.4745 71.71L57.5512 70.8376ZM57.1237 78.2527L62.0445 77.3663L57.1237 78.2527ZM58.9113 88.1756L53.9905 89.0621L58.9113 88.1756ZM60.6989 98.0985L65.6197 97.2121L60.6989 98.0985ZM61.5669 103.013L66.4938 102.161L61.5669 103.013ZM63.2515 112.75L58.3247 113.603L63.2515 112.75ZM64.9361 122.487L69.8629 121.635L64.9361 122.487ZM66.3135 127.215L70.9283 125.29L66.3135 127.215ZM70.1384 136.388L65.5235 138.312L70.1384 136.388ZM73.9633 145.561L78.5782 143.636L73.9633 145.561ZM75.9867 150.143L80.5186 148.031L75.9867 150.143ZM80.2554 159.302L75.7235 161.414L80.2554 159.302ZM84.5241 168.46L89.056 166.348L84.5241 168.46ZM85.7763 173.301L90.7632 172.94L85.7763 173.301ZM86.5162 183.508L81.5293 183.869L86.5162 183.508ZM87.2561 193.714L92.243 193.353L87.2561 193.714ZM86.5979 198.658L91.3134 200.32L86.5979 198.658ZM83.225 208.225L78.5095 206.563H78.5095L83.225 208.225ZM79.8522 217.792L84.5677 219.455L79.8522 217.792ZM77.9476 222.445L82.4737 224.569L77.9476 222.445ZM73.7024 231.487L69.1764 229.362L73.7024 231.487ZM69.4572 240.53L73.9833 242.654L69.4572 240.53ZM67.9235 245.181L72.8287 246.15L67.9235 245.181ZM66.034 254.742L61.1289 253.773V253.773L66.034 254.742ZM64.1444 264.304L69.0496 265.273L64.1444 264.304ZM64.5091 268.968L59.8169 270.695L64.5091 268.968ZM67.8572 278.062L72.5493 276.335L67.8572 278.062ZM71.2053 287.157L66.5132 288.884L71.2053 287.157ZM73.4007 291.137L69.4883 294.251L69.4883 294.251L73.4007 291.137ZM78.834 297.965L74.9216 301.079L74.9241 301.082L78.834 297.965ZM85.5704 306.417L89.7353 303.65L89.6154 303.47L89.4804 303.3L85.5704 306.417ZM81.4609 309.267C82.9888 311.567 86.0921 312.193 88.3923 310.665C90.6925 309.137 91.3186 306.034 89.7906 303.733L85.6258 306.5L81.4609 309.267ZM20.6459 19.511L15.6459 19.5092L20.6459 19.511ZM20.6423 29.5198L25.6423 29.5216V29.5215L20.6423 29.5198ZM20.4561 34.5153L25.4424 34.8859V34.8859L20.4561 34.5153ZM19.7148 44.4886L14.7286 44.118L19.7148 44.4886ZM18.9735 54.4619L23.9597 54.8326L18.9735 54.4619ZM18.5627 59.4409L23.5422 59.8926L18.5627 59.4409ZM17.6608 69.3836L12.6813 68.9319L17.6608 69.3836ZM16.759 79.3262L21.7385 79.7779L16.759 79.3262ZM16.3447 84.3065L21.3305 84.6838L16.3447 84.3065ZM15.5895 94.2847L10.6037 93.9073L15.5895 94.2847ZM14.8342 104.263L19.8199 104.64L14.8342 104.263ZM14.3373 109.237L19.2991 109.854L19.2991 109.854L14.3373 109.237ZM13.1047 119.157L8.1429 118.541L13.1047 119.157ZM11.8722 129.077L16.8341 129.693V129.693L11.8722 129.077ZM11.2911 134.038L16.2611 134.585L11.2911 134.038ZM10.1993 143.963L5.22926 143.416H5.22926L10.1993 143.963ZM9.10741 153.888L14.0774 154.435H14.0774L9.10741 153.888ZM8.52383 158.863L13.4855 159.481L8.52383 158.863ZM7.28135 168.836L2.3197 168.218L7.28135 168.836ZM6.03887 178.81L11.0005 179.428L6.03887 178.81ZM6.10588 183.781L1.16297 184.534L6.10588 183.781ZM7.61643 193.691L12.5593 192.938L7.61643 193.691ZM9.12697 203.602L4.18406 204.355L9.12697 203.602ZM10.1035 208.497L5.25015 209.699H5.25015L10.1035 208.497ZM12.4988 218.166L17.3521 216.964L12.4988 218.166ZM14.8942 227.836L10.0409 229.038H10.0409L14.8942 227.836ZM16.1241 232.673L11.286 233.934H11.286L16.1241 232.673ZM18.648 242.349L23.4862 241.087L18.648 242.349ZM21.172 252.025L16.3339 253.287H16.3339L21.172 252.025ZM21.7119 256.959L26.7086 257.14L21.7119 256.959ZM21.3473 267.018L16.3506 266.837L21.3473 267.018ZM20.9827 277.077L25.9794 277.258L20.9827 277.077ZM20.2198 282.003L25.0364 283.345H25.0364L20.2198 282.003ZM17.5327 291.65L12.7161 290.308H12.7161L17.5327 291.65ZM14.8456 301.297L19.6623 302.639H19.6623L14.8456 301.297ZM13.5732 306.132L18.4263 307.335H18.4263L13.5732 306.132ZM11.1704 315.826L6.31728 314.623H6.31728L11.1704 315.826ZM8.76767 325.52L13.6208 326.723H13.6208L8.76767 325.52ZM9.31175 329.659L5.15241 332.434H5.15242L9.31175 329.659ZM13.8908 336.523L18.0501 333.748H18.0501L13.8908 336.523ZM18.4698 343.386L14.3105 346.161H14.3105L18.4698 343.386ZM22.11 344.733L22.8413 349.68H22.8413L22.11 344.733ZM32.0919 343.258L31.3606 338.311H31.3606L32.0919 343.258ZM42.0737 341.782L42.8049 346.728H42.8049L42.0737 341.782ZM47.0261 341.046L47.765 345.991H47.765L47.0261 341.046ZM56.8538 339.577L56.1149 334.632H56.1149L56.8538 339.577ZM66.6816 338.109L67.4205 343.054H67.4205L66.6816 338.109ZM71.5794 337.122L72.8103 341.968H72.8104L71.5794 337.122ZM81.3432 334.642L80.1123 329.796H80.1123L81.3432 334.642ZM91.107 332.162L92.338 337.008H92.338L91.107 332.162ZM96.0246 331.207L96.6934 336.162H96.6934L96.0246 331.207ZM105.931 329.87L105.262 324.915H105.262L105.931 329.87ZM115.838 328.533L116.507 333.488H116.507L115.838 328.533ZM120.785 327.779L121.622 332.709H121.622L120.785 327.779ZM130.668 326.101L129.831 321.171L130.668 326.101ZM140.55 324.422L141.388 329.352H141.388L140.55 324.422ZM145.349 323.695L146.004 328.652H146.004L145.349 323.695ZM154.662 322.465L154.007 317.508H154.007L154.662 322.465ZM163.974 321.235L164.629 326.191L163.974 321.235ZM168.633 321.856L166.782 326.501L168.633 321.856ZM177.957 325.574L179.809 320.929L177.957 325.574ZM187.282 329.291L185.43 333.936L187.282 329.291ZM192.085 330.696L191.141 335.606H191.141L192.085 330.696ZM201.975 332.598L202.919 327.688L201.975 332.598ZM211.865 334.499L210.921 339.409H210.921L211.865 334.499ZM216.71 335.829L215.016 340.534L216.71 335.829ZM226.202 339.248L227.897 334.544L226.202 339.248ZM235.695 342.666L234 347.371H234L235.695 342.666ZM240.585 343.577L240.473 348.576L240.585 343.577ZM250.655 343.803L250.767 338.805L250.655 343.803ZM260.724 344.029L260.612 349.028H260.612L260.724 344.029ZM264.445 342.65L268.277 345.861L268.277 345.861L264.445 342.65ZM269.258 336.905L265.425 333.694L269.258 336.905ZM274.071 331.16L277.904 334.371L274.071 331.16ZM275.223 327.224L280.222 327.121L275.223 327.224ZM275.018 317.226L270.019 317.329L275.018 317.226ZM274.813 307.228L279.812 307.125V307.125L274.813 307.228ZM274.348 302.238L279.28 301.418L274.348 302.238ZM272.693 292.275L267.76 293.094V293.094L272.693 292.275ZM271.038 282.312L275.97 281.493L271.038 282.312ZM270.619 277.321L275.619 277.31L270.619 277.321ZM270.596 267.319L265.596 267.33V267.33L270.596 267.319ZM270.573 257.316L275.573 257.305L270.573 257.316ZM270.789 252.309L275.77 252.751V252.751L270.789 252.309ZM271.677 242.285L266.697 241.844V241.844L271.677 242.285ZM272.565 232.26L277.546 232.702L272.565 232.26ZM272.574 227.259L277.556 226.833L272.574 227.259ZM271.721 217.276L266.74 217.702V217.702L271.721 217.276ZM270.869 207.294L275.851 206.869L270.869 207.294ZM270.568 202.3L275.565 202.126V202.126L270.568 202.3ZM270.22 192.306L265.223 192.48L270.22 192.306ZM269.871 182.311L274.868 182.137V182.137L269.871 182.311ZM269.623 177.316L274.612 176.992L269.623 177.316ZM268.976 167.328L263.986 167.652L268.976 167.328ZM268.329 157.341L273.318 157.018V157.018L268.329 157.341ZM268.168 152.344L273.168 152.345V152.345L268.168 152.344ZM268.17 142.341L263.17 142.339V142.34L268.17 142.341ZM268.172 132.338L273.172 132.339V132.339L268.172 132.338ZM268.139 127.337L273.138 127.269V127.268L268.139 127.337ZM268.002 117.337L263.002 117.406L268.002 117.337ZM267.865 107.338L272.864 107.269V107.269L267.865 107.338ZM267.801 102.338L272.801 102.279V102.279L267.801 102.338ZM267.683 92.3377L262.683 92.3966L267.683 92.3377ZM267.565 82.3376L272.565 82.2787V82.2787L267.565 82.3376ZM267.422 77.3396L272.417 77.113V77.113L267.422 77.3396ZM266.969 67.3477L261.974 67.5743V67.5743L266.969 67.3477ZM266.516 57.3557L271.51 57.1291V57.1291L266.516 57.3557ZM266.47 52.3554L271.468 52.4904V52.4904L266.47 52.3554ZM266.74 42.3459L261.742 42.2109V42.2109L266.74 42.3459ZM267.011 32.3363L272.009 32.4713V32.4713L267.011 32.3363ZM266.737 27.514L271.684 26.7868V26.7868L266.737 27.514ZM265.373 18.234L260.426 18.9611V18.9611L265.373 18.234ZM264.009 8.95394L268.956 8.22679V8.22678L264.009 8.95394ZM261.168 6.66395L261.228 11.6636L261.168 6.66395ZM251.168 6.78399L251.108 1.78435L251.168 6.78399ZM241.168 6.90402L241.228 11.9037L241.168 6.90402ZM236.168 6.74325L236.548 1.75775L236.168 6.74325ZM226.168 5.98012L225.787 10.9656L226.168 5.98012ZM216.168 5.217L216.548 0.231495L216.168 5.217ZM211.168 5.31065L211.733 10.2786V10.2786L211.168 5.31065ZM201.168 6.44836L200.603 1.48041L201.168 6.44836ZM191.168 7.58608L191.733 12.554L191.168 7.58608ZM186.168 7.71343L186.481 2.72327L186.168 7.71343ZM176.168 7.08514L175.854 12.0753L176.168 7.08514ZM166.168 6.45686L166.481 1.46669L166.168 6.45686ZM161.168 6.1847L161.398 1.18999L161.168 6.1847ZM151.168 5.72438L150.938 10.7191L151.168 5.72438ZM141.168 5.26406L141.398 0.269348L141.168 5.26406ZM136.168 5.374L136.616 10.3539L136.168 5.374ZM126.168 6.27408L125.72 1.29421L126.168 6.27408ZM116.168 7.17415L116.616 12.154V12.154L116.168 7.17415ZM111.168 7.37167L111.223 2.37197L111.168 7.37167ZM101.168 7.26165L101.113 12.2614L101.168 7.26165ZM91.1678 7.15164L91.2229 2.15194L91.1678 7.15164ZM86.1679 7.22102L86.3615 12.2173L86.1679 7.22102ZM76.1679 7.60857L75.9742 2.61232L76.1679 7.60857ZM66.1679 7.99613L66.3615 12.9924L66.1679 7.99613ZM61.1679 8.08119L61.1442 13.0811L61.1679 8.08119ZM51.1679 8.03389L51.1915 3.03395L51.1679 8.03389ZM41.1679 7.9866L41.1442 12.9865L41.1679 7.9866ZM36.8661 7.85235L37.2051 2.86385L36.8661 7.85235ZM29.6591 7.36264L29.3201 12.3511L29.6591 7.36264ZM22.4521 6.87294L22.791 1.88444L22.4521 6.87294ZM20.6503 6.77547L25.6503 6.77548V6.77542L20.6503 6.77547ZM20.6503 6.87526L15.6503 6.87525V6.87527L20.6503 6.87526ZM20.6503 6.97505L25.6503 6.97509V6.97504L20.6503 6.97505ZM20.6494 9.5022L25.6494 9.50397V9.50397L20.6494 9.5022ZM61.0552 51L56.0652 50.6843L56.0589 50.7841L61.0489 51.0998L66.0389 51.4155L66.0452 51.3157L61.0552 51ZM61.0489 51.0998L56.1256 50.2273L52.6279 69.9651L57.5512 70.8376L62.4745 71.71L65.9722 51.9723L61.0489 51.0998ZM57.5512 70.8376L52.6279 69.9651C52.0231 73.3783 51.7411 76.5757 52.2029 79.1392L57.1237 78.2527L62.0445 77.3663C61.9104 76.6222 61.9134 74.8761 62.4745 71.71L57.5512 70.8376ZM57.1237 78.2527L52.2029 79.1392L53.9905 89.0621L58.9113 88.1756L63.8321 87.2892L62.0445 77.3663L57.1237 78.2527ZM58.9113 88.1756L53.9905 89.0621L55.7781 98.985L60.6989 98.0985L65.6197 97.2121L63.8321 87.2892L58.9113 88.1756ZM60.6989 98.0985L55.7781 98.985C56.074 100.628 56.3614 102.255 56.6401 103.866L61.5669 103.013L66.4938 102.161C66.211 100.527 65.9196 98.877 65.6197 97.2121L60.6989 98.0985ZM61.5669 103.013L56.6401 103.866L58.3247 113.603L63.2515 112.75L68.1783 111.898L66.4938 102.161L61.5669 103.013ZM63.2515 112.75L58.3247 113.603L60.0093 123.339L64.9361 122.487L69.8629 121.635L68.1783 111.898L63.2515 112.75ZM64.9361 122.487L60.0093 123.339C60.3541 125.332 60.9183 127.267 61.6986 129.139L66.3135 127.215L70.9283 125.29C70.4337 124.104 70.0797 122.888 69.8629 121.635L64.9361 122.487ZM66.3135 127.215L61.6986 129.139L65.5235 138.312L70.1384 136.388L74.7533 134.463L70.9283 125.29L66.3135 127.215ZM70.1384 136.388L65.5235 138.312L69.3484 147.485L73.9633 145.561L78.5782 143.636L74.7533 134.463L70.1384 136.388ZM73.9633 145.561L69.3484 147.485C70.0127 149.078 70.7149 150.668 71.4548 152.256L75.9867 150.143L80.5186 148.031C79.8356 146.566 79.1889 145.101 78.5782 143.636L73.9633 145.561ZM75.9867 150.143L71.4548 152.256L75.7235 161.414L80.2554 159.302L84.7873 157.189L80.5186 148.031L75.9867 150.143ZM80.2554 159.302L75.7235 161.414L79.9922 170.572L84.5241 168.46L89.056 166.348L84.7873 157.189L80.2554 159.302ZM84.5241 168.46L79.9922 170.572C80.4435 171.54 80.7094 172.56 80.7894 173.663L85.7763 173.301L90.7632 172.94C90.5965 170.64 90.0277 168.432 89.056 166.348L84.5241 168.46ZM85.7763 173.301L80.7894 173.663L81.5293 183.869L86.5162 183.508L91.5031 183.146L90.7632 172.94L85.7763 173.301ZM86.5162 183.508L81.5293 183.869L82.2692 194.076L87.2561 193.714L92.243 193.353L91.5031 183.146L86.5162 183.508ZM87.2561 193.714L82.2692 194.076C82.3432 195.097 82.2137 196.055 81.8824 196.995L86.5979 198.658L91.3134 200.32C92.1064 198.071 92.4157 195.734 92.243 193.353L87.2561 193.714ZM86.5979 198.658L81.8824 196.995L78.5095 206.563L83.225 208.225L87.9406 209.887L91.3134 200.32L86.5979 198.658ZM83.225 208.225L78.5095 206.563L75.1366 216.13L79.8522 217.792L84.5677 219.455L87.9406 209.887L83.225 208.225ZM79.8522 217.792L75.1366 216.13C74.629 217.57 74.0572 218.966 73.4216 220.32L77.9476 222.445L82.4737 224.569C83.2531 222.909 83.951 221.204 84.5677 219.455L79.8522 217.792ZM77.9476 222.445L73.4216 220.32L69.1764 229.362L73.7024 231.487L78.2285 233.612L82.4737 224.569L77.9476 222.445ZM73.7024 231.487L69.1764 229.362L64.9312 238.405L69.4572 240.53L73.9833 242.654L78.2285 233.612L73.7024 231.487ZM69.4572 240.53L64.9312 238.405C64.0551 240.271 63.4142 242.209 63.0184 244.211L67.9235 245.181L72.8287 246.15C73.0628 244.965 73.4443 243.802 73.9833 242.654L69.4572 240.53ZM67.9235 245.181L63.0184 244.211L61.1289 253.773L66.034 254.742L70.9391 255.712L72.8287 246.15L67.9235 245.181ZM66.034 254.742L61.1289 253.773L59.2393 263.334L64.1444 264.304L69.0496 265.273L70.9391 255.712L66.034 254.742ZM64.1444 264.304L59.2393 263.334C58.7473 265.824 58.9396 268.312 59.8169 270.695L64.5091 268.968L69.2012 267.24C68.9625 266.592 68.9117 265.971 69.0496 265.273L64.1444 264.304ZM64.5091 268.968L59.8169 270.695L63.1651 279.79L67.8572 278.062L72.5493 276.335L69.2012 267.24L64.5091 268.968ZM67.8572 278.062L63.1651 279.79L66.5132 288.884L71.2053 287.157L75.8974 285.429L72.5493 276.335L67.8572 278.062ZM71.2053 287.157L66.5132 288.884C67.2353 290.846 68.216 292.652 69.4883 294.251L73.4007 291.137L77.3131 288.024C76.7743 287.347 76.2914 286.499 75.8974 285.429L71.2053 287.157ZM73.4007 291.137L69.4883 294.251L74.9216 301.079L78.834 297.965L82.7465 294.852L77.3131 288.024L73.4007 291.137ZM78.834 297.965L74.9241 301.082L81.6605 309.533L85.5704 306.417L89.4804 303.3L82.744 294.849L78.834 297.965ZM85.5704 306.417L81.4056 309.183L81.4609 309.267L85.6258 306.5L89.7906 303.733L89.7353 303.65L85.5704 306.417ZM20.6459 19.511L15.6459 19.5092L15.6423 29.518L20.6423 29.5198L25.6423 29.5215L25.6459 19.5128L20.6459 19.511ZM20.6423 29.5198L15.6423 29.518C15.6418 31.0632 15.5843 32.6053 15.4699 34.1447L20.4561 34.5153L25.4424 34.8859C25.575 33.1009 25.6417 31.3127 25.6423 29.5216L20.6423 29.5198ZM20.4561 34.5153L15.4699 34.1447L14.7286 44.118L19.7148 44.4886L24.701 44.8592L25.4424 34.8859L20.4561 34.5153ZM19.7148 44.4886L14.7286 44.118L13.9872 54.0913L18.9735 54.4619L23.9597 54.8326L24.701 44.8592L19.7148 44.4886ZM18.9735 54.4619L13.9872 54.0913C13.8657 55.7265 13.731 57.3592 13.5831 58.9893L18.5627 59.4409L23.5422 59.8926C23.695 58.2085 23.8342 56.5218 23.9597 54.8326L18.9735 54.4619ZM18.5627 59.4409L13.5831 58.9893L12.6813 68.9319L17.6608 69.3836L22.6404 69.8353L23.5422 59.8926L18.5627 59.4409ZM17.6608 69.3836L12.6813 68.9319L11.7794 78.8746L16.759 79.3262L21.7385 79.7779L22.6404 69.8353L17.6608 69.3836ZM16.759 79.3262L11.7794 78.8746C11.6269 80.5565 11.4867 82.2413 11.359 83.9291L16.3447 84.3065L21.3305 84.6838C21.4545 83.0455 21.5905 81.4102 21.7385 79.7779L16.759 79.3262ZM16.3447 84.3065L11.359 83.9291L10.6037 93.9073L15.5895 94.2847L20.5752 94.6621L21.3305 84.6838L16.3447 84.3065ZM15.5895 94.2847L10.6037 93.9073L9.84847 103.886L14.8342 104.263L19.8199 104.64L20.5752 94.6621L15.5895 94.2847ZM14.8342 104.263L9.84847 103.886C9.72864 105.469 9.57095 107.047 9.37542 108.621L14.3373 109.237L19.2991 109.854C19.5144 108.121 19.688 106.383 19.8199 104.64L14.8342 104.263ZM14.3373 109.237L9.37542 108.621L8.1429 118.541L13.1047 119.157L18.0666 119.774L19.2991 109.854L14.3373 109.237ZM13.1047 119.157L8.1429 118.541L6.91038 128.46L11.8722 129.077L16.8341 129.693L18.0666 119.774L13.1047 119.157ZM11.8722 129.077L6.91038 128.46C6.70208 130.137 6.50566 131.814 6.32112 133.491L11.2911 134.038L16.2611 134.585C16.4406 132.954 16.6315 131.324 16.8341 129.693L11.8722 129.077ZM11.2911 134.038L6.32112 133.491L5.22926 143.416L10.1993 143.963L15.1693 144.51L16.2611 134.585L11.2911 134.038ZM10.1993 143.963L5.22926 143.416L4.1374 153.341L9.10741 153.888L14.0774 154.435L15.1693 144.51L10.1993 143.963ZM9.10741 153.888L4.1374 153.341C3.95806 154.971 3.76632 156.606 3.56218 158.244L8.52383 158.863L13.4855 159.481C13.6955 157.795 13.8928 156.113 14.0774 154.435L9.10741 153.888ZM8.52383 158.863L3.56218 158.244L2.3197 168.218L7.28135 168.836L12.243 169.454L13.4855 159.481L8.52383 158.863ZM7.28135 168.836L2.3197 168.218L1.07722 178.192L6.03887 178.81L11.0005 179.428L12.243 169.454L7.28135 168.836ZM6.03887 178.81L1.07722 178.192C0.813498 180.309 0.84181 182.427 1.16297 184.534L6.10588 183.781L11.0488 183.028C10.8664 181.831 10.8501 180.636 11.0005 179.428L6.03887 178.81ZM6.10588 183.781L1.16297 184.534L2.67352 194.445L7.61643 193.691L12.5593 192.938L11.0488 183.028L6.10588 183.781ZM7.61643 193.691L2.67352 194.445L4.18406 204.355L9.12697 203.602L14.0699 202.848L12.5593 192.938L7.61643 193.691ZM9.12697 203.602L4.18406 204.355C4.45867 206.157 4.81398 207.938 5.25015 209.699L10.1035 208.497L14.9568 207.294C14.5945 205.832 14.2988 204.35 14.0699 202.848L9.12697 203.602ZM10.1035 208.497L5.25015 209.699L7.64554 219.369L12.4988 218.166L17.3521 216.964L14.9568 207.294L10.1035 208.497ZM12.4988 218.166L7.64554 219.369L10.0409 229.038L14.8942 227.836L19.7475 226.634L17.3521 216.964L12.4988 218.166ZM14.8942 227.836L10.0409 229.038C10.4451 230.67 10.8601 232.302 11.286 233.934L16.1241 232.673L20.9622 231.411C20.5467 229.818 20.1418 228.225 19.7475 226.634L14.8942 227.836ZM16.1241 232.673L11.286 233.934L13.8099 243.611L18.648 242.349L23.4862 241.087L20.9622 231.411L16.1241 232.673ZM18.648 242.349L13.8099 243.611L16.3339 253.287L21.172 252.025L26.0101 250.763L23.4862 241.087L18.648 242.349ZM21.172 252.025L16.3339 253.287C16.631 254.426 16.7584 255.584 16.7151 256.778L21.7119 256.959L26.7086 257.14C26.7868 254.98 26.5544 252.85 26.0101 250.763L21.172 252.025ZM21.7119 256.959L16.7151 256.778L16.3506 266.837L21.3473 267.018L26.344 267.199L26.7086 257.14L21.7119 256.959ZM21.3473 267.018L16.3506 266.837L15.986 276.896L20.9827 277.077L25.9794 277.258L26.344 267.199L21.3473 267.018ZM20.9827 277.077L15.986 276.896C15.9394 278.181 15.7451 279.434 15.4032 280.661L20.2198 282.003L25.0364 283.345C25.5902 281.357 25.9045 279.325 25.9794 277.258L20.9827 277.077ZM20.2198 282.003L15.4032 280.661L12.7161 290.308L17.5327 291.65L22.3494 292.992L25.0364 283.345L20.2198 282.003ZM17.5327 291.65L12.7161 290.308L10.029 299.955L14.8456 301.297L19.6623 302.639L22.3494 292.992L17.5327 291.65ZM14.8456 301.297L10.029 299.955C9.56834 301.609 9.13201 303.267 8.72002 304.929L13.5732 306.132L18.4263 307.335C18.8152 305.766 19.2272 304.201 19.6623 302.639L14.8456 301.297ZM13.5732 306.132L8.72002 304.929L6.31728 314.623L11.1704 315.826L16.0236 317.029L18.4263 307.335L13.5732 306.132ZM11.1704 315.826L6.31728 314.623L3.91453 324.317L8.76767 325.52L13.6208 326.723L16.0236 317.029L11.1704 315.826ZM8.76767 325.52L3.91453 324.317C3.25296 326.986 3.44736 329.878 5.15241 332.434L9.31175 329.659L13.4711 326.884C13.489 326.911 13.5119 326.953 13.5312 327.004C13.5505 327.056 13.5582 327.096 13.5607 327.115C13.5657 327.153 13.5421 327.04 13.6208 326.723L8.76767 325.52ZM9.31175 329.659L5.15242 332.434L9.73145 339.298L13.8908 336.523L18.0501 333.748L13.4711 326.884L9.31175 329.659ZM13.8908 336.523L9.73145 339.298L14.3105 346.161L18.4698 343.386L22.6291 340.612L18.0501 333.748L13.8908 336.523ZM18.4698 343.386L14.3105 346.161C15.2387 347.553 16.5565 348.656 18.2171 349.27C19.8125 349.861 21.4206 349.89 22.8413 349.68L22.11 344.733L21.3788 339.787C21.1358 339.823 21.3054 339.751 21.6874 339.892C21.8815 339.964 22.0817 340.074 22.2641 340.221C22.444 340.366 22.5615 340.51 22.6291 340.612L18.4698 343.386ZM22.11 344.733L22.8413 349.68L32.8231 348.204L32.0919 343.258L31.3606 338.311L21.3788 339.787L22.11 344.733ZM32.0919 343.258L32.8231 348.204L42.8049 346.728L42.0737 341.782L41.3424 336.836L31.3606 338.311L32.0919 343.258ZM42.0737 341.782L42.8049 346.728C44.4711 346.482 46.1244 346.236 47.765 345.991L47.0261 341.046L46.2871 336.101C44.6518 336.345 43.0035 336.59 41.3424 336.836L42.0737 341.782ZM47.0261 341.046L47.765 345.991L57.5928 344.523L56.8538 339.577L56.1149 334.632L46.2871 336.101L47.0261 341.046ZM56.8538 339.577L57.5928 344.523L67.4205 343.054L66.6816 338.109L65.9426 333.164L56.1149 334.632L56.8538 339.577ZM66.6816 338.109L67.4205 343.054C69.2263 342.784 71.0231 342.422 72.8103 341.968L71.5794 337.122L70.3485 332.276C68.8812 332.648 67.4127 332.944 65.9426 333.164L66.6816 338.109ZM71.5794 337.122L72.8104 341.968L82.5742 339.488L81.3432 334.642L80.1123 329.796L70.3485 332.276L71.5794 337.122ZM81.3432 334.642L82.5742 339.488L92.338 337.008L91.107 332.162L89.8761 327.316L80.1123 329.796L81.3432 334.642ZM91.107 332.162L92.338 337.008C93.7816 336.641 95.2331 336.36 96.6934 336.162L96.0246 331.207L95.3559 326.252C93.514 326.501 91.6871 326.856 89.8761 327.316L91.107 332.162ZM96.0246 331.207L96.6934 336.162L106.6 334.825L105.931 329.87L105.262 324.915L95.3559 326.252L96.0246 331.207ZM105.931 329.87L106.6 334.825L116.507 333.488L115.838 328.533L115.169 323.578L105.262 324.915L105.931 329.87ZM115.838 328.533L116.507 333.488C118.214 333.258 119.919 332.998 121.622 332.709L120.785 327.779L119.948 322.85C118.357 323.12 116.764 323.363 115.169 323.578L115.838 328.533ZM120.785 327.779L121.622 332.709L131.505 331.03L130.668 326.101L129.831 321.171L119.948 322.85L120.785 327.779ZM130.668 326.101L131.505 331.03L141.388 329.352L140.55 324.422L139.713 319.493L129.831 321.171L130.668 326.101ZM140.55 324.422L141.388 329.352C142.978 329.082 144.517 328.849 146.004 328.652L145.349 323.695L144.694 318.738C143.077 318.952 141.417 319.204 139.713 319.493L140.55 324.422ZM145.349 323.695L146.004 328.652L155.317 327.422L154.662 322.465L154.007 317.508L144.694 318.738L145.349 323.695ZM154.662 322.465L155.317 327.422L164.629 326.191L163.974 321.235L163.319 316.278L154.007 317.508L154.662 322.465ZM163.974 321.235L164.629 326.191C165.274 326.106 165.966 326.176 166.782 326.501L168.633 321.856L170.485 317.212C168.192 316.298 165.778 315.953 163.319 316.278L163.974 321.235ZM168.633 321.856L166.782 326.501L176.106 330.218L177.957 325.574L179.809 320.929L170.485 317.212L168.633 321.856ZM177.957 325.574L176.106 330.218L185.43 333.936L187.282 329.291L189.133 324.647L179.809 320.929L177.957 325.574ZM187.282 329.291L185.43 333.936C187.278 334.673 189.183 335.23 191.141 335.606L192.085 330.696L193.029 325.786C191.69 325.528 190.393 325.149 189.133 324.647L187.282 329.291ZM192.085 330.696L191.141 335.606L201.031 337.508L201.975 332.598L202.919 327.688L193.029 325.786L192.085 330.696ZM201.975 332.598L201.031 337.508L210.921 339.409L211.865 334.499L212.809 329.589L202.919 327.688L201.975 332.598ZM211.865 334.499L210.921 339.409C212.313 339.677 213.678 340.052 215.016 340.534L216.71 335.829L218.404 331.125C216.578 330.468 214.713 329.955 212.809 329.589L211.865 334.499ZM216.71 335.829L215.016 340.534L224.508 343.952L226.202 339.248L227.897 334.544L218.404 331.125L216.71 335.829ZM226.202 339.248L224.508 343.952L234 347.371L235.695 342.666L237.389 337.962L227.897 334.544L226.202 339.248ZM235.695 342.666L234 347.371C236.09 348.123 238.254 348.526 240.473 348.576L240.585 343.577L240.697 338.579C239.56 338.553 238.464 338.349 237.389 337.962L235.695 342.666ZM240.585 343.577L240.473 348.576L250.542 348.802L250.655 343.803L250.767 338.805L240.697 338.579L240.585 343.577ZM250.655 343.803L250.542 348.802L260.612 349.028L260.724 344.029L260.836 339.031L250.767 338.805L250.655 343.803ZM260.724 344.029L260.612 349.028C263.25 349.087 266.19 348.352 268.277 345.861L264.445 342.65L260.612 339.439C260.696 339.338 260.798 339.245 260.91 339.167C261.021 339.09 261.116 339.046 261.174 339.025C261.282 338.985 261.207 339.039 260.836 339.031L260.724 344.029ZM264.445 342.65L268.277 345.861L273.091 340.116L269.258 336.905L265.425 333.694L260.612 339.439L264.445 342.65ZM269.258 336.905L273.091 340.116L277.904 334.371L274.071 331.16L270.239 327.949L265.425 333.694L269.258 336.905ZM274.071 331.16L277.904 334.371C279.711 332.214 280.273 329.588 280.222 327.121L275.223 327.224L270.224 327.326C270.233 327.758 270.184 327.98 270.162 328.053C270.146 328.11 270.156 328.047 270.239 327.949L274.071 331.16ZM275.223 327.224L280.222 327.121L280.017 317.123L275.018 317.226L270.019 317.329L270.224 327.326L275.223 327.224ZM275.018 317.226L280.017 317.123L279.812 307.125L274.813 307.228L269.814 307.331L270.019 317.329L275.018 317.226ZM274.813 307.228L279.812 307.125C279.773 305.216 279.595 303.314 279.28 301.418L274.348 302.238L269.415 303.057C269.652 304.483 269.785 305.907 269.814 307.331L274.813 307.228ZM274.348 302.238L279.28 301.418L277.625 291.456L272.693 292.275L267.76 293.094L269.415 303.057L274.348 302.238ZM272.693 292.275L277.625 291.456L275.97 281.493L271.038 282.312L266.106 283.132L267.76 293.094L272.693 292.275ZM271.038 282.312L275.97 281.493C275.739 280.097 275.622 278.703 275.619 277.31L270.619 277.321L265.619 277.332C265.623 279.273 265.786 281.207 266.106 283.132L271.038 282.312ZM270.619 277.321L275.619 277.31L275.596 267.307L270.596 267.319L265.596 267.33L265.619 277.332L270.619 277.321ZM270.596 267.319L275.596 267.307L275.573 257.305L270.573 257.316L265.573 257.328L265.596 267.33L270.596 267.319ZM270.573 257.316L275.573 257.305C275.569 255.79 275.635 254.272 275.77 252.751L270.789 252.309L265.809 251.868C265.647 253.689 265.569 255.509 265.573 257.328L270.573 257.316ZM270.789 252.309L275.77 252.751L276.658 242.726L271.677 242.285L266.697 241.844L265.809 251.868L270.789 252.309ZM271.677 242.285L276.658 242.726L277.546 232.702L272.565 232.26L267.585 231.819L266.697 241.844L271.677 242.285ZM272.565 232.26L277.546 232.702C277.719 230.744 277.723 228.787 277.556 226.833L272.574 227.259L267.592 227.684C267.71 229.058 267.707 230.435 267.585 231.819L272.565 232.26ZM272.574 227.259L277.556 226.833L276.703 216.851L271.721 217.276L266.74 217.702L267.592 227.684L272.574 227.259ZM271.721 217.276L276.703 216.851L275.851 206.869L270.869 207.294L265.887 207.72L266.74 217.702L271.721 217.276ZM270.869 207.294L275.851 206.869C275.716 205.288 275.621 203.708 275.565 202.126L270.568 202.3L265.571 202.474C265.632 204.224 265.738 205.973 265.887 207.72L270.869 207.294ZM270.568 202.3L275.565 202.126L275.217 192.131L270.22 192.306L265.223 192.48L265.571 202.474L270.568 202.3ZM270.22 192.306L275.217 192.131L274.868 182.137L269.871 182.311L264.874 182.485L265.223 192.48L270.22 192.306ZM269.871 182.311L274.868 182.137C274.809 180.421 274.723 178.707 274.612 176.992L269.623 177.316L264.633 177.639C264.738 179.254 264.818 180.869 264.874 182.485L269.871 182.311ZM269.623 177.316L274.612 176.992L273.965 167.005L268.976 167.328L263.986 167.652L264.633 177.639L269.623 177.316ZM268.976 167.328L273.965 167.005L273.318 157.018L268.329 157.341L263.339 157.664L263.986 167.652L268.976 167.328ZM268.329 157.341L273.318 157.018C273.217 155.461 273.167 153.904 273.168 152.345L268.168 152.344L263.168 152.342C263.167 154.118 263.224 155.892 263.339 157.664L268.329 157.341ZM268.168 152.344L273.168 152.345L273.17 142.342L268.17 142.341L263.17 142.34L263.168 152.343L268.168 152.344ZM268.17 142.341L273.17 142.342L273.172 132.339L268.172 132.338L263.172 132.336L263.17 142.339L268.17 142.341ZM268.172 132.338L273.172 132.339C273.173 130.648 273.161 128.958 273.138 127.269L268.139 127.337L263.139 127.405C263.161 129.049 263.173 130.693 263.172 132.337L268.172 132.338ZM268.139 127.337L273.138 127.268L273.001 117.269L268.002 117.337L263.002 117.406L263.139 127.405L268.139 127.337ZM268.002 117.337L273.001 117.269L272.864 107.269L267.865 107.338L262.865 107.406L263.002 117.406L268.002 117.337ZM267.865 107.338L272.864 107.269C272.841 105.606 272.82 103.942 272.801 102.279L267.801 102.338L262.801 102.397C262.821 104.067 262.842 105.736 262.865 107.406L267.865 107.338ZM267.801 102.338L272.801 102.279L272.683 92.2788L267.683 92.3377L262.683 92.3966L262.801 102.397L267.801 102.338ZM267.683 92.3377L272.683 92.2788L272.565 82.2787L267.565 82.3376L262.566 82.3965L262.683 92.3966L267.683 92.3377ZM267.565 82.3376L272.565 82.2787C272.545 80.5561 272.495 78.8342 272.417 77.113L267.422 77.3396L262.428 77.5663C262.501 79.1757 262.547 80.7858 262.566 82.3965L267.565 82.3376ZM267.422 77.3396L272.417 77.113L271.964 67.121L266.969 67.3477L261.974 67.5743L262.428 77.5663L267.422 77.3396ZM266.969 67.3477L271.964 67.121L271.51 57.1291L266.516 57.3557L261.521 57.5824L261.974 67.5743L266.969 67.3477ZM266.516 57.3557L271.51 57.1291C271.44 55.5844 271.426 54.0382 271.468 52.4904L266.47 52.3554L261.472 52.2204C261.423 54.0091 261.44 55.7965 261.521 57.5824L266.516 57.3557ZM266.47 52.3554L271.468 52.4904L271.738 42.4809L266.74 42.3459L261.742 42.2109L261.472 52.2204L266.47 52.3554ZM266.74 42.3459L271.738 42.4809L272.009 32.4713L267.011 32.3363L262.012 32.2013L261.742 42.2109L266.74 42.3459ZM267.011 32.3363L272.009 32.4713C272.061 30.534 271.956 28.6373 271.684 26.7868L266.737 27.514L261.79 28.2411C261.973 29.484 262.05 30.8022 262.012 32.2014L267.011 32.3363ZM266.737 27.514L271.684 26.7868L270.32 17.5068L265.373 18.234L260.426 18.9611L261.79 28.2411L266.737 27.514ZM265.373 18.234L270.32 17.5068L268.956 8.22679L264.009 8.95394L259.062 9.6811L260.426 18.9611L265.373 18.234ZM264.009 8.95394L268.956 8.22678C268.713 6.57548 267.975 4.70582 266.266 3.3286C264.602 1.98762 262.675 1.6455 261.108 1.66431L261.168 6.66395L261.228 11.6636C261.327 11.6624 260.707 11.6919 259.99 11.1143C259.229 10.5004 259.077 9.78574 259.062 9.68111L264.009 8.95394ZM261.168 6.66395L261.108 1.66431L251.108 1.78435L251.168 6.78399L251.228 11.7836L261.228 11.6636L261.168 6.66395ZM251.168 6.78399L251.108 1.78435L241.108 1.90438L241.168 6.90402L241.228 11.9037L251.228 11.7836L251.168 6.78399ZM241.168 6.90402L241.108 1.90438C239.589 1.92262 238.069 1.87378 236.548 1.75775L236.168 6.74325L235.787 11.7288C237.6 11.8671 239.414 11.9254 241.228 11.9037L241.168 6.90402ZM236.168 6.74325L236.548 1.75775L226.548 0.99462L226.168 5.98012L225.787 10.9656L235.787 11.7288L236.168 6.74325ZM226.168 5.98012L226.548 0.99462L216.548 0.231495L216.168 5.217L215.787 10.2025L225.787 10.9656L226.168 5.98012ZM216.168 5.217L216.548 0.231495C214.565 0.0801783 212.582 0.117484 210.603 0.342696L211.168 5.31065L211.733 10.2786C213.087 10.1246 214.437 10.0994 215.787 10.2025L216.168 5.217ZM211.168 5.31065L210.603 0.342695L200.603 1.48041L201.168 6.44836L201.733 11.4163L211.733 10.2786L211.168 5.31065ZM201.168 6.44836L200.603 1.48041L190.603 2.61812L191.168 7.58608L191.733 12.554L201.733 11.4163L201.168 6.44836ZM191.168 7.58608L190.603 2.61812C189.226 2.77471 187.854 2.8095 186.481 2.72327L186.168 7.71343L185.854 12.7036C187.815 12.8268 189.776 12.7767 191.733 12.554L191.168 7.58608ZM186.168 7.71343L186.481 2.72327L176.481 2.09498L176.168 7.08514L175.854 12.0753L185.854 12.7036L186.168 7.71343ZM176.168 7.08514L176.481 2.09498L166.481 1.46669L166.168 6.45686L165.854 11.447L175.854 12.0753L176.168 7.08514ZM166.168 6.45686L166.481 1.46669C164.787 1.36023 163.092 1.268 161.398 1.18999L161.168 6.1847L160.938 11.1794C162.577 11.2548 164.215 11.344 165.854 11.447L166.168 6.45686ZM161.168 6.1847L161.398 1.18999L151.398 0.72967L151.168 5.72438L150.938 10.7191L160.938 11.1794L161.168 6.1847ZM151.168 5.72438L151.398 0.72967L141.398 0.269348L141.168 5.26406L140.938 10.2588L150.938 10.7191L151.168 5.72438ZM141.168 5.26406L141.398 0.269348C139.504 0.182188 137.611 0.223885 135.72 0.39413L136.168 5.374L136.616 10.3539C138.058 10.2241 139.498 10.1925 140.938 10.2588L141.168 5.26406ZM136.168 5.374L135.72 0.39413L125.72 1.29421L126.168 6.27408L126.616 11.2539L136.616 10.3539L136.168 5.374ZM126.168 6.27408L125.72 1.29421L115.72 2.19429L116.168 7.17415L116.616 12.154L126.616 11.2539L126.168 6.27408ZM116.168 7.17415L115.72 2.19429C114.22 2.3293 112.721 2.38845 111.223 2.37197L111.168 7.37167L111.113 12.3714C112.948 12.3916 114.783 12.319 116.616 12.154L116.168 7.17415ZM111.168 7.37167L111.223 2.37197L101.223 2.26196L101.168 7.26165L101.113 12.2614L111.113 12.3714L111.168 7.37167ZM101.168 7.26165L101.223 2.26196L91.2229 2.15194L91.1678 7.15164L91.1128 12.1513L101.113 12.2614L101.168 7.26165ZM91.1678 7.15164L91.2229 2.15194C89.4732 2.13269 87.7237 2.15697 85.9742 2.22477L86.1679 7.22102L86.3615 12.2173C87.9454 12.1559 89.5291 12.1339 91.1128 12.1513L91.1678 7.15164ZM86.1679 7.22102L85.9742 2.22477L75.9742 2.61232L76.1679 7.60857L76.3615 12.6048L86.3615 12.2173L86.1679 7.22102ZM76.1679 7.60857L75.9742 2.61232L65.9742 2.99988L66.1679 7.99613L66.3615 12.9924L76.3615 12.6048L76.1679 7.60857ZM66.1679 7.99613L65.9742 2.99988C64.3799 3.06166 62.7857 3.08878 61.1915 3.08124L61.1679 8.08119L61.1442 13.0811C62.8834 13.0894 64.6225 13.0598 66.3615 12.9924L66.1679 7.99613ZM61.1679 8.08119L61.1915 3.08124L51.1915 3.03395L51.1679 8.03389L51.1442 13.0338L61.1442 13.0811L61.1679 8.08119ZM51.1679 8.03389L51.1915 3.03395L41.1915 2.98665L41.1679 7.9866L41.1442 12.9865L51.1442 13.0338L51.1679 8.03389ZM41.1679 7.9866L41.1915 2.98665C39.5934 2.97909 38.2701 2.93622 37.2051 2.86385L36.8661 7.85235L36.5271 12.8408C37.8644 12.9317 39.409 12.9783 41.1442 12.9865L41.1679 7.9866ZM36.8661 7.85235L37.2051 2.86385L29.998 2.37415L29.6591 7.36264L29.3201 12.3511L36.5271 12.8408L36.8661 7.85235ZM29.6591 7.36264L29.998 2.37415L22.791 1.88444L22.4521 6.87294L22.1131 11.8614L29.3201 12.3511L29.6591 7.36264ZM22.4521 6.87294L22.791 1.88444C22.1854 1.84329 21.7069 1.81284 21.3709 1.79466C21.2106 1.78599 21.0417 1.77782 20.8949 1.77394C20.8369 1.77241 20.6959 1.76893 20.5336 1.77363C20.4818 1.77513 20.2514 1.78106 19.9653 1.82105C19.8675 1.83471 19.4526 1.89109 18.9531 2.07156C18.7274 2.15311 18.1379 2.37918 17.5168 2.87875C16.8858 3.38639 15.6503 4.67429 15.6503 6.77551L20.6503 6.77547L25.6503 6.77542C25.6503 8.87612 24.4152 10.1635 23.7847 10.6707C23.1642 11.1698 22.5756 11.3954 22.3511 11.4765C21.8539 11.6562 21.4425 11.7118 21.3494 11.7248C21.0727 11.7635 20.8563 11.7685 20.8233 11.7694C20.749 11.7716 20.6943 11.7713 20.6739 11.7711C20.6491 11.7709 20.6335 11.7705 20.6309 11.7705C20.6267 11.7703 20.6404 11.7707 20.6796 11.7725C20.7165 11.7741 20.7662 11.7766 20.8306 11.7801C21.0952 11.7944 21.5176 11.821 22.1131 11.8614L22.4521 6.87294ZM20.6503 6.77547L15.6503 6.77546L15.6503 6.87525L20.6503 6.87526L25.6503 6.87527V6.77548L20.6503 6.77547ZM20.6503 6.87526L15.6503 6.87527L15.6503 6.97506L20.6503 6.97505L25.6503 6.97504V6.87525L20.6503 6.87526ZM20.6503 6.97505L15.6503 6.97501C15.6503 6.97472 15.6503 6.97528 15.6503 6.97767C15.6503 6.97971 15.6503 6.98258 15.6503 6.9863C15.6503 6.99374 15.6503 7.00441 15.6503 7.01834C15.6503 7.04619 15.6503 7.08695 15.6503 7.14063C15.6502 7.24799 15.6502 7.40697 15.6501 7.61756C15.6499 8.03874 15.6497 8.66636 15.6494 9.50043L20.6494 9.5022L25.6494 9.50397C25.65 7.83694 25.6503 6.99288 25.6503 6.97509L20.6503 6.97505ZM20.6494 9.5022L15.6494 9.50043L15.6459 19.5092L20.6459 19.511L25.6459 19.5128L25.6494 9.50397L20.6494 9.5022Z" fill="black"/>
<path d="M142.156 49.4586C142.962 46.8173 141.473 44.0231 138.832 43.2175C136.191 42.4119 133.397 43.9001 132.591 46.5414L137.374 48L142.156 49.4586ZM137.344 48.0957L141.936 50.0748L142.046 49.8199L142.127 49.5543L137.344 48.0957ZM129.714 65.797L134.306 67.7762L129.714 65.797ZM127.956 72.6215L132.946 72.3111L127.956 72.6215ZM128.553 82.2184L123.563 82.5287L128.553 82.2184ZM129.15 91.8152L134.14 91.5048L129.15 91.8152ZM130.139 96.5106L125.443 98.2279H125.443L130.139 96.5106ZM133.498 105.695L138.194 103.978L133.498 105.695ZM136.857 114.88L132.161 116.598H132.161L136.857 114.88ZM137.726 119.594L142.726 119.533L137.726 119.594ZM137.846 129.266L132.846 129.328L137.846 129.266ZM137.965 138.938L142.965 138.877V138.877L137.965 138.938ZM137.933 141.871L142.897 142.47L137.933 141.871ZM137.684 143.928L142.645 144.555L142.647 144.541L142.648 144.528L137.684 143.928ZM137.372 146.4L132.411 145.773L132.367 146.123L132.373 146.475L137.372 146.4ZM132.374 146.575C132.416 149.337 134.688 151.541 137.449 151.499C140.21 151.458 142.415 149.186 142.373 146.425L137.374 146.5L132.374 146.575ZM137.374 48L132.591 46.5414L132.562 46.637L137.344 48.0957L142.127 49.5543L142.156 49.4586L137.374 48ZM137.344 48.0957L132.753 46.1165L125.123 63.8178L129.714 65.797L134.306 67.7762L141.936 50.0748L137.344 48.0957ZM129.714 65.797L125.123 63.8178C123.792 66.9043 122.789 70.0946 122.966 72.9319L127.956 72.6215L132.946 72.3111C132.924 71.9495 133.093 70.5901 134.306 67.7762L129.714 65.797ZM127.956 72.6215L122.966 72.9319L123.563 82.5287L128.553 82.2184L133.543 81.908L132.946 72.3111L127.956 72.6215ZM128.553 82.2184L123.563 82.5287L124.16 92.1256L129.15 91.8152L134.14 91.5048L133.543 81.908L128.553 82.2184ZM129.15 91.8152L124.16 92.1256C124.289 94.214 124.721 96.2526 125.443 98.2279L130.139 96.5106L134.835 94.7933C134.437 93.707 134.209 92.6153 134.14 91.5048L129.15 91.8152ZM130.139 96.5106L125.443 98.2279L128.802 107.413L133.498 105.695L138.194 103.978L134.835 94.7933L130.139 96.5106ZM133.498 105.695L128.802 107.413L132.161 116.598L136.857 114.88L141.552 113.163L138.194 103.978L133.498 105.695ZM136.857 114.88L132.161 116.598C132.529 117.604 132.714 118.616 132.727 119.656L137.726 119.594L142.726 119.533C142.699 117.349 142.304 115.219 141.552 113.163L136.857 114.88ZM137.726 119.594L132.727 119.656L132.846 129.328L137.846 129.266L142.845 129.205L142.726 119.533L137.726 119.594ZM137.846 129.266L132.846 129.328L132.965 139L137.965 138.938L142.965 138.877L142.845 129.205L137.846 129.266ZM137.965 138.938L132.965 139C132.975 139.789 132.977 140.392 132.972 140.825C132.97 141.042 132.966 141.196 132.962 141.297C132.957 141.425 132.955 141.39 132.969 141.271L137.933 141.871L142.897 142.47C142.988 141.715 142.983 140.33 142.965 138.877L137.965 138.938ZM137.933 141.871L132.969 141.271L132.72 143.328L137.684 143.928L142.648 144.528L142.897 142.47L137.933 141.871ZM137.684 143.928L132.724 143.302L132.411 145.773L137.372 146.4L142.333 147.027L142.645 144.555L137.684 143.928ZM137.372 146.4L132.373 146.475L132.374 146.575L137.374 146.5L142.373 146.425L142.371 146.325L137.372 146.4Z" fill="black"/>
<path d="M183.145 70.5597C182.901 67.809 180.474 65.7763 177.724 66.0194C174.973 66.2626 172.94 68.6896 173.183 71.4403L178.164 71L183.145 70.5597ZM178.173 71.0996L183.163 70.7852L183.159 70.7222L183.153 70.6593L178.173 71.0996ZM179.424 90.9632L184.414 90.6488L179.424 90.9632ZM179.997 98.4184L184.97 97.9003L179.997 98.4184ZM181.034 108.376L176.061 108.894L181.034 108.376ZM182.072 118.333L187.045 117.815V117.815L182.072 118.333ZM182.185 123.324L187.177 123.615V123.615L182.185 123.324ZM181.603 133.333L176.611 133.042L181.603 133.333ZM181.021 143.341L186.012 143.631L181.021 143.341ZM180.081 148.201L184.82 149.796L180.081 148.201ZM176.906 157.632L172.167 156.037L176.906 157.632ZM173.731 167.064L178.47 168.659L173.731 167.064ZM171.729 171.646L176.122 174.033H176.122L171.729 171.646ZM166.895 180.542L162.502 178.154H162.502L166.895 180.542ZM162.062 189.437L166.455 191.824H166.455L162.062 189.437ZM161.021 194.177L156.032 194.509L161.021 194.177ZM161.691 204.239L166.68 203.907L161.691 204.239ZM162.361 214.3L157.372 214.633L162.361 214.3ZM163.153 219.21L158.315 220.473H158.315L163.153 219.21ZM165.652 228.788L170.49 227.526L165.652 228.788ZM168.151 238.366L163.313 239.628H163.313L168.151 238.366ZM169.602 243.12L164.883 244.772L164.883 244.772L169.602 243.12ZM172.905 252.56L177.625 250.908L172.905 252.56ZM176.209 262L171.489 263.651H171.489L176.209 262ZM178.051 266.655L173.48 268.68H173.48L178.051 266.655ZM182.119 275.835L186.69 273.81H186.69L182.119 275.835ZM186.186 285.015L181.615 287.041L186.186 285.015ZM187.816 288.416L183.442 290.839H183.442L187.816 288.416ZM190.265 292.837L194.639 290.413L190.265 292.837ZM192.715 297.258L188.342 299.681H188.342L192.715 297.258ZM193.395 298.327L195.759 302.732L195.76 302.732L193.395 298.327ZM193.666 298.182L196.03 302.587L196.584 302.29L197.047 301.865L193.666 298.182ZM193.963 297.909L198.517 295.845L195.668 289.557L190.581 294.226L193.963 297.909ZM189.45 300.064C190.589 302.579 193.552 303.694 196.067 302.554C198.583 301.415 199.698 298.452 198.558 295.936L194.004 298L189.45 300.064ZM178.164 71L173.183 71.4403L173.192 71.5399L178.173 71.0996L183.153 70.6593L183.145 70.5597L178.164 71ZM178.173 71.0996L173.183 71.414L174.434 91.2776L179.424 90.9632L184.414 90.6488L183.163 70.7852L178.173 71.0996ZM179.424 90.9632L174.434 91.2776C174.644 94.6038 174.84 97.1718 175.024 98.9366L179.997 98.4184L184.97 97.9003C184.808 96.346 184.622 93.9438 184.414 90.6488L179.424 90.9632ZM179.997 98.4184L175.024 98.9366L176.061 108.894L181.034 108.376L186.007 107.857L184.97 97.9003L179.997 98.4184ZM181.034 108.376L176.061 108.894L177.099 118.851L182.072 118.333L187.045 117.815L186.007 107.857L181.034 108.376ZM182.072 118.333L177.099 118.851C177.243 120.242 177.275 121.635 177.194 123.034L182.185 123.324L187.177 123.615C187.29 121.677 187.246 119.743 187.045 117.815L182.072 118.333ZM182.185 123.324L177.194 123.034L176.611 133.042L181.603 133.333L186.595 133.623L187.177 123.615L182.185 123.324ZM181.603 133.333L176.611 133.042L176.029 143.051L181.021 143.341L186.012 143.631L186.595 133.623L181.603 133.333ZM181.021 143.341L176.029 143.051C175.958 144.278 175.729 145.459 175.343 146.606L180.081 148.201L184.82 149.796C185.492 147.799 185.889 145.74 186.012 143.631L181.021 143.341ZM180.081 148.201L175.343 146.606L172.167 156.037L176.906 157.632L181.645 159.228L184.82 149.796L180.081 148.201ZM176.906 157.632L172.167 156.037L168.992 165.469L173.731 167.064L178.47 168.659L181.645 159.228L176.906 157.632ZM173.731 167.064L168.992 165.469C168.557 166.762 168.006 168.025 167.335 169.259L171.729 171.646L176.122 174.033C177.063 172.301 177.847 170.509 178.47 168.659L173.731 167.064ZM171.729 171.646L167.335 169.259L162.502 178.154L166.895 180.542L171.289 182.929L176.122 174.033L171.729 171.646ZM166.895 180.542L162.502 178.154L157.669 187.05L162.062 189.437L166.455 191.824L171.289 182.929L166.895 180.542ZM162.062 189.437L157.669 187.05C156.413 189.361 155.857 191.883 156.032 194.509L161.021 194.177L166.01 193.845C165.962 193.116 166.1 192.479 166.455 191.824L162.062 189.437ZM161.021 194.177L156.032 194.509L156.702 204.571L161.691 204.239L166.68 203.907L166.01 193.845L161.021 194.177ZM161.691 204.239L156.702 204.571L157.372 214.633L162.361 214.3L167.35 213.968L166.68 203.907L161.691 204.239ZM162.361 214.3L157.372 214.633C157.504 216.618 157.817 218.566 158.315 220.473L163.153 219.21L167.991 217.948C167.655 216.662 167.441 215.337 167.35 213.968L162.361 214.3ZM163.153 219.21L158.315 220.473L160.814 230.05L165.652 228.788L170.49 227.526L167.991 217.948L163.153 219.21ZM165.652 228.788L160.814 230.05L163.313 239.628L168.151 238.366L172.989 237.103L170.49 227.526L165.652 228.788ZM168.151 238.366L163.313 239.628C163.764 241.357 164.288 243.072 164.883 244.772L169.602 243.12L174.321 241.469C173.815 240.022 173.371 238.567 172.989 237.103L168.151 238.366ZM169.602 243.12L164.883 244.772L168.186 254.211L172.905 252.56L177.625 250.908L174.321 241.469L169.602 243.12ZM172.905 252.56L168.186 254.211L171.489 263.651L176.209 262L180.928 260.348L177.625 250.908L172.905 252.56ZM176.209 262L171.489 263.651C172.084 265.352 172.748 267.028 173.48 268.68L178.051 266.655L182.623 264.629C181.999 263.221 181.434 261.795 180.928 260.348L176.209 262ZM178.051 266.655L173.48 268.68L177.547 277.861L182.119 275.835L186.69 273.81L182.623 264.629L178.051 266.655ZM182.119 275.835L177.547 277.861L181.615 287.041L186.186 285.015L190.758 282.99L186.69 273.81L182.119 275.835ZM186.186 285.015L181.615 287.041C182.306 288.602 182.922 289.901 183.442 290.839L187.816 288.416L192.189 285.992C191.892 285.457 191.422 284.489 190.758 282.99L186.186 285.015ZM187.816 288.416L183.442 290.839L185.892 295.26L190.265 292.837L194.639 290.413L192.189 285.992L187.816 288.416ZM190.265 292.837L185.892 295.26L188.342 299.681L192.715 297.258L197.088 294.834L194.639 290.413L190.265 292.837ZM192.715 297.258L188.342 299.681C188.557 300.07 188.775 300.451 188.973 300.762C189.055 300.891 189.229 301.161 189.458 301.44C189.544 301.546 189.835 301.901 190.285 302.253C190.498 302.42 191.006 302.796 191.756 303.054C192.535 303.322 194.1 303.623 195.759 302.732L193.395 298.327L191.031 293.921C192.684 293.034 194.243 293.334 195.013 293.6C195.755 293.855 196.253 294.225 196.454 294.383C196.881 294.718 197.144 295.043 197.197 295.107C197.357 295.303 197.441 295.443 197.41 295.394C197.381 295.348 197.282 295.183 197.088 294.834L192.715 297.258ZM193.395 298.327L195.76 302.732L196.03 302.587L193.666 298.182L191.301 293.776L191.031 293.921L193.395 298.327ZM193.666 298.182L197.047 301.865L197.344 301.592L193.963 297.909L190.581 294.226L190.284 294.498L193.666 298.182ZM193.963 297.909L189.408 299.972L189.45 300.064L194.004 298L198.558 295.936L198.517 295.845L193.963 297.909Z" fill="black"/>
<path d="M122.915 209.445C122.056 206.82 119.232 205.389 116.608 206.248C113.984 207.107 112.552 209.931 113.411 212.555L118.163 211L122.915 209.445ZM118.194 211.095L113.443 212.65L113.503 212.834L113.576 213.012L118.194 211.095ZM125.842 229.521L121.224 231.438L125.842 229.521ZM128.233 236.603L133.142 235.655L128.233 236.603ZM130.145 246.506L125.236 247.454L130.145 246.506ZM132.058 256.408L136.968 255.46L132.058 256.408ZM132.634 261.384L137.63 261.189L132.634 261.384ZM133.023 271.383L128.026 271.578L133.023 271.383ZM133.412 281.383L138.408 281.189L133.412 281.383ZM133.449 285.995L138.447 286.136L133.449 285.995ZM133.209 294.441L128.211 294.3L133.209 294.441ZM132.969 302.888L137.967 303.03V303.03L132.969 302.888ZM132.785 305L132.785 310H132.785L132.785 305ZM132.289 305L131.493 309.936L131.889 310H132.289L132.289 305ZM131.669 304.9L132.465 299.964L126.669 299.029V304.9H131.669ZM126.669 305C126.669 307.761 128.908 310 131.669 310C134.431 310 136.669 307.761 136.669 305H131.669H126.669ZM118.163 211L113.411 212.555L113.443 212.65L118.194 211.095L122.946 209.54L122.915 209.445L118.163 211ZM118.194 211.095L113.576 213.012L121.224 231.438L125.842 229.521L130.46 227.604L122.813 209.178L118.194 211.095ZM125.842 229.521L121.224 231.438C122.469 234.437 123.104 236.416 123.323 237.551L128.233 236.603L133.142 235.655C132.724 233.489 131.765 230.747 130.46 227.604L125.842 229.521ZM128.233 236.603L123.323 237.551L125.236 247.454L130.145 246.506L135.055 245.557L133.142 235.655L128.233 236.603ZM130.145 246.506L125.236 247.454L127.149 257.356L132.058 256.408L136.968 255.46L135.055 245.557L130.145 246.506ZM132.058 256.408L127.149 257.356C127.42 258.76 127.583 260.167 127.638 261.578L132.634 261.384L137.63 261.189C137.555 259.268 137.334 257.357 136.968 255.46L132.058 256.408ZM132.634 261.384L127.638 261.578L128.026 271.578L133.023 271.383L138.019 271.189L137.63 261.189L132.634 261.384ZM133.023 271.383L128.026 271.578L128.415 281.577L133.412 281.383L138.408 281.189L138.019 271.189L133.023 271.383ZM133.412 281.383L128.415 281.577C128.477 283.152 128.487 284.575 128.451 285.853L133.449 285.995L138.447 286.136C138.49 284.599 138.476 282.948 138.408 281.189L133.412 281.383ZM133.449 285.995L128.451 285.853L128.211 294.3L133.209 294.441L138.207 294.583L138.447 286.136L133.449 285.995ZM133.209 294.441L128.211 294.3L127.971 302.746L132.969 302.888L137.967 303.03L138.207 294.583L133.209 294.441ZM132.969 302.888L127.971 302.746C127.952 303.428 127.93 303.837 127.912 304.038C127.901 304.168 127.903 304.068 127.945 303.866C127.957 303.807 128.031 303.425 128.238 302.955C128.334 302.737 128.588 302.192 129.101 301.628C129.62 301.057 130.856 300 132.785 300L132.785 305L132.785 310C134.725 310 135.971 308.937 136.5 308.356C137.023 307.78 137.287 307.219 137.393 306.979C137.619 306.465 137.712 306.017 137.742 305.87C137.819 305.492 137.855 305.128 137.875 304.906C137.918 304.403 137.947 303.756 137.967 303.03L132.969 302.888ZM132.785 305L132.785 300H132.289L132.289 305L132.289 310H132.785L132.785 305ZM132.289 305L133.085 300.064L132.465 299.964L131.669 304.9L130.873 309.836L131.493 309.936L132.289 305ZM131.669 304.9H126.669V305H131.669H136.669V304.9H131.669Z" fill="black"/>
<path d="M218.465 25.4619C217.063 23.0827 213.998 22.2903 211.619 23.6921C209.24 25.0938 208.447 28.1589 209.849 30.5381L214.157 28L218.465 25.4619ZM214.208 28.0862L209.9 30.6242L210.021 30.8294L210.161 31.0222L214.208 28.0862ZM225.855 44.1418L229.903 41.2057L225.855 44.1418ZM229.61 50.5294L234.322 48.8561L229.61 50.5294ZM232.983 60.0244L228.271 61.6978L232.983 60.0244ZM236.355 69.5194L241.066 67.8461L236.355 69.5194ZM236.63 74.3451L241.5 75.4739L236.63 74.3451ZM234.357 84.1528L229.486 83.0241L234.357 84.1528ZM232.084 93.9606L236.955 95.0894L232.084 93.9606ZM229.962 98.3928L233.895 101.479H233.895L229.962 98.3928ZM223.746 106.314L219.812 103.227L219.812 103.227L223.746 106.314ZM217.53 114.235L221.464 117.322H221.464L217.53 114.235ZM215.864 118.733L220.859 118.955L215.864 118.733ZM215.415 128.802L210.42 128.579L215.415 128.802ZM214.966 138.87L219.961 139.093L214.966 138.87ZM215.996 143.605L211.55 145.894H211.55L215.996 143.605ZM220.563 152.475L225.008 150.186H225.008L220.563 152.475ZM225.13 161.344L220.685 163.633H220.685L225.13 161.344ZM227.231 165.88L222.61 167.79L222.61 167.79L227.231 165.88ZM231.064 175.152L235.685 173.242L231.064 175.152ZM234.898 184.425L230.278 186.335L234.898 184.425ZM235.97 189.251L240.965 189.025L235.97 189.251ZM236.425 199.283L231.43 199.51L236.425 199.283ZM236.88 209.316L241.875 209.089L236.88 209.316ZM236.761 214.315L241.739 214.78L236.761 214.315ZM235.83 224.279L230.851 223.813L235.83 224.279ZM234.899 234.242L239.877 234.707L234.899 234.242ZM234.666 238.86L239.666 238.859L234.666 238.86ZM234.668 247.367L229.668 247.368L234.668 247.367ZM234.669 255.873L239.669 255.872L234.669 255.873ZM234.607 258L234.607 263H234.608L234.607 258ZM234.357 258L232.811 262.755L233.565 263L234.357 263L234.357 258ZM234.05 257.9L235.596 253.145L229.43 251.141L229.058 257.614L234.05 257.9ZM229.052 257.714C228.894 260.47 231.001 262.834 233.758 262.992C236.515 263.15 238.878 261.043 239.036 258.286L234.044 258L229.052 257.714ZM214.157 28L209.849 30.5381L209.9 30.6242L214.208 28.0862L218.516 25.5481L218.465 25.4619L214.157 28ZM214.208 28.0862L210.161 31.0222L221.808 47.0778L225.855 44.1418L229.903 41.2057L218.255 25.1501L214.208 28.0862ZM225.855 44.1418L221.808 47.0778C223.685 49.6647 224.585 51.3204 224.899 52.2028L229.61 50.5294L234.322 48.8561C233.511 46.5735 231.909 43.9707 229.903 41.2057L225.855 44.1418ZM229.61 50.5294L224.899 52.2028L228.271 61.6978L232.983 60.0244L237.694 58.3511L234.322 48.8561L229.61 50.5294ZM232.983 60.0244L228.271 61.6978L231.643 71.1928L236.355 69.5194L241.066 67.8461L237.694 58.3511L232.983 60.0244ZM236.355 69.5194L231.643 71.1928C231.886 71.8764 231.922 72.5126 231.759 73.2163L236.63 74.3451L241.5 75.4739C242.095 72.9084 241.948 70.3275 241.066 67.8461L236.355 69.5194ZM236.63 74.3451L231.759 73.2163L229.486 83.0241L234.357 84.1528L239.228 85.2816L241.5 75.4739L236.63 74.3451ZM234.357 84.1528L229.486 83.0241L227.213 92.8318L232.084 93.9606L236.955 95.0894L239.228 85.2816L234.357 84.1528ZM232.084 93.9606L227.213 92.8318C227 93.7529 226.612 94.562 226.028 95.3061L229.962 98.3928L233.895 101.479C235.383 99.5833 236.411 97.4375 236.955 95.0894L232.084 93.9606ZM229.962 98.3928L226.028 95.3061L219.812 103.227L223.746 106.314L227.679 109.401L233.895 101.479L229.962 98.3928ZM223.746 106.314L219.812 103.227L213.597 111.149L217.53 114.235L221.464 117.322L227.679 109.401L223.746 106.314ZM217.53 114.235L213.597 111.148C211.916 113.29 210.99 115.791 210.869 118.51L215.864 118.733L220.859 118.955C220.887 118.318 221.072 117.821 221.464 117.322L217.53 114.235ZM215.864 118.733L210.869 118.51L210.42 128.579L215.415 128.802L220.41 129.024L220.859 118.955L215.864 118.733ZM215.415 128.802L210.42 128.579L209.971 138.648L214.966 138.87L219.961 139.093L220.41 129.024L215.415 128.802ZM214.966 138.87L209.971 138.648C209.858 141.187 210.386 143.632 211.55 145.894L215.996 143.605L220.441 141.316C220.083 140.621 219.925 139.91 219.961 139.093L214.966 138.87ZM215.996 143.605L211.55 145.894L216.118 154.764L220.563 152.475L225.008 150.186L220.441 141.316L215.996 143.605ZM220.563 152.475L216.118 154.764L220.685 163.633L225.13 161.344L229.576 159.055L225.008 150.186L220.563 152.475ZM225.13 161.344L220.685 163.633C221.382 164.987 222.024 166.373 222.61 167.79L227.231 165.88L231.851 163.969C231.159 162.296 230.401 160.658 229.576 159.055L225.13 161.344ZM227.231 165.88L222.61 167.79L226.444 177.063L231.064 175.152L235.685 173.242L231.851 163.969L227.231 165.88ZM231.064 175.152L226.444 177.063L230.278 186.335L234.898 184.425L239.519 182.514L235.685 173.242L231.064 175.152ZM234.898 184.425L230.278 186.335C230.695 187.345 230.926 188.383 230.976 189.477L235.97 189.251L240.965 189.025C240.863 186.774 240.379 184.596 239.519 182.514L234.898 184.425ZM235.97 189.251L230.976 189.477L231.43 199.51L236.425 199.283L241.42 199.057L240.965 189.025L235.97 189.251ZM236.425 199.283L231.43 199.51L231.885 209.542L236.88 209.316L241.875 209.089L241.42 199.057L236.425 199.283ZM236.88 209.316L231.885 209.542C231.95 210.984 231.916 212.42 231.782 213.85L236.761 214.315L241.739 214.78C241.916 212.889 241.961 210.991 241.875 209.089L236.88 209.316ZM236.761 214.315L231.782 213.85L230.851 223.813L235.83 224.279L240.808 224.744L241.739 214.78L236.761 214.315ZM235.83 224.279L230.851 223.813L229.92 233.777L234.899 234.242L239.877 234.707L240.808 224.744L235.83 224.279ZM234.899 234.242L229.92 233.777C229.753 235.566 229.666 237.263 229.666 238.861L234.666 238.86L239.666 238.859C239.666 237.621 239.734 236.239 239.877 234.707L234.899 234.242ZM234.666 238.86L229.666 238.861L229.668 247.368L234.668 247.367L239.668 247.366L239.666 238.859L234.666 238.86ZM234.668 247.367L229.668 247.368L229.669 255.874L234.669 255.873L239.669 255.872L239.668 247.366L234.668 247.367ZM234.669 255.873L229.669 255.874C229.67 256.572 229.664 257.044 229.656 257.322C229.652 257.477 229.648 257.491 229.654 257.428C229.654 257.427 229.669 257.228 229.725 256.959C229.743 256.867 229.825 256.461 230.04 255.974C230.14 255.747 230.399 255.197 230.916 254.629C231.44 254.055 232.678 253 234.607 253L234.607 258L234.608 263C236.539 263 237.78 261.944 238.306 261.367C238.826 260.796 239.087 260.242 239.19 260.01C239.409 259.512 239.496 259.089 239.519 258.974C239.584 258.662 239.607 258.396 239.615 258.306C239.636 258.066 239.646 257.814 239.652 257.614C239.665 257.184 239.67 256.592 239.669 255.872L234.669 255.873ZM234.607 258L234.607 253H234.357L234.357 258L234.357 263H234.607L234.607 258ZM234.357 258L235.903 253.245L235.596 253.145L234.05 257.9L232.504 262.655L232.811 262.755L234.357 258ZM234.05 257.9L229.058 257.614L229.052 257.714L234.044 258L239.036 258.286L239.042 258.187L234.05 257.9Z" fill="black"/>
</svg>
