<svg width="208" height="143" viewBox="0 0 208 143" fill="none" xmlns="http://www.w3.org/2000/svg">
<path d="M46 45L23 9.5L74.305 31.9651L84.5 2L103.5 31.9651L129 14L132.527 45L164.233 31.9651V73.6861H206.5L173.456 96.1512L201.5 120L157.892 108.988L173.456 141L132.527 108.988L121.5 135.5L103.5 89L74.305 108.988L68 85L16.5 96.1512L46 73.6861L2 58.1744L46 45Z" fill="#FFDBF7"/>
<path d="M83.3672 0.4375C86.2194 -0.45347 88.4585 0.690012 89.9297 2L91.1406 3.28906L96.4141 10.8281C98.3193 13.7922 100.046 16.8699 101.609 20.0469C102.749 22.363 103.925 23.3887 104.891 23.8359C105.002 23.8868 105.063 23.9115 105.086 23.9141C105.108 23.9164 105.154 23.893 105.242 23.875C105.462 23.8268 106.01 23.6212 106.883 22.8984C109.686 20.5749 112.693 18.52 115.867 16.7266C118.918 15.0034 121.714 13.6392 124.227 12.7031C125.254 12.3208 126.605 12.0323 128.094 12.2344C129.706 12.4548 131.134 13.2252 132.195 14.4219C134.021 16.4886 134.316 19.2724 134.344 21.1406C134.39 24.2414 134.671 27.3122 135.164 30.3594C135.579 32.9244 136.063 35.2238 136.57 37.2734C139.503 36.2172 142.433 35.1592 145.32 33.9922C148.48 32.715 151.673 31.4956 154.891 30.3594C156.764 29.6984 158.987 29.1713 161.18 29.5391C163.137 29.8676 164.829 30.8761 165.984 32.4297L166.961 34.1875L168.133 38.2109C168.454 39.6948 168.703 41.3204 168.914 43.0547C169.345 46.5969 169.561 50.1718 169.539 53.7188C169.518 57.1433 169.411 60.5683 169.188 63.9922C169.031 66.3863 169.624 67.2541 170.008 67.625C170.518 68.1145 171.575 68.7233 174.031 68.6406C177.398 68.5235 180.781 68.4518 184.148 68.4062C187.493 68.361 190.843 68.3125 194.188 68.2891C197.597 68.2653 200.651 68.4775 202.938 69.1484C203.913 69.4356 205.563 70.1499 206.609 71.9219C207.738 73.8377 207.457 75.77 207.039 76.9609C206.645 78.0811 206.014 79.0009 205.477 79.6562C204.901 80.3573 204.215 81.0644 203.484 81.7266C200.712 84.2373 197.679 86.402 194.422 88.2109C191.792 89.6706 189.329 91.4026 187.039 93.3672C185.159 94.9805 183.724 96.3903 182.625 97.5469C182.712 97.6487 182.787 97.7797 182.898 97.8984C184.909 100.044 187.173 101.889 189.656 103.484C192.829 105.522 195.709 107.932 198.289 110.672C199.452 111.907 200.534 113.169 201.219 114.305C201.463 114.712 202.213 115.978 202.234 117.586C202.245 118.579 201.976 119.974 200.906 121.18C199.877 122.335 198.626 122.758 197.82 122.898C196.737 123.087 195.426 122.975 194.461 122.898C193.309 122.807 191.863 122.662 190.164 122.43C186.489 121.927 182.904 121.042 179.422 119.773C176.521 118.716 173.57 117.866 170.555 117.273C169.45 117.057 168.382 116.784 167.352 116.57C168.057 118.247 168.809 119.908 169.461 121.609C170.606 124.597 171.863 127.53 173.25 130.398C173.992 131.933 174.609 133.328 174.969 134.422C175.121 134.887 175.407 135.743 175.438 136.688C175.451 137.125 175.438 138.195 174.852 139.344C174.074 140.856 172.551 141.94 170.75 142.117C169.896 142.2 169.179 142.072 168.875 142C168.506 141.912 168.186 141.781 167.938 141.688C167.434 141.498 166.902 141.27 166.414 141.023C165.423 140.523 164.176 139.796 162.703 138.914C159.608 137.062 156.672 134.995 153.914 132.703C151.32 130.546 148.725 128.322 146.18 126.102C143.831 124.054 141.354 122.171 138.758 120.438C137.117 119.342 135.841 118.713 134.93 118.328C134.842 118.507 134.755 118.716 134.656 118.953C133.365 122.085 131.988 125.201 130.594 128.289C129.801 130.045 128.862 131.724 127.664 133.055C126.463 134.385 124.659 135.747 122.234 135.984C119.379 136.258 117.205 134.8 115.867 133.25C114.62 131.804 113.766 129.953 113.133 128.133C112.086 125.124 110.883 122.175 109.578 119.266C108.175 116.137 106.861 112.97 105.633 109.773C104.399 106.562 103.294 103.301 102.273 100.008C101.544 97.6511 100.706 97.1312 100.398 97C100.359 96.9838 100.31 96.9519 100.125 97C99.8521 97.072 99.2753 97.3425 98.3672 98.0938C95.6539 100.342 92.817 102.442 89.8906 104.383C87.1673 106.189 84.457 108.058 81.8047 109.969C80.198 111.122 77.2957 112.749 74.0312 111.688C70.5687 110.556 69.3721 107.31 68.9141 105.359C68.2786 102.654 67.3163 99.9022 66.0234 97.1172C64.7471 94.3692 63.5545 92.8492 62.6641 92.0781C62.6367 92.0545 62.5022 91.9213 62.0391 91.8438C61.5341 91.7598 60.706 91.7353 59.4609 91.9609C56.1812 92.5566 52.8978 93.1661 49.6172 93.7578C46.4374 94.3313 43.2627 94.9826 40.125 95.75C36.9159 96.535 33.713 97.3716 30.5156 98.2109C27.0395 99.1235 23.8045 99.6371 20.9453 99.5781C20.3183 99.5651 18.9972 99.5023 17.7422 98.9141C17.0529 98.5903 15.7987 97.8189 15.0859 96.2188C14.3146 94.4786 14.6533 92.8559 15.0859 91.8828C15.7653 90.3696 17.0263 89.4312 17.4688 89.1094C18.1389 88.6219 18.9465 88.1503 19.7734 87.7031C22.3944 86.2872 24.8147 84.5959 27 82.625C29.6337 80.2495 32.3857 78.0188 35.2812 75.9844C35.5448 75.7991 35.7125 75.5569 35.9062 75.3984H35.8281C32.0928 74.784 28.4899 73.7264 25.0469 72.2344C22.0728 70.9458 19.0594 69.7516 16.0234 68.6406C12.8877 67.4932 9.74017 66.3255 6.60938 65.1641C5.66112 64.8115 4.69414 64.3768 3.83594 63.8359C3.06795 63.3514 1.83938 62.4444 1.10156 60.9062C0.165224 58.9506 0.430307 56.8313 1.45312 55.2031C2.2705 53.9115 3.41085 53.1124 4.1875 52.6641C6.66136 51.2375 9.69959 50.0714 13.1328 49.0703C16.3742 48.1253 19.6281 47.2228 22.8984 46.375C26.1554 45.5308 29.4277 44.6964 32.7031 43.9141C34.9861 43.3688 36.6365 42.6004 37.8594 41.8438C37.8184 41.7738 37.7921 41.6884 37.7422 41.6094C36.0484 38.939 34.2017 36.3317 32.2344 33.8359C29.9904 30.9876 27.9846 27.9581 26.2578 24.7734C24.714 21.9272 23.1187 19.1161 21.4141 16.375C20.5305 14.9543 19.8455 13.8423 19.3828 13.0547C19.1572 12.6705 18.917 12.3036 18.7578 12C18.6857 11.8622 18.5881 11.6225 18.4844 11.375C18.4357 11.2584 18.3375 11.0009 18.25 10.6719C18.2062 10.507 18.1273 10.1856 18.0938 9.77344C18.0697 9.47233 17.9907 8.47896 18.4844 7.35156L19.3438 6.02344C20.3185 4.93294 21.5143 4.56352 21.9609 4.46094C22.6722 4.29797 23.2696 4.32878 23.4844 4.34375C23.9643 4.37826 24.3497 4.50093 24.5 4.53906C24.8705 4.63326 25.2634 4.74732 25.5547 4.85156C26.1841 5.07696 27.0358 5.40748 28.0547 5.82812C29.9964 6.6297 32.499 7.63297 35.5938 8.79688C38.8232 10.0114 42.0275 11.3146 45.1641 12.7422C48.3802 14.2063 51.4993 15.8888 54.5391 17.7422C57.2294 19.3824 60.0127 20.8094 62.8594 22.0781C65.5539 23.279 68.2999 24.3197 71.1016 25.2031C71.8041 21.8848 72.7282 18.6357 73.7969 15.4375C74.9423 12.0103 76.3813 8.66047 78.0938 5.4375C78.6046 4.47853 79.2101 3.50106 79.9688 2.66406C80.7166 1.8397 81.8404 0.916046 83.3672 0.4375ZM85.5938 12.8203C84.7132 14.7124 83.9454 16.6379 83.2891 18.6016C82.2959 21.573 81.4666 24.6061 80.8281 27.7031C80.3465 30.0378 79.18 32.7146 76.5312 34.3047C73.8681 35.8996 70.9658 35.6328 68.6797 34.9297C65.3147 33.8946 62.0216 32.6555 58.7969 31.2188C55.5551 29.774 52.3967 28.1193 49.3438 26.2578C46.6442 24.6118 43.8703 23.1399 41.0234 21.8438C38.9066 20.8803 36.7406 20.0082 34.5781 19.1484C34.7383 19.4398 34.9274 19.7154 35.0859 20.0078C36.5432 22.6953 38.1905 25.2592 40.0859 27.6641C42.2635 30.4265 44.3025 33.2982 46.1797 36.2578C47.3379 38.0865 48.3142 40.3521 48.2109 42.8594C48.0945 45.6376 46.6987 47.8418 44.7344 49.3438C42.0612 51.3783 38.7412 52.7572 35.0469 53.6406C31.8306 54.4087 28.5964 55.2336 25.3984 56.0625C22.5871 56.7914 19.7891 57.5643 17 58.3672C17.8195 58.6681 18.6411 58.9656 19.4609 59.2656C22.6809 60.4439 25.8783 61.6885 29.0312 63.0547C31.7152 64.2178 34.5277 65.0719 37.4688 65.5547C39.5117 65.8907 41.6501 66.4902 43.4062 67.7422C44.8503 68.773 45.9501 70.203 46.5312 71.9219L46.9219 73.7578L46.9609 75.4766C46.6224 79.3556 43.7902 82.2436 41.0234 84.1875C40.3178 84.6835 39.6804 85.2701 38.9922 85.7891C41.9205 85.0963 44.8578 84.4486 47.8203 83.9141C51.0998 83.3226 54.3855 82.7126 57.6641 82.1172C61.6248 81.3979 65.9372 81.6522 69.2266 84.5C71.6167 86.5697 73.5119 89.5468 75.0859 92.9375C76.2405 95.4265 77.118 97.9539 77.8594 100.477C80.0004 98.9627 82.1587 97.473 84.3438 96.0234C86.9703 94.2811 89.5223 92.419 91.9609 90.3984C95.285 87.6436 99.6166 85.8948 104.188 87.7812C108.242 89.4568 110.567 93.0478 111.805 97.0391C112.759 100.122 113.814 103.175 114.969 106.18C116.131 109.205 117.391 112.202 118.719 115.164C119.896 117.79 120.937 120.471 121.922 123.172C123.11 120.514 124.289 117.854 125.398 115.164C126.165 113.306 127.209 111.375 128.797 109.969C130.133 108.785 131.82 108.038 133.68 107.938L135.594 108.055L139.891 109.539C141.35 110.24 142.825 111.13 144.305 112.117C147.262 114.092 150.066 116.266 152.742 118.602C155.096 120.655 157.494 122.658 159.891 124.656C158.789 121.811 157.634 118.986 156.375 116.219C155.943 115.268 155.52 114.219 155.32 113.133C155.135 112.126 155.033 110.449 155.867 108.758C156.848 106.776 158.608 105.785 160.203 105.477C160.897 105.343 161.577 105.355 162.195 105.398L163.875 105.633L172.469 107.469C175.546 108.073 178.561 108.914 181.531 109.93C179.432 108.353 177.437 106.658 175.633 104.734C174.217 103.223 172.826 101.325 172.312 99.0703C171.726 96.4827 172.41 93.9383 174.109 91.9609L176.922 89.0312C177.997 87.9936 179.194 86.8841 180.516 85.75C183.314 83.3501 186.321 81.2471 189.539 79.4609C190.165 79.1138 190.733 78.669 191.336 78.2891C188.992 78.3099 186.649 78.3746 184.305 78.4062C181.007 78.4508 177.681 78.5259 174.383 78.6406C170.191 78.7843 166.153 77.7835 163.094 74.8516C159.908 71.7945 158.913 67.6228 159.188 63.3672C159.399 60.1321 159.519 56.8751 159.539 53.6406C159.558 50.522 159.372 47.3889 158.992 44.2656C158.763 42.3879 158.484 40.911 158.211 39.7734C155.136 40.8595 152.09 42.0294 149.07 43.25C145.921 44.5231 142.741 45.7365 139.539 46.8828C137.502 47.6122 134.856 48.134 132.273 47.1562C129.381 46.0573 127.868 43.6189 127.234 41.2969C126.474 38.5066 125.835 35.3869 125.281 31.9609C124.836 29.2056 124.591 26.4305 124.461 23.6406C123.359 24.178 122.098 24.698 120.789 25.4375C118.136 26.9365 115.63 28.6545 113.289 30.5938C109.794 33.4906 105.297 35.0416 100.672 32.8984C97.0474 31.2162 94.4444 28.1582 92.625 24.4609C91.2299 21.6264 89.673 18.8974 87.9766 16.2578C87.1723 15.0066 86.331 13.8879 85.5938 12.8203Z" fill="#FF770F"/>
<path d="M71.6043 65.9506C70.1154 65.3261 69.1612 64.4352 68.7416 63.278C68.3221 62.1208 68.4751 60.7977 69.2005 59.3088L74.7988 47.8189C75.5243 46.3299 76.4937 45.3494 77.7072 44.8772C78.9206 44.405 80.2718 44.4812 81.7607 45.1058C83.2496 45.7304 84.2038 46.6212 84.6233 47.7784C85.0428 48.9356 84.8899 50.2587 84.1644 51.7476L78.5661 63.2376C77.8407 64.7265 76.8712 65.707 75.6578 66.1792C74.4443 66.6514 73.0932 66.5752 71.6043 65.9506ZM72.8362 63.4223C73.451 63.6802 74.0177 63.6924 74.5364 63.4588C75.0647 63.2293 75.4954 62.7728 75.8285 62.0892L81.4268 50.5992C81.7599 49.9156 81.8448 49.314 81.6815 48.7944C81.5278 48.2788 81.1435 47.892 80.5288 47.6341C79.914 47.3763 79.3425 47.3621 78.8141 47.5916C78.2954 47.8251 77.8695 48.2837 77.5365 48.9673L71.9382 60.4572C71.6051 61.1408 71.5154 61.7404 71.6691 62.256C71.8324 62.7757 72.2214 63.1644 72.8362 63.4223ZM87.2682 72.2677L88.5001 69.7394L92.3184 71.3411C92.8179 71.5506 93.2729 71.5667 93.6833 71.3892C94.0937 71.2117 94.4289 70.8561 94.689 70.3224L100.547 58.2986C100.807 57.7649 100.874 57.2964 100.746 56.8933C100.619 56.4902 100.305 56.1839 99.8057 55.9743L95.9874 54.3726L97.2193 51.8443L100.951 53.4097C102.354 53.998 103.254 54.8212 103.652 55.8793C104.051 56.9375 103.917 58.1501 103.251 59.5173L97.4608 71.4005C97.0183 72.3089 96.4689 73.0089 95.8129 73.5006C95.1568 73.9923 94.4201 74.2697 93.6026 74.3328C92.7897 74.3866 91.9174 74.218 90.9857 73.8271L87.2682 72.2677ZM85.5248 71.5364L95.4759 51.1129L98.2135 52.2613L88.2624 72.6848L85.5248 71.5364ZM89.1808 59.367L96.4716 62.4254L95.3355 64.7571L88.0448 61.6987L89.1808 59.367ZM102.785 79.0304C101.689 78.571 100.851 77.9768 100.269 77.2478C99.6872 76.5187 99.3746 75.6883 99.3311 74.7565C99.3018 73.8194 99.5518 72.8077 100.081 71.7215L105.241 61.1305C105.775 60.0349 106.429 59.1924 107.202 58.6032C107.989 58.0086 108.867 57.6778 109.837 57.6109C110.811 57.5346 111.846 57.7262 112.941 58.1855C114.046 58.6489 114.884 59.2431 115.456 59.9681C116.043 60.6878 116.351 61.5162 116.38 62.4533C116.423 63.3851 116.178 64.3988 115.644 65.4944L110.484 76.0854C109.955 77.1717 109.297 78.0121 108.509 78.6067C107.736 79.196 106.863 79.5287 105.888 79.605C104.924 79.6853 103.889 79.4938 102.785 79.0304ZM104.051 76.4318C104.829 76.7582 105.539 76.7967 106.181 76.5472C106.823 76.2978 107.331 75.7892 107.705 75.0213L112.948 64.2617C113.326 63.4845 113.402 62.7945 113.175 62.1918C112.953 61.5797 112.453 61.1105 111.675 60.7841C110.887 60.4537 110.172 60.4132 109.53 60.6626C108.902 60.9067 108.399 61.4174 108.02 62.1946L102.778 72.9542C102.403 73.722 102.323 74.41 102.536 75.018C102.758 75.6301 103.263 76.1014 104.051 76.4318ZM115.89 52.0974L118.383 57.2032L115.937 58.0552L114.48 54.9909L111.038 56.0002L110.112 53.7338L115.89 52.0974ZM116.907 84.7007L126.858 64.2773L129.595 65.4257L119.644 85.8491L116.907 84.7007ZM118.376 85.3172L119.608 82.7889L126.841 85.8231L125.61 88.3515L118.376 85.3172ZM127.05 88.9559L141.843 70.5633L144.35 71.615L139.24 94.0693L136.301 92.8363L141.057 75.275L129.99 90.1889L127.05 88.9559ZM132.318 85.8027L133.543 83.2884L139.753 85.8934L138.528 88.4078L132.318 85.8027Z" fill="#041A3D"/>
</svg>
