<svg width="733" height="162" viewBox="0 0 733 162" fill="none" xmlns="http://www.w3.org/2000/svg">
<path d="M143.406 85.375V79.75H152C153.229 79.75 154.188 79.3333 154.875 78.5C155.583 77.6667 155.938 76.5104 155.938 75.0312V68.0625C155.938 66.5208 155.583 65.3229 154.875 64.4688C154.188 63.6146 153.229 63.1875 152 63.1875H143.406V57.5625H151.875C154.021 57.5625 155.844 57.9688 157.344 58.7812C158.865 59.5938 160.021 60.7812 160.812 62.3438C161.604 63.8854 162 65.7604 162 67.9688V75.1875C162 77.3333 161.594 79.1667 160.781 80.6875C159.99 82.2083 158.833 83.375 157.312 84.1875C155.812 84.9792 154 85.375 151.875 85.375H143.406ZM140.125 103V57.5625H146.062V103H140.125ZM180.125 103V70.5625H186.062V103H180.125ZM172.812 70.5625V94.125C172.812 95.2917 173.125 96.1771 173.75 96.7812C174.375 97.3854 175.292 97.6875 176.5 97.6875C177.729 97.6875 178.635 97.375 179.219 96.75C179.823 96.125 180.125 95.2083 180.125 94L180.562 98C179.979 99.8333 179.156 101.208 178.094 102.125C177.031 103.021 175.708 103.469 174.125 103.469C171.729 103.469 169.917 102.698 168.688 101.156C167.479 99.6146 166.875 97.3542 166.875 94.375V70.5625H172.812ZM198.875 57.5625V94.4062C198.875 95.3438 199.073 96.0729 199.469 96.5938C199.885 97.1146 200.479 97.375 201.25 97.375H203.031V103H200.531C198.135 103 196.271 102.25 194.938 100.75C193.604 99.25 192.938 97.1354 192.938 94.4062V57.5625H198.875ZM213.688 57.5625V94.4062C213.688 95.3438 213.885 96.0729 214.281 96.5938C214.698 97.1146 215.292 97.375 216.062 97.375H217.844V103H215.344C212.948 103 211.083 102.25 209.75 100.75C208.417 99.25 207.75 97.1354 207.75 94.4062V57.5625H213.688ZM243.875 103.156C241.188 103.156 239.24 102.417 238.031 100.938C236.844 99.4583 236.25 97.3333 236.25 94.5625V61.125H242.188V94.5625C242.188 95.5 242.385 96.2292 242.781 96.75C243.198 97.2708 243.792 97.5312 244.562 97.5312H246.938V103.156H243.875ZM232.938 76.1875V70.5625H246.938V76.1875H232.938ZM252.25 103V57.5625H258.188V103H252.25ZM266.125 103V80.4688C266.125 78.8021 265.792 77.5625 265.125 76.75C264.479 75.9375 263.49 75.5312 262.156 75.5312C260.823 75.5312 259.823 75.9583 259.156 76.8125C258.51 77.6458 258.188 78.9167 258.188 80.625L257.531 76.0312C258.281 73.9688 259.302 72.4479 260.594 71.4688C261.885 70.4896 263.344 70 264.969 70C267.26 70 269.01 70.75 270.219 72.25C271.448 73.75 272.062 75.9167 272.062 78.75V103H266.125ZM288.188 103.469C285.062 103.469 282.635 102.531 280.906 100.656C279.177 98.7812 278.312 96.1354 278.312 92.7188V81.375C278.312 77.75 279.156 74.9479 280.844 72.9688C282.531 70.9896 284.896 70 287.938 70C291.042 70 293.438 70.9167 295.125 72.75C296.812 74.5833 297.656 77.1771 297.656 80.5312V89.0938H282.469V84.1875H291.969V80.6562C291.969 78.9688 291.615 77.6667 290.906 76.75C290.219 75.8333 289.229 75.375 287.938 75.375C286.688 75.375 285.719 75.8646 285.031 76.8438C284.344 77.8229 284 79.2188 284 81.0312V92.875C284 94.4583 284.365 95.6979 285.094 96.5938C285.823 97.4688 286.854 97.9062 288.188 97.9062C289.417 97.9062 290.365 97.5833 291.031 96.9375C291.719 96.2708 292.062 95.3333 292.062 94.125V93.9062H297.75V94.125C297.75 97.0833 296.917 99.3854 295.25 101.031C293.583 102.656 291.229 103.469 288.188 103.469ZM322.812 57.5625V94.4062C322.812 95.3438 323.01 96.0729 323.406 96.5938C323.823 97.1146 324.417 97.375 325.188 97.375H326.969V103H324.469C322.073 103 320.208 102.25 318.875 100.75C317.542 99.25 316.875 97.1354 316.875 94.4062V57.5625H322.812ZM340.938 103.469C337.812 103.469 335.385 102.531 333.656 100.656C331.927 98.7812 331.062 96.1354 331.062 92.7188V81.375C331.062 77.75 331.906 74.9479 333.594 72.9688C335.281 70.9896 337.646 70 340.688 70C343.792 70 346.188 70.9167 347.875 72.75C349.562 74.5833 350.406 77.1771 350.406 80.5312V89.0938H335.219V84.1875H344.719V80.6562C344.719 78.9688 344.365 77.6667 343.656 76.75C342.969 75.8333 341.979 75.375 340.688 75.375C339.438 75.375 338.469 75.8646 337.781 76.8438C337.094 77.8229 336.75 79.2188 336.75 81.0312V92.875C336.75 94.4583 337.115 95.6979 337.844 96.5938C338.573 97.4688 339.604 97.9062 340.938 97.9062C342.167 97.9062 343.115 97.5833 343.781 96.9375C344.469 96.2708 344.812 95.3333 344.812 94.125V93.9062H350.5V94.125C350.5 97.0833 349.667 99.3854 348 101.031C346.333 102.656 343.979 103.469 340.938 103.469ZM364.5 94.4375L369.719 70.5625H375.625L366.844 103H362.156L353.312 70.5625H359.25L364.5 94.4375ZM388.938 103.469C385.812 103.469 383.385 102.531 381.656 100.656C379.927 98.7812 379.062 96.1354 379.062 92.7188V81.375C379.062 77.75 379.906 74.9479 381.594 72.9688C383.281 70.9896 385.646 70 388.688 70C391.792 70 394.188 70.9167 395.875 72.75C397.562 74.5833 398.406 77.1771 398.406 80.5312V89.0938H383.219V84.1875H392.719V80.6562C392.719 78.9688 392.365 77.6667 391.656 76.75C390.969 75.8333 389.979 75.375 388.688 75.375C387.438 75.375 386.469 75.8646 385.781 76.8438C385.094 77.8229 384.75 79.2188 384.75 81.0312V92.875C384.75 94.4583 385.115 95.6979 385.844 96.5938C386.573 97.4688 387.604 97.9062 388.938 97.9062C390.167 97.9062 391.115 97.5833 391.781 96.9375C392.469 96.2708 392.812 95.3333 392.812 94.125V93.9062H398.5V94.125C398.5 97.0833 397.667 99.3854 396 101.031C394.333 102.656 391.979 103.469 388.938 103.469ZM404.75 103V70.5625H410.688V103H404.75ZM419.594 75.9375C419.448 75.9375 419.292 75.9375 419.125 75.9375C418.958 75.9375 418.74 75.9375 418.469 75.9375C416.052 75.9375 414.156 76.5312 412.781 77.7188C411.427 78.9062 410.729 80.5208 410.688 82.5625L410.031 76.2188C411.073 74.2812 412.417 72.7604 414.062 71.6562C415.729 70.5521 417.573 70 419.594 70V75.9375ZM446.062 103.156C443.375 103.156 441.427 102.417 440.219 100.938C439.031 99.4583 438.438 97.3333 438.438 94.5625V61.125H444.375V94.5625C444.375 95.5 444.573 96.2292 444.969 96.75C445.385 97.2708 445.979 97.5312 446.75 97.5312H449.125V103.156H446.062ZM435.125 76.1875V70.5625H449.125V76.1875H435.125ZM463.188 103.469C460.229 103.469 457.927 102.646 456.281 101C454.635 99.3542 453.812 97.0417 453.812 94.0625V79.25C453.812 76.2917 454.635 74.0104 456.281 72.4062C457.927 70.8021 460.229 70 463.188 70C466.146 70 468.427 70.8021 470.031 72.4062C471.635 74.0104 472.438 76.2917 472.438 79.25V94.1562C472.438 97.1146 471.635 99.4062 470.031 101.031C468.427 102.656 466.146 103.469 463.188 103.469ZM463.125 97.6875C464.188 97.6875 465.01 97.3646 465.594 96.7188C466.198 96.0521 466.5 95.1146 466.5 93.9062V79.5C466.5 78.3333 466.198 77.4271 465.594 76.7812C465.01 76.1146 464.188 75.7812 463.125 75.7812C462.083 75.7812 461.26 76.1146 460.656 76.7812C460.052 77.4271 459.75 78.3333 459.75 79.5V93.9062C459.75 95.1146 460.052 96.0521 460.656 96.7188C461.26 97.3646 462.083 97.6875 463.125 97.6875ZM499.812 103.469C496.771 103.469 494.375 102.604 492.625 100.875C490.875 99.125 490 96.75 490 93.75V93.5H495.875V93.75C495.875 95.1458 496.219 96.2396 496.906 97.0312C497.594 97.8021 498.562 98.1875 499.812 98.1875C501.042 98.1875 502 97.8125 502.688 97.0625C503.396 96.3125 503.75 95.2812 503.75 93.9688C503.75 92.9688 503.5 92.1979 503 91.6562C502.521 91.0938 501.875 90.6354 501.062 90.2812C500.271 89.9271 499.406 89.5833 498.469 89.25C497.531 88.8958 496.583 88.5 495.625 88.0625C494.688 87.6042 493.823 87.0312 493.031 86.3438C492.24 85.6354 491.604 84.7396 491.125 83.6562C490.646 82.5521 490.406 81.1875 490.406 79.5625C490.406 76.5833 491.219 74.25 492.844 72.5625C494.49 70.8542 496.729 70 499.562 70C502.417 70 504.656 70.8125 506.281 72.4375C507.906 74.0417 508.719 76.2604 508.719 79.0938V79.2812H502.844V79.0312C502.844 77.8646 502.552 76.9479 501.969 76.2812C501.406 75.6146 500.604 75.2812 499.562 75.2812C498.542 75.2812 497.74 75.6458 497.156 76.375C496.573 77.1042 496.281 78.125 496.281 79.4375C496.281 80.4167 496.51 81.1979 496.969 81.7812C497.427 82.3438 498.021 82.7917 498.75 83.125C499.5 83.4583 500.312 83.7708 501.188 84.0625C502.167 84.375 503.146 84.7292 504.125 85.125C505.125 85.5208 506.031 86.0625 506.844 86.75C507.677 87.4375 508.344 88.3542 508.844 89.5C509.365 90.6458 509.625 92.1354 509.625 93.9688C509.625 96.9271 508.75 99.25 507 100.938C505.25 102.625 502.854 103.469 499.812 103.469ZM523.062 103.156C520.375 103.156 518.427 102.417 517.219 100.938C516.031 99.4583 515.438 97.3333 515.438 94.5625V61.125H521.375V94.5625C521.375 95.5 521.573 96.2292 521.969 96.75C522.385 97.2708 522.979 97.5312 523.75 97.5312H526.125V103.156H523.062ZM512.125 76.1875V70.5625H526.125V76.1875H512.125ZM544.875 103V79.2812C544.875 77.9688 544.521 76.9583 543.812 76.25C543.125 75.5208 542.156 75.1562 540.906 75.1562C539.823 75.1562 538.969 75.5208 538.344 76.25C537.719 76.9583 537.406 77.9688 537.406 79.2812H531.625C531.625 76.3229 532.448 74.0417 534.094 72.4375C535.74 70.8125 538.062 70 541.062 70C544.104 70 546.458 70.8125 548.125 72.4375C549.812 74.0417 550.656 76.3229 550.656 79.2812V103H544.875ZM538.969 103.469C536.323 103.469 534.323 102.719 532.969 101.219C531.635 99.6979 530.969 97.4167 530.969 94.375C530.969 90.7292 531.802 88.0104 533.469 86.2188C535.156 84.4062 537.667 83.5 541 83.5H545.156L545.594 88.8125H541.031C539.573 88.8125 538.479 89.2812 537.75 90.2188C537.021 91.1354 536.656 92.5208 536.656 94.375C536.656 95.6458 536.969 96.5938 537.594 97.2188C538.24 97.8438 539.198 98.1562 540.469 98.1562C541.948 98.1562 543.052 97.75 543.781 96.9375C544.51 96.1042 544.875 94.8646 544.875 93.2188L545.531 96.2188C545.51 97.8229 545.25 99.1667 544.75 100.25C544.271 101.333 543.542 102.146 542.562 102.688C541.604 103.208 540.406 103.469 538.969 103.469ZM557.562 103V70.5625H563.5V103H557.562ZM572.406 75.9375C572.26 75.9375 572.104 75.9375 571.938 75.9375C571.771 75.9375 571.552 75.9375 571.281 75.9375C568.865 75.9375 566.969 76.5312 565.594 77.7188C564.24 78.9062 563.542 80.5208 563.5 82.5625L562.844 76.2188C563.885 74.2812 565.229 72.7604 566.875 71.6562C568.542 70.5521 570.385 70 572.406 70V75.9375ZM586 103.156C583.312 103.156 581.365 102.417 580.156 100.938C578.969 99.4583 578.375 97.3333 578.375 94.5625V61.125H584.312V94.5625C584.312 95.5 584.51 96.2292 584.906 96.75C585.323 97.2708 585.917 97.5312 586.688 97.5312H589.062V103.156H586ZM575.062 76.1875V70.5625H589.062V76.1875H575.062Z" fill="#1B53AD"/>
<path d="M434.773 0.28125L444.773 0.789062L454.773 1.33594C456.461 1.42622 458.164 1.53456 459.852 1.64844L479.852 2.97656C481.318 3.07494 482.8 3.08965 484.266 3.01562L504.266 2C505.919 1.91648 507.573 1.85641 509.227 1.76562L529.227 0.671875C530.984 0.575344 532.742 0.511518 534.5 0.515625L544.5 0.554688H559.461L579.461 0.476562C581.148 0.469538 582.852 0.496098 584.539 0.515625L604.539 0.75C606.238 0.769771 607.957 0.771206 609.656 0.828125L629.656 1.53125C631.371 1.58879 633.098 1.65739 634.812 1.76562L654.812 3.01562C656.309 3.11013 657.808 3.14666 659.305 3.09375L679.305 2.39062C681.136 2.3252 682.982 2.35094 684.812 2.46875L694.812 3.09375L704.812 3.75781C706.655 3.87669 708.374 4.06633 709.891 4.42188L723.875 7.70312C725.625 8.11387 727.117 9.13417 728.172 10.5938C729.149 11.9528 729.59 13.4836 729.773 14.8125L731.141 24.8125L732.547 34.8125C732.818 36.7812 732.875 38.7737 732.781 40.75L731.844 60.75C731.76 62.5092 731.603 64.2656 731.414 66.0234L730.359 76.0234L729.266 86.0234C729.12 87.3827 729.119 88.7682 729.227 90.125L730.789 110.125C730.928 111.894 731.039 113.667 731.062 115.438L731.18 125.438L731.336 135.438C731.365 137.621 731.011 139.893 729.93 141.922L726.57 148.172L723.25 154.461C721.599 157.559 718.538 158.642 715.945 158.875L695.945 160.672C694.141 160.834 692.321 160.934 690.516 160.945L680.516 161.023L670.516 161.062C668.862 161.073 667.208 161.087 665.555 161.102L655.555 161.18L645.555 161.297C643.897 161.312 642.213 161.313 640.555 161.336L630.555 161.492L620.555 161.609C618.888 161.633 617.221 161.674 615.555 161.688L595.555 161.844C593.724 161.858 591.875 161.774 590.047 161.609L570.047 159.812C568.671 159.689 567.282 159.696 565.906 159.812L555.906 160.633L545.906 161.492C544.024 161.651 542.126 161.701 540.242 161.609L530.242 161.102L520.242 160.633C518.719 160.559 517.195 160.541 515.672 160.594L495.672 161.297C493.875 161.359 492.078 161.342 490.281 161.258L470.281 160.32C468.763 160.249 467.229 160.221 465.711 160.281L455.711 160.672L445.711 161.102C443.878 161.175 442.035 161.136 440.203 161.023L430.203 160.398L420.203 159.812C418.723 159.721 417.229 159.698 415.75 159.773L395.75 160.789C393.862 160.885 391.972 160.869 390.086 160.711L370.086 158.992C368.563 158.864 367.037 158.835 365.516 158.836H340.516L320.516 158.914C318.953 158.92 317.391 158.973 315.828 159.07L295.828 160.32C293.906 160.44 291.967 160.423 290.047 160.242L280.047 159.266L270.047 158.328C268.725 158.203 267.386 158.22 266.062 158.367L256.062 159.5L246.062 160.594C244.127 160.81 242.181 160.89 240.242 160.789L230.242 160.281L220.242 159.734C218.619 159.65 216.982 159.581 215.359 159.539L205.359 159.305L195.359 159.031C193.837 158.992 192.312 159.021 190.789 159.109L170.789 160.281C169.045 160.383 167.3 160.424 165.555 160.438L145.555 160.594C143.91 160.607 142.238 160.637 140.594 160.672L130.594 160.906L120.594 161.102C118.81 161.139 117.026 161.12 115.242 161.023L95.2422 159.93C93.7276 159.847 92.1861 159.835 90.6719 159.891L80.6719 160.242L70.6719 160.633C68.9794 160.695 67.2863 160.721 65.5938 160.75L55.5938 160.945L45.5938 161.102C43.8383 161.132 42.0756 161.093 40.3203 161.023L20.3203 160.242C17.7688 160.141 14.9587 159.303 12.9766 156.922L8.25 151.258L3.5625 145.633C1.84408 143.569 1.21262 141.027 1.14062 138.641L0.828125 128.641L0.554688 118.641C0.49735 116.723 0.590424 114.81 0.828125 112.898L3.32812 92.8984C3.4902 91.5994 3.49147 90.2878 3.36719 88.9922L2.39062 78.9922L1.45312 68.9922C1.26879 67.0836 1.20027 65.161 1.29688 63.25L2.3125 43.25C2.39145 41.6906 2.41237 40.1215 2.39062 38.5625L2.27344 28.5625L2.11719 18.5625C2.09422 16.9156 2.08408 15.7796 2.07812 15.1641L2.03906 11.5312L2 7.9375C1.98887 6.49757 2.54652 5.11183 3.52344 4.07031C4.38176 3.16172 5.36731 2.72965 6.02344 2.50781C7.28585 2.08331 8.62953 2.05387 9.61719 2.07812L29.6172 2.54688C31.2033 2.58636 32.7968 2.61706 34.3828 2.58594L54.3828 2.19531C56.0694 2.16193 57.7743 2.12847 59.4609 2.11719L79.4609 1.96094C81.0451 1.95036 82.642 1.93276 84.2266 1.84375L94.2266 1.25781L104.227 0.710938C105.966 0.613322 107.721 0.534778 109.461 0.515625L119.461 0.4375L129.461 0.320312C131.219 0.30127 132.977 0.314383 134.734 0.398438L144.734 0.867188L154.734 1.375C156.412 1.45534 158.096 1.51718 159.773 1.60938L179.773 2.70312C181.228 2.78305 182.693 2.76962 184.148 2.66406L194.148 1.96094L204.148 1.21875C205.992 1.08542 207.851 1.07327 209.695 1.14062L219.695 1.49219L229.695 1.88281C231.23 1.9385 232.77 1.90541 234.305 1.84375L254.305 1.0625C256.126 0.989487 257.953 1.0043 259.773 1.10156L269.773 1.60938L279.773 2.15625C281.279 2.23645 282.8 2.25906 284.305 2.19531L304.305 1.33594C306.206 1.25616 308.109 1.2954 310.008 1.49219L330.008 3.60156C331.439 3.75032 332.877 3.77001 334.305 3.71875L354.305 3.01562C355.927 2.95668 357.565 2.88114 359.188 2.78125L379.188 1.53125C380.969 1.42152 382.757 1.39687 384.539 1.41406L394.539 1.49219L404.539 1.60938C406.085 1.62448 407.641 1.58431 409.188 1.49219L419.188 0.867188L429.188 0.28125C431.042 0.170324 432.918 0.182052 434.773 0.28125ZM429.812 10.2812L409.812 11.4531C408.034 11.5595 406.24 11.6265 404.461 11.6094L394.461 11.4922L384.461 11.4141C382.915 11.3989 381.359 11.4361 379.812 11.5312L369.812 12.1172L359.812 12.7422C358.108 12.8471 356.4 12.9536 354.695 13.0156L334.695 13.7188C332.797 13.7877 330.887 13.72 328.992 13.5234L318.992 12.5078L308.992 11.4531C307.566 11.3049 306.118 11.2757 304.695 11.3359L294.695 11.7656L284.695 12.1562C282.874 12.2329 281.047 12.2535 279.227 12.1562L259.227 11.0625C257.718 10.9821 256.204 11.0019 254.695 11.0625L234.695 11.8438C232.903 11.9156 231.097 11.9092 229.305 11.8438L209.305 11.1406C207.824 11.087 206.333 11.1113 204.852 11.2188L194.852 11.9219L184.852 12.6641C182.977 12.7996 181.102 12.8061 179.227 12.7031L159.227 11.6094C157.573 11.5185 155.919 11.4151 154.266 11.3359L134.266 10.3984C132.697 10.3233 131.108 10.303 129.539 10.3203L119.539 10.4375L109.539 10.5156C107.953 10.5333 106.36 10.5828 104.773 10.6719L94.7734 11.2578L84.7734 11.8047C83.0287 11.9026 81.2841 11.9492 79.5391 11.9609L59.5391 12.1172C57.9002 12.1281 56.2561 12.163 54.6172 12.1953L34.6172 12.5859C32.8784 12.6204 31.1216 12.5901 29.3828 12.5469L19.3828 12.3125L12.0391 12.1172L12.0781 15.0469C12.0837 15.6343 12.0939 16.7775 12.1172 18.4453L12.2734 28.4453L12.3906 38.4453C12.415 40.2147 12.4021 41.9888 12.3125 43.7578L11.2969 63.7578C11.2253 65.1759 11.238 66.595 11.375 68.0156L13.3281 88.0156C13.5242 90.0456 13.502 92.0828 13.25 94.1094L10.75 114.109C10.5737 115.523 10.5122 116.96 10.5547 118.367L10.8281 128.367L11.1406 138.367C11.1568 138.858 11.2195 139.118 11.2578 139.227L15.9453 144.891L20.3594 150.203C20.4359 150.215 20.5572 150.236 20.7109 150.242L30.7109 150.633L40.7109 151.062C42.2734 151.124 43.8362 151.128 45.3984 151.102L55.3984 150.945L65.3984 150.75C67.0321 150.722 68.6865 150.693 70.3203 150.633L80.3203 150.242L90.3203 149.891C92.1378 149.824 93.9719 149.831 95.7891 149.93L115.789 151.023C117.324 151.107 118.863 151.134 120.398 151.102L130.398 150.906L140.398 150.672C142.086 150.636 143.789 150.607 145.477 150.594L165.477 150.438C167.052 150.425 168.627 150.373 170.203 150.281L180.203 149.695L190.203 149.148C192.009 149.043 193.826 148.985 195.633 149.031L205.633 149.305L215.633 149.539C217.339 149.583 219.044 149.685 220.75 149.773L240.75 150.789C242.139 150.861 243.537 150.827 244.93 150.672L254.93 149.539L264.93 148.445C266.937 148.221 268.976 148.177 270.984 148.367L280.984 149.344L290.984 150.281C292.387 150.413 293.803 150.447 295.203 150.359L315.203 149.109C316.961 149 318.718 148.921 320.477 148.914L340.477 148.836H365.516C367.313 148.835 369.111 148.881 370.906 149.031L380.906 149.891L390.906 150.711C392.349 150.832 393.801 150.862 395.242 150.789L415.242 149.773C417.09 149.68 418.942 149.699 420.789 149.812L440.789 151.062C442.28 151.155 443.79 151.16 445.281 151.102L455.281 150.711L465.281 150.281C467.093 150.209 468.939 150.235 470.75 150.32L490.75 151.258C492.274 151.329 493.797 151.349 495.32 151.297L515.32 150.594C517.126 150.531 518.945 150.545 520.75 150.633L530.75 151.102L540.75 151.609C542.192 151.679 543.642 151.654 545.086 151.531L555.086 150.672L565.086 149.852C567.039 149.686 568.992 149.676 570.945 149.852L590.945 151.648C592.45 151.784 593.973 151.856 595.477 151.844L615.477 151.688C617.128 151.674 618.786 151.632 620.438 151.609L630.438 151.492L640.438 151.336C642.104 151.313 643.771 151.312 645.438 151.297L655.438 151.18L665.438 151.102C667.109 151.087 668.805 151.073 670.477 151.062L680.477 151.023L690.477 150.945C692 150.936 693.522 150.848 695.047 150.711L705.047 149.812L714.852 148.914L717.781 143.484L721.102 137.234C721.134 137.174 721.351 136.703 721.336 135.555L721.18 125.555L721.062 115.555C721.041 114.005 720.95 112.457 720.828 110.906L719.266 90.9062C719.11 88.9306 719.132 86.942 719.344 84.9688L720.398 74.9688L721.492 64.9688C721.66 63.4067 721.769 61.8419 721.844 60.2812L722.312 50.2812L722.82 40.2812C722.885 38.9243 722.813 37.5443 722.625 36.1797L721.258 26.1797L720.008 17.0781L714.617 15.8281L707.625 14.1875C706.813 13.9969 705.673 13.8149 704.188 13.7188L694.188 13.0938L684.188 12.4297C682.693 12.3332 681.189 12.2988 679.695 12.3516L669.695 12.7422L659.695 13.0938C657.865 13.1592 656.017 13.131 654.188 13.0156L634.188 11.7656C632.574 11.6638 630.957 11.5855 629.344 11.5312L609.344 10.8281C607.72 10.7736 606.085 10.73 604.461 10.7109L594.461 10.6328L584.461 10.5156C582.827 10.4966 581.173 10.4699 579.539 10.4766L559.539 10.5547H544.5L534.5 10.5156C532.929 10.5117 531.345 10.5465 529.773 10.6328L509.773 11.7266C508.099 11.8185 506.408 11.9155 504.734 12L484.734 13.0156C482.877 13.1087 481.005 13.1018 479.148 12.9766L469.148 12.2734L459.148 11.6094C457.51 11.4989 455.865 11.4235 454.227 11.3359L434.227 10.2422C432.755 10.1638 431.284 10.1937 429.812 10.2812Z" fill="#0254D9"/>
</svg>
