<svg width="138" height="353" viewBox="0 0 138 353" fill="none" xmlns="http://www.w3.org/2000/svg">
<path d="M20.3394 102.311L20.4638 97.3127H20.4638L20.3394 102.311ZM30.3394 102.56L30.2149 107.559L30.3394 102.56ZM35.3394 102.573L35.4383 107.572L35.3394 102.573ZM45.3394 102.375L45.2404 97.3759L45.3394 102.375ZM55.3394 102.177L55.4383 107.176L55.3394 102.177ZM59.1433 103.315L62.5095 99.6176V99.6176L59.1433 103.315ZM64.3591 108.064L60.9928 111.761L64.3591 108.064ZM69.5748 112.813L72.9411 109.116V109.116L69.5748 112.813ZM71.0192 116.5L76.0114 116.22V116.22L71.0192 116.5ZM71.581 126.5L66.5889 126.78V126.78L71.581 126.5ZM72.1428 136.5L77.1349 136.22V136.22L72.1428 136.5ZM72.3107 141.5L77.3104 141.445V141.445L72.3107 141.5ZM72.4208 151.5L67.4211 151.555L72.4208 151.5ZM72.5309 161.5L77.5306 161.445L72.5309 161.5ZM72.4387 166.5L77.433 166.739L72.4387 166.5ZM71.9599 176.5L66.9656 176.261L71.9599 176.5ZM71.4811 186.5L76.4754 186.739L71.4811 186.5ZM71.224 191.5L76.2165 191.774V191.774L71.224 191.5ZM70.6745 201.5L65.682 201.226L70.6745 201.5ZM70.125 211.5L75.1174 211.774L70.125 211.5ZM68.5728 215.096L71.635 219.049H71.635L68.5728 215.096ZM62.9135 219.481L59.8512 215.528V215.528L62.9135 219.481ZM57.2542 223.865L60.3165 227.818L60.3165 227.818L57.2542 223.865ZM53.3394 224.87L53.1569 229.867H53.1569L53.3394 224.87ZM43.3394 224.505L43.5218 219.508H43.5218L43.3394 224.505ZM33.3394 224.14L33.1569 229.137H33.1569L33.3394 224.14ZM28.434 223.844L28.0097 228.826H28.0097L28.434 223.844ZM18.8127 223.024L19.2371 218.042H19.2371L18.8127 223.024ZM9.1914 222.205L8.76706 227.187H8.76707L9.1914 222.205ZM6.91964 219.5L11.9125 219.767L6.91964 219.5ZM7.45389 209.5L2.46101 209.233L7.45389 209.5ZM7.98815 199.5L12.981 199.767L7.98815 199.5ZM8.01581 194.5L3.02029 194.712V194.712L8.01581 194.5ZM7.59221 184.5L12.5877 184.288L7.59221 184.5ZM7.16861 174.5L2.17309 174.712L7.16861 174.5ZM7.32253 169.5L12.2957 170.017L7.32253 169.5ZM8.36181 159.5L3.3886 158.983L8.36181 159.5ZM9.40109 149.5L14.3743 150.017L9.40109 149.5ZM9.5701 144.5L14.5668 144.318L9.5701 144.5ZM9.20682 134.5L4.21012 134.682L9.20682 134.5ZM8.84355 124.5L13.8403 124.318L8.84355 124.5ZM8.59878 120L3.61352 120.384L8.59878 120ZM7.98295 112L12.9682 111.616L7.98295 112ZM7.36713 104L2.38188 104.384L7.36713 104ZM10.3394 102.062L10.4638 97.0638L10.3394 102.062ZM20.3394 102.311L20.2149 107.31L30.2149 107.559L30.3394 102.56L30.4638 97.5616L20.4638 97.3127L20.3394 102.311ZM30.3394 102.56L30.2149 107.559C31.956 107.602 33.6972 107.606 35.4383 107.572L35.3394 102.573L35.2404 97.5738C33.6482 97.6053 32.056 97.6012 30.4638 97.5616L30.3394 102.56ZM35.3394 102.573L35.4383 107.572L45.4383 107.374L45.3394 102.375L45.2404 97.3759L35.2404 97.5738L35.3394 102.573ZM45.3394 102.375L45.4383 107.374L55.4383 107.176L55.3394 102.177L55.2404 97.1779L45.2404 97.3759L45.3394 102.375ZM55.3394 102.177L55.4383 107.176C55.8815 107.167 56.0797 107.219 56.1075 107.227C56.1167 107.23 56.0804 107.22 56.0145 107.184C55.9468 107.147 55.8632 107.09 55.7771 107.012L59.1433 103.315L62.5095 99.6176C60.3611 97.6615 57.6506 97.1302 55.2404 97.1779L55.3394 102.177ZM59.1433 103.315L55.7771 107.012L60.9928 111.761L64.3591 108.064L67.7253 104.367L62.5095 99.6176L59.1433 103.315ZM64.3591 108.064L60.9928 111.761L66.2086 116.51L69.5748 112.813L72.9411 109.116L67.7253 104.367L64.3591 108.064ZM69.5748 112.813L66.2086 116.51C66.1162 116.426 66.0462 116.34 65.9974 116.267C65.9497 116.196 65.9322 116.151 65.9324 116.152C65.9365 116.162 66.0025 116.343 66.0271 116.78L71.0192 116.5L76.0114 116.22C75.8753 113.798 75.1231 111.102 72.9411 109.116L69.5748 112.813ZM71.0192 116.5L66.0271 116.78L66.5889 126.78L71.581 126.5L76.5731 126.22L76.0114 116.22L71.0192 116.5ZM71.581 126.5L66.5889 126.78L67.1506 136.78L72.1428 136.5L77.1349 136.22L76.5731 126.22L71.581 126.5ZM72.1428 136.5L67.1506 136.78C67.2401 138.372 67.2935 139.964 67.311 141.555L72.3107 141.5L77.3104 141.445C77.2913 139.703 77.2327 137.961 77.1349 136.22L72.1428 136.5ZM72.3107 141.5L67.311 141.555L67.4211 151.555L72.4208 151.5L77.4205 151.445L77.3104 141.445L72.3107 141.5ZM72.4208 151.5L67.4211 151.555L67.5312 161.555L72.5309 161.5L77.5306 161.445L77.4205 151.445L72.4208 151.5ZM72.5309 161.5L67.5312 161.555C67.5485 163.124 67.5196 164.692 67.4445 166.261L72.4387 166.5L77.433 166.739C77.5175 164.975 77.55 163.21 77.5306 161.445L72.5309 161.5ZM72.4387 166.5L67.4445 166.261L66.9656 176.261L71.9599 176.5L76.9542 176.739L77.433 166.739L72.4387 166.5ZM71.9599 176.5L66.9656 176.261L66.4868 186.261L71.4811 186.5L76.4754 186.739L76.9542 176.739L71.9599 176.5ZM71.4811 186.5L66.4868 186.261C66.4076 187.916 66.3225 189.571 66.2315 191.226L71.224 191.5L76.2165 191.774C76.3087 190.096 76.395 188.418 76.4754 186.739L71.4811 186.5ZM71.224 191.5L66.2315 191.226L65.682 201.226L70.6745 201.5L75.667 201.774L76.2165 191.774L71.224 191.5ZM70.6745 201.5L65.682 201.226L65.1325 211.226L70.125 211.5L75.1174 211.774L75.667 201.774L70.6745 201.5ZM70.125 211.5L65.1325 211.226C65.1104 211.627 65.048 211.736 65.0776 211.668C65.0948 211.628 65.1359 211.545 65.2137 211.443C65.293 211.338 65.3935 211.234 65.5105 211.144L68.5728 215.096L71.635 219.049C74.1268 217.118 74.9792 214.289 75.1174 211.774L70.125 211.5ZM68.5728 215.096L65.5105 211.144L59.8512 215.528L62.9135 219.481L65.9757 223.433L71.635 219.049L68.5728 215.096ZM62.9135 219.481L59.8512 215.528L54.1919 219.913L57.2542 223.865L60.3165 227.818L65.9757 223.433L62.9135 219.481ZM57.2542 223.865L54.1919 219.913C54.325 219.81 54.4018 219.802 54.3249 219.822C54.233 219.845 53.9842 219.891 53.5218 219.874L53.3394 224.87L53.1569 229.867C55.5333 229.954 58.1387 229.505 60.3165 227.818L57.2542 223.865ZM53.3394 224.87L53.5218 219.874L43.5218 219.508L43.3394 224.505L43.1569 229.502L53.1569 229.867L53.3394 224.87ZM43.3394 224.505L43.5218 219.508L33.5218 219.143L33.3394 224.14L33.1569 229.137L43.1569 229.502L43.3394 224.505ZM33.3394 224.14L33.5218 219.143C31.933 219.085 30.3786 218.991 28.8584 218.862L28.434 223.844L28.0097 228.826C29.6966 228.969 31.4124 229.073 33.1569 229.137L33.3394 224.14ZM28.434 223.844L28.8584 218.862L19.2371 218.042L18.8127 223.024L18.3884 228.006L28.0097 228.826L28.434 223.844ZM18.8127 223.024L19.2371 218.042L9.61574 217.223L9.1914 222.205L8.76707 227.187L18.3884 228.006L18.8127 223.024ZM9.1914 222.205L9.61574 217.223C9.64068 217.225 10.4982 217.316 11.2496 218.211C11.9731 219.072 11.9074 219.862 11.9125 219.767L6.91964 219.5L1.92676 219.233C1.84283 220.804 2.11126 222.879 3.59205 224.642C5.1007 226.438 7.13858 227.048 8.76706 227.187L9.1914 222.205ZM6.91964 219.5L11.9125 219.767L12.4468 209.767L7.45389 209.5L2.46101 209.233L1.92676 219.233L6.91964 219.5ZM7.45389 209.5L12.4468 209.767L12.981 199.767L7.98815 199.5L2.99527 199.233L2.46101 209.233L7.45389 209.5ZM7.98815 199.5L12.981 199.767C13.0786 197.941 13.0887 196.115 13.0113 194.288L8.01581 194.5L3.02029 194.712C3.08414 196.219 3.0758 197.726 2.99527 199.233L7.98815 199.5ZM8.01581 194.5L13.0113 194.288L12.5877 184.288L7.59221 184.5L2.59669 184.712L3.02029 194.712L8.01581 194.5ZM7.59221 184.5L12.5877 184.288L12.1641 174.288L7.16861 174.5L2.17309 174.712L2.59669 184.712L7.59221 184.5ZM7.16861 174.5L12.1641 174.288C12.1039 172.866 12.1476 171.443 12.2957 170.017L7.32253 169.5L2.34931 168.983C2.15106 170.891 2.09214 172.801 2.17309 174.712L7.16861 174.5ZM7.32253 169.5L12.2957 170.017L13.335 160.017L8.36181 159.5L3.3886 158.983L2.34931 168.983L7.32253 169.5ZM8.36181 159.5L13.335 160.017L14.3743 150.017L9.40109 149.5L4.42788 148.983L3.3886 158.983L8.36181 159.5ZM9.40109 149.5L14.3743 150.017C14.5715 148.119 14.6359 146.219 14.5668 144.318L9.5701 144.5L4.57339 144.682C4.62543 146.114 4.5771 147.547 4.42788 148.983L9.40109 149.5ZM9.5701 144.5L14.5668 144.318L14.2035 134.318L9.20682 134.5L4.21012 134.682L4.57339 144.682L9.5701 144.5ZM9.20682 134.5L14.2035 134.318L13.8403 124.318L8.84355 124.5L3.84685 124.682L4.21012 134.682L9.20682 134.5ZM8.84355 124.5L13.8403 124.318C13.7778 122.6 13.6929 121.031 13.584 119.616L8.59878 120L3.61352 120.384C3.7099 121.636 3.78818 123.067 3.84685 124.682L8.84355 124.5ZM8.59878 120L13.584 119.616L12.9682 111.616L7.98295 112L2.9977 112.384L3.61352 120.384L8.59878 120ZM7.98295 112L12.9682 111.616L12.3524 103.616L7.36713 104L2.38188 104.384L2.9977 112.384L7.98295 112ZM7.36713 104L12.3524 103.616C12.3019 102.961 12.2736 102.524 12.2621 102.272C12.2556 102.128 12.2586 102.131 12.2573 102.21C12.2572 102.216 12.256 102.438 12.2137 102.735C12.1994 102.836 12.1372 103.29 11.9229 103.835C11.8216 104.093 11.5602 104.707 11.0004 105.334C10.3904 106.016 9.13614 107 7.27579 107V102V97C5.41284 97 4.15616 97.985 3.54378 98.6703C2.98163 99.2994 2.71806 99.9172 2.61474 100.18C2.39638 100.736 2.33058 101.206 2.31331 101.327C2.2651 101.666 2.26026 101.951 2.25874 102.04C2.25457 102.286 2.26386 102.538 2.27252 102.728C2.29144 103.142 2.32968 103.706 2.38188 104.384L7.36713 104ZM7.27579 102V107H7.52627V102V97H7.27579V102ZM7.52627 102V107H7.77674V102V97H7.52627V102ZM7.77674 102V107C7.71113 107 7.68069 106.999 7.84465 107.003C7.95377 107.005 8.11429 107.009 8.32732 107.014C8.75286 107.024 9.38186 107.04 10.2149 107.061L10.3394 102.062L10.4638 97.0638C8.87204 97.0242 7.90134 97 7.77674 97V102ZM10.3394 102.062L10.2149 107.061L20.2149 107.31L20.3394 102.311L20.4638 97.3127L10.4638 97.0638L10.3394 102.062Z" fill="black"/>
<path d="M39.0282 137L38.5831 141.98L39.0282 137ZM47.9793 137.8L48.4244 132.82L47.9793 137.8ZM50.2665 140.5L55.2656 140.401V140.401L50.2665 140.5ZM50.4645 150.5L45.4655 150.599L50.4645 150.5ZM50.6624 160.5L55.6614 160.401L50.6624 160.5ZM50.7286 165.5L55.7285 165.467L50.7286 165.5ZM50.7953 175.5L45.7954 175.533L50.7953 175.5ZM50.8621 185.5L55.862 185.467L50.8621 185.5ZM48.5748 188.344L49.314 193.289H49.314L48.5748 188.344ZM39.3591 189.722L38.6199 184.777H38.6199L39.3591 189.722ZM30.1433 191.099L30.8825 196.045H30.8825L30.1433 191.099ZM27.6674 188.799L22.678 189.124L27.6674 188.799ZM26.9798 178.222L31.9693 177.898L26.9798 178.222ZM26.2922 167.644L21.3027 167.969L26.2922 167.644ZM26.24 162.5L21.2457 162.261L26.24 162.5ZM26.7188 152.5L31.7131 152.739L26.7188 152.5ZM27.1976 142.5L22.2033 142.261L27.1976 142.5ZM30.0771 136.2L30.5222 131.22L30.0771 136.2ZM39.0282 137L38.5831 141.98L47.5342 142.78L47.9793 137.8L48.4244 132.82L39.4733 132.02L39.0282 137ZM47.9793 137.8L47.5342 142.78C47.3411 142.763 46.537 142.612 45.8549 141.807C45.2389 141.08 45.2645 140.448 45.2675 140.599L50.2665 140.5L55.2656 140.401C55.2356 138.885 54.8634 136.97 53.4851 135.343C52.0406 133.638 50.1093 132.97 48.4244 132.82L47.9793 137.8ZM50.2665 140.5L45.2675 140.599L45.4655 150.599L50.4645 150.5L55.4635 150.401L55.2656 140.401L50.2665 140.5ZM50.4645 150.5L45.4655 150.599L45.6634 160.599L50.6624 160.5L55.6614 160.401L55.4635 150.401L50.4645 150.5ZM50.6624 160.5L45.6634 160.599C45.6959 162.244 45.7177 163.889 45.7287 165.533L50.7286 165.5L55.7285 165.467C55.7172 163.778 55.6949 162.09 55.6614 160.401L50.6624 160.5ZM50.7286 165.5L45.7287 165.533L45.7954 175.533L50.7953 175.5L55.7952 175.467L55.7285 165.467L50.7286 165.5ZM50.7953 175.5L45.7954 175.533L45.8622 185.533L50.8621 185.5L55.862 185.467L55.7952 175.467L50.7953 175.5ZM50.8621 185.5L45.8622 185.533C45.8629 185.639 45.8352 185.033 46.4021 184.328C47.0081 183.574 47.717 183.417 47.8357 183.399L48.5748 188.344L49.314 193.289C50.9687 193.042 52.8267 192.296 54.1951 190.594C55.5245 188.941 55.8724 187.028 55.862 185.467L50.8621 185.5ZM48.5748 188.344L47.8357 183.399L38.6199 184.777L39.3591 189.722L40.0982 194.667L49.314 193.289L48.5748 188.344ZM39.3591 189.722L38.6199 184.777L29.4041 186.154L30.1433 191.099L30.8825 196.045L40.0982 194.667L39.3591 189.722ZM30.1433 191.099L29.4041 186.154C29.5366 186.135 30.6929 186.028 31.7754 187.033C32.7088 187.9 32.6767 188.779 32.6569 188.475L27.6674 188.799L22.678 189.124C22.7728 190.583 23.2107 192.726 24.9693 194.36C26.8771 196.132 29.214 196.294 30.8825 196.045L30.1433 191.099ZM27.6674 188.799L32.6569 188.475L31.9693 177.898L26.9798 178.222L21.9903 178.546L22.678 189.124L27.6674 188.799ZM26.9798 178.222L31.9693 177.898L31.2816 167.32L26.2922 167.644L21.3027 167.969L21.9903 178.546L26.9798 178.222ZM26.2922 167.644L31.2816 167.32C31.1785 165.734 31.1639 164.207 31.2343 162.739L26.24 162.5L21.2457 162.261C21.1564 164.126 21.1766 166.029 21.3027 167.969L26.2922 167.644ZM26.24 162.5L31.2343 162.739L31.7131 152.739L26.7188 152.5L21.7245 152.261L21.2457 162.261L26.24 162.5ZM26.7188 152.5L31.7131 152.739L32.1919 142.739L27.1976 142.5L22.2033 142.261L21.7245 152.261L26.7188 152.5ZM27.1976 142.5L32.1919 142.739C32.2314 141.913 32.2647 141.277 32.2917 140.821C32.3052 140.592 32.3164 140.422 32.3253 140.304C32.3364 140.155 32.3382 140.165 32.3275 140.247L27.3695 139.6L22.4116 138.953C22.3428 139.48 22.2768 140.726 22.2033 142.261L27.1976 142.5ZM27.3695 139.6L32.3275 140.247L32.5363 138.647L27.5783 138L22.6204 137.353L22.4116 138.953L27.3695 139.6ZM27.5783 138L32.5363 138.647L32.7451 137.047L27.7872 136.4L22.8292 135.753L22.6204 137.353L27.5783 138ZM27.7872 136.4L32.7451 137.047C32.4059 139.646 30.3674 140.646 29.8768 140.851C29.5344 140.994 29.2584 141.058 29.1177 141.087C28.9655 141.117 28.8595 141.128 28.8208 141.131C28.7501 141.137 28.9579 141.12 29.632 141.18L30.0771 136.2L30.5222 131.22C29.7045 131.147 28.7847 131.096 27.9507 131.169C27.5778 131.202 26.8299 131.287 26.0229 131.624C25.3328 131.912 23.1858 133.02 22.8292 135.753L27.7872 136.4ZM30.0771 136.2L29.632 141.18L38.5831 141.98L39.0282 137L39.4733 132.02L30.5222 131.22L30.0771 136.2Z" fill="black"/>
<path d="M29.8394 167.021L66.7597 125L88.8394 127.076L51.919 169.097L29.8394 167.021Z" fill="white"/>
<path d="M45.2479 150.171L50.1422 150.732L45.2479 150.171ZM48.5607 146.416L53.6031 146.81L48.5607 146.416ZM54.9641 138.885L49.9217 138.492L54.9641 138.885ZM61.3674 131.354L66.4098 131.748L61.3674 131.354ZM65.248 129.2L66.897 125.477L66.897 125.477L65.248 129.2ZM74.3669 128.113L72.7179 131.836L74.3669 128.113ZM83.4858 127.026L85.1348 123.304L85.1348 123.304L83.4858 127.026ZM84.772 128.444L90.3175 128.138L84.772 128.444ZM80.7982 135.204L75.2527 135.51L80.7982 135.204ZM76.8244 141.963L82.3699 141.657L76.8244 141.963ZM74.2083 145.533L79.2223 145.96L74.2083 145.533ZM67.7175 153.056L62.7034 152.629L67.7175 153.056ZM61.2267 160.578L66.2408 161.005L66.2408 161.005L61.2267 160.578ZM57.213 163.013L56.6825 166.538L56.6825 166.538L57.213 163.013ZM47.6493 165.228L48.1798 161.702L47.6493 165.228ZM38.0855 167.443L37.555 170.968L37.555 170.968L38.0855 167.443ZM31.5514 165.149L26.657 164.588L31.5514 165.149ZM38.3996 157.66L43.294 158.221L50.1422 150.732L45.2479 150.171L40.3535 149.61L33.5052 157.099L38.3996 157.66ZM45.2479 150.171L50.1422 150.732C51.3346 149.428 52.4882 148.121 53.6031 146.81L48.5607 146.416L43.5184 146.022C42.4988 147.222 41.4439 148.417 40.3535 149.61L45.2479 150.171ZM48.5607 146.416L53.6031 146.81L60.0065 139.279L54.9641 138.885L49.9217 138.492L43.5184 146.022L48.5607 146.416ZM54.9641 138.885L60.0065 139.279L66.4098 131.748L61.3674 131.354L56.325 130.961L49.9217 138.492L54.9641 138.885ZM61.3674 131.354L66.4098 131.748C66.5677 131.562 66.4035 131.823 65.7272 132.198C65.3751 132.393 64.9684 132.572 64.5439 132.707C64.1288 132.84 63.802 132.899 63.599 132.923L65.248 129.2L66.897 125.477C64.8828 125.717 62.6545 126.382 60.5488 127.551C58.579 128.644 57.2344 129.891 56.325 130.961L61.3674 131.354ZM65.248 129.2L63.599 132.923L72.7179 131.836L74.3669 128.113L76.0159 124.39L66.897 125.477L65.248 129.2ZM74.3669 128.113L72.7179 131.836L81.8368 130.749L83.4858 127.026L85.1348 123.304L76.0159 124.39L74.3669 128.113ZM83.4858 127.026L81.8367 130.749C81.5794 130.78 80.146 130.889 79.4207 130.09C78.7855 129.39 79.3021 128.622 79.2266 128.751L84.772 128.444L90.3175 128.138C90.9043 127.14 91.5377 125.573 90.4737 124.4C89.3197 123.128 86.9119 123.092 85.1348 123.304L83.4858 127.026ZM84.772 128.444L79.2266 128.751L75.2527 135.51L80.7982 135.204L86.3437 134.897L90.3175 128.138L84.772 128.444ZM80.7982 135.204L75.2527 135.51L71.2789 142.269L76.8244 141.963L82.3699 141.657L86.3437 134.897L80.7982 135.204ZM76.8244 141.963L71.2789 142.269C70.7756 143.125 70.0899 144.069 69.1942 145.107L74.2083 145.533L79.2223 145.96C80.4902 144.49 81.5486 143.054 82.3699 141.657L76.8244 141.963ZM74.2083 145.533L69.1942 145.107L62.7034 152.629L67.7175 153.056L72.7315 153.482L79.2223 145.96L74.2083 145.533ZM67.7175 153.056L62.7034 152.629L56.2126 160.152L61.2267 160.578L66.2408 161.005L72.7315 153.482L67.7175 153.056ZM61.2267 160.578L56.2126 160.152C56.0436 160.348 56.0821 160.243 56.4482 160.021C56.6353 159.908 56.8645 159.791 57.12 159.688C57.3734 159.586 57.5899 159.523 57.7435 159.487L57.213 163.013L56.6825 166.538C61.0566 165.525 64.304 163.25 66.2408 161.005L61.2267 160.578ZM57.213 163.013L57.7435 159.487L48.1798 161.702L47.6493 165.228L47.1188 168.753L56.6825 166.538L57.213 163.013ZM47.6493 165.228L48.1798 161.702L38.616 163.917L38.0855 167.443L37.555 170.968L47.1188 168.753L47.6493 165.228ZM38.0855 167.443L38.616 163.917C38.2991 163.99 38.0438 164.046 37.8433 164.086C37.6393 164.127 37.5202 164.147 37.4691 164.155C37.4071 164.165 37.4913 164.149 37.6669 164.138C37.7597 164.132 37.9073 164.126 38.0899 164.129C38.2694 164.133 38.5256 164.147 38.8136 164.195L35.109 167.899L31.4045 171.603C32.71 171.82 34.1807 171.61 34.8227 171.512C35.6836 171.38 36.6237 171.184 37.555 170.968L38.0855 167.443ZM35.109 167.899L38.8136 164.195L36.4715 163.805L32.767 167.509L29.0624 171.213L31.4045 171.603L35.109 167.899ZM32.767 167.509L36.4715 163.805L34.1294 163.415L30.4249 167.119L26.7203 170.823L29.0624 171.213L32.767 167.509ZM30.4249 167.119L34.1294 163.415C35.8309 163.698 36.2354 164.622 36.2479 165.234C36.2587 165.758 36.0139 166.176 35.9838 166.229C35.9055 166.366 35.9486 166.254 36.4458 165.71L31.5514 165.149L26.657 164.588C26.0129 165.292 25.2975 166.133 24.8437 166.926C24.6259 167.307 24.289 167.979 24.3035 168.684C24.3198 169.476 24.8237 170.507 26.7203 170.823L30.4249 167.119ZM31.5514 165.149L36.4458 165.71L43.294 158.221L38.3996 157.66L33.5052 157.099L26.657 164.588L31.5514 165.149Z" fill="black"/>
<path d="M61.4989 122.123C61.1347 111.824 69.1882 103.18 79.4871 102.816L83.8969 102.66C94.1958 102.295 102.84 110.349 103.204 120.648C103.569 130.947 95.515 139.591 85.2161 139.955L80.8063 140.111C70.5074 140.475 61.8632 132.422 61.4989 122.123Z" fill="white"/>
<path d="M95.1001 133.072L91.7174 129.39L95.1001 133.072ZM65.2609 127.067L60.8819 129.481L65.2609 127.067ZM76.2528 102.69L76.0594 107.687L76.2528 102.69ZM88.3874 105.879L86.7601 110.607C91.1618 112.122 93.6813 114.844 94.8156 119.117L99.6482 117.834L104.481 116.551C102.468 108.968 97.48 103.721 90.0147 101.151L88.3874 105.879ZM99.6482 117.834L94.8156 119.117C95.4037 121.332 95.3555 123.134 94.9003 124.659C94.4432 126.191 93.4769 127.774 91.7174 129.39L95.1001 133.072L98.4828 136.754C101.329 134.139 103.424 131.067 104.483 127.519C105.543 123.965 105.466 120.263 104.481 116.551L99.6482 117.834ZM95.1001 133.072L91.7174 129.39C88.3145 132.516 84.6178 133.513 80.0918 132.517L79.0173 137.4L77.9428 142.283C85.6491 143.979 92.6742 142.09 98.4828 136.754L95.1001 133.072ZM79.0173 137.4L80.0918 132.517C75.3983 131.484 72.0084 128.952 69.6399 124.654L65.2609 127.067L60.8819 129.481C64.6229 136.269 70.404 140.625 77.9428 142.283L79.0173 137.4ZM65.2609 127.067L69.6399 124.654C68.5229 122.627 68.1901 120.875 68.3435 119.29C68.4995 117.677 69.2004 115.822 70.825 113.69L66.8486 110.659L62.8722 107.628C60.3835 110.893 58.7631 114.47 58.39 118.327C58.0141 122.211 58.9441 125.965 60.8819 129.481L65.2609 127.067ZM66.8486 110.659L70.825 113.69C72.7845 111.12 74.345 109.428 75.517 108.435C76.8878 107.273 76.9565 107.721 76.0594 107.687L76.2528 102.69L76.4462 97.6941C73.3929 97.576 70.8161 99.3107 69.0522 100.805C67.0895 102.468 65.026 104.803 62.8722 107.628L66.8486 110.659ZM76.2528 102.69L76.0594 107.687C77.3614 107.737 80.7197 108.528 86.7601 110.607L88.3874 105.879L90.0147 101.151C84.1881 99.1458 79.4566 97.8106 76.4462 97.6941L76.2528 102.69Z" fill="black"/>
</svg>
