<svg width="138" height="353" viewBox="0 0 138 353" fill="none" xmlns="http://www.w3.org/2000/svg">
<path d="M7.76123 97C7.88566 97 8.86888 97.0386 10.4565 97.0781L30.4565 97.5469C32.0426 97.5864 33.6361 97.6171 35.2222 97.5859L55.2222 97.1953C57.0305 97.1595 59.0259 97.4329 60.8081 98.4062L62.5269 99.6172L67.7222 104.383L72.9565 109.109C75.1341 111.095 75.8673 113.799 76.0034 116.219L76.5894 126.219L77.1362 136.219C77.2341 137.96 77.2733 139.711 77.2925 141.453L77.5269 161.453C77.546 163.211 77.5326 164.969 77.4487 166.727L76.9409 176.727L76.4722 186.727C76.3919 188.402 76.2908 190.09 76.1987 191.766L75.105 211.766C74.9669 214.279 74.1169 217.101 71.6284 219.031L65.9644 223.445L60.3003 227.82C58.1248 229.5 55.5242 229.938 53.1519 229.852L33.1519 229.148C31.4089 229.085 29.681 228.979 27.9956 228.836L8.77686 227.195C7.14935 227.057 5.08992 226.45 3.58154 224.656C2.10076 222.893 1.85699 220.798 1.94092 219.227L2.44873 209.227L2.99561 199.227C3.07581 197.721 3.09842 196.2 3.03467 194.695L2.17529 174.695C2.09552 172.794 2.13475 170.891 2.33154 168.992L4.44092 148.992C4.58968 147.561 4.60937 146.123 4.55811 144.695L3.85498 124.695C3.79655 123.087 3.71645 121.647 3.62061 120.398L2.37061 104.383C2.31903 103.713 2.27252 103.155 2.25342 102.742C2.24476 102.553 2.24925 102.285 2.25342 102.039C2.25495 101.949 2.2843 101.671 2.33154 101.336C2.34881 101.214 2.38662 100.72 2.60498 100.164C2.71084 99.896 2.99142 99.2983 3.54248 98.6797C4.15486 97.9944 5.42953 97 7.29248 97H7.76123ZM12.9565 111.609L13.5815 119.617C13.6901 121.028 13.7926 122.592 13.855 124.305L14.5581 144.305C14.6271 146.203 14.5594 148.113 14.3628 150.008L13.3472 160.008L12.2925 170.008C12.1443 171.434 12.115 172.882 12.1753 174.305L12.605 184.305L12.9956 194.305C13.0722 196.126 13.0929 197.953 12.9956 199.773L12.4487 209.773L12.019 217.43L19.2456 218.055L28.855 218.875C30.3694 219.004 31.9209 219.09 33.5034 219.148L43.5034 219.5L53.5034 219.891C53.9658 219.908 54.2317 219.836 54.3237 219.812C54.3986 219.793 54.3384 219.828 54.2065 219.93L59.8706 215.516L65.0659 211.414C65.0719 211.359 65.14 211.293 65.144 211.219L66.2378 191.219C66.3286 189.566 66.393 187.91 66.4722 186.258L66.98 176.258L67.4487 166.258C67.5235 164.695 67.5438 163.133 67.5269 161.57L67.2925 141.57C67.275 139.979 67.2256 138.357 67.1362 136.766L66.0425 116.766C66.0274 116.509 65.9472 116.352 65.9253 116.258L61.0034 111.766L56.0034 107.195C55.9021 107.179 55.7247 107.191 55.4565 107.195L35.4565 107.586C33.7177 107.62 31.961 107.59 30.2222 107.547L20.2222 107.312L12.605 107.117L12.9565 111.609Z" fill="#0254D9"/>
<path d="M30.5347 131.234L39.48 132.016L48.4253 132.836C50.1097 132.987 52.0596 133.632 53.5034 135.336C54.1896 136.147 54.602 137.045 54.8706 137.914L55.2612 140.414L55.6519 160.414C55.685 162.094 55.7187 163.773 55.73 165.453L55.8081 175.453L55.8472 185.453C55.8576 187.014 55.5359 188.956 54.2065 190.609C52.8404 192.306 50.9754 193.056 49.3237 193.305L30.8862 196.039C29.2206 196.288 26.8938 196.123 24.9878 194.359C23.2298 192.726 22.7782 190.584 22.6831 189.125L21.98 178.539L21.3159 167.953C21.1907 166.019 21.1487 164.11 21.2378 162.25L21.7065 152.25L22.2144 142.25C22.2869 140.736 22.3418 139.503 22.4097 138.969L22.605 137.367L22.8394 135.766C23.1931 133.055 25.2957 131.924 26.0034 131.625C26.8104 131.288 27.5836 131.189 27.9565 131.156C28.7888 131.084 29.7192 131.161 30.5347 131.234ZM32.1753 142.758L31.2378 162.758C31.1685 164.22 31.1742 165.749 31.2769 167.328L31.98 177.914L32.4487 185.688L38.6206 184.789L45.8081 183.656V175.531L45.73 165.531C45.719 163.891 45.6843 162.25 45.6519 160.609L45.4565 150.609L45.2612 142.562L38.5815 141.977L32.2534 141.391C32.2334 141.765 32.2004 142.233 32.1753 142.758Z" fill="#0254D9"/>
<path d="M29.8394 167.021L66.7597 125L88.8394 127.076L51.919 169.097L29.8394 167.021Z" fill="white"/>
<path d="M40.334 149.614C41.4202 148.426 42.5025 147.232 43.5184 146.037L56.3303 130.976C57.2389 129.908 58.5849 128.654 60.5521 127.561C62.6529 126.394 64.8687 125.728 66.8792 125.487L76.0226 124.377L85.1402 123.296C86.9171 123.085 89.3303 123.13 90.484 124.402C91.5407 125.573 90.905 127.139 90.3195 128.135L86.3463 134.91L82.3599 141.651C81.5386 143.048 80.4726 144.492 79.2048 145.961L66.2373 161.008C64.3003 163.251 61.0457 165.513 56.6734 166.526L47.1463 168.744L37.5803 170.958C36.649 171.173 35.6707 171.391 34.8098 171.523C34.1645 171.622 32.6991 171.83 31.4023 171.616L29.0679 171.206L26.7078 170.825L25.5529 170.462C24.6111 170.003 24.3011 169.286 24.2879 168.691C24.2735 167.989 24.6063 167.312 24.8241 166.931C25.2769 166.139 26.0236 165.298 26.6665 164.594L40.334 149.614ZM37.9896 164.07C38.1631 164.034 38.3938 163.965 38.6367 163.909L48.2027 161.695L56.5001 159.775L62.6876 152.636L69.1713 145.113C70.0671 144.075 70.7931 143.119 71.2964 142.263L75.2439 135.518L77.7383 131.241L72.7004 131.848L65.5903 132.704L60.0352 139.267L53.6292 146.797C52.5158 148.107 51.3261 149.424 50.1354 150.726L43.3017 158.216L37.9507 164.067L37.9896 164.07Z" fill="#0254D9"/>
<path d="M61.4989 122.123C61.1347 111.824 69.1882 103.18 79.4871 102.816L83.8969 102.66C94.1958 102.295 102.84 110.349 103.204 120.648V120.648C103.569 130.947 95.515 139.591 85.2161 139.955L80.8063 140.111C70.5074 140.475 61.8632 132.422 61.4989 122.123V122.123Z" fill="white"/>
<path d="M82.1695 98.7338C84.4569 99.3329 87.1201 100.15 90.0333 101.153C97.4892 103.724 102.481 108.973 104.493 116.55C105.478 120.261 105.551 123.98 104.49 127.533C103.432 131.073 101.322 134.125 98.4839 136.736C92.6754 142.072 85.6309 143.966 77.9245 142.27C70.3956 140.608 64.6364 136.248 60.8988 129.466C58.9641 125.954 58.0211 122.216 58.3944 118.336C58.7675 114.481 60.3749 110.889 62.8623 107.625C65.0161 104.8 67.1075 102.463 69.0702 100.8C70.8338 99.3076 73.4191 97.5669 76.4648 97.6848L82.1695 98.7338ZM75.5158 108.428C74.3445 109.421 72.7734 111.108 70.8155 113.676C69.1965 115.8 68.5149 117.665 68.3557 119.274C68.2023 120.859 68.5236 122.635 69.6407 124.662C72.0067 128.951 75.3967 131.466 80.0805 132.501C84.6065 133.497 88.3328 132.518 91.7357 129.391C93.4854 127.782 94.4335 126.193 94.891 124.668C95.3461 123.143 95.3996 121.334 94.8121 119.12C93.6787 114.851 91.1665 112.126 86.7718 110.61C81.2451 108.707 77.946 107.935 76.4306 107.77C76.246 107.884 75.9369 108.072 75.5158 108.428Z" fill="#0254D9"/>
</svg>
