<svg width="137" height="353" viewBox="0 0 137 353" fill="none" xmlns="http://www.w3.org/2000/svg">
<path d="M20.4995 98.3111L20.6239 93.3127H20.6239L20.4995 98.3111ZM30.4995 98.5601L30.3751 103.559L30.4995 98.5601ZM35.4995 98.5728L35.5985 103.572L35.4995 98.5728ZM45.4995 98.3749L45.4006 93.3759L45.4995 98.3749ZM55.4995 98.1769L55.5985 103.176L55.4995 98.1769ZM59.3035 99.3147L62.6697 95.6176V95.6176L59.3035 99.3147ZM64.5192 104.064L61.153 107.761L64.5192 104.064ZM69.735 108.813L73.1012 105.116V105.116L69.735 108.813ZM71.1794 112.5L76.1715 112.22V112.22L71.1794 112.5ZM71.7412 122.5L66.749 122.78V122.78L71.7412 122.5ZM72.3029 132.5L77.2951 132.22V132.22L72.3029 132.5ZM72.4709 137.5L77.4706 137.445V137.445L72.4709 137.5ZM72.581 147.5L67.5813 147.555L72.581 147.5ZM72.6911 157.5L77.6908 157.445L72.6911 157.5ZM72.5989 162.5L77.5932 162.739L72.5989 162.5ZM72.1201 172.5L67.1258 172.261L72.1201 172.5ZM71.6413 182.5L76.6355 182.739L71.6413 182.5ZM71.3842 187.5L76.3766 187.774V187.774L71.3842 187.5ZM70.8346 197.5L65.8422 197.226L70.8346 197.5ZM70.2851 207.5L75.2776 207.774L70.2851 207.5ZM68.7329 211.096L71.7952 215.049H71.7952L68.7329 211.096ZM63.0736 215.481L60.0113 211.528V211.528L63.0736 215.481ZM57.4143 219.865L60.4766 223.818L60.4766 223.818L57.4143 219.865ZM53.4995 220.87L53.3171 225.867H53.3171L53.4995 220.87ZM43.4995 220.505L43.682 215.508H43.682L43.4995 220.505ZM33.4995 220.14L33.3171 225.137H33.3171L33.4995 220.14ZM28.5942 219.844L28.1698 224.826H28.1699L28.5942 219.844ZM18.9729 219.024L19.3972 214.042H19.3972L18.9729 219.024ZM9.35156 218.205L8.92722 223.187H8.92723L9.35156 218.205ZM7.0798 215.5L12.0727 215.767L7.0798 215.5ZM7.61405 205.5L2.62117 205.233L7.61405 205.5ZM8.14831 195.5L13.1412 195.767L8.14831 195.5ZM8.17597 190.5L3.18045 190.712V190.712L8.17597 190.5ZM7.75237 180.5L12.7479 180.288L7.75237 180.5ZM7.32876 170.5L2.33324 170.712L7.32876 170.5ZM7.48268 165.5L12.4559 166.017L7.48268 165.5ZM8.52197 155.5L3.54875 154.983L8.52197 155.5ZM9.56125 145.5L14.5345 146.017L9.56125 145.5ZM9.73025 140.5L14.727 140.318L9.73025 140.5ZM9.36698 130.5L4.37028 130.682L9.36698 130.5ZM9.00371 120.5L14.0004 120.318L9.00371 120.5ZM8.75893 116L3.77368 116.384L8.75893 116ZM8.14311 108L13.1284 107.616L8.14311 108ZM7.52729 100L2.54204 100.384L7.52729 100ZM10.4995 98.0622L10.6239 93.0638L10.4995 98.0622ZM20.4995 98.3111L20.3751 103.31L30.3751 103.559L30.4995 98.5601L30.6239 93.5616L20.6239 93.3127L20.4995 98.3111ZM30.4995 98.5601L30.3751 103.559C32.1162 103.602 33.8573 103.606 35.5985 103.572L35.4995 98.5728L35.4006 93.5738C33.8084 93.6053 32.2162 93.6012 30.6239 93.5616L30.4995 98.5601ZM35.4995 98.5728L35.5985 103.572L45.5985 103.374L45.4995 98.3749L45.4006 93.3759L35.4006 93.5738L35.4995 98.5728ZM45.4995 98.3749L45.5985 103.374L55.5985 103.176L55.4995 98.1769L55.4006 93.1779L45.4006 93.3759L45.4995 98.3749ZM55.4995 98.1769L55.5985 103.176C56.0417 103.167 56.2399 103.219 56.2677 103.227C56.2769 103.23 56.2406 103.22 56.1746 103.184C56.1069 103.147 56.0234 103.09 55.9372 103.012L59.3035 99.3147L62.6697 95.6176C60.5213 93.6615 57.8107 93.1302 55.4006 93.1779L55.4995 98.1769ZM59.3035 99.3147L55.9372 103.012L61.153 107.761L64.5192 104.064L67.8855 100.367L62.6697 95.6176L59.3035 99.3147ZM64.5192 104.064L61.153 107.761L66.3688 112.51L69.735 108.813L73.1012 105.116L67.8855 100.367L64.5192 104.064ZM69.735 108.813L66.3688 112.51C66.2764 112.426 66.2064 112.34 66.1575 112.267C66.1098 112.196 66.0924 112.151 66.0925 112.152C66.0967 112.162 66.1627 112.343 66.1873 112.78L71.1794 112.5L76.1715 112.22C76.0355 109.798 75.2833 107.102 73.1012 105.116L69.735 108.813ZM71.1794 112.5L66.1873 112.78L66.749 122.78L71.7412 122.5L76.7333 122.22L76.1715 112.22L71.1794 112.5ZM71.7412 122.5L66.749 122.78L67.3108 132.78L72.3029 132.5L77.2951 132.22L76.7333 122.22L71.7412 122.5ZM72.3029 132.5L67.3108 132.78C67.4002 134.372 67.4537 135.964 67.4712 137.555L72.4709 137.5L77.4706 137.445C77.4514 135.703 77.3929 133.961 77.2951 132.22L72.3029 132.5ZM72.4709 137.5L67.4712 137.555L67.5813 147.555L72.581 147.5L77.5807 147.445L77.4706 137.445L72.4709 137.5ZM72.581 147.5L67.5813 147.555L67.6914 157.555L72.6911 157.5L77.6908 157.445L77.5807 147.445L72.581 147.5ZM72.6911 157.5L67.6914 157.555C67.7086 159.124 67.6797 160.692 67.6046 162.261L72.5989 162.5L77.5932 162.739C77.6777 160.975 77.7102 159.21 77.6908 157.445L72.6911 157.5ZM72.5989 162.5L67.6046 162.261L67.1258 172.261L72.1201 172.5L77.1144 172.739L77.5932 162.739L72.5989 162.5ZM72.1201 172.5L67.1258 172.261L66.647 182.261L71.6413 182.5L76.6355 182.739L77.1144 172.739L72.1201 172.5ZM71.6413 182.5L66.647 182.261C66.5677 183.916 66.4827 185.571 66.3917 187.226L71.3842 187.5L76.3766 187.774C76.4689 186.096 76.5552 184.418 76.6355 182.739L71.6413 182.5ZM71.3842 187.5L66.3917 187.226L65.8422 197.226L70.8346 197.5L75.8271 197.774L76.3766 187.774L71.3842 187.5ZM70.8346 197.5L65.8422 197.226L65.2926 207.226L70.2851 207.5L75.2776 207.774L75.8271 197.774L70.8346 197.5ZM70.2851 207.5L65.2926 207.226C65.2706 207.627 65.2081 207.736 65.2377 207.668C65.255 207.628 65.296 207.545 65.3739 207.443C65.4532 207.338 65.5536 207.234 65.6706 207.144L68.7329 211.096L71.7952 215.049C74.287 213.118 75.1394 210.289 75.2776 207.774L70.2851 207.5ZM68.7329 211.096L65.6706 207.144L60.0113 211.528L63.0736 215.481L66.1359 219.433L71.7952 215.049L68.7329 211.096ZM63.0736 215.481L60.0113 211.528L54.3521 215.913L57.4143 219.865L60.4766 223.818L66.1359 219.433L63.0736 215.481ZM57.4143 219.865L54.3521 215.913C54.4852 215.81 54.562 215.802 54.4851 215.822C54.3931 215.845 54.1444 215.891 53.682 215.874L53.4995 220.87L53.3171 225.867C55.6935 225.954 58.2988 225.505 60.4766 223.818L57.4143 219.865ZM53.4995 220.87L53.682 215.874L43.682 215.508L43.4995 220.505L43.3171 225.502L53.3171 225.867L53.4995 220.87ZM43.4995 220.505L43.682 215.508L33.682 215.143L33.4995 220.14L33.3171 225.137L43.3171 225.502L43.4995 220.505ZM33.4995 220.14L33.682 215.143C32.0931 215.085 30.5387 214.991 29.0185 214.862L28.5942 219.844L28.1699 224.826C29.8567 224.969 31.5726 225.073 33.3171 225.137L33.4995 220.14ZM28.5942 219.844L29.0185 214.862L19.3972 214.042L18.9729 219.024L18.5485 224.006L28.1698 224.826L28.5942 219.844ZM18.9729 219.024L19.3972 214.042L9.7759 213.223L9.35156 218.205L8.92723 223.187L18.5485 224.006L18.9729 219.024ZM9.35156 218.205L9.7759 213.223C9.80083 213.225 10.6583 213.316 11.4097 214.211C12.1332 215.072 12.0676 215.862 12.0727 215.767L7.0798 215.5L2.08692 215.233C2.00299 216.804 2.27142 218.879 3.7522 220.642C5.26085 222.438 7.29874 223.048 8.92722 223.187L9.35156 218.205ZM7.0798 215.5L12.0727 215.767L12.6069 205.767L7.61405 205.5L2.62117 205.233L2.08692 215.233L7.0798 215.5ZM7.61405 205.5L12.6069 205.767L13.1412 195.767L8.14831 195.5L3.15543 195.233L2.62117 205.233L7.61405 205.5ZM8.14831 195.5L13.1412 195.767C13.2387 193.941 13.2488 192.115 13.1715 190.288L8.17597 190.5L3.18045 190.712C3.24429 192.219 3.23596 193.726 3.15543 195.233L8.14831 195.5ZM8.17597 190.5L13.1715 190.288L12.7479 180.288L7.75237 180.5L2.75684 180.712L3.18045 190.712L8.17597 190.5ZM7.75237 180.5L12.7479 180.288L12.3243 170.288L7.32876 170.5L2.33324 170.712L2.75684 180.712L7.75237 180.5ZM7.32876 170.5L12.3243 170.288C12.264 168.866 12.3077 167.443 12.4559 166.017L7.48268 165.5L2.50947 164.983C2.31122 166.891 2.2523 168.801 2.33324 170.712L7.32876 170.5ZM7.48268 165.5L12.4559 166.017L13.4952 156.017L8.52197 155.5L3.54875 154.983L2.50947 164.983L7.48268 165.5ZM8.52197 155.5L13.4952 156.017L14.5345 146.017L9.56125 145.5L4.58804 144.983L3.54875 154.983L8.52197 155.5ZM9.56125 145.5L14.5345 146.017C14.7317 144.119 14.796 142.219 14.727 140.318L9.73025 140.5L4.73355 140.682C4.78559 142.114 4.73726 143.547 4.58804 144.983L9.56125 145.5ZM9.73025 140.5L14.727 140.318L14.3637 130.318L9.36698 130.5L4.37028 130.682L4.73355 140.682L9.73025 140.5ZM9.36698 130.5L14.3637 130.318L14.0004 120.318L9.00371 120.5L4.007 120.682L4.37028 130.682L9.36698 130.5ZM9.00371 120.5L14.0004 120.318C13.938 118.6 13.8531 117.031 13.7442 115.616L8.75893 116L3.77368 116.384C3.87006 117.636 3.94834 119.067 4.007 120.682L9.00371 120.5ZM8.75893 116L13.7442 115.616L13.1284 107.616L8.14311 108L3.15786 108.384L3.77368 116.384L8.75893 116ZM8.14311 108L13.1284 107.616L12.5125 99.6162L7.52729 100L2.54204 100.384L3.15786 108.384L8.14311 108ZM7.52729 100L12.5125 99.6162C12.4621 98.961 12.4338 98.5244 12.4223 98.2719C12.4157 98.1282 12.4188 98.1307 12.4175 98.2097C12.4174 98.2161 12.4162 98.4377 12.3739 98.7351C12.3596 98.8357 12.2973 99.2896 12.083 99.8353C11.9818 100.093 11.7204 100.707 11.1606 101.334C10.5505 102.016 9.29629 103 7.43595 103V98V93C5.573 93 4.31631 93.985 3.70394 94.6703C3.14178 95.2994 2.87821 95.9172 2.77489 96.1804C2.55653 96.7365 2.49074 97.206 2.47347 97.3274C2.42526 97.6665 2.42041 97.9506 2.41889 98.0403C2.41473 98.2859 2.42402 98.5384 2.43268 98.7281C2.4516 99.1423 2.48984 99.7057 2.54204 100.384L7.52729 100ZM7.43595 98V103H7.68642V98V93H7.43595V98ZM7.68642 98V103H7.93689V98V93H7.68642V98ZM7.93689 98V103C7.87129 103 7.84085 102.999 8.00481 103.003C8.11393 103.005 8.27445 103.009 8.48748 103.014C8.91302 103.024 9.54201 103.04 10.3751 103.061L10.4995 98.0622L10.6239 93.0638C9.0322 93.0242 8.0615 93 7.93689 93V98ZM10.4995 98.0622L10.3751 103.061L20.3751 103.31L20.4995 98.3111L20.6239 93.3127L10.6239 93.0638L10.4995 98.0622Z" fill="black"/>
<path d="M39.1884 133L38.7433 137.98L39.1884 133ZM48.1394 133.8L48.5845 128.82L48.1394 133.8ZM50.4267 136.5L55.4257 136.401V136.401L50.4267 136.5ZM50.6246 146.5L45.6256 146.599L50.6246 146.5ZM50.8226 156.5L55.8216 156.401L50.8226 156.5ZM50.8887 161.5L55.8886 161.467L50.8887 161.5ZM50.9555 171.5L45.9556 171.533L50.9555 171.5ZM51.0222 181.5L56.0221 181.467L51.0222 181.5ZM48.735 184.344L49.4742 189.289H49.4742L48.735 184.344ZM39.5192 185.722L38.7801 180.777H38.7801L39.5192 185.722ZM30.3035 187.099L31.0426 192.045H31.0426L30.3035 187.099ZM27.8276 184.799L22.8381 185.124L27.8276 184.799ZM27.14 174.222L32.1294 173.898L27.14 174.222ZM26.4523 163.644L21.4629 163.969L26.4523 163.644ZM26.4001 158.5L21.4059 158.261L26.4001 158.5ZM26.8789 148.5L31.8732 148.739L26.8789 148.5ZM27.3578 138.5L22.3635 138.261L27.3578 138.5ZM30.2373 132.2L30.6824 127.22L30.2373 132.2ZM39.1884 133L38.7433 137.98L47.6943 138.78L48.1394 133.8L48.5845 128.82L39.6335 128.02L39.1884 133ZM48.1394 133.8L47.6943 138.78C47.5013 138.763 46.6971 138.612 46.0151 137.807C45.3991 137.08 45.4247 136.448 45.4277 136.599L50.4267 136.5L55.4257 136.401C55.3957 134.885 55.0236 132.97 53.6452 131.343C52.2008 129.638 50.2695 128.97 48.5845 128.82L48.1394 133.8ZM50.4267 136.5L45.4277 136.599L45.6256 146.599L50.6246 146.5L55.6237 146.401L55.4257 136.401L50.4267 136.5ZM50.6246 146.5L45.6256 146.599L45.8235 156.599L50.8226 156.5L55.8216 156.401L55.6237 146.401L50.6246 146.5ZM50.8226 156.5L45.8235 156.599C45.8561 158.244 45.8779 159.889 45.8888 161.533L50.8887 161.5L55.8886 161.467C55.8774 159.778 55.855 158.09 55.8216 156.401L50.8226 156.5ZM50.8887 161.5L45.8888 161.533L45.9556 171.533L50.9555 171.5L55.9554 171.467L55.8886 161.467L50.8887 161.5ZM50.9555 171.5L45.9556 171.533L46.0224 181.533L51.0222 181.5L56.0221 181.467L55.9554 171.467L50.9555 171.5ZM51.0222 181.5L46.0224 181.533C46.0231 181.639 45.9953 181.033 46.5623 180.328C47.1683 179.574 47.8771 179.417 47.9958 179.399L48.735 184.344L49.4742 189.289C51.1288 189.042 52.9869 188.296 54.3553 186.594C55.6846 184.941 56.0326 183.028 56.0221 181.467L51.0222 181.5ZM48.735 184.344L47.9958 179.399L38.7801 180.777L39.5192 185.722L40.2584 190.667L49.4742 189.289L48.735 184.344ZM39.5192 185.722L38.7801 180.777L29.5643 182.154L30.3035 187.099L31.0426 192.045L40.2584 190.667L39.5192 185.722ZM30.3035 187.099L29.5643 182.154C29.6968 182.135 30.8531 182.028 31.9356 183.033C32.8689 183.9 32.8368 184.779 32.8171 184.475L27.8276 184.799L22.8381 185.124C22.933 186.583 23.3708 188.726 25.1295 190.36C27.0372 192.132 29.3742 192.294 31.0426 192.045L30.3035 187.099ZM27.8276 184.799L32.8171 184.475L32.1294 173.898L27.14 174.222L22.1505 174.546L22.8381 185.124L27.8276 184.799ZM27.14 174.222L32.1294 173.898L31.4418 163.32L26.4523 163.644L21.4629 163.969L22.1505 174.546L27.14 174.222ZM26.4523 163.644L31.4418 163.32C31.3387 161.734 31.3241 160.207 31.3944 158.739L26.4001 158.5L21.4059 158.261C21.3166 160.126 21.3368 162.029 21.4629 163.969L26.4523 163.644ZM26.4001 158.5L31.3944 158.739L31.8732 148.739L26.8789 148.5L21.8847 148.261L21.4059 158.261L26.4001 158.5ZM26.8789 148.5L31.8732 148.739L32.352 138.739L27.3578 138.5L22.3635 138.261L21.8847 148.261L26.8789 148.5ZM27.3578 138.5L32.352 138.739C32.3916 137.913 32.4248 137.277 32.4518 136.821C32.4654 136.592 32.4766 136.422 32.4855 136.304C32.4966 136.155 32.4984 136.165 32.4876 136.247L27.5297 135.6L22.5717 134.953C22.5029 135.48 22.437 136.726 22.3635 138.261L27.3578 138.5ZM27.5297 135.6L32.4876 136.247L32.6964 134.647L27.7385 134L22.7805 133.353L22.5717 134.953L27.5297 135.6ZM27.7385 134L32.6964 134.647L32.9053 133.047L27.9473 132.4L22.9894 131.753L22.7805 133.353L27.7385 134ZM27.9473 132.4L32.9053 133.047C32.566 135.646 30.5276 136.646 30.0369 136.851C29.6945 136.994 29.4185 137.058 29.2779 137.087C29.1257 137.117 29.0197 137.128 28.9809 137.131C28.9102 137.137 29.1181 137.12 29.7922 137.18L30.2373 132.2L30.6824 127.22C29.8646 127.147 28.9449 127.096 28.1109 127.169C27.738 127.202 26.9901 127.287 26.1831 127.624C25.4929 127.912 23.346 129.02 22.9894 131.753L27.9473 132.4ZM30.2373 132.2L29.7922 137.18L38.7433 137.98L39.1884 133L39.6335 128.02L30.6824 127.22L30.2373 132.2Z" fill="black"/>
<path d="M46.1213 144.008L103.309 266.373L83.8614 273.914L26.6742 151.549L46.1213 144.008Z" fill="white"/>
<path d="M57.2306 169.128L52.6116 171.026L57.2306 169.128ZM61.6491 178.116L66.268 176.219L61.6491 178.116ZM66.0675 187.104L61.4486 189.001L66.0675 187.104ZM68.2462 191.61L63.5987 193.448L68.2462 191.61ZM72.5424 200.645L77.1899 198.807L72.5424 200.645ZM76.8385 209.681L72.191 211.519L76.8385 209.681ZM79.102 214.154L74.5663 216.213L79.102 214.154ZM83.8597 223.01L88.3954 220.951L83.8597 223.01ZM88.6174 231.866L84.0817 233.925L88.6174 231.866ZM90.891 236.335L95.5291 234.478L90.891 236.335ZM95.2275 245.355L90.5894 247.213L95.2275 245.355ZM99.5641 254.375L104.202 252.517L99.5641 254.375ZM99.5443 258.191L103.832 261.043L103.832 261.043L99.5443 258.191ZM95.1284 264.437L90.8402 261.585L90.8402 261.585L95.1284 264.437ZM90.7125 270.683L95.0007 273.535L95.0007 273.535L90.7125 270.683ZM88.3057 270.653L84.3236 273.538L88.3057 270.653ZM83.0943 264.286L87.0764 261.4L83.0943 264.286ZM77.883 257.919L73.901 260.805L73.901 260.805L77.883 257.919ZM75.3526 254.128L70.8562 256.259L70.8563 256.259L75.3526 254.128ZM70.4424 245.331L74.9388 243.2L70.4424 245.331ZM65.5322 236.534L61.0358 238.664L61.0358 238.664L65.5322 236.534ZM63.3313 232.036L58.5954 233.678L58.5954 233.678L63.3313 232.036ZM59.4378 222.845L64.1737 221.204L59.4378 222.845ZM55.5443 213.653L50.8084 215.295L55.5443 213.653ZM53.4188 209.127L48.8458 211.115L48.8458 211.115L53.4188 209.127ZM48.8102 200.213L53.3832 198.225L48.8102 200.213ZM44.2017 191.299L39.6287 193.287L39.6287 193.287L44.2017 191.299ZM42.1156 186.757L37.3475 188.321L42.1156 186.757ZM38.3798 177.504L43.1478 175.941L38.3798 177.504ZM34.6439 168.252L29.8759 169.815L34.6439 168.252ZM33.813 164.104L28.7004 163.618L28.7004 163.618L33.813 164.104ZM34.2252 156.764L39.3378 157.25L34.2252 156.764ZM34.6373 149.425L29.5247 148.939L29.5247 148.939L34.6373 149.425ZM51.1237 155.445L46.4107 157.139L50.4125 166.289L55.1255 164.594L59.8385 162.9L55.8366 153.75L51.1237 155.445ZM55.1255 164.594L50.4125 166.289C51.1093 167.882 51.8423 169.461 52.6116 171.026L57.2306 169.128L61.8495 167.231C61.146 165.8 60.4757 164.356 59.8385 162.9L55.1255 164.594ZM57.2306 169.128L52.6116 171.026L57.0301 180.013L61.6491 178.116L66.268 176.219L61.8495 167.231L57.2306 169.128ZM61.6491 178.116L57.0301 180.013L61.4486 189.001L66.0675 187.104L70.6865 185.207L66.268 176.219L61.6491 178.116ZM66.0675 187.104L61.4486 189.001C62.1753 190.48 62.892 191.962 63.5987 193.448L68.2462 191.61L72.8937 189.772C72.1683 188.246 71.4325 186.725 70.6865 185.207L66.0675 187.104ZM68.2462 191.61L63.5987 193.448L67.8948 202.483L72.5424 200.645L77.1899 198.807L72.8937 189.772L68.2462 191.61ZM72.5424 200.645L67.8948 202.483L72.191 211.519L76.8385 209.681L81.486 207.843L77.1899 198.807L72.5424 200.645ZM76.8385 209.681L72.191 211.519C72.9425 213.099 73.7343 214.664 74.5663 216.213L79.102 214.154L83.6377 212.095C82.8838 210.691 82.1666 209.274 81.486 207.843L76.8385 209.681ZM79.102 214.154L74.5663 216.213L79.324 225.069L83.8597 223.01L88.3954 220.951L83.6377 212.095L79.102 214.154ZM83.8597 223.01L79.324 225.069L84.0817 233.925L88.6174 231.866L93.1531 229.807L88.3954 220.951L83.8597 223.01ZM88.6174 231.866L84.0817 233.925C84.839 235.335 85.5627 236.758 86.2528 238.193L90.891 236.335L95.5291 234.478C94.7737 232.907 93.9817 231.35 93.1531 229.807L88.6174 231.866ZM90.891 236.335L86.2528 238.193L90.5894 247.213L95.2275 245.355L99.8657 243.497L95.5291 234.478L90.891 236.335ZM95.2275 245.355L90.5894 247.213L94.9259 256.232L99.5641 254.375L104.202 252.517L99.8657 243.497L95.2275 245.355ZM99.5641 254.375L94.9259 256.232C95.0521 256.495 94.9801 256.461 94.9814 256.205C94.9821 256.074 95.0028 255.914 95.0571 255.745C95.1115 255.576 95.1859 255.439 95.2561 255.339L99.5443 258.191L103.832 261.043C105.799 258.262 105.446 255.104 104.202 252.517L99.5641 254.375ZM99.5443 258.191L95.2561 255.339L90.8402 261.585L95.1284 264.437L99.4166 267.289L103.832 261.043L99.5443 258.191ZM95.1284 264.437L90.8402 261.585L86.4243 267.831L90.7125 270.683L95.0007 273.535L99.4166 267.289L95.1284 264.437ZM90.7125 270.683L86.4243 267.831C86.4457 267.801 86.6397 267.525 87.0738 267.234C87.5516 266.914 88.3446 266.566 89.388 266.579C90.4194 266.592 91.2086 266.952 91.665 267.245C92.0856 267.514 92.2805 267.758 92.2877 267.767L88.3057 270.653L84.3236 273.538C85.0571 274.435 86.8566 276.297 89.7296 276.333C92.6772 276.37 94.3389 274.471 95.0007 273.535L90.7125 270.683ZM88.3057 270.653L92.2877 267.767L87.0764 261.4L83.0943 264.286L79.1123 267.172L84.3236 273.538L88.3057 270.653ZM83.0943 264.286L87.0764 261.4L81.8651 255.033L77.883 257.919L73.901 260.805L79.1123 267.172L83.0943 264.286ZM77.883 257.919L81.8651 255.033C81.2303 254.258 80.5529 253.258 79.849 251.997L75.3526 254.128L70.8563 256.259C71.7891 257.93 72.7987 259.458 73.901 260.805L77.883 257.919ZM75.3526 254.128L79.849 251.997L74.9388 243.2L70.4424 245.331L65.946 247.462L70.8562 256.259L75.3526 254.128ZM70.4424 245.331L74.9388 243.2L70.0286 234.403L65.5322 236.534L61.0358 238.664L65.946 247.462L70.4424 245.331ZM65.5322 236.534L70.0286 234.403C69.299 233.096 68.6453 231.76 68.0672 230.395L63.3313 232.036L58.5954 233.678C59.3151 235.377 60.1287 237.039 61.0358 238.664L65.5322 236.534ZM63.3313 232.036L68.0672 230.395L64.1737 221.204L59.4378 222.845L54.7019 224.486L58.5954 233.678L63.3313 232.036ZM59.4378 222.845L64.1737 221.204L60.2802 212.012L55.5443 213.653L50.8084 215.295L54.7019 224.486L59.4378 222.845ZM55.5443 213.653L60.2802 212.012C59.5816 210.363 58.8187 208.738 57.9918 207.139L53.4188 209.127L48.8458 211.115C49.5551 212.487 50.2092 213.88 50.8084 215.295L55.5443 213.653ZM53.4188 209.127L57.9918 207.139L53.3832 198.225L48.8102 200.213L44.2372 202.201L48.8458 211.115L53.4188 209.127ZM48.8102 200.213L53.3832 198.225L48.7747 189.31L44.2017 191.299L39.6287 193.287L44.2372 202.201L48.8102 200.213ZM44.2017 191.299L48.7747 189.311C48.0784 187.964 47.4481 186.592 46.8836 185.193L42.1156 186.757L37.3475 188.321C38.0283 190.007 38.7887 191.662 39.6287 193.287L44.2017 191.299ZM42.1156 186.757L46.8836 185.193L43.1478 175.941L38.3798 177.504L33.6117 179.068L37.3475 188.321L42.1156 186.757ZM38.3798 177.504L43.1478 175.941L39.412 166.688L34.6439 168.252L29.8759 169.815L33.6117 179.068L38.3798 177.504ZM34.6439 168.252L39.412 166.688C38.9732 165.601 38.9063 164.935 38.9257 164.59L33.813 164.104L28.7004 163.618C28.5824 165.719 29.0694 167.818 29.8759 169.815L34.6439 168.252ZM33.813 164.104L38.9257 164.59L39.3378 157.25L34.2252 156.764L29.1125 156.278L28.7004 163.618L33.813 164.104ZM34.2252 156.764L39.3378 157.25L39.75 149.911L34.6373 149.425L29.5247 148.939L29.1125 156.278L34.2252 156.764ZM34.6373 149.425L39.75 149.911C39.7614 149.708 39.7863 149.976 39.5317 150.426C39.3926 150.672 39.1703 150.97 38.8322 151.249C38.4884 151.534 38.0936 151.742 37.6861 151.87L35.8785 147.232L34.0708 142.594C30.4155 143.744 29.6303 147.059 29.5247 148.939L34.6373 149.425ZM35.8785 147.232L37.6861 151.87L42.2385 150.437L40.4309 145.799L38.6232 141.161L34.0708 142.594L35.8785 147.232ZM40.4309 145.799L42.2385 150.437L46.7909 149.004L44.9832 144.366L43.1756 139.728L38.6232 141.161L40.4309 145.799ZM44.9832 144.366L46.7909 149.004C46.0901 149.225 45.2274 149.278 44.339 149.034C43.5034 148.804 42.9472 148.396 42.6589 148.136C42.184 147.708 42.1742 147.453 42.4088 147.99L47.1218 146.295L51.8348 144.601C51.4024 143.612 50.7027 142.274 49.515 141.203C48.8702 140.621 47.9519 140.001 46.7484 139.671C45.4921 139.326 44.2558 139.388 43.1756 139.728L44.9832 144.366ZM47.1218 146.295L42.4088 147.99L46.4107 157.139L51.1237 155.445L55.8366 153.75L51.8348 144.601L47.1218 146.295Z" fill="black"/>
<path d="M69.6596 263.123C69.2953 252.824 77.3489 244.18 87.6478 243.816L92.0576 243.66C102.356 243.295 111.001 251.349 111.365 261.648C111.729 271.947 103.676 280.591 93.3767 280.955L88.9669 281.111C78.6681 281.475 70.0239 273.422 69.6596 263.123Z" fill="white"/>
<path d="M103.261 274.072L99.8781 270.39L103.261 274.072ZM73.4215 268.067L69.0425 270.481L73.4215 268.067ZM84.4134 243.69L84.2201 248.687L84.4134 243.69ZM96.548 246.879L94.9207 251.607C99.3224 253.122 101.842 255.844 102.976 260.117L107.809 258.834L112.641 257.551C110.628 249.968 105.641 244.721 98.1754 242.151L96.548 246.879ZM107.809 258.834L102.976 260.117C103.564 262.332 103.516 264.134 103.061 265.659C102.604 267.191 101.638 268.774 99.8781 270.39L103.261 274.072L106.643 277.754C109.49 275.139 111.584 272.067 112.643 268.519C113.704 264.965 113.627 261.263 112.641 257.551L107.809 258.834ZM103.261 274.072L99.8781 270.39C96.4752 273.516 92.7784 274.513 88.2525 273.517L87.1779 278.4L86.1034 283.283C93.8098 284.979 100.835 283.09 106.643 277.754L103.261 274.072ZM87.1779 278.4L88.2525 273.517C83.559 272.484 80.1691 269.952 77.8005 265.654L73.4215 268.067L69.0425 270.481C72.7835 277.269 78.5646 281.625 86.1034 283.283L87.1779 278.4ZM73.4215 268.067L77.8005 265.654C76.6835 263.627 76.3507 261.875 76.5041 260.29C76.6602 258.677 77.361 256.822 78.9857 254.69L75.0092 251.659L71.0328 248.628C68.5442 251.893 66.9238 255.47 66.5506 259.327C66.1748 263.211 67.1048 266.965 69.0425 270.481L73.4215 268.067ZM75.0092 251.659L78.9857 254.69C80.9451 252.12 82.5056 250.428 83.6776 249.435C85.0485 248.273 85.1172 248.721 84.2201 248.687L84.4134 243.69L84.6068 238.694C81.5535 238.576 78.9767 240.311 77.2128 241.805C75.2501 243.468 73.1866 245.803 71.0328 248.628L75.0092 251.659ZM84.4134 243.69L84.2201 248.687C85.5221 248.737 88.8803 249.528 94.9207 251.607L96.548 246.879L98.1754 242.151C92.3487 240.146 87.6172 238.811 84.6068 238.694L84.4134 243.69Z" fill="black"/>
</svg>
