<svg width="138" height="353" viewBox="0 0 138 353" fill="none" xmlns="http://www.w3.org/2000/svg">
<path d="M21.3394 102.311L21.4638 97.3127H21.4638L21.3394 102.311ZM31.3394 102.56L31.2149 107.559L31.3394 102.56ZM36.3394 102.573L36.4383 107.572L36.3394 102.573ZM46.3394 102.375L46.2404 97.3759L46.3394 102.375ZM56.3394 102.177L56.4383 107.176L56.3394 102.177ZM60.1433 103.315L63.5095 99.6176V99.6176L60.1433 103.315ZM65.3591 108.064L61.9928 111.761L65.3591 108.064ZM70.5748 112.813L73.9411 109.116V109.116L70.5748 112.813ZM72.0192 116.5L77.0114 116.22V116.22L72.0192 116.5ZM72.581 126.5L67.5889 126.78V126.78L72.581 126.5ZM73.1428 136.5L78.1349 136.22V136.22L73.1428 136.5ZM73.3107 141.5L78.3104 141.445V141.445L73.3107 141.5ZM73.4208 151.5L68.4211 151.555L73.4208 151.5ZM73.5309 161.5L78.5306 161.445L73.5309 161.5ZM73.4387 166.5L78.433 166.739L73.4387 166.5ZM72.9599 176.5L67.9656 176.261L72.9599 176.5ZM72.4811 186.5L77.4754 186.739L72.4811 186.5ZM72.224 191.5L77.2165 191.774V191.774L72.224 191.5ZM71.6745 201.5L66.682 201.226L71.6745 201.5ZM71.125 211.5L76.1174 211.774L71.125 211.5ZM69.5728 215.096L72.635 219.049H72.635L69.5728 215.096ZM63.9135 219.481L60.8512 215.528V215.528L63.9135 219.481ZM58.2542 223.865L61.3165 227.818L61.3165 227.818L58.2542 223.865ZM54.3394 224.87L54.1569 229.867H54.1569L54.3394 224.87ZM44.3394 224.505L44.5218 219.508H44.5218L44.3394 224.505ZM34.3394 224.14L34.1569 229.137H34.1569L34.3394 224.14ZM29.434 223.844L29.0097 228.826H29.0097L29.434 223.844ZM19.8127 223.024L20.2371 218.042H20.2371L19.8127 223.024ZM10.1914 222.205L9.76706 227.187H9.76707L10.1914 222.205ZM7.91964 219.5L12.9125 219.767L7.91964 219.5ZM8.45389 209.5L3.46101 209.233L8.45389 209.5ZM8.98815 199.5L13.981 199.767L8.98815 199.5ZM9.01581 194.5L4.02029 194.712V194.712L9.01581 194.5ZM8.59221 184.5L13.5877 184.288L8.59221 184.5ZM8.16861 174.5L3.17309 174.712L8.16861 174.5ZM8.32253 169.5L13.2957 170.017L8.32253 169.5ZM9.36181 159.5L4.3886 158.983L9.36181 159.5ZM10.4011 149.5L15.3743 150.017L10.4011 149.5ZM10.5701 144.5L15.5668 144.318L10.5701 144.5ZM10.2068 134.5L5.21012 134.682L10.2068 134.5ZM9.84355 124.5L14.8403 124.318L9.84355 124.5ZM9.59878 120L4.61352 120.384L9.59878 120ZM8.98295 112L13.9682 111.616L8.98295 112ZM8.36713 104L3.38188 104.384L8.36713 104ZM11.3394 102.062L11.4638 97.0638L11.3394 102.062ZM21.3394 102.311L21.2149 107.31L31.2149 107.559L31.3394 102.56L31.4638 97.5616L21.4638 97.3127L21.3394 102.311ZM31.3394 102.56L31.2149 107.559C32.956 107.602 34.6972 107.606 36.4383 107.572L36.3394 102.573L36.2404 97.5738C34.6482 97.6053 33.056 97.6012 31.4638 97.5616L31.3394 102.56ZM36.3394 102.573L36.4383 107.572L46.4383 107.374L46.3394 102.375L46.2404 97.3759L36.2404 97.5738L36.3394 102.573ZM46.3394 102.375L46.4383 107.374L56.4383 107.176L56.3394 102.177L56.2404 97.1779L46.2404 97.3759L46.3394 102.375ZM56.3394 102.177L56.4383 107.176C56.8815 107.167 57.0797 107.219 57.1075 107.227C57.1167 107.23 57.0804 107.22 57.0145 107.184C56.9468 107.147 56.8632 107.09 56.7771 107.012L60.1433 103.315L63.5095 99.6176C61.3611 97.6615 58.6506 97.1302 56.2404 97.1779L56.3394 102.177ZM60.1433 103.315L56.7771 107.012L61.9928 111.761L65.3591 108.064L68.7253 104.367L63.5095 99.6176L60.1433 103.315ZM65.3591 108.064L61.9928 111.761L67.2086 116.51L70.5748 112.813L73.9411 109.116L68.7253 104.367L65.3591 108.064ZM70.5748 112.813L67.2086 116.51C67.1162 116.426 67.0462 116.34 66.9974 116.267C66.9497 116.196 66.9322 116.151 66.9324 116.152C66.9365 116.162 67.0025 116.343 67.0271 116.78L72.0192 116.5L77.0114 116.22C76.8753 113.798 76.1231 111.102 73.9411 109.116L70.5748 112.813ZM72.0192 116.5L67.0271 116.78L67.5889 126.78L72.581 126.5L77.5731 126.22L77.0114 116.22L72.0192 116.5ZM72.581 126.5L67.5889 126.78L68.1506 136.78L73.1428 136.5L78.1349 136.22L77.5731 126.22L72.581 126.5ZM73.1428 136.5L68.1506 136.78C68.2401 138.372 68.2935 139.964 68.311 141.555L73.3107 141.5L78.3104 141.445C78.2913 139.703 78.2327 137.961 78.1349 136.22L73.1428 136.5ZM73.3107 141.5L68.311 141.555L68.4211 151.555L73.4208 151.5L78.4205 151.445L78.3104 141.445L73.3107 141.5ZM73.4208 151.5L68.4211 151.555L68.5312 161.555L73.5309 161.5L78.5306 161.445L78.4205 151.445L73.4208 151.5ZM73.5309 161.5L68.5312 161.555C68.5485 163.124 68.5196 164.692 68.4445 166.261L73.4387 166.5L78.433 166.739C78.5175 164.975 78.55 163.21 78.5306 161.445L73.5309 161.5ZM73.4387 166.5L68.4445 166.261L67.9656 176.261L72.9599 176.5L77.9542 176.739L78.433 166.739L73.4387 166.5ZM72.9599 176.5L67.9656 176.261L67.4868 186.261L72.4811 186.5L77.4754 186.739L77.9542 176.739L72.9599 176.5ZM72.4811 186.5L67.4868 186.261C67.4076 187.916 67.3225 189.571 67.2315 191.226L72.224 191.5L77.2165 191.774C77.3087 190.096 77.395 188.418 77.4754 186.739L72.4811 186.5ZM72.224 191.5L67.2315 191.226L66.682 201.226L71.6745 201.5L76.667 201.774L77.2165 191.774L72.224 191.5ZM71.6745 201.5L66.682 201.226L66.1325 211.226L71.125 211.5L76.1174 211.774L76.667 201.774L71.6745 201.5ZM71.125 211.5L66.1325 211.226C66.1104 211.627 66.048 211.736 66.0776 211.668C66.0948 211.628 66.1359 211.545 66.2137 211.443C66.293 211.338 66.3935 211.234 66.5105 211.144L69.5728 215.096L72.635 219.049C75.1268 217.118 75.9792 214.289 76.1174 211.774L71.125 211.5ZM69.5728 215.096L66.5105 211.144L60.8512 215.528L63.9135 219.481L66.9757 223.433L72.635 219.049L69.5728 215.096ZM63.9135 219.481L60.8512 215.528L55.1919 219.913L58.2542 223.865L61.3165 227.818L66.9757 223.433L63.9135 219.481ZM58.2542 223.865L55.1919 219.913C55.325 219.81 55.4018 219.802 55.3249 219.822C55.233 219.845 54.9842 219.891 54.5218 219.874L54.3394 224.87L54.1569 229.867C56.5333 229.954 59.1387 229.505 61.3165 227.818L58.2542 223.865ZM54.3394 224.87L54.5218 219.874L44.5218 219.508L44.3394 224.505L44.1569 229.502L54.1569 229.867L54.3394 224.87ZM44.3394 224.505L44.5218 219.508L34.5218 219.143L34.3394 224.14L34.1569 229.137L44.1569 229.502L44.3394 224.505ZM34.3394 224.14L34.5218 219.143C32.933 219.085 31.3786 218.991 29.8584 218.862L29.434 223.844L29.0097 228.826C30.6966 228.969 32.4124 229.073 34.1569 229.137L34.3394 224.14ZM29.434 223.844L29.8584 218.862L20.2371 218.042L19.8127 223.024L19.3884 228.006L29.0097 228.826L29.434 223.844ZM19.8127 223.024L20.2371 218.042L10.6157 217.223L10.1914 222.205L9.76707 227.187L19.3884 228.006L19.8127 223.024ZM10.1914 222.205L10.6157 217.223C10.6407 217.225 11.4982 217.316 12.2496 218.211C12.9731 219.072 12.9074 219.862 12.9125 219.767L7.91964 219.5L2.92676 219.233C2.84283 220.804 3.11126 222.879 4.59205 224.642C6.1007 226.438 8.13858 227.048 9.76706 227.187L10.1914 222.205ZM7.91964 219.5L12.9125 219.767L13.4468 209.767L8.45389 209.5L3.46101 209.233L2.92676 219.233L7.91964 219.5ZM8.45389 209.5L13.4468 209.767L13.981 199.767L8.98815 199.5L3.99527 199.233L3.46101 209.233L8.45389 209.5ZM8.98815 199.5L13.981 199.767C14.0786 197.941 14.0887 196.115 14.0113 194.288L9.01581 194.5L4.02029 194.712C4.08414 196.219 4.0758 197.726 3.99527 199.233L8.98815 199.5ZM9.01581 194.5L14.0113 194.288L13.5877 184.288L8.59221 184.5L3.59669 184.712L4.02029 194.712L9.01581 194.5ZM8.59221 184.5L13.5877 184.288L13.1641 174.288L8.16861 174.5L3.17309 174.712L3.59669 184.712L8.59221 184.5ZM8.16861 174.5L13.1641 174.288C13.1039 172.866 13.1476 171.443 13.2957 170.017L8.32253 169.5L3.34931 168.983C3.15106 170.891 3.09214 172.801 3.17309 174.712L8.16861 174.5ZM8.32253 169.5L13.2957 170.017L14.335 160.017L9.36181 159.5L4.3886 158.983L3.34931 168.983L8.32253 169.5ZM9.36181 159.5L14.335 160.017L15.3743 150.017L10.4011 149.5L5.42788 148.983L4.3886 158.983L9.36181 159.5ZM10.4011 149.5L15.3743 150.017C15.5715 148.119 15.6359 146.219 15.5668 144.318L10.5701 144.5L5.57339 144.682C5.62543 146.114 5.5771 147.547 5.42788 148.983L10.4011 149.5ZM10.5701 144.5L15.5668 144.318L15.2035 134.318L10.2068 134.5L5.21012 134.682L5.57339 144.682L10.5701 144.5ZM10.2068 134.5L15.2035 134.318L14.8403 124.318L9.84355 124.5L4.84685 124.682L5.21012 134.682L10.2068 134.5ZM9.84355 124.5L14.8403 124.318C14.7778 122.6 14.6929 121.031 14.584 119.616L9.59878 120L4.61352 120.384C4.7099 121.636 4.78818 123.067 4.84685 124.682L9.84355 124.5ZM9.59878 120L14.584 119.616L13.9682 111.616L8.98295 112L3.9977 112.384L4.61352 120.384L9.59878 120ZM8.98295 112L13.9682 111.616L13.3524 103.616L8.36713 104L3.38188 104.384L3.9977 112.384L8.98295 112ZM8.36713 104L13.3524 103.616C13.3019 102.961 13.2736 102.524 13.2621 102.272C13.2556 102.128 13.2586 102.131 13.2573 102.21C13.2572 102.216 13.256 102.438 13.2137 102.735C13.1994 102.836 13.1372 103.29 12.9229 103.835C12.8216 104.093 12.5602 104.707 12.0004 105.334C11.3904 106.016 10.1361 107 8.27579 107V102V97C6.41284 97 5.15616 97.985 4.54378 98.6703C3.98163 99.2994 3.71806 99.9172 3.61474 100.18C3.39638 100.736 3.33058 101.206 3.31331 101.327C3.2651 101.666 3.26026 101.951 3.25874 102.04C3.25457 102.286 3.26386 102.538 3.27252 102.728C3.29144 103.142 3.32968 103.706 3.38188 104.384L8.36713 104ZM8.27579 102V107H8.52627V102V97H8.27579V102ZM8.52627 102V107H8.77674V102V97H8.52627V102ZM8.77674 102V107C8.71113 107 8.68069 106.999 8.84465 107.003C8.95377 107.005 9.11429 107.009 9.32732 107.014C9.75286 107.024 10.3819 107.04 11.2149 107.061L11.3394 102.062L11.4638 97.0638C9.87204 97.0242 8.90134 97 8.77674 97V102ZM11.3394 102.062L11.2149 107.061L21.2149 107.31L21.3394 102.311L21.4638 97.3127L11.4638 97.0638L11.3394 102.062Z" fill="black"/>
<path d="M40.0282 137L39.5831 141.98L40.0282 137ZM48.9793 137.8L49.4244 132.82L48.9793 137.8ZM51.2665 140.5L56.2656 140.401V140.401L51.2665 140.5ZM51.4645 150.5L46.4655 150.599L51.4645 150.5ZM51.6624 160.5L56.6614 160.401L51.6624 160.5ZM51.7286 165.5L56.7285 165.467L51.7286 165.5ZM51.7953 175.5L46.7954 175.533L51.7953 175.5ZM51.8621 185.5L56.862 185.467L51.8621 185.5ZM49.5748 188.344L50.314 193.289H50.314L49.5748 188.344ZM40.3591 189.722L39.6199 184.777H39.6199L40.3591 189.722ZM31.1433 191.099L31.8825 196.045H31.8825L31.1433 191.099ZM28.6674 188.799L23.678 189.124L28.6674 188.799ZM27.9798 178.222L32.9693 177.898L27.9798 178.222ZM27.2922 167.644L22.3027 167.969L27.2922 167.644ZM27.24 162.5L22.2457 162.261L27.24 162.5ZM27.7188 152.5L32.7131 152.739L27.7188 152.5ZM28.1976 142.5L23.2033 142.261L28.1976 142.5ZM31.0771 136.2L31.5222 131.22L31.0771 136.2ZM40.0282 137L39.5831 141.98L48.5342 142.78L48.9793 137.8L49.4244 132.82L40.4733 132.02L40.0282 137ZM48.9793 137.8L48.5342 142.78C48.3411 142.763 47.537 142.612 46.8549 141.807C46.2389 141.08 46.2645 140.448 46.2675 140.599L51.2665 140.5L56.2656 140.401C56.2356 138.885 55.8634 136.97 54.4851 135.343C53.0406 133.638 51.1093 132.97 49.4244 132.82L48.9793 137.8ZM51.2665 140.5L46.2675 140.599L46.4655 150.599L51.4645 150.5L56.4635 150.401L56.2656 140.401L51.2665 140.5ZM51.4645 150.5L46.4655 150.599L46.6634 160.599L51.6624 160.5L56.6614 160.401L56.4635 150.401L51.4645 150.5ZM51.6624 160.5L46.6634 160.599C46.6959 162.244 46.7177 163.889 46.7287 165.533L51.7286 165.5L56.7285 165.467C56.7172 163.778 56.6949 162.09 56.6614 160.401L51.6624 160.5ZM51.7286 165.5L46.7287 165.533L46.7954 175.533L51.7953 175.5L56.7952 175.467L56.7285 165.467L51.7286 165.5ZM51.7953 175.5L46.7954 175.533L46.8622 185.533L51.8621 185.5L56.862 185.467L56.7952 175.467L51.7953 175.5ZM51.8621 185.5L46.8622 185.533C46.8629 185.639 46.8352 185.033 47.4021 184.328C48.0081 183.574 48.717 183.417 48.8357 183.399L49.5748 188.344L50.314 193.289C51.9687 193.042 53.8267 192.296 55.1951 190.594C56.5245 188.941 56.8724 187.028 56.862 185.467L51.8621 185.5ZM49.5748 188.344L48.8357 183.399L39.6199 184.777L40.3591 189.722L41.0982 194.667L50.314 193.289L49.5748 188.344ZM40.3591 189.722L39.6199 184.777L30.4041 186.154L31.1433 191.099L31.8825 196.045L41.0982 194.667L40.3591 189.722ZM31.1433 191.099L30.4041 186.154C30.5366 186.135 31.6929 186.028 32.7754 187.033C33.7088 187.9 33.6767 188.779 33.6569 188.475L28.6674 188.799L23.678 189.124C23.7728 190.583 24.2107 192.726 25.9693 194.36C27.8771 196.132 30.214 196.294 31.8825 196.045L31.1433 191.099ZM28.6674 188.799L33.6569 188.475L32.9693 177.898L27.9798 178.222L22.9903 178.546L23.678 189.124L28.6674 188.799ZM27.9798 178.222L32.9693 177.898L32.2816 167.32L27.2922 167.644L22.3027 167.969L22.9903 178.546L27.9798 178.222ZM27.2922 167.644L32.2816 167.32C32.1785 165.734 32.1639 164.207 32.2343 162.739L27.24 162.5L22.2457 162.261C22.1564 164.126 22.1766 166.029 22.3027 167.969L27.2922 167.644ZM27.24 162.5L32.2343 162.739L32.7131 152.739L27.7188 152.5L22.7245 152.261L22.2457 162.261L27.24 162.5ZM27.7188 152.5L32.7131 152.739L33.1919 142.739L28.1976 142.5L23.2033 142.261L22.7245 152.261L27.7188 152.5ZM28.1976 142.5L33.1919 142.739C33.2314 141.913 33.2647 141.277 33.2917 140.821C33.3052 140.592 33.3164 140.422 33.3253 140.304C33.3364 140.155 33.3382 140.165 33.3275 140.247L28.3695 139.6L23.4116 138.953C23.3428 139.48 23.2768 140.726 23.2033 142.261L28.1976 142.5ZM28.3695 139.6L33.3275 140.247L33.5363 138.647L28.5783 138L23.6204 137.353L23.4116 138.953L28.3695 139.6ZM28.5783 138L33.5363 138.647L33.7451 137.047L28.7872 136.4L23.8292 135.753L23.6204 137.353L28.5783 138ZM28.7872 136.4L33.7451 137.047C33.4059 139.646 31.3674 140.646 30.8768 140.851C30.5344 140.994 30.2584 141.058 30.1177 141.087C29.9655 141.117 29.8595 141.128 29.8208 141.131C29.7501 141.137 29.9579 141.12 30.632 141.18L31.0771 136.2L31.5222 131.22C30.7045 131.147 29.7847 131.096 28.9507 131.169C28.5778 131.202 27.8299 131.287 27.0229 131.624C26.3328 131.912 24.1858 133.02 23.8292 135.753L28.7872 136.4ZM31.0771 136.2L30.632 141.18L39.5831 141.98L40.0282 137L40.4733 132.02L31.5222 131.22L31.0771 136.2Z" fill="black"/>
<path d="M30.8394 163.02L66.1953 40L87.3394 46.0768L51.9834 169.097L30.8394 163.02Z" fill="white"/>
<path d="M34.5911 151.092L39.3607 152.593L34.5911 151.092ZM38.9859 136.748L43.8177 138.034L38.9859 136.748ZM41.5578 127.083L36.726 125.797L41.5578 127.083ZM44.1298 117.417L48.9616 118.703L44.1298 117.417ZM45.4473 112.593L50.2619 113.942L45.4473 112.593ZM48.1453 102.964L43.3307 101.615L48.1453 102.964ZM50.8433 93.3345L55.6579 94.6835L50.8433 93.3345ZM52.0734 88.4856L56.9488 89.595L52.0734 88.4856ZM54.2957 78.7195L49.4203 77.6101L54.2957 78.7195ZM56.5179 68.9534L61.3933 70.0627L56.5179 68.9534ZM57.7376 64.1015L52.9172 62.7734L57.7376 64.1015ZM60.394 54.4601L65.2143 55.7882L60.394 54.4601ZM63.0503 44.8188L58.2299 43.4907L63.0503 44.8188ZM66.0913 42.7251L66.7516 37.7689L66.7516 37.7689L66.0913 42.7251ZM75.599 43.9917L74.9387 48.948L74.9387 48.948L75.599 43.9917ZM85.1067 45.2584L85.7669 40.3022L85.7669 40.3022L85.1067 45.2584ZM86.6967 48.0044L91.4535 49.545L86.6967 48.0044ZM83.5494 57.722L78.7927 56.1814L83.5494 57.722ZM80.4021 67.4395L85.1588 68.9801L80.4021 67.4395ZM79.099 72.3217L83.9918 73.3515L83.9918 73.3515L79.099 72.3217ZM77.0339 82.133L72.1412 81.1032L77.0339 82.133ZM74.9689 91.9443L79.8617 92.9741L79.8617 92.9741L74.9689 91.9443ZM73.6743 96.7747L78.4262 98.3302L73.6743 96.7747ZM70.5612 106.285L65.8094 104.729L70.5612 106.285ZM67.4481 115.795L72.2 117.35L67.4481 115.795ZM66.0758 120.603L70.9329 121.79L66.0758 120.603ZM63.6998 130.325L58.8428 129.138L63.6998 130.325ZM61.3239 140.047L66.1809 141.234L66.1809 141.234L61.3239 140.047ZM59.9109 144.843L64.6359 146.479L59.9109 144.843ZM56.6353 154.306L51.9103 152.671L51.9103 152.671L56.6353 154.306ZM53.3596 163.77L58.0846 165.405L58.0846 165.405L53.3596 163.77ZM50.3491 165.899L49.8118 170.87L50.3491 165.899ZM41.5828 164.951L42.1201 159.98L41.5828 164.951ZM32.8164 164.003L32.2791 168.975L32.8164 164.003ZM31.5897 160.635L26.8201 159.134L31.5897 160.635ZM34.5911 151.092L39.3607 152.593L42.3622 143.05L37.5925 141.55L32.8229 140.05L29.8215 149.592L34.5911 151.092ZM37.5925 141.55L42.3622 143.05C42.8847 141.389 43.3699 139.717 43.8177 138.034L38.9859 136.748L34.154 135.463C33.7445 137.001 33.3008 138.531 32.8229 140.05L37.5925 141.55ZM38.9859 136.748L43.8177 138.034L46.3897 128.368L41.5578 127.083L36.726 125.797L34.154 135.463L38.9859 136.748ZM41.5578 127.083L46.3897 128.368L48.9616 118.703L44.1298 117.417L39.2979 116.131L36.726 125.797L41.5578 127.083ZM44.1298 117.417L48.9616 118.703C49.3847 117.113 49.8181 115.526 50.2619 113.942L45.4473 112.593L40.6327 111.244C40.1771 112.87 39.7322 114.499 39.2979 116.131L44.1298 117.417ZM45.4473 112.593L50.2619 113.942L52.9599 104.313L48.1453 102.964L43.3307 101.615L40.6327 111.244L45.4473 112.593ZM48.1453 102.964L52.9599 104.313L55.6579 94.6835L50.8433 93.3345L46.0287 91.9855L43.3307 101.615L48.1453 102.964ZM50.8433 93.3345L55.6579 94.6835C56.1298 92.9991 56.5601 91.3029 56.9488 89.595L52.0734 88.4856L47.198 87.3762C46.8459 88.9237 46.4561 90.4601 46.0287 91.9855L50.8433 93.3345ZM52.0734 88.4856L56.9488 89.595L59.171 79.8289L54.2957 78.7195L49.4203 77.6101L47.198 87.3762L52.0734 88.4856ZM54.2957 78.7195L59.171 79.8289L61.3933 70.0627L56.5179 68.9534L51.6426 67.844L49.4203 77.6101L54.2957 78.7195ZM56.5179 68.9534L61.3933 70.0627C61.747 68.5083 62.1352 66.9639 62.558 65.4296L57.7376 64.1015L52.9172 62.7734C52.4545 64.4529 52.0296 66.1431 51.6426 67.844L56.5179 68.9534ZM57.7376 64.1015L62.558 65.4296L65.2143 55.7882L60.394 54.4601L55.5736 53.132L52.9172 62.7734L57.7376 64.1015ZM60.394 54.4601L65.2143 55.7882L67.8707 46.1469L63.0503 44.8188L58.2299 43.4907L55.5736 53.132L60.394 54.4601ZM63.0503 44.8188L67.8707 46.1469C67.8904 46.0753 67.7367 46.6862 66.978 47.2085C66.1885 47.7521 65.4902 47.6892 65.4311 47.6813L66.0913 42.7251L66.7516 37.7689C65.1078 37.5499 63.1104 37.7304 61.3072 38.9719C59.5349 40.1921 58.6529 41.9553 58.2299 43.4907L63.0503 44.8188ZM66.0913 42.7251L65.431 47.6813L74.9387 48.948L75.599 43.9917L76.2593 39.0355L66.7516 37.7689L66.0913 42.7251ZM75.599 43.9917L74.9387 48.948L84.4464 50.2146L85.1067 45.2584L85.7669 40.3022L76.2593 39.0355L75.599 43.9917ZM85.1067 45.2584L84.4464 50.2146C84.4371 50.2134 84.1523 50.1778 83.7466 49.9617C83.2991 49.7233 82.7607 49.2909 82.3657 48.6087C81.586 47.2622 82.0253 46.2005 81.94 46.4638L86.6967 48.0044L91.4535 49.545C91.8928 48.1887 92.3293 45.8596 91.0196 43.5977C89.6452 41.2241 87.2877 40.5048 85.7669 40.3022L85.1067 45.2584ZM86.6967 48.0044L81.94 46.4638L78.7927 56.1814L83.5494 57.722L88.3062 59.2626L91.4535 49.545L86.6967 48.0044ZM83.5494 57.722L78.7927 56.1814L75.6454 65.8989L80.4021 67.4395L85.1588 68.9801L88.3062 59.2626L83.5494 57.722ZM80.4021 67.4395L75.6454 65.8989C75.0675 67.6831 74.5874 69.4809 74.2062 71.2919L79.099 72.3217L83.9918 73.3515C84.299 71.8921 84.6876 70.4351 85.1588 68.9801L80.4021 67.4395ZM79.099 72.3217L74.2062 71.2919L72.1412 81.1032L77.0339 82.133L81.9267 83.1628L83.9918 73.3515L79.099 72.3217ZM77.0339 82.133L72.1412 81.1032L70.0761 90.9145L74.9689 91.9443L79.8617 92.9741L81.9267 83.1628L77.0339 82.133ZM74.9689 91.9443L70.0761 90.9145C69.7692 92.3724 69.3847 93.807 68.9225 95.2191L73.6743 96.7747L78.4262 98.3302C79.0017 96.5723 79.4802 94.7867 79.8617 92.9741L74.9689 91.9443ZM73.6743 96.7747L68.9225 95.2191L65.8094 104.729L70.5612 106.285L75.3131 107.84L78.4262 98.3302L73.6743 96.7747ZM70.5612 106.285L65.8094 104.729L62.6962 114.239L67.4481 115.795L72.2 117.35L75.3131 107.84L70.5612 106.285ZM67.4481 115.795L62.6962 114.239C62.1376 115.946 61.6451 117.671 61.2188 119.416L66.0758 120.603L70.9329 121.79C71.2986 120.294 71.7209 118.814 72.2 117.35L67.4481 115.795ZM66.0758 120.603L61.2188 119.416L58.8428 129.138L63.6998 130.325L68.5569 131.512L70.9329 121.79L66.0758 120.603ZM63.6998 130.325L58.8428 129.138L56.4668 138.86L61.3239 140.047L66.1809 141.234L68.5569 131.512L63.6998 130.325ZM61.3239 140.047L56.4668 138.86C56.1078 140.328 55.681 141.778 55.186 143.208L59.9109 144.843L64.6359 146.479C65.2328 144.754 65.7479 143.006 66.1809 141.234L61.3239 140.047ZM59.9109 144.843L55.186 143.208L51.9103 152.671L56.6353 154.306L61.3602 155.942L64.6359 146.479L59.9109 144.843ZM56.6353 154.306L51.9103 152.671L48.6347 162.134L53.3596 163.77L58.0846 165.405L61.3602 155.942L56.6353 154.306ZM53.3596 163.77L48.6347 162.134C48.5835 162.282 48.7015 161.833 49.3106 161.403C49.9912 160.921 50.6548 160.903 50.8865 160.928L50.3491 165.899L49.8118 170.87C51.5045 171.053 53.4004 170.758 55.0845 169.567C56.6971 168.427 57.5899 166.835 58.0846 165.405L53.3596 163.77ZM50.3491 165.899L50.8865 160.928L42.1201 159.98L41.5828 164.951L41.0454 169.922L49.8118 170.87L50.3491 165.899ZM41.5828 164.951L42.1201 159.98L33.3538 159.032L32.8164 164.003L32.2791 168.975L41.0454 169.922L41.5828 164.951ZM32.8164 164.003L33.3538 159.032C32.6357 158.955 32.1605 158.897 31.8886 158.858C31.7326 158.835 31.7413 158.833 31.8325 158.853C31.8395 158.854 32.0926 158.906 32.4188 159.027C32.5282 159.068 33.0333 159.252 33.5884 159.655C33.8618 159.853 34.4534 160.32 34.9375 161.129C35.4965 162.063 35.9081 163.485 35.4518 165.073L30.6463 163.692L25.8408 162.311C24.8639 165.71 27.5683 167.642 27.7161 167.749C28.2809 168.159 28.8015 168.351 28.9322 168.399C29.301 168.537 29.6197 168.605 29.7152 168.626C29.9837 168.684 30.2619 168.727 30.4676 168.756C30.919 168.821 31.5361 168.894 32.2791 168.975L32.8164 164.003ZM30.6463 163.692L35.4518 165.073L35.5376 164.774L30.7321 163.393L25.9266 162.012L25.8408 162.311L30.6463 163.692ZM30.7321 163.393L35.5376 164.774L35.6234 164.476L30.8179 163.095L26.0124 161.714L25.9266 162.012L30.7321 163.393ZM30.8179 163.095L35.6234 164.476C35.6064 164.535 35.5992 164.556 35.647 164.403C35.6799 164.298 35.7282 164.143 35.7923 163.939C35.9204 163.531 36.1093 162.93 36.3593 162.135L31.5897 160.635L26.8201 159.134C26.3418 160.655 26.0496 161.584 26.0124 161.714L30.8179 163.095ZM31.5897 160.635L36.3593 162.135L39.3607 152.593L34.5911 151.092L29.8215 149.592L26.8201 159.134L31.5897 160.635Z" fill="black"/>
<path d="M58.4989 31.1229C58.1347 20.8241 66.1882 12.1798 76.4871 11.8156L80.8969 11.6596C91.1958 11.2953 99.84 19.3489 100.204 29.6478C100.569 39.9466 92.515 48.5908 82.2161 48.9551L77.8063 49.1111C67.5074 49.4754 58.8632 41.4218 58.4989 31.1229Z" fill="white"/>
<path d="M92.1001 42.0721L88.7174 38.3901L92.1001 42.0721ZM62.2609 36.0673L57.8819 38.4807L62.2609 36.0673ZM73.2528 11.6904L73.0594 16.6866L73.2528 11.6904ZM85.3874 14.8791L83.7601 19.6069C88.1618 21.122 90.6813 23.8444 91.8156 28.1169L96.6482 26.8339L101.481 25.5509C99.4677 17.9684 94.48 12.7209 87.0147 10.1513L85.3874 14.8791ZM96.6482 26.8339L91.8156 28.1169C92.4037 30.3321 92.3555 32.1339 91.9003 33.6592C91.4432 35.1905 90.4769 36.7737 88.7174 38.3901L92.1001 42.0721L95.4828 45.7542C98.3291 43.1393 100.424 40.0672 101.483 36.5191C102.543 32.965 102.466 29.2633 101.481 25.5509L96.6482 26.8339ZM92.1001 42.0721L88.7174 38.3901C85.3145 41.5163 81.6178 42.513 77.0918 41.5171L76.0173 46.4003L74.9428 51.2835C82.6491 52.9792 89.6742 51.0905 95.4828 45.7542L92.1001 42.0721ZM76.0173 46.4003L77.0918 41.5171C72.3983 40.4843 69.0084 37.9516 66.6399 33.6539L62.2609 36.0673L57.8819 38.4807C61.6229 45.2687 67.404 49.6246 74.9428 51.2835L76.0173 46.4003ZM62.2609 36.0673L66.6399 33.6539C65.5229 31.6271 65.1901 29.875 65.3435 28.2897C65.4995 26.6769 66.2004 24.8216 67.825 22.6903L63.8486 19.6591L59.8722 16.6279C57.3835 19.8926 55.7631 23.47 55.39 27.3266C55.0141 31.2106 55.9441 34.9646 57.8819 38.4807L62.2609 36.0673ZM63.8486 19.6591L67.825 22.6903C69.7845 20.1198 71.345 18.4277 72.517 17.4346C73.8878 16.273 73.9565 16.7214 73.0594 16.6866L73.2528 11.6904L73.4462 6.69413C70.3929 6.57595 67.8161 8.31068 66.0522 9.80531C64.0895 11.4685 62.026 13.8025 59.8722 16.6279L63.8486 19.6591ZM73.2528 11.6904L73.0594 16.6866C74.3614 16.737 77.7197 17.5277 83.7601 19.6069L85.3874 14.8791L87.0147 10.1513C81.1881 8.14575 76.4566 6.81064 73.4462 6.69413L73.2528 11.6904Z" fill="black"/>
</svg>
