<svg width="138" height="353" viewBox="0 0 138 353" fill="none" xmlns="http://www.w3.org/2000/svg">
<path d="M21.3394 100.311L21.4638 95.3127H21.4638L21.3394 100.311ZM31.3394 100.56L31.2149 105.559L31.3394 100.56ZM36.3394 100.573L36.4383 105.572L36.3394 100.573ZM46.3394 100.375L46.2404 95.3759L46.3394 100.375ZM56.3394 100.177L56.4383 105.176L56.3394 100.177ZM60.1433 101.315L63.5095 97.6176V97.6176L60.1433 101.315ZM65.3591 106.064L61.9928 109.761L65.3591 106.064ZM70.5748 110.813L73.9411 107.116V107.116L70.5748 110.813ZM72.0192 114.5L77.0114 114.22V114.22L72.0192 114.5ZM72.581 124.5L67.5889 124.78V124.78L72.581 124.5ZM73.1428 134.5L78.1349 134.22V134.22L73.1428 134.5ZM73.3107 139.5L78.3104 139.445V139.445L73.3107 139.5ZM73.4208 149.5L68.4211 149.555L73.4208 149.5ZM73.5309 159.5L78.5306 159.445L73.5309 159.5ZM73.4387 164.5L78.433 164.739L73.4387 164.5ZM72.9599 174.5L67.9656 174.261L72.9599 174.5ZM72.4811 184.5L77.4754 184.739L72.4811 184.5ZM72.224 189.5L77.2165 189.774V189.774L72.224 189.5ZM71.6745 199.5L66.682 199.226L71.6745 199.5ZM71.125 209.5L76.1174 209.774L71.125 209.5ZM69.5728 213.096L72.635 217.049H72.635L69.5728 213.096ZM63.9135 217.481L60.8512 213.528V213.528L63.9135 217.481ZM58.2542 221.865L61.3165 225.818L61.3165 225.818L58.2542 221.865ZM54.3394 222.87L54.1569 227.867H54.1569L54.3394 222.87ZM44.3394 222.505L44.5218 217.508H44.5218L44.3394 222.505ZM34.3394 222.14L34.1569 227.137H34.1569L34.3394 222.14ZM29.434 221.844L29.0097 226.826H29.0097L29.434 221.844ZM19.8127 221.024L20.2371 216.042H20.2371L19.8127 221.024ZM10.1914 220.205L9.76706 225.187H9.76707L10.1914 220.205ZM7.91964 217.5L12.9125 217.767L7.91964 217.5ZM8.45389 207.5L3.46101 207.233L8.45389 207.5ZM8.98815 197.5L13.981 197.767L8.98815 197.5ZM9.01581 192.5L4.02029 192.712V192.712L9.01581 192.5ZM8.59221 182.5L13.5877 182.288L8.59221 182.5ZM8.16861 172.5L3.17309 172.712L8.16861 172.5ZM8.32253 167.5L13.2957 168.017L8.32253 167.5ZM9.36181 157.5L4.3886 156.983L9.36181 157.5ZM10.4011 147.5L15.3743 148.017L10.4011 147.5ZM10.5701 142.5L15.5668 142.318L10.5701 142.5ZM10.2068 132.5L5.21012 132.682L10.2068 132.5ZM9.84355 122.5L14.8403 122.318L9.84355 122.5ZM9.59878 118L4.61352 118.384L9.59878 118ZM8.98295 110L13.9682 109.616L8.98295 110ZM8.36713 102L3.38188 102.384L8.36713 102ZM11.3394 100.062L11.4638 95.0638L11.3394 100.062ZM21.3394 100.311L21.2149 105.31L31.2149 105.559L31.3394 100.56L31.4638 95.5616L21.4638 95.3127L21.3394 100.311ZM31.3394 100.56L31.2149 105.559C32.956 105.602 34.6972 105.606 36.4383 105.572L36.3394 100.573L36.2404 95.5738C34.6482 95.6053 33.056 95.6012 31.4638 95.5616L31.3394 100.56ZM36.3394 100.573L36.4383 105.572L46.4383 105.374L46.3394 100.375L46.2404 95.3759L36.2404 95.5738L36.3394 100.573ZM46.3394 100.375L46.4383 105.374L56.4383 105.176L56.3394 100.177L56.2404 95.1779L46.2404 95.3759L46.3394 100.375ZM56.3394 100.177L56.4383 105.176C56.8815 105.167 57.0797 105.219 57.1075 105.227C57.1167 105.23 57.0804 105.22 57.0145 105.184C56.9468 105.147 56.8632 105.09 56.7771 105.012L60.1433 101.315L63.5095 97.6176C61.3611 95.6615 58.6506 95.1302 56.2404 95.1779L56.3394 100.177ZM60.1433 101.315L56.7771 105.012L61.9928 109.761L65.3591 106.064L68.7253 102.367L63.5095 97.6176L60.1433 101.315ZM65.3591 106.064L61.9928 109.761L67.2086 114.51L70.5748 110.813L73.9411 107.116L68.7253 102.367L65.3591 106.064ZM70.5748 110.813L67.2086 114.51C67.1162 114.426 67.0462 114.34 66.9974 114.267C66.9497 114.196 66.9322 114.151 66.9324 114.152C66.9365 114.162 67.0025 114.343 67.0271 114.78L72.0192 114.5L77.0114 114.22C76.8753 111.798 76.1231 109.102 73.9411 107.116L70.5748 110.813ZM72.0192 114.5L67.0271 114.78L67.5889 124.78L72.581 124.5L77.5731 124.22L77.0114 114.22L72.0192 114.5ZM72.581 124.5L67.5889 124.78L68.1506 134.78L73.1428 134.5L78.1349 134.22L77.5731 124.22L72.581 124.5ZM73.1428 134.5L68.1506 134.78C68.2401 136.372 68.2935 137.964 68.311 139.555L73.3107 139.5L78.3104 139.445C78.2913 137.703 78.2327 135.961 78.1349 134.22L73.1428 134.5ZM73.3107 139.5L68.311 139.555L68.4211 149.555L73.4208 149.5L78.4205 149.445L78.3104 139.445L73.3107 139.5ZM73.4208 149.5L68.4211 149.555L68.5312 159.555L73.5309 159.5L78.5306 159.445L78.4205 149.445L73.4208 149.5ZM73.5309 159.5L68.5312 159.555C68.5485 161.124 68.5196 162.692 68.4445 164.261L73.4387 164.5L78.433 164.739C78.5175 162.975 78.55 161.21 78.5306 159.445L73.5309 159.5ZM73.4387 164.5L68.4445 164.261L67.9656 174.261L72.9599 174.5L77.9542 174.739L78.433 164.739L73.4387 164.5ZM72.9599 174.5L67.9656 174.261L67.4868 184.261L72.4811 184.5L77.4754 184.739L77.9542 174.739L72.9599 174.5ZM72.4811 184.5L67.4868 184.261C67.4076 185.916 67.3225 187.571 67.2315 189.226L72.224 189.5L77.2165 189.774C77.3087 188.096 77.395 186.418 77.4754 184.739L72.4811 184.5ZM72.224 189.5L67.2315 189.226L66.682 199.226L71.6745 199.5L76.667 199.774L77.2165 189.774L72.224 189.5ZM71.6745 199.5L66.682 199.226L66.1325 209.226L71.125 209.5L76.1174 209.774L76.667 199.774L71.6745 199.5ZM71.125 209.5L66.1325 209.226C66.1104 209.627 66.048 209.736 66.0776 209.668C66.0948 209.628 66.1359 209.545 66.2137 209.443C66.293 209.338 66.3935 209.234 66.5105 209.144L69.5728 213.096L72.635 217.049C75.1268 215.118 75.9792 212.289 76.1174 209.774L71.125 209.5ZM69.5728 213.096L66.5105 209.144L60.8512 213.528L63.9135 217.481L66.9757 221.433L72.635 217.049L69.5728 213.096ZM63.9135 217.481L60.8512 213.528L55.1919 217.913L58.2542 221.865L61.3165 225.818L66.9757 221.433L63.9135 217.481ZM58.2542 221.865L55.1919 217.913C55.325 217.81 55.4018 217.802 55.3249 217.822C55.233 217.845 54.9842 217.891 54.5218 217.874L54.3394 222.87L54.1569 227.867C56.5333 227.954 59.1387 227.505 61.3165 225.818L58.2542 221.865ZM54.3394 222.87L54.5218 217.874L44.5218 217.508L44.3394 222.505L44.1569 227.502L54.1569 227.867L54.3394 222.87ZM44.3394 222.505L44.5218 217.508L34.5218 217.143L34.3394 222.14L34.1569 227.137L44.1569 227.502L44.3394 222.505ZM34.3394 222.14L34.5218 217.143C32.933 217.085 31.3786 216.991 29.8584 216.862L29.434 221.844L29.0097 226.826C30.6966 226.969 32.4124 227.073 34.1569 227.137L34.3394 222.14ZM29.434 221.844L29.8584 216.862L20.2371 216.042L19.8127 221.024L19.3884 226.006L29.0097 226.826L29.434 221.844ZM19.8127 221.024L20.2371 216.042L10.6157 215.223L10.1914 220.205L9.76707 225.187L19.3884 226.006L19.8127 221.024ZM10.1914 220.205L10.6157 215.223C10.6407 215.225 11.4982 215.316 12.2496 216.211C12.9731 217.072 12.9074 217.862 12.9125 217.767L7.91964 217.5L2.92676 217.233C2.84283 218.804 3.11126 220.879 4.59205 222.642C6.1007 224.438 8.13858 225.048 9.76706 225.187L10.1914 220.205ZM7.91964 217.5L12.9125 217.767L13.4468 207.767L8.45389 207.5L3.46101 207.233L2.92676 217.233L7.91964 217.5ZM8.45389 207.5L13.4468 207.767L13.981 197.767L8.98815 197.5L3.99527 197.233L3.46101 207.233L8.45389 207.5ZM8.98815 197.5L13.981 197.767C14.0786 195.941 14.0887 194.115 14.0113 192.288L9.01581 192.5L4.02029 192.712C4.08414 194.219 4.0758 195.726 3.99527 197.233L8.98815 197.5ZM9.01581 192.5L14.0113 192.288L13.5877 182.288L8.59221 182.5L3.59669 182.712L4.02029 192.712L9.01581 192.5ZM8.59221 182.5L13.5877 182.288L13.1641 172.288L8.16861 172.5L3.17309 172.712L3.59669 182.712L8.59221 182.5ZM8.16861 172.5L13.1641 172.288C13.1039 170.866 13.1476 169.443 13.2957 168.017L8.32253 167.5L3.34931 166.983C3.15106 168.891 3.09214 170.801 3.17309 172.712L8.16861 172.5ZM8.32253 167.5L13.2957 168.017L14.335 158.017L9.36181 157.5L4.3886 156.983L3.34931 166.983L8.32253 167.5ZM9.36181 157.5L14.335 158.017L15.3743 148.017L10.4011 147.5L5.42788 146.983L4.3886 156.983L9.36181 157.5ZM10.4011 147.5L15.3743 148.017C15.5715 146.119 15.6359 144.219 15.5668 142.318L10.5701 142.5L5.57339 142.682C5.62543 144.114 5.5771 145.547 5.42788 146.983L10.4011 147.5ZM10.5701 142.5L15.5668 142.318L15.2035 132.318L10.2068 132.5L5.21012 132.682L5.57339 142.682L10.5701 142.5ZM10.2068 132.5L15.2035 132.318L14.8403 122.318L9.84355 122.5L4.84685 122.682L5.21012 132.682L10.2068 132.5ZM9.84355 122.5L14.8403 122.318C14.7778 120.6 14.6929 119.031 14.584 117.616L9.59878 118L4.61352 118.384C4.7099 119.636 4.78818 121.067 4.84685 122.682L9.84355 122.5ZM9.59878 118L14.584 117.616L13.9682 109.616L8.98295 110L3.9977 110.384L4.61352 118.384L9.59878 118ZM8.98295 110L13.9682 109.616L13.3524 101.616L8.36713 102L3.38188 102.384L3.9977 110.384L8.98295 110ZM8.36713 102L13.3524 101.616C13.3019 100.961 13.2736 100.524 13.2621 100.272C13.2556 100.128 13.2586 100.131 13.2573 100.21C13.2572 100.216 13.256 100.438 13.2137 100.735C13.1994 100.836 13.1372 101.29 12.9229 101.835C12.8216 102.093 12.5602 102.707 12.0004 103.334C11.3904 104.016 10.1361 105 8.27579 105V100V95C6.41284 95 5.15616 95.985 4.54378 96.6703C3.98163 97.2994 3.71806 97.9172 3.61474 98.1804C3.39638 98.7365 3.33058 99.206 3.31331 99.3274C3.2651 99.6665 3.26026 99.9506 3.25874 100.04C3.25457 100.286 3.26386 100.538 3.27252 100.728C3.29144 101.142 3.32968 101.706 3.38188 102.384L8.36713 102ZM8.27579 100V105H8.52627V100V95H8.27579V100ZM8.52627 100V105H8.77674V100V95H8.52627V100ZM8.77674 100V105C8.71113 105 8.68069 104.999 8.84465 105.003C8.95377 105.005 9.11429 105.009 9.32732 105.014C9.75286 105.024 10.3819 105.04 11.2149 105.061L11.3394 100.062L11.4638 95.0638C9.87204 95.0242 8.90134 95 8.77674 95V100ZM11.3394 100.062L11.2149 105.061L21.2149 105.31L21.3394 100.311L21.4638 95.3127L11.4638 95.0638L11.3394 100.062Z" fill="#070707"/>
<path d="M40.0282 135L39.5831 139.98L40.0282 135ZM48.9793 135.8L49.4244 130.82L48.9793 135.8ZM51.2665 138.5L56.2656 138.401V138.401L51.2665 138.5ZM51.4645 148.5L46.4655 148.599L51.4645 148.5ZM51.6624 158.5L56.6614 158.401L51.6624 158.5ZM51.7286 163.5L56.7285 163.467L51.7286 163.5ZM51.7953 173.5L46.7954 173.533L51.7953 173.5ZM51.8621 183.5L56.862 183.467L51.8621 183.5ZM49.5748 186.344L50.314 191.289H50.314L49.5748 186.344ZM40.3591 187.722L39.6199 182.777H39.6199L40.3591 187.722ZM31.1433 189.099L31.8825 194.045H31.8825L31.1433 189.099ZM28.6674 186.799L23.678 187.124L28.6674 186.799ZM27.9798 176.222L32.9693 175.898L27.9798 176.222ZM27.2922 165.644L22.3027 165.969L27.2922 165.644ZM27.24 160.5L22.2457 160.261L27.24 160.5ZM27.7188 150.5L32.7131 150.739L27.7188 150.5ZM28.1976 140.5L23.2033 140.261L28.1976 140.5ZM31.0771 134.2L31.5222 129.22L31.0771 134.2ZM40.0282 135L39.5831 139.98L48.5342 140.78L48.9793 135.8L49.4244 130.82L40.4733 130.02L40.0282 135ZM48.9793 135.8L48.5342 140.78C48.3411 140.763 47.537 140.612 46.8549 139.807C46.2389 139.08 46.2645 138.448 46.2675 138.599L51.2665 138.5L56.2656 138.401C56.2356 136.885 55.8634 134.97 54.4851 133.343C53.0406 131.638 51.1093 130.97 49.4244 130.82L48.9793 135.8ZM51.2665 138.5L46.2675 138.599L46.4655 148.599L51.4645 148.5L56.4635 148.401L56.2656 138.401L51.2665 138.5ZM51.4645 148.5L46.4655 148.599L46.6634 158.599L51.6624 158.5L56.6614 158.401L56.4635 148.401L51.4645 148.5ZM51.6624 158.5L46.6634 158.599C46.6959 160.244 46.7177 161.889 46.7287 163.533L51.7286 163.5L56.7285 163.467C56.7172 161.778 56.6949 160.09 56.6614 158.401L51.6624 158.5ZM51.7286 163.5L46.7287 163.533L46.7954 173.533L51.7953 173.5L56.7952 173.467L56.7285 163.467L51.7286 163.5ZM51.7953 173.5L46.7954 173.533L46.8622 183.533L51.8621 183.5L56.862 183.467L56.7952 173.467L51.7953 173.5ZM51.8621 183.5L46.8622 183.533C46.8629 183.639 46.8352 183.033 47.4021 182.328C48.0081 181.574 48.717 181.417 48.8357 181.399L49.5748 186.344L50.314 191.289C51.9687 191.042 53.8267 190.296 55.1951 188.594C56.5245 186.941 56.8724 185.028 56.862 183.467L51.8621 183.5ZM49.5748 186.344L48.8357 181.399L39.6199 182.777L40.3591 187.722L41.0982 192.667L50.314 191.289L49.5748 186.344ZM40.3591 187.722L39.6199 182.777L30.4041 184.154L31.1433 189.099L31.8825 194.045L41.0982 192.667L40.3591 187.722ZM31.1433 189.099L30.4041 184.154C30.5366 184.135 31.6929 184.028 32.7754 185.033C33.7088 185.9 33.6767 186.779 33.6569 186.475L28.6674 186.799L23.678 187.124C23.7728 188.583 24.2107 190.726 25.9693 192.36C27.8771 194.132 30.214 194.294 31.8825 194.045L31.1433 189.099ZM28.6674 186.799L33.6569 186.475L32.9693 175.898L27.9798 176.222L22.9903 176.546L23.678 187.124L28.6674 186.799ZM27.9798 176.222L32.9693 175.898L32.2816 165.32L27.2922 165.644L22.3027 165.969L22.9903 176.546L27.9798 176.222ZM27.2922 165.644L32.2816 165.32C32.1785 163.734 32.1639 162.207 32.2343 160.739L27.24 160.5L22.2457 160.261C22.1564 162.126 22.1766 164.029 22.3027 165.969L27.2922 165.644ZM27.24 160.5L32.2343 160.739L32.7131 150.739L27.7188 150.5L22.7245 150.261L22.2457 160.261L27.24 160.5ZM27.7188 150.5L32.7131 150.739L33.1919 140.739L28.1976 140.5L23.2033 140.261L22.7245 150.261L27.7188 150.5ZM28.1976 140.5L33.1919 140.739C33.2314 139.913 33.2647 139.277 33.2917 138.821C33.3052 138.592 33.3164 138.422 33.3253 138.304C33.3364 138.155 33.3382 138.165 33.3275 138.247L28.3695 137.6L23.4116 136.953C23.3428 137.48 23.2768 138.726 23.2033 140.261L28.1976 140.5ZM28.3695 137.6L33.3275 138.247L33.5363 136.647L28.5783 136L23.6204 135.353L23.4116 136.953L28.3695 137.6ZM28.5783 136L33.5363 136.647L33.7451 135.047L28.7872 134.4L23.8292 133.753L23.6204 135.353L28.5783 136ZM28.7872 134.4L33.7451 135.047C33.4059 137.646 31.3674 138.646 30.8768 138.851C30.5344 138.994 30.2584 139.058 30.1177 139.087C29.9655 139.117 29.8595 139.128 29.8208 139.131C29.7501 139.137 29.9579 139.12 30.632 139.18L31.0771 134.2L31.5222 129.22C30.7045 129.147 29.7847 129.096 28.9507 129.169C28.5778 129.202 27.8299 129.287 27.0229 129.624C26.3328 129.912 24.1858 131.02 23.8292 133.753L28.7872 134.4ZM31.0771 134.2L30.632 139.18L39.5831 139.98L40.0282 135L40.4733 130.02L31.5222 129.22L31.0771 134.2Z" fill="#070707"/>
<path d="M31.9119 145.377L75.8125 177.362L74.9042 198.029L31.0036 166.044L31.9119 145.377Z" fill="white"/>
<path d="M42.0011 153.048L41.6811 157.969L42.0011 153.048ZM50.0724 159.186L50.3925 154.265L50.0724 159.186ZM54.113 162.143L53.9735 167.195L54.113 162.143ZM62.204 167.834L62.3435 162.781L62.204 167.834ZM70.295 173.525L70.1555 178.577L70.295 173.525ZM72.5796 177.257L76.5785 179.102L76.5785 179.102L72.5796 177.257ZM73.627 186.498L69.6281 184.653L69.6282 184.653L73.627 186.498ZM74.6744 195.738L78.6733 197.583L78.6733 197.583L74.6744 195.738ZM72.9065 196.719L72.9206 201.876L72.9206 201.876L72.9065 196.719ZM64.7873 191.401L64.7731 186.244L64.7873 191.401ZM56.6682 186.082L56.6824 191.239L56.6682 186.082ZM52.6166 183.308L52.4416 188.335L52.4416 188.335L52.6166 183.308ZM44.5295 177.529L44.7045 172.502L44.5295 177.529ZM36.4423 171.751L36.2673 176.778L36.2673 176.778L36.4423 171.751ZM34.1275 167.783L30.1312 165.961L34.1275 167.783ZM32.9551 157.692L36.9513 159.514L32.9551 157.692ZM31.7827 147.6L27.7864 145.778L31.7827 147.6ZM33.9297 146.911L34.2497 141.991L33.9297 146.911ZM42.0011 153.048L41.6811 157.969L49.7524 164.106L50.0724 159.186L50.3925 154.265L42.3211 148.128L42.0011 153.048ZM50.0724 159.186L49.7524 164.106C51.1577 165.175 52.5648 166.204 53.9735 167.195L54.113 162.143L54.2525 157.09C52.9643 156.184 51.6776 155.243 50.3925 154.265L50.0724 159.186ZM54.113 162.143L53.9735 167.195L62.0645 172.886L62.204 167.834L62.3435 162.781L54.2525 157.09L54.113 162.143ZM62.204 167.834L62.0645 172.886L70.1555 178.577L70.295 173.525L70.4345 168.472L62.3435 162.781L62.204 167.834ZM70.295 173.525L70.1555 178.577C70.3194 178.692 69.9262 178.465 69.4163 177.632C69.155 177.205 68.9413 176.743 68.7916 176.297C68.6479 175.87 68.5977 175.562 68.5808 175.413L72.5796 177.257L76.5785 179.102C76.362 177.193 75.6939 174.92 74.3388 172.706C73.0673 170.629 71.6191 169.305 70.4345 168.472L70.295 173.525ZM72.5796 177.257L68.5808 175.413L69.6281 184.653L73.627 186.498L77.6259 188.343L76.5785 179.102L72.5796 177.257ZM73.627 186.498L69.6282 184.653L70.6755 193.894L74.6744 195.738L78.6733 197.583L77.6259 188.343L73.627 186.498ZM74.6744 195.738L70.6755 193.894C70.6453 193.627 70.5601 192.132 71.5689 191.572C72.3863 191.119 73.1763 191.748 72.8923 191.562L72.9065 196.719L72.9206 201.876C73.9898 202.576 75.7511 203.485 77.1578 202.705C78.7559 201.819 78.8781 199.39 78.6733 197.583L74.6744 195.738ZM72.9065 196.719L72.8923 191.562L64.7731 186.244L64.7873 191.401L64.8015 196.557L72.9206 201.876L72.9065 196.719ZM64.7873 191.401L64.7731 186.244L56.654 180.925L56.6682 186.082L56.6824 191.239L64.8015 196.557L64.7873 191.401ZM56.6682 186.082L56.654 180.925C55.3637 180.08 54.0763 179.199 52.7916 178.281L52.6166 183.308L52.4416 188.335C53.8527 189.343 55.2663 190.311 56.6824 191.239L56.6682 186.082ZM52.6166 183.308L52.7916 178.281L44.7045 172.502L44.5295 177.529L44.3544 182.556L52.4416 188.335L52.6166 183.308ZM44.5295 177.529L44.7045 172.502L36.6174 166.723L36.4423 171.751L36.2673 176.778L44.3544 182.556L44.5295 177.529ZM36.4423 171.751L36.6174 166.723C36.5232 166.656 36.9404 166.928 37.4357 167.777C37.9713 168.695 38.104 169.435 38.1237 169.605L34.1275 167.783L30.1312 165.961C30.3463 167.813 30.9626 170.055 32.2698 172.296C33.5367 174.467 35.0136 175.882 36.2673 176.778L36.4423 171.751ZM34.1275 167.783L38.1237 169.605L36.9513 159.514L32.9551 157.692L28.9588 155.87L30.1312 165.961L34.1275 167.783ZM32.9551 157.692L36.9513 159.514L35.7789 149.422L31.7827 147.6L27.7864 145.778L28.9588 155.87L32.9551 157.692ZM31.7827 147.6L35.7789 149.422C35.6823 148.59 35.6184 148.013 35.583 147.661C35.5639 147.471 35.5603 147.418 35.5621 147.443C35.5629 147.455 35.5652 147.49 35.5675 147.54C35.5694 147.582 35.5737 147.684 35.5736 147.816C35.5735 147.877 35.5758 148.258 35.505 148.689C35.4773 148.858 35.3775 149.455 35.0448 149.977C34.7235 150.481 33.5828 151.712 31.3758 150.148L31.5318 145.107L31.6878 140.067C29.479 138.502 28.3368 139.732 28.0141 140.239C27.6802 140.763 27.5792 141.364 27.5506 141.538C27.4781 141.98 27.4795 142.379 27.4794 142.464C27.4791 142.735 27.4954 142.975 27.5012 143.061C27.5168 143.289 27.5411 143.545 27.5638 143.77C27.612 144.25 27.6877 144.928 27.7864 145.778L31.7827 147.6ZM31.5318 145.107L31.3758 150.148L31.5447 150.268L31.7007 145.227L31.8567 140.186L31.6878 140.067L31.5318 145.107ZM31.7007 145.227L31.5447 150.268L31.7136 150.388L31.8696 145.347L32.0257 140.306L31.8567 140.186L31.7007 145.227ZM31.8696 145.347L31.7136 150.388C31.6795 150.363 31.653 150.344 31.6445 150.338C31.6327 150.329 31.6234 150.322 31.6186 150.319C31.6089 150.312 31.6024 150.307 31.6017 150.306C31.5997 150.305 31.6022 150.307 31.6119 150.314C31.6304 150.328 31.6604 150.35 31.7039 150.383C31.79 150.449 31.918 150.546 32.0891 150.676C32.4307 150.935 32.9374 151.32 33.6097 151.831L33.9297 146.911L34.2497 141.991C33.0049 141.044 32.1632 140.403 32.0257 140.306L31.8696 145.347ZM33.9297 146.911L33.6097 151.831L41.6811 157.969L42.0011 153.048L42.3211 148.128L34.2497 141.991L33.9297 146.911Z" fill="#070707"/>
<path d="M64.4989 192.123C64.1347 181.824 72.1882 173.18 82.4871 172.816L86.8969 172.66C97.1958 172.295 105.84 180.349 106.204 190.648C106.569 200.947 98.515 209.591 88.2161 209.955L83.8063 210.111C73.5074 210.475 64.8632 202.422 64.4989 192.123Z" fill="white"/>
<path d="M98.1001 203.072L94.7174 199.39L98.1001 203.072ZM68.2609 197.067L63.8819 199.481L68.2609 197.067ZM79.2528 172.69L79.0594 177.687L79.2528 172.69ZM91.3874 175.879L89.7601 180.607C94.1618 182.122 96.6813 184.844 97.8156 189.117L102.648 187.834L107.481 186.551C105.468 178.968 100.48 173.721 93.0147 171.151L91.3874 175.879ZM102.648 187.834L97.8156 189.117C98.4037 191.332 98.3555 193.134 97.9003 194.659C97.4432 196.191 96.4769 197.774 94.7174 199.39L98.1001 203.072L101.483 206.754C104.329 204.139 106.424 201.067 107.483 197.519C108.543 193.965 108.466 190.263 107.481 186.551L102.648 187.834ZM98.1001 203.072L94.7174 199.39C91.3145 202.516 87.6178 203.513 83.0918 202.517L82.0173 207.4L80.9428 212.283C88.6491 213.979 95.6742 212.09 101.483 206.754L98.1001 203.072ZM82.0173 207.4L83.0918 202.517C78.3983 201.484 75.0084 198.952 72.6399 194.654L68.2609 197.067L63.8819 199.481C67.6229 206.269 73.404 210.625 80.9428 212.283L82.0173 207.4ZM68.2609 197.067L72.6399 194.654C71.5229 192.627 71.1901 190.875 71.3435 189.29C71.4995 187.677 72.2004 185.822 73.825 183.69L69.8486 180.659L65.8722 177.628C63.3835 180.893 61.7631 184.47 61.39 188.327C61.0141 192.211 61.9441 195.965 63.8819 199.481L68.2609 197.067ZM69.8486 180.659L73.825 183.69C75.7845 181.12 77.345 179.428 78.517 178.435C79.8878 177.273 79.9565 177.721 79.0594 177.687L79.2528 172.69L79.4462 167.694C76.3929 167.576 73.8161 169.311 72.0522 170.805C70.0895 172.468 68.026 174.803 65.8722 177.628L69.8486 180.659ZM79.2528 172.69L79.0594 177.687C80.3614 177.737 83.7197 178.528 89.7601 180.607L91.3874 175.879L93.0147 171.151C87.1881 169.146 82.4566 167.811 79.4462 167.694L79.2528 172.69Z" fill="#070707"/>
</svg>
