<svg width="586" height="182" viewBox="0 0 586 182" fill="none" xmlns="http://www.w3.org/2000/svg">
<path d="M434.773 0.28125L444.773 0.789062L454.773 1.33594C456.461 1.42622 458.164 1.53456 459.852 1.64844L479.852 2.97656C481.318 3.07495 482.8 3.08965 484.266 3.01562L504.266 2C505.919 1.91648 507.573 1.85641 509.227 1.76562L529.227 0.671875C530.984 0.575344 532.742 0.511518 534.5 0.515625L544.5 0.554688H554.5C556.459 0.559528 558.399 0.747427 560.281 1.10156L569.695 2.85938L579.109 4.65625C580.74 4.96464 582.554 5.75647 583.875 7.42969C585.164 9.07083 585.532 10.9593 585.516 12.5469L585.281 32.5469C585.261 34.2487 585.221 35.9623 585.164 37.6641L584.812 47.6641L584.5 57.6641C584.442 59.3799 584.335 61.1046 584.227 62.8203L582.977 82.8203C582.882 84.3181 582.845 85.8153 582.898 87.3125L583.25 97.3125L583.641 107.312C583.706 109.145 583.681 110.988 583.562 112.82L582.898 122.82L582.273 132.82C582.174 134.355 582.133 135.896 582.156 137.43L582.273 147.43L582.43 157.43C582.463 159.645 582.118 161.88 581.102 163.914L577.703 170.711L574.305 177.469C573.532 179.008 572.307 180.234 570.711 180.984C569.201 181.694 567.631 181.87 566.258 181.805L556.258 181.336L546.258 180.828C544.5 180.744 542.741 180.626 540.984 180.438L530.984 179.344L520.984 178.289C519.625 178.143 518.24 178.104 516.883 178.211L506.883 179.031L496.883 179.812C495.113 179.952 493.341 180.023 491.57 180.047L481.57 180.203L471.57 180.32C469.774 180.344 467.975 180.284 466.18 180.164L446.18 178.836C444.779 178.742 443.363 178.75 441.961 178.875L421.961 180.672C420.156 180.834 418.338 180.934 416.531 180.945L406.531 181.023L396.531 181.062L381.531 181.18L371.531 181.297C369.878 181.312 368.224 181.313 366.57 181.336L356.57 181.492L346.57 181.609C344.894 181.633 343.208 181.674 341.531 181.688L321.531 181.844C319.707 181.858 317.884 181.773 316.062 181.609L296.062 179.812C294.685 179.689 293.299 179.696 291.922 179.812L281.922 180.633L271.922 181.492C270.035 181.652 268.146 181.701 266.258 181.609L256.258 181.102L246.258 180.633C244.735 180.559 243.211 180.541 241.688 180.594L221.688 181.297C219.885 181.359 218.06 181.343 216.258 181.258L196.258 180.32C194.738 180.249 193.207 180.221 191.688 180.281L181.688 180.672L171.688 181.102C169.856 181.174 168.011 181.137 166.18 181.023L156.18 180.398L146.18 179.812C144.708 179.722 143.237 179.699 141.766 179.773L121.766 180.789C119.874 180.885 117.952 180.87 116.062 180.711L96.0625 178.992C94.5423 178.865 93.0109 178.835 91.4922 178.836H66.5312L46.5312 178.914C44.9624 178.92 43.3741 178.972 41.8047 179.07L21.8047 180.32C19.3315 180.473 16.1056 179.961 13.9922 177.156L9.92969 171.727L5.90625 166.336C4.49535 164.455 3.88073 162.195 3.64062 160.047L1.375 140.047C1.15957 138.115 1.11827 136.163 1.21875 134.227L1.72656 124.227L2.27344 114.227C2.35708 112.612 2.38808 110.997 2.42969 109.383L2.97656 89.3828C3.01583 87.8561 2.98734 86.3008 2.89844 84.7734L1.72656 64.7734C1.62529 63.0287 1.54479 61.2842 1.53125 59.5391L1.375 39.5391C1.36227 37.8986 1.37056 36.2576 1.33594 34.6172L1.10156 24.6172L0.90625 14.6172C0.887986 13.7532 0.893713 12.9913 0.90625 12.3906C0.915089 11.9675 0.928793 11.1075 1.10156 10.3594L1.57031 8.36719L2 6.375L2.58594 4.96875C3.28508 3.74473 4.32028 3.08867 4.85156 2.82031C5.61348 2.43777 6.33551 2.26743 6.76562 2.19531C7.67716 2.04274 8.69437 2.05536 9.61719 2.07812L29.6172 2.54688C31.2033 2.58636 32.7968 2.61706 34.3828 2.58594L54.3828 2.19531C56.0694 2.16193 57.7743 2.12847 59.4609 2.11719L79.4609 1.96094C81.0451 1.95036 82.642 1.93276 84.2266 1.84375L94.2266 1.25781L104.227 0.710938C105.966 0.613322 107.721 0.534778 109.461 0.515625L119.461 0.4375L129.461 0.320312C131.219 0.30127 132.977 0.314383 134.734 0.398438L144.734 0.867188L154.734 1.375C156.412 1.45534 158.096 1.51718 159.773 1.60938L179.773 2.70312C181.228 2.78305 182.693 2.76962 184.148 2.66406L194.148 1.96094L204.148 1.21875C205.992 1.08542 207.851 1.07327 209.695 1.14062L219.695 1.49219L229.695 1.88281C231.23 1.9385 232.77 1.90541 234.305 1.84375L254.305 1.0625C256.126 0.989487 257.953 1.0043 259.773 1.10156L269.773 1.60938L279.773 2.15625C281.279 2.23645 282.8 2.25906 284.305 2.19531L304.305 1.33594C306.206 1.25616 308.109 1.2954 310.008 1.49219L330.008 3.60156C331.439 3.75032 332.877 3.77001 334.305 3.71875L354.305 3.01562C355.927 2.95668 357.565 2.88114 359.188 2.78125L379.188 1.53125C380.969 1.42152 382.757 1.39687 384.539 1.41406L394.539 1.49219L404.539 1.60938C406.085 1.62448 407.641 1.58431 409.188 1.49219L419.188 0.867188L429.188 0.28125C431.042 0.170324 432.918 0.182052 434.773 0.28125ZM429.812 10.2812L409.812 11.4531C408.034 11.5595 406.24 11.6265 404.461 11.6094L394.461 11.4922L384.461 11.4141C382.915 11.3989 381.359 11.4361 379.812 11.5312L369.812 12.1172L359.812 12.7422C358.108 12.8471 356.4 12.9536 354.695 13.0156L334.695 13.7188C332.797 13.7877 330.887 13.72 328.992 13.5234L318.992 12.5078L308.992 11.4531C307.566 11.3049 306.118 11.2757 304.695 11.3359L294.695 11.7656L284.695 12.1562C282.874 12.2329 281.047 12.2535 279.227 12.1562L259.227 11.0625C257.718 10.9821 256.204 11.0019 254.695 11.0625L234.695 11.8438C232.903 11.9156 231.097 11.9092 229.305 11.8438L209.305 11.1406C207.824 11.087 206.333 11.1113 204.852 11.2188L194.852 11.9219L184.852 12.6641C182.977 12.7996 181.102 12.8061 179.227 12.7031L159.227 11.6094C157.573 11.5185 155.919 11.4151 154.266 11.3359L134.266 10.3984C132.697 10.3233 131.108 10.303 129.539 10.3203L119.539 10.4375L109.539 10.5156C107.953 10.5333 106.36 10.5828 104.773 10.6719L94.7734 11.2578L84.7734 11.8047C83.0287 11.9026 81.2841 11.9492 79.5391 11.9609L59.5391 12.1172C57.9002 12.1281 56.2561 12.163 54.6172 12.1953L34.6172 12.5859C32.8784 12.6204 31.1216 12.5901 29.3828 12.5469L19.3828 12.3125L10.9453 12.0781L10.9062 12.2344L10.8672 12.5859C10.8589 12.9834 10.8895 13.5859 10.9062 14.3828L11.1016 24.3828L11.3359 34.3828C11.3716 36.0716 11.3619 37.7721 11.375 39.4609L11.5312 59.4609C11.5435 61.0435 11.5954 62.6436 11.6875 64.2266L12.8594 84.2266C12.9635 86.0235 12.9834 87.8197 12.9375 89.6172L12.7031 99.6172L12.4297 109.617C12.3857 111.327 12.3231 113.063 12.2344 114.773L11.2188 134.773C11.1474 136.163 11.1802 137.56 11.3359 138.953L12.4297 148.953L13.5625 158.953C13.6252 159.51 13.7178 159.889 13.7969 160.125C13.8746 160.356 13.9143 160.412 13.875 160.359L17.9375 165.75L21.375 170.32L31.1797 169.734L41.1797 169.109C42.9436 168.999 44.7277 168.921 46.4922 168.914L66.4922 168.836H91.4922C93.3002 168.835 95.1154 168.879 96.9219 169.031L106.922 169.891L116.922 170.711C118.365 170.832 119.816 170.862 121.258 170.789L141.258 169.773C143.107 169.68 144.956 169.698 146.805 169.812L166.805 171.062C168.301 171.155 169.801 171.161 171.297 171.102L181.297 170.711L191.297 170.281C193.106 170.209 194.918 170.236 196.727 170.32L216.727 171.258C218.257 171.33 219.805 171.35 221.336 171.297L241.336 170.594C243.133 170.532 244.93 170.546 246.727 170.633L256.727 171.102L266.727 171.609C268.166 171.68 269.622 171.653 271.062 171.531L281.062 170.672L291.062 169.852C293.019 169.686 295.005 169.676 296.961 169.852L316.961 171.648C318.459 171.783 319.957 171.855 321.453 171.844L341.453 171.688C343.105 171.674 344.763 171.632 346.414 171.609L356.414 171.492L366.414 171.336C368.088 171.313 369.779 171.312 371.453 171.297L381.453 171.18L396.453 171.062L406.453 171.023L416.453 170.945C417.98 170.936 419.534 170.848 421.062 170.711L441.062 168.914C442.985 168.742 444.92 168.746 446.844 168.875L466.844 170.203C468.368 170.305 469.891 170.34 471.414 170.32L481.414 170.203L491.414 170.047C492.969 170.026 494.545 169.974 496.102 169.852L506.102 169.031L516.102 168.25C518.078 168.094 520.065 168.116 522.039 168.328L532.039 169.422L542.039 170.477C543.603 170.645 545.164 170.792 546.727 170.867L556.727 171.336L565.945 171.766L568.758 166.219L572.156 159.461C572.265 159.245 572.445 158.69 572.43 157.586L572.273 147.586L572.156 137.586C572.129 135.792 572.158 133.988 572.273 132.195L572.938 122.195L573.562 112.195C573.659 110.695 573.694 109.164 573.641 107.664L573.289 97.6641L572.898 87.6641C572.834 85.8414 572.862 84.0173 572.977 82.1953L573.641 72.1953L574.266 62.1953C574.367 60.5839 574.446 58.9627 574.5 57.3516L574.812 47.3516L575.164 37.3516C575.219 35.7214 575.262 34.0598 575.281 32.4297L575.398 22.4297L575.477 14.1094L567.859 12.7031L558.445 10.9453C557.194 10.7099 555.87 10.5588 554.5 10.5547H544.5L534.5 10.5156C532.929 10.5117 531.345 10.5465 529.773 10.6328L509.773 11.7266C508.099 11.8185 506.408 11.9155 504.734 12L484.734 13.0156C482.877 13.1087 481.005 13.1018 479.148 12.9766L469.148 12.2734L459.148 11.6094C457.51 11.4989 455.865 11.4235 454.227 11.3359L434.227 10.2422C432.755 10.1638 431.284 10.1937 429.812 10.2812Z" fill="#0254D9"/>
<path d="M131.117 71.3516C132.052 71.6474 133.006 72.1575 133.852 72.9531C134.68 73.7353 135.218 74.6338 135.57 75.5312L136.117 78.1875L136.703 88.1875L137.289 98.2266C137.389 99.9671 137.465 101.722 137.484 103.461L137.562 113.461L137.68 123.461C137.695 125.084 137.329 127.102 135.844 128.773C134.353 130.45 132.39 131.067 130.766 131.234L120.883 132.25L110.961 133.227C109.057 133.42 107.139 133.488 105.219 133.383L85.2188 132.289C83.7663 132.21 82.2969 132.223 80.8438 132.328L70.8438 133.031L60.8438 133.773C59.2886 133.883 57.2064 133.639 55.4141 132.172C53.5762 130.666 52.9358 128.601 52.7969 126.977L51.1562 107.836C51.0135 106.166 50.9136 104.452 50.8438 102.719L50.0625 82.7188C50.0282 81.865 49.9837 81.1142 49.9844 80.5312C49.9849 80.2415 50.0068 79.9179 50.0234 79.6328C50.0343 79.4457 50.0694 78.9181 50.2188 78.3438L51.0781 75.1406C51.7342 72.6491 53.8209 71.7562 54.2422 71.5859C54.9324 71.3098 55.5839 71.2051 55.9609 71.1562C56.7805 71.0505 57.7167 71.0559 58.6172 71.0781L78.6172 71.5469C80.2033 71.5864 81.7968 71.6171 83.3828 71.5859L103.383 71.1953C105.069 71.1619 106.774 71.1285 108.461 71.1172L128.461 70.9609L131.117 71.3516ZM118.539 81.0391L108.539 81.1172C106.9 81.1281 105.256 81.163 103.617 81.1953L83.6172 81.5859C81.8784 81.6204 80.1216 81.5901 78.3828 81.5469L68.3828 81.3125L59.9844 81.0781C59.9911 81.4042 60.0431 81.8049 60.0625 82.2891L60.8438 102.289C60.9078 103.884 61.0263 105.457 61.1562 106.977L61.9766 116.547L62.5234 123.617L70.1406 123.07L80.1406 122.328C82.0146 122.192 83.8909 122.186 85.7656 122.289L105.766 123.383C107.167 123.46 108.566 123.444 109.945 123.305L119.867 122.289L127.641 121.469L127.562 113.539L127.484 103.539C127.467 101.956 127.381 100.36 127.289 98.7734L126.742 88.7734L126.273 80.9609L118.539 81.0391Z" fill="#0254D9"/>
<path d="M131.078 80.6484C132.048 80.344 133.057 79.8124 133.93 78.8906C135.734 76.9783 135.843 74.6109 135.648 73.0703L134.477 63.6562L133.266 54.2812C133.055 52.6301 132.356 50.7359 130.688 49.3203C129.062 47.9409 127.146 47.5432 125.57 47.5234L115.57 47.4062L105.57 47.3281C103.805 47.3087 102.022 47.3218 100.258 47.4062L90.2578 47.875L80.2578 48.3828C78.4289 48.4705 76.6926 48.6191 75.0625 48.8906L66.5859 50.2969L58.1484 51.7031C56.7678 51.9331 55.1728 52.5223 53.8516 53.8125C52.4775 55.1603 51.8543 56.8461 51.7031 58.4219L50.9609 66.0391L50.2578 73.6172C50.1958 74.2669 50.1217 74.8501 50.1016 75.2969C50.0929 75.4912 50.0829 75.8177 50.1016 76.1562C50.1084 76.2778 50.1294 76.708 50.2578 77.2109C50.3143 77.4294 50.5062 78.0882 50.9609 78.7734C51.4229 79.4639 52.7674 81 55.1406 81H55.9219C56.1182 80.9984 57.0801 80.9601 58.6172 80.9219L78.6172 80.4531C80.2033 80.4136 81.7968 80.3829 83.3828 80.4141L103.383 80.8047C105.069 80.8381 106.774 80.8715 108.461 80.8828L128.461 81.0391L131.078 80.6484ZM118.539 70.9609L108.539 70.8828C106.9 70.8719 105.256 70.837 103.617 70.8047L83.6172 70.4141C81.8784 70.3796 80.1216 70.4099 78.3828 70.4531L68.3828 70.6875L60.5312 70.8828L60.9219 66.9766L61.4688 61.3125L76.7031 58.7734C77.8884 58.576 79.2286 58.4159 80.7266 58.3438L100.727 57.4062C102.295 57.3311 103.885 57.2718 105.453 57.2891L115.453 57.4062L123.578 57.5234L124.555 64.9453L125.297 71.0391L118.539 70.9609Z" fill="#0254D9"/>
</svg>
