<svg width="1320" height="485" viewBox="0 0 1320 485" fill="none" xmlns="http://www.w3.org/2000/svg">
<path d="M881.746 208.312C883.025 202.981 884.015 197.56 885.661 192.348C887.372 186.93 889.521 181.626 891.838 176.434C894.524 170.415 899.401 166.649 905.525 164.406C913.456 161.499 921.706 160.178 930.065 159.391C933.196 159.098 936.331 158.845 940.017 158.525C932.879 156.741 926.248 155.353 919.797 153.378C915.056 151.927 910.451 149.914 905.963 147.776C900.42 145.136 896.721 140.675 894.511 134.913C890.888 125.47 889.623 115.592 888.888 105.601C888.797 104.37 888.656 103.142 888.51 101.914C888.499 101.822 888.259 101.757 887.726 101.445C886.92 105.105 886.34 108.712 885.314 112.187C883.549 118.163 881.742 124.146 879.523 129.96C876.182 138.713 869.76 144.12 860.701 146.692C851.719 149.24 842.553 150.322 833.307 151.045C832.256 151.127 831.206 151.185 829.35 151.31C836.786 153.186 843.489 154.599 850.006 156.613C854.741 158.076 859.326 160.137 863.81 162.282C869.182 164.854 872.738 169.22 874.913 174.773C878.603 184.193 879.882 194.07 880.615 204.06C880.718 205.463 880.801 206.867 880.893 208.269C881.178 208.283 881.462 208.298 881.746 208.312Z" fill="#151317"/>
<path d="M1095.48 2.33038C1094.23 7.86429 1095.48 13.4383 1091.71 16.7268C1088.34 19.6628 1083.88 21.3335 1079.5 23.784C1090.35 22.8214 1097.72 26.6978 1100.18 38.0836C1100.34 37.2317 1100.61 36.3856 1100.66 35.5258C1101.2 25.7162 1103.44 22.7834 1112.8 19.768C1113.81 19.4417 1114.85 19.1971 1115.68 18.9662C1111.21 17.7522 1106.28 17.2284 1102.2 15.0878C1097.99 12.8844 1097.51 7.53346 1095.48 2.33038Z" fill="#151317"/>
<path d="M1136.48 214.33C1135.23 219.864 1136.48 225.438 1132.71 228.727C1129.34 231.663 1124.88 233.333 1120.5 235.784C1131.35 234.821 1138.72 238.698 1141.18 250.084C1141.34 249.232 1141.61 248.386 1141.66 247.526C1142.2 237.716 1144.44 234.783 1153.8 231.768C1154.81 231.442 1155.85 231.197 1156.68 230.966C1152.21 229.752 1147.28 229.228 1143.2 227.088C1138.99 224.884 1138.51 219.533 1136.48 214.33Z" fill="#151317"/>
<path d="M1198.27 346.758C1199.17 348.23 1199.91 349.83 1200.99 351.152C1211.79 364.338 1222.62 377.488 1233.48 390.624C1236.56 394.348 1238.94 398.353 1239.6 403.263C1240.6 410.735 1238.35 417.087 1233.58 422.815C1221.93 436.789 1210.42 450.866 1198.85 464.9C1198.12 465.778 1197.39 466.654 1197 468.01C1198.05 467.187 1199.12 466.387 1200.15 465.538C1214.05 454.068 1227.93 442.581 1241.84 431.123C1252.34 422.468 1263.42 422.491 1273.9 431.14C1287.3 442.189 1300.68 453.253 1314.11 464.266C1315.31 465.254 1316.78 465.921 1318.12 466.738L1318.02 466.852C1317.09 465.536 1316.23 464.159 1315.21 462.915C1304.3 449.634 1293.57 436.21 1282.39 423.163C1273.51 412.798 1274.08 400.001 1282.49 390.215C1294.96 375.697 1306.94 360.759 1319.14 346L1319.17 346.128C1317.68 346.983 1316.04 347.646 1314.73 348.72C1300.95 360.02 1287.22 371.366 1273.5 382.743C1267.33 387.86 1260.44 389.984 1252.52 388.167C1248.44 387.232 1245.02 385.066 1241.83 382.421C1228.99 371.781 1216.13 361.167 1203.25 350.575C1201.63 349.244 1199.87 348.097 1198.17 346.863L1198.27 346.758Z" fill="#151317"/>
<path d="M559.45 240.526C560.805 241.595 562.057 242.839 563.529 243.705C578.217 252.345 592.933 260.936 607.662 269.506C611.838 271.936 615.459 274.87 617.774 279.249C621.302 285.912 621.383 292.652 618.886 299.678C612.795 316.816 606.856 334.007 600.853 351.177C600.476 352.252 600.092 353.327 600.196 354.733C600.896 353.598 601.622 352.478 602.295 351.325C611.369 335.756 620.421 320.177 629.509 304.617C636.374 292.862 646.771 289.054 659.602 293.543C675.994 299.276 692.378 305.029 708.784 310.72C710.256 311.23 711.862 311.349 713.405 311.651L713.35 311.792C712.017 310.881 710.735 309.886 709.346 309.072C694.522 300.382 679.807 291.499 664.807 283.122C652.892 276.468 649.001 264.264 653.505 252.174C660.185 234.238 666.264 216.077 672.6 198.012L672.678 198.121C671.576 199.438 670.265 200.628 669.407 202.088C660.388 217.455 651.422 232.852 642.488 248.271C638.47 255.205 632.736 259.582 624.673 260.618C620.522 261.152 616.568 260.3 612.66 258.922C596.934 253.378 581.195 247.868 565.449 242.383C563.471 241.694 561.415 241.229 559.394 240.659L559.45 240.526Z" fill="#151317"/>
<path d="M900.919 431.616C905.594 440.736 909.55 448.461 913.507 456.186C914.128 455.937 914.748 455.689 915.369 455.44C912.212 447.377 909.053 439.313 905.306 429.742C915.255 432.932 923.759 435.658 932.266 438.385C932.495 437.738 932.724 437.094 932.951 436.448C924.775 433.039 916.599 429.628 906.393 425.375C919.549 418.767 931.231 412.897 942.915 407.027C942.633 406.433 942.349 405.839 942.067 405.246C930.213 410.408 918.359 415.571 904.345 421.674C909.178 407.448 913.356 395.15 917.535 382.853C916.897 382.568 916.26 382.284 915.623 382C910.843 393.978 906.061 405.953 900.406 420.12C893.729 406.534 888.007 394.896 882.287 383.255C881.648 383.505 881.011 383.754 880.374 384.002C885.49 395.915 890.609 407.825 896.52 421.584C885.74 418.15 876.548 415.223 867.356 412.295C867.106 412.916 866.854 413.537 866.604 414.158C875.596 417.91 884.588 421.661 894.714 425.885C884.19 431.26 875.095 435.902 866 440.547C866.252 441.141 866.503 441.732 866.755 442.326C876.052 438.473 885.349 434.62 896.442 430.024C893.136 440.553 890.266 449.699 887.393 458.847C887.986 459.064 888.581 459.281 889.174 459.5C892.886 450.689 896.598 441.88 900.919 431.616Z" fill="#151317"/>
<path d="M289.45 83.5258C290.805 84.5947 292.057 85.8386 293.529 86.7054C308.217 95.3447 322.933 103.936 337.662 112.506C341.838 114.936 345.459 117.87 347.774 122.249C351.302 128.912 351.383 135.652 348.886 142.678C342.795 159.816 336.856 177.007 330.853 194.177C330.476 195.252 330.092 196.327 330.196 197.733C330.896 196.598 331.622 195.478 332.295 194.325C341.369 178.756 350.421 163.177 359.509 147.617C366.374 135.862 376.771 132.054 389.602 136.543C405.994 142.276 422.378 148.029 438.784 153.72C440.256 154.23 441.862 154.349 443.405 154.651L443.35 154.792C442.017 153.881 440.735 152.886 439.346 152.072C424.522 143.382 409.807 134.499 394.807 126.122C382.892 119.468 379.001 107.264 383.505 95.1738C390.185 77.2381 396.264 59.0773 402.6 41.0124L402.678 41.1205C401.576 42.4375 400.265 43.6278 399.407 45.0884C390.388 60.4553 381.422 75.8525 372.488 91.2713C368.47 98.2049 362.736 102.582 354.673 103.618C350.522 104.152 346.568 103.3 342.66 101.922C326.934 96.378 311.195 90.8677 295.449 85.383C293.471 84.6937 291.415 84.2287 289.394 83.6588L289.45 83.5258Z" fill="#151317"/>
<path d="M232.432 311.304C226.594 309.703 220.578 308.301 214.727 306.394C206.656 303.762 201.325 298.086 198.744 290.056C197.156 285.114 196.094 280.003 194.81 274.964C194.608 274.171 194.486 273.356 194.217 272C193.302 276.095 192.651 279.676 191.678 283.167C190.72 286.603 189.674 290.054 188.24 293.311C185.552 299.416 181.044 303.842 174.636 305.914C168.359 307.943 161.973 309.636 156 311.371C158.524 311.92 161.583 312.47 164.578 313.272C168.025 314.194 171.474 315.173 174.812 316.422C181.645 318.982 186.578 323.719 188.912 330.633C190.84 336.345 192.112 342.28 193.668 348.116C193.818 348.676 193.921 349.247 194.13 350.199C195.151 345.779 196.149 341.748 197.008 337.688C199.769 324.637 207.667 316.784 220.679 314.003C224.668 313.15 228.632 312.179 232.432 311.304Z" fill="#151317"/>
<path d="M34.9193 456.616C39.5941 465.736 43.5497 473.461 47.5075 481.186C48.1278 480.937 48.7482 480.689 49.3686 480.44C46.2121 472.377 43.0534 464.313 39.306 454.742C49.255 457.932 57.7593 460.658 66.2657 463.385C66.4949 462.738 66.7241 462.094 66.9512 461.448C58.775 458.039 50.5988 454.628 40.3932 450.375C53.5492 443.767 65.2311 437.897 76.915 432.027C76.6332 431.433 76.3493 430.839 76.0675 430.246C64.2132 435.408 52.359 440.571 38.345 446.674C43.1775 432.448 47.3561 420.15 51.5346 407.853C50.8974 407.568 50.2602 407.284 49.623 407C44.843 418.978 40.061 430.953 34.4062 445.12C27.7293 431.534 22.0072 419.896 16.2873 408.255C15.648 408.505 15.0108 408.754 14.3736 409.002C19.49 420.915 24.6086 432.825 30.5199 446.584C19.7403 443.15 10.5483 440.223 1.35638 437.295C1.10613 437.916 0.853767 438.537 0.603516 439.158C9.59568 442.91 18.5879 446.661 28.7135 450.885C18.1904 456.26 9.0952 460.902 -7.62939e-06 465.547C0.252342 466.141 0.502602 466.732 0.754951 467.326C10.052 463.473 19.3491 459.62 30.4421 455.024C27.1363 465.553 24.2658 474.699 21.3932 483.847C21.9862 484.064 22.5813 484.281 23.1744 484.5C26.8861 475.689 30.5978 466.88 34.9193 456.616Z" fill="#151317"/>
<path d="M408.965 432C408.083 440.527 403.498 444.961 395 445.689C403.544 446.462 408.117 450.881 408.928 459.459C409.812 451.003 414.233 446.456 422.785 445.736C414.429 444.824 409.717 440.546 408.965 432Z" fill="#151317"/>
<path d="M115.432 80.3035C109.594 78.7034 103.578 77.3012 97.7267 75.3937C89.656 72.762 84.3255 67.0858 81.7439 59.0558C80.1556 54.1145 79.0938 49.0026 77.8103 43.9644C77.6083 43.1706 77.4857 42.3558 77.2171 41C76.3017 45.095 75.6511 48.6762 74.6778 52.167C73.7195 55.603 72.6741 59.0537 71.2403 62.3108C68.5517 68.4164 64.0437 72.842 57.6358 74.9137C51.3585 76.9433 44.973 78.636 39 80.3709C41.5235 80.9204 44.5833 81.4699 47.5779 82.2721C51.0248 83.1942 54.4745 84.1732 57.8122 85.4217C64.6447 87.9819 69.5778 92.719 71.9118 99.6332C73.8402 105.345 75.1121 111.28 76.6685 117.116C76.8176 117.676 76.9208 118.247 77.1303 119.199C78.1514 114.779 79.1491 110.748 80.0079 106.688C82.7693 93.637 90.6673 85.7839 103.679 83.0026C107.668 82.1499 111.632 81.1794 115.432 80.3035Z" fill="#151317"/>
<path d="M713.476 23.3304C712.234 28.8643 713.479 34.4383 709.709 37.7268C706.343 40.6628 701.876 42.3335 697.503 44.784C708.353 43.8214 715.721 47.6978 718.179 59.0836C718.343 58.2317 718.608 57.3856 718.656 56.5258C719.195 46.7162 721.439 43.7834 730.8 40.768C731.81 40.4417 732.847 40.1971 733.682 39.9662C729.206 38.7522 724.279 38.2284 720.196 36.0878C715.994 33.8844 715.506 28.5335 713.476 23.3304Z" fill="#151317"/>
</svg>
