<svg width="56" height="164" viewBox="0 0 56 164" fill="none" xmlns="http://www.w3.org/2000/svg">
<path d="M3 4.11716L48.9864 3L52.7993 159.954L6.81289 161.071L3 4.11716Z" fill="white"/>
<path d="M16.7529 4.06955L16.8631 6.56712L16.7529 4.06955ZM21.749 3.84918L21.6389 1.35161L21.749 3.84918ZM26.7451 3.62881L26.8553 6.12639L26.7451 3.62881ZM29.2436 3.53502L29.321 6.03382L29.2436 3.53502ZM34.2413 3.38022L34.1639 0.881423L34.2413 3.38022ZM39.239 3.22543L39.3164 5.72423L39.239 3.22543ZM41.4201 3.56618L42.3631 1.25085L42.3631 1.25085L41.4201 3.56618ZM45.1469 5.08401L44.2039 7.39934L45.1469 5.08401ZM48.8736 6.60184L49.8166 4.2865L49.8166 4.2865L48.8736 6.60184ZM49.8494 8.23059L52.3479 8.14237L52.3479 8.14236L49.8494 8.23059ZM50.0259 13.2278L47.5274 13.316L47.5274 13.316L50.0259 13.2278ZM50.2023 18.225L52.7008 18.1367L52.7008 18.1367L50.2023 18.225ZM50.217 20.7253L52.7163 20.7842L52.7163 20.7842L50.217 20.7253ZM50.0991 25.7297L47.5998 25.6708L47.5998 25.6708L50.0991 25.7297ZM49.9811 30.734L52.4805 30.7929L52.4805 30.7929L49.9811 30.734ZM49.9134 33.2364L52.4122 33.3129L52.4122 33.3129L49.9134 33.2364ZM49.7601 38.2416L47.2613 38.1651L47.2613 38.1651L49.7601 38.2416ZM49.6068 43.2468L52.1057 43.3233L52.1057 43.3233L49.6068 43.2468ZM49.6895 45.7455L52.1779 45.5042L49.6895 45.7455ZM50.1735 50.7353L47.6852 50.9766L50.1735 50.7353ZM50.6575 55.725L53.1458 55.4836L50.6575 55.725ZM50.7632 58.2231L53.2631 58.2537L50.7632 58.2231ZM50.7022 63.2261L48.2023 63.1956L50.7022 63.2261ZM50.6411 68.2291L53.1409 68.2596L50.6411 68.2291ZM50.7064 70.7282L53.2012 70.5672L50.7064 70.7282ZM51.0287 75.7219L48.5338 75.8829L48.5338 75.8829L51.0287 75.7219ZM51.3509 80.7155L53.8457 80.5545L51.3509 80.7155ZM51.3951 83.2152L53.894 83.2879L51.3951 83.2152ZM51.2495 88.2202L48.7505 88.1475L51.2495 88.2202ZM51.1039 93.2252L53.6028 93.2979L53.6028 93.2979L51.1039 93.2252ZM51.1508 95.7248L53.6452 95.5584L51.1508 95.7248ZM51.4839 100.718L48.9895 100.885L51.4839 100.718ZM51.8171 105.712L54.3115 105.545L54.3115 105.545L51.8171 105.712ZM51.8009 108.213L54.293 108.411L51.8009 108.213ZM51.4028 113.224L48.9107 113.026L51.4028 113.224ZM51.0047 118.235L53.4969 118.433L51.0047 118.235ZM50.981 120.736L53.4764 120.585L50.981 120.736ZM51.284 125.73L48.7886 125.882L51.284 125.73ZM51.587 130.725L54.0824 130.573L51.587 130.725ZM51.7701 133.221L54.2609 133.007L54.2609 133.007L51.7701 133.221ZM52.1993 138.212L49.7085 138.426L52.1993 138.212ZM52.6286 143.203L55.1194 142.989L52.6286 143.203ZM52.754 145.701L55.2538 145.664L52.754 145.701ZM52.8266 150.7L50.3269 150.737L52.8266 150.7ZM52.8992 155.7L55.3989 155.664L55.3989 155.664L52.8992 155.7ZM51.9581 157.367L52.9553 159.66L52.9553 159.66L51.9581 157.367ZM48.1211 159.036L47.1239 156.744L48.1211 159.036ZM44.2842 160.705L45.2814 162.998L45.2814 162.998L44.2842 160.705ZM42.0737 161.086L42.0008 163.585L42.0008 163.585L42.0737 161.086ZM37.0686 160.94L37.1415 158.441L37.1415 158.441L37.0686 160.94ZM32.0636 160.794L31.9908 163.293L31.9908 163.293L32.0636 160.794ZM29.5607 160.704L29.453 163.202L29.453 163.202L29.5607 160.704ZM24.554 160.488L24.6617 157.99L24.6616 157.99L24.554 160.488ZM19.5473 160.272L19.4396 162.77L19.4396 162.77L19.5473 160.272ZM17.1391 160.204L17.1076 162.704L17.1076 162.704L17.1391 160.204ZM12.5132 160.145L12.5447 157.646L12.5447 157.646L12.5132 160.145ZM7.88723 160.087L7.85572 162.587L7.85573 162.587L7.88723 160.087ZM6.63176 158.825L4.13959 159.022L6.63176 158.825ZM6.23584 153.833L8.72801 153.635L6.23584 153.833ZM5.83991 148.841L3.34774 149.039L5.83991 148.841ZM5.71366 146.343L3.21426 146.398L5.71366 146.343ZM5.60458 141.344L8.10398 141.29L5.60458 141.344ZM5.4955 136.346L2.99609 136.4L5.4955 136.346ZM5.43267 133.846L2.93368 133.917L5.43267 133.846ZM5.29042 128.848L7.78941 128.777L5.29042 128.848ZM5.14817 123.85L2.64918 123.921L5.14817 123.85ZM5.09679 121.351L7.59659 121.319L5.09679 121.351ZM5.03352 116.351L2.53372 116.383L5.03352 116.351ZM4.97025 111.351L7.47005 111.319L4.97025 111.351ZM4.96601 108.85L7.4659 108.873L4.96601 108.85ZM5.01228 103.848L2.51239 103.825L5.01228 103.848ZM5.05855 98.8451L7.55844 98.8682L5.05855 98.8451ZM5.11866 96.3429L7.61678 96.4398L5.11866 96.3429ZM5.3128 91.3367L2.81468 91.2398L5.3128 91.3367ZM5.50695 86.3305L8.00507 86.4274L8.00507 86.4274L5.50695 86.3305ZM5.48047 83.8304L2.98497 83.9804L5.48047 83.8304ZM5.18044 78.8362L7.67594 78.6863L5.18044 78.8362ZM4.88041 73.8421L2.38491 73.992L4.88041 73.8421ZM4.85568 71.3419L7.35366 71.4423L4.85568 71.3419ZM5.0568 66.3356L2.55881 66.2352L5.0568 66.3356ZM5.25792 61.3292L7.7559 61.4295L5.25792 61.3292ZM5.25893 58.8284L7.75699 58.7299L5.25893 58.8284ZM5.06187 53.8317L2.56381 53.9303L5.06187 53.8317ZM4.86481 48.8351L7.36287 48.7365L4.86481 48.8351ZM4.61323 46.3404L2.14558 46.7413L2.14558 46.7413L4.61323 46.3404ZM3.804 41.3586L6.27165 40.9578L3.804 41.3586ZM2.99476 36.3768L0.527108 36.7776L2.99476 36.3768ZM2.82166 33.8803L5.32098 33.9386L2.82166 33.8803ZM2.93847 28.876L0.439149 28.8176L2.93847 28.876ZM3.05528 23.8716L5.5546 23.93L3.05528 23.8716ZM3.18842 21.3677L5.67986 21.5743L3.18842 21.3677ZM3.60416 16.3561L1.11271 16.1494L3.60416 16.3561ZM4.0199 11.3445L6.51134 11.5512L4.0199 11.3445ZM4.01145 9.49417L1.55454 9.95633L4.01145 9.49417ZM9.25193 4.1209L9.25044 6.6209L14.252 6.62389L14.2535 4.12389L14.255 1.62389L9.25343 1.6209L9.25193 4.1209ZM14.2535 4.12389L14.252 6.62389C15.1228 6.62441 15.9932 6.60549 16.8631 6.56712L16.7529 4.06955L16.6427 1.57197C15.8473 1.60706 15.0513 1.62437 14.255 1.62389L14.2535 4.12389ZM16.7529 4.06955L16.8631 6.56712L21.8592 6.34675L21.749 3.84918L21.6389 1.35161L16.6427 1.57197L16.7529 4.06955ZM21.749 3.84918L21.8592 6.34675L26.8553 6.12639L26.7451 3.62881L26.635 1.13124L21.6389 1.35161L21.749 3.84918ZM26.7451 3.62881L26.8553 6.12639C27.6771 6.09014 28.499 6.05929 29.321 6.03382L29.2436 3.53502L29.1662 1.03622C28.3223 1.06236 27.4786 1.09403 26.635 1.13124L26.7451 3.62881ZM29.2436 3.53502L29.321 6.03382L34.3187 5.87903L34.2413 3.38022L34.1639 0.881423L29.1662 1.03622L29.2436 3.53502ZM34.2413 3.38022L34.3187 5.87903L39.3164 5.72423L39.239 3.22543L39.1616 0.726625L34.1639 0.881423L34.2413 3.38022ZM39.239 3.22543L39.3164 5.72423C39.8825 5.7067 40.248 5.7882 40.4772 5.88152L41.4201 3.56618L42.3631 1.25085C41.35 0.838228 40.2615 0.692558 39.1616 0.726625L39.239 3.22543ZM41.4201 3.56618L40.4772 5.88152L44.2039 7.39934L45.1469 5.08401L46.0899 2.76868L42.3631 1.25085L41.4201 3.56618ZM45.1469 5.08401L44.2039 7.39934L47.9306 8.91717L48.8736 6.60184L49.8166 4.2865L46.0899 2.76868L45.1469 5.08401ZM48.8736 6.60184L47.9306 8.91717C47.8647 8.89031 47.7725 8.84134 47.6749 8.75927C47.5761 8.67615 47.4965 8.57989 47.4388 8.48358C47.3262 8.29561 47.3466 8.19532 47.351 8.31882L49.8494 8.23059L52.3479 8.14236C52.3228 7.43299 52.1659 6.64481 51.728 5.91392C51.2698 5.14915 50.5968 4.60427 49.8166 4.2865L48.8736 6.60184ZM49.8494 8.23059L47.351 8.31881L47.5274 13.316L50.0259 13.2278L52.5243 13.1396L52.3479 8.14237L49.8494 8.23059ZM50.0259 13.2278L47.5274 13.316L47.7039 18.3132L50.2023 18.225L52.7008 18.1367L52.5243 13.1396L50.0259 13.2278ZM50.2023 18.225L47.7039 18.3132C47.7316 19.097 47.7362 19.8814 47.7177 20.6665L50.217 20.7253L52.7163 20.7842C52.7371 19.9012 52.7319 19.0187 52.7008 18.1367L50.2023 18.225ZM50.217 20.7253L47.7177 20.6665L47.5998 25.6708L50.0991 25.7297L52.5984 25.7886L52.7163 20.7842L50.217 20.7253ZM50.0991 25.7297L47.5998 25.6708L47.4818 30.6751L49.9811 30.734L52.4805 30.7929L52.5984 25.7886L50.0991 25.7297ZM49.9811 30.734L47.4818 30.6751C47.4623 31.5033 47.4399 32.3316 47.4145 33.1599L49.9134 33.2364L52.4122 33.3129C52.4379 32.4729 52.4607 31.6328 52.4805 30.7929L49.9811 30.734ZM49.9134 33.2364L47.4145 33.1599L47.2613 38.1651L49.7601 38.2416L52.2589 38.3181L52.4122 33.3129L49.9134 33.2364ZM49.7601 38.2416L47.2613 38.1651L47.108 43.1703L49.6068 43.2468L52.1057 43.3233L52.2589 38.3181L49.7601 38.2416ZM49.6068 43.2468L47.108 43.1703C47.0792 44.1107 47.1103 45.0498 47.2012 45.9869L49.6895 45.7455L52.1779 45.5042C52.1074 44.7781 52.0834 44.0513 52.1057 43.3233L49.6068 43.2468ZM49.6895 45.7455L47.2012 45.9869L47.6852 50.9766L50.1735 50.7353L52.6618 50.4939L52.1779 45.5042L49.6895 45.7455ZM50.1735 50.7353L47.6852 50.9766L48.1692 55.9663L50.6575 55.725L53.1458 55.4836L52.6618 50.4939L50.1735 50.7353ZM50.6575 55.725L48.1692 55.9663C48.2411 56.7078 48.2725 57.4497 48.2634 58.1926L50.7632 58.2231L53.2631 58.2537C53.2743 57.3289 53.2353 56.4054 53.1458 55.4836L50.6575 55.725ZM50.7632 58.2231L48.2634 58.1926L48.2023 63.1956L50.7022 63.2261L53.202 63.2566L53.2631 58.2537L50.7632 58.2231ZM50.7022 63.2261L48.2023 63.1956L48.1413 68.1985L50.6411 68.2291L53.1409 68.2596L53.202 63.2566L50.7022 63.2261ZM50.6411 68.2291L48.1413 68.1985C48.1303 69.0963 48.1537 69.9932 48.2116 70.8892L50.7064 70.7282L53.2012 70.5672C53.1516 69.7987 53.1315 69.0295 53.1409 68.2596L50.6411 68.2291ZM50.7064 70.7282L48.2116 70.8892L48.5338 75.8829L51.0287 75.7219L53.5235 75.5608L53.2012 70.5672L50.7064 70.7282ZM51.0287 75.7219L48.5338 75.8829L48.8561 80.8765L51.3509 80.7155L53.8457 80.5545L53.5235 75.5608L51.0287 75.7219ZM51.3509 80.7155L48.8561 80.8765C48.9048 81.6309 48.9182 82.3862 48.8962 83.1425L51.3951 83.2152L53.894 83.2879C53.9206 82.3758 53.9045 81.4646 53.8457 80.5545L51.3509 80.7155ZM51.3951 83.2152L48.8962 83.1425L48.7505 88.1475L51.2495 88.2202L53.7484 88.2929L53.894 83.2879L51.3951 83.2152ZM51.2495 88.2202L48.7505 88.1475L48.6049 93.1525L51.1039 93.2252L53.6028 93.2979L53.7484 88.2929L51.2495 88.2202ZM51.1039 93.2252L48.6049 93.1525C48.5783 94.0664 48.5955 94.9794 48.6563 95.8912L51.1508 95.7248L53.6452 95.5584C53.595 94.8058 53.5809 94.0524 53.6028 93.2979L51.1039 93.2252ZM51.1508 95.7248L48.6563 95.8912L48.9895 100.885L51.4839 100.718L53.9784 100.552L53.6452 95.5584L51.1508 95.7248ZM51.4839 100.718L48.9895 100.885L49.3226 105.878L51.8171 105.712L54.3115 105.545L53.9784 100.552L51.4839 100.718ZM51.8171 105.712L49.3226 105.878C49.37 106.588 49.3655 107.3 49.3087 108.015L51.8009 108.213L54.293 108.411C54.3689 107.455 54.3752 106.499 54.3115 105.545L51.8171 105.712ZM51.8009 108.213L49.3087 108.015L48.9107 113.026L51.4028 113.224L53.895 113.422L54.293 108.411L51.8009 108.213ZM51.4028 113.224L48.9107 113.026L48.5126 118.037L51.0047 118.235L53.4969 118.433L53.895 113.422L51.4028 113.224ZM51.0047 118.235L48.5126 118.037C48.4371 118.988 48.428 119.938 48.4856 120.888L50.981 120.736L53.4764 120.585C53.433 119.869 53.4397 119.152 53.4969 118.433L51.0047 118.235ZM50.981 120.736L48.4856 120.888L48.7886 125.882L51.284 125.73L53.7794 125.579L53.4764 120.585L50.981 120.736ZM51.284 125.73L48.7886 125.882L49.0916 130.876L51.587 130.725L54.0824 130.573L53.7794 125.579L51.284 125.73ZM51.587 130.725L49.0916 130.876C49.1434 131.729 49.2059 132.582 49.2793 133.435L51.7701 133.221L54.2609 133.007C54.1911 132.196 54.1317 131.384 54.0824 130.573L51.587 130.725ZM51.7701 133.221L49.2793 133.435L49.7085 138.426L52.1993 138.212L54.6901 137.998L54.2609 133.007L51.7701 133.221ZM52.1993 138.212L49.7085 138.426L50.1378 143.417L52.6286 143.203L55.1194 142.989L54.6901 137.998L52.1993 138.212ZM52.6286 143.203L50.1378 143.417C50.2042 144.19 50.2431 144.963 50.2543 145.737L52.754 145.701L55.2538 145.664C55.2408 144.772 55.196 143.88 55.1194 142.989L52.6286 143.203ZM52.754 145.701L50.2543 145.737L50.3269 150.737L52.8266 150.7L55.3263 150.664L55.2538 145.664L52.754 145.701ZM52.8266 150.7L50.3269 150.737L50.3994 155.736L52.8992 155.7L55.3989 155.664L55.3263 150.664L52.8266 150.7ZM52.8992 155.7L50.3994 155.736C50.401 155.842 50.3782 155.721 50.4959 155.513C50.5552 155.408 50.6354 155.308 50.7305 155.225C50.8237 155.143 50.9083 155.098 50.9608 155.075L51.9581 157.367L52.9553 159.66C53.7246 159.325 54.4009 158.766 54.8501 157.971C55.2815 157.206 55.4095 156.391 55.3989 155.664L52.8992 155.7ZM51.9581 157.367L50.9609 155.075L47.1239 156.744L48.1211 159.036L49.1183 161.329L52.9553 159.66L51.9581 157.367ZM48.1211 159.036L47.1239 156.744L43.2869 158.413L44.2842 160.705L45.2814 162.998L49.1183 161.329L48.1211 159.036ZM44.2842 160.705L43.2869 158.413C43.0444 158.518 42.6844 158.603 42.1465 158.587L42.0737 161.086L42.0008 163.585C43.1312 163.618 44.2449 163.449 45.2814 162.998L44.2842 160.705ZM42.0737 161.086L42.1465 158.587L37.1415 158.441L37.0686 160.94L36.9958 163.439L42.0008 163.585L42.0737 161.086ZM37.0686 160.94L37.1415 158.441L32.1364 158.295L32.0636 160.794L31.9908 163.293L36.9958 163.439L37.0686 160.94ZM32.0636 160.794L32.1365 158.295C31.3139 158.271 30.4912 158.242 29.6684 158.206L29.5607 160.704L29.453 163.202C30.2991 163.238 31.145 163.269 31.9908 163.293L32.0636 160.794ZM29.5607 160.704L29.6684 158.206L24.6617 157.99L24.554 160.488L24.4463 162.986L29.453 163.202L29.5607 160.704ZM24.554 160.488L24.6616 157.99L19.6549 157.775L19.5473 160.272L19.4396 162.77L24.4463 162.986L24.554 160.488ZM19.5473 160.272L19.6549 157.775C18.7972 157.738 17.969 157.714 17.1706 157.704L17.1391 160.204L17.1076 162.704C17.8512 162.713 18.6284 162.735 19.4396 162.77L19.5473 160.272ZM17.1391 160.204L17.1706 157.704L12.5447 157.646L12.5132 160.145L12.4817 162.645L17.1076 162.704L17.1391 160.204ZM12.5132 160.145L12.5447 157.646L7.91873 157.587L7.88723 160.087L7.85573 162.587L12.4817 162.645L12.5132 160.145ZM7.88723 160.087L7.91874 157.587C7.98423 157.588 8.38956 157.621 8.76785 158.001C9.11801 158.354 9.12892 158.69 9.12394 158.627L6.63176 158.825L4.13959 159.022C4.20059 159.791 4.45374 160.754 5.22239 161.527C6.01918 162.328 7.01924 162.576 7.85572 162.587L7.88723 160.087ZM6.63176 158.825L9.12394 158.627L8.72801 153.635L6.23584 153.833L3.74367 154.03L4.13959 159.022L6.63176 158.825ZM6.23584 153.833L8.72801 153.635L8.33209 148.643L5.83991 148.841L3.34774 149.039L3.74367 154.03L6.23584 153.833ZM5.83991 148.841L8.33209 148.643C8.26987 147.859 8.2302 147.074 8.21307 146.289L5.71366 146.343L3.21426 146.398C3.23348 147.279 3.27798 148.159 3.34774 149.039L5.83991 148.841ZM5.71366 146.343L8.21307 146.289L8.10398 141.29L5.60458 141.344L3.10517 141.399L3.21426 146.398L5.71366 146.343ZM5.60458 141.344L8.10398 141.29L7.9949 136.291L5.4955 136.346L2.99609 136.4L3.10517 141.399L5.60458 141.344ZM5.4955 136.346L7.9949 136.291C7.9766 135.452 7.95552 134.614 7.93165 133.775L5.43267 133.846L2.93368 133.917C2.95723 134.745 2.97803 135.572 2.99609 136.4L5.4955 136.346ZM5.43267 133.846L7.93165 133.775L7.78941 128.777L5.29042 128.848L2.79143 128.919L2.93368 133.917L5.43267 133.846ZM5.29042 128.848L7.78941 128.777L7.64716 123.779L5.14817 123.85L2.64918 123.921L2.79143 128.919L5.29042 128.848ZM5.14817 123.85L7.64716 123.779C7.62382 122.959 7.60697 122.139 7.59659 121.319L5.09679 121.351L2.59699 121.382C2.6077 122.229 2.6251 123.075 2.64918 123.921L5.14817 123.85ZM5.09679 121.351L7.59659 121.319L7.53332 116.319L5.03352 116.351L2.53372 116.383L2.59699 121.382L5.09679 121.351ZM5.03352 116.351L7.53332 116.319L7.47005 111.319L4.97025 111.351L2.47045 111.383L2.53372 116.383L5.03352 116.351ZM4.97025 111.351L7.47005 111.319C7.45974 110.504 7.45836 109.689 7.4659 108.873L4.96601 108.85L2.46611 108.827C2.45823 109.679 2.45968 110.531 2.47045 111.383L4.97025 111.351ZM4.96601 108.85L7.4659 108.873L7.51217 103.871L5.01228 103.848L2.51239 103.825L2.46611 108.827L4.96601 108.85ZM5.01228 103.848L7.51217 103.871L7.55844 98.8682L5.05855 98.8451L2.55866 98.822L2.51239 103.825L5.01228 103.848ZM5.05855 98.8451L7.55844 98.8682C7.56593 98.0591 7.58537 97.2496 7.61678 96.4398L5.11866 96.3429L2.62053 96.246C2.58722 97.1049 2.5666 97.9636 2.55866 98.822L5.05855 98.8451ZM5.11866 96.3429L7.61678 96.4398L7.81092 91.4336L5.3128 91.3367L2.81468 91.2398L2.62053 96.246L5.11866 96.3429ZM5.3128 91.3367L7.81092 91.4336L8.00507 86.4274L5.50695 86.3305L3.00882 86.2336L2.81468 91.2398L5.3128 91.3367ZM5.50695 86.3305L8.00507 86.4274C8.04061 85.5109 8.03092 84.5952 7.97597 83.6805L5.48047 83.8304L2.98497 83.9804C3.03004 84.7304 3.038 85.4814 3.00882 86.2336L5.50695 86.3305ZM5.48047 83.8304L7.97597 83.6805L7.67594 78.6863L5.18044 78.8362L2.68494 78.9862L2.98497 83.9804L5.48047 83.8304ZM5.18044 78.8362L7.67594 78.6863L7.37591 73.6921L4.88041 73.8421L2.38491 73.992L2.68494 78.9862L5.18044 78.8362ZM4.88041 73.8421L7.37591 73.6921C7.33092 72.9432 7.32349 72.1934 7.35366 71.4423L4.85568 71.3419L2.35769 71.2416C2.32083 72.1593 2.32989 73.0762 2.38491 73.992L4.88041 73.8421ZM4.85568 71.3419L7.35366 71.4423L7.55478 66.4359L5.0568 66.3356L2.55881 66.2352L2.35769 71.2416L4.85568 71.3419ZM5.0568 66.3356L7.55478 66.4359L7.7559 61.4295L5.25792 61.3292L2.75993 61.2288L2.55881 66.2352L5.0568 66.3356ZM5.25792 61.3292L7.7559 61.4295C7.79208 60.529 7.79245 59.6291 7.75699 58.7299L5.25893 58.8284L2.76087 58.927C2.7911 59.6933 2.79079 60.4606 2.75993 61.2288L5.25792 61.3292ZM5.25893 58.8284L7.75699 58.7299L7.55993 53.7332L5.06187 53.8317L2.56381 53.9303L2.76087 58.927L5.25893 58.8284ZM5.06187 53.8317L7.55993 53.7332L7.36287 48.7365L4.86481 48.8351L2.36675 48.9336L2.56381 53.9303L5.06187 53.8317ZM4.86481 48.8351L7.36287 48.7365C7.32599 47.8015 7.23187 46.869 7.08089 45.9396L4.61323 46.3404L2.14558 46.7413C2.26435 47.4724 2.33794 48.203 2.36675 48.9336L4.86481 48.8351ZM4.61323 46.3404L7.08089 45.9396L6.27166 40.9578L3.804 41.3586L1.33634 41.7595L2.14558 46.7413L4.61323 46.3404ZM3.804 41.3586L6.27165 40.9578L5.46242 35.976L2.99476 36.3768L0.527108 36.7776L1.33634 41.7595L3.804 41.3586ZM2.99476 36.3768L5.46242 35.976C5.35199 35.2962 5.30513 34.6177 5.32098 33.9386L2.82166 33.8803L0.322338 33.8219C0.299252 34.811 0.367788 35.7968 0.527108 36.7776L2.99476 36.3768ZM2.82166 33.8803L5.32098 33.9386L5.43779 28.9343L2.93847 28.876L0.439149 28.8176L0.322338 33.8219L2.82166 33.8803ZM2.93847 28.876L5.43779 28.9343L5.5546 23.93L3.05528 23.8716L0.555959 23.8133L0.439149 28.8176L2.93847 28.876ZM3.05528 23.8716L5.5546 23.93C5.5729 23.1457 5.61464 22.3605 5.67986 21.5743L3.18842 21.3677L0.696974 21.161C0.623608 22.0454 0.576588 22.9295 0.555959 23.8133L3.05528 23.8716ZM3.18842 21.3677L5.67986 21.5743L6.0956 16.5628L3.60416 16.3561L1.11271 16.1494L0.696974 21.161L3.18842 21.3677ZM3.60416 16.3561L6.0956 16.5628L6.51134 11.5512L4.0199 11.3445L1.52845 11.1378L1.11271 16.1494L3.60416 16.3561ZM4.0199 11.3445L6.51134 11.5512C6.58382 10.6774 6.60888 9.77904 6.46836 9.03202L4.01145 9.49417L1.55454 9.95633C1.5536 9.95136 1.56874 10.0403 1.56978 10.2669C1.57076 10.482 1.55905 10.769 1.52845 11.1378L4.0199 11.3445ZM4.01145 9.49417L6.46836 9.03202L6.01883 6.64223L3.56192 7.10439L1.105 7.56655L1.55454 9.95633L4.01145 9.49417ZM3.56192 7.10439L6.01883 6.64223L5.56929 4.25244L3.11238 4.7146L0.655473 5.17676L1.105 7.56655L3.56192 7.10439ZM3.11238 4.7146L5.56929 4.25244C5.63074 4.57908 5.63086 5.07428 5.36869 5.58862C5.11367 6.08893 4.73779 6.35697 4.50163 6.4808C4.28055 6.59672 4.12189 6.62083 4.11393 6.62213C4.09401 6.62539 4.13181 6.61783 4.24889 6.6179L4.25039 4.11791L4.25188 1.61791C3.74467 1.6176 2.92959 1.65944 2.17976 2.05261C1.75393 2.27589 1.24517 2.66831 0.914038 3.31792C0.575762 3.98155 0.55657 4.65098 0.655473 5.17676L3.11238 4.7146ZM4.25039 4.11791L4.24889 6.6179L9.25044 6.6209L9.25193 4.1209L9.25343 1.6209L4.25188 1.61791L4.25039 4.11791Z" fill="black"/>
<path d="M18.6136 18.8979L18.6121 21.3979L18.6136 18.8979ZM23.6152 18.9009L23.6167 16.4009L23.6152 18.9009ZM26.1146 18.8466L26.2248 21.3441L26.1146 18.8466ZM31.1107 18.6262L31.0006 16.1286L31.1107 18.6262ZM36.1068 18.4058L36.217 20.9034L36.1068 18.4058ZM37.6807 19.2867L40.0425 18.4672L40.0425 18.4672L37.6807 19.2867ZM38.9799 23.0308L36.618 23.8504L36.618 23.8504L38.9799 23.0308ZM40.2791 26.7749L42.6409 25.9553L42.6409 25.9553L40.2791 26.7749ZM40.7044 28.9588L43.1963 28.758L43.1963 28.758L40.7044 28.9588ZM41.1067 33.9505L38.6147 34.1513L41.1067 33.9505ZM41.5089 38.9422L44.0008 38.7414L41.5089 38.9422ZM41.6536 41.4394L44.152 41.3512L44.152 41.3512L41.6536 41.4394ZM41.83 46.4366L39.3316 46.5248L41.83 46.4366ZM42.0065 51.4338L44.5049 51.3456L44.5049 51.3456L42.0065 51.4338ZM42.0211 53.9342L44.5204 53.9931L44.5204 53.9931L42.0211 53.9342ZM41.9032 58.9385L39.4039 58.8796L41.9032 58.9385ZM41.7853 63.9429L44.2846 64.0018L41.7853 63.9429ZM41.7175 66.4453L44.2163 66.5218L41.7175 66.4453ZM41.5643 71.4505L39.0654 71.3739L41.5643 71.4505ZM41.411 76.4557L43.9098 76.5322L41.411 76.4557ZM41.4937 78.9544L43.982 78.713L43.982 78.713L41.4937 78.9544ZM41.9777 83.9441L39.4894 84.1855L41.9777 83.9441ZM42.4617 88.9338L44.95 88.6925L42.4617 88.9338ZM42.5674 91.432L45.0672 91.4625L42.5674 91.432ZM42.5063 96.4349L40.0065 96.4044L42.5063 96.4349ZM42.4452 101.438L44.945 101.468L42.4452 101.438ZM42.5105 103.937L45.0053 103.776L42.5105 103.937ZM42.8328 108.931L40.338 109.092L42.8328 108.931ZM43.1551 113.924L45.6499 113.763L43.1551 113.924ZM43.1993 116.424L45.6982 116.497L45.6982 116.497L43.1993 116.424ZM43.0536 121.429L40.5547 121.356L40.5547 121.356L43.0536 121.429ZM42.908 126.434L45.407 126.507L42.908 126.434ZM42.9549 128.934L45.4494 128.767L42.9549 128.934ZM43.2881 133.927L40.7936 134.093L43.2881 133.927ZM43.6212 138.92L46.1157 138.754L43.6212 138.92ZM42.9259 140.597L44.13 142.788L44.13 142.788L42.9259 140.597ZM39.8112 142.309L38.6071 140.118L38.6071 140.118L39.8112 142.309ZM36.6965 144.02L37.9006 146.211L37.9006 146.211L36.6965 144.02ZM34.6693 144.524L34.8207 147.02L34.8207 147.02L34.6693 144.524ZM29.6752 144.827L29.5238 142.332L29.5238 142.332L29.6752 144.827ZM24.6811 145.13L24.8325 147.626L24.8325 147.626L24.6811 145.13ZM22.5917 144.822L21.5531 147.096L21.5531 147.096L22.5917 144.822ZM19.2281 143.286L20.2667 141.012L20.2667 141.012L19.2281 143.286ZM15.8646 141.75L14.8261 144.024L14.8261 144.024L15.8646 141.75ZM15.0056 140.116L17.5053 140.079L15.0056 140.116ZM14.933 135.116L12.4333 135.152L14.933 135.116ZM14.8604 130.116L17.3602 130.08L14.8604 130.116ZM14.7372 127.619L12.246 127.828L14.7372 127.619ZM14.3169 122.627L16.808 122.417L14.3169 122.627ZM13.8965 117.636L11.4053 117.846L13.8965 117.636ZM13.8279 115.137L16.3268 115.21L13.8279 115.137ZM13.9738 110.132L11.4748 110.059L13.9738 110.132ZM14.1196 105.127L16.6185 105.2L14.1196 105.127ZM14.21 102.624L16.7077 102.732L14.21 102.624ZM14.4259 97.6173L11.9282 97.5096L14.4259 97.6173ZM14.6417 92.6105L17.1394 92.7182L14.6417 92.6105ZM14.6022 90.1108L12.1092 90.2975L12.1092 90.2975L14.6022 90.1108ZM14.2283 85.1184L16.7214 84.9317L14.2283 85.1184ZM13.8545 80.126L11.3614 80.3127L13.8545 80.126ZM13.662 77.6299L11.1698 77.8276L13.662 77.6299ZM13.2661 72.6381L15.7583 72.4404L13.2661 72.6381ZM12.8702 67.6462L10.378 67.8439L12.8702 67.6462ZM12.7439 65.1485L10.2445 65.2031L12.7439 65.1485ZM12.6348 60.1497L15.1342 60.0952L12.6348 60.1497ZM12.5257 55.1509L10.0263 55.2054L12.5257 55.1509ZM12.4629 52.6517L9.96392 52.7228L12.4629 52.6517ZM12.3207 47.6536L14.8197 47.5825L12.3207 47.6536ZM12.1784 42.6556L9.67943 42.7267L12.1784 42.6556ZM12.127 40.1561L9.62724 40.1878L12.127 40.1561ZM12.0638 35.1562L14.5636 35.1246L12.0638 35.1562ZM12.0005 30.1563L9.5007 30.1879L12.0005 30.1563ZM12.0023 27.9056L9.50271 27.8615L12.0023 27.9056ZM12.0729 23.9027L14.5725 23.9467L12.0729 23.9027ZM12.1434 19.8998L9.64383 19.8557L12.1434 19.8998ZM13.6121 18.8949L13.6136 16.3949L13.6121 18.8949ZM18.6136 18.8979L18.6121 21.3979L23.6137 21.4009L23.6152 18.9009L23.6167 16.4009L18.6151 16.3979L18.6136 18.8979ZM23.6152 18.9009L23.6137 21.4009C24.4845 21.4014 25.3549 21.3825 26.2248 21.3441L26.1146 18.8466L26.0044 16.349C25.2089 16.3841 24.413 16.4014 23.6167 16.4009L23.6152 18.9009ZM26.1146 18.8466L26.2248 21.3441L31.2209 21.1238L31.1107 18.6262L31.0006 16.1286L26.0044 16.349L26.1146 18.8466ZM31.1107 18.6262L31.2209 21.1238L36.217 20.9034L36.1068 18.4058L35.9967 15.9082L31.0006 16.1286L31.1107 18.6262ZM36.1068 18.4058L36.217 20.9034C36.3411 20.8979 36.1751 20.9319 35.9037 20.78C35.7624 20.7009 35.6271 20.5895 35.5156 20.4515C35.4066 20.3165 35.348 20.1905 35.3188 20.1063L37.6807 19.2867L40.0425 18.4672C39.7549 17.6384 39.1967 16.8932 38.3459 16.417C37.55 15.9715 36.7053 15.877 35.9967 15.9082L36.1068 18.4058ZM37.6807 19.2867L35.3188 20.1063L36.618 23.8504L38.9799 23.0308L41.3417 22.2112L40.0425 18.4672L37.6807 19.2867ZM38.9799 23.0308L36.618 23.8504L37.9172 27.5944L40.2791 26.7749L42.6409 25.9553L41.3417 22.2112L38.9799 23.0308ZM40.2791 26.7749L37.9172 27.5944C38.049 27.9741 38.1582 28.486 38.2125 29.1596L40.7044 28.9588L43.1963 28.758C43.1165 27.7677 42.9422 26.8236 42.6409 25.9553L40.2791 26.7749ZM40.7044 28.9588L38.2125 29.1596L38.6147 34.1513L41.1067 33.9505L43.5986 33.7497L43.1963 28.758L40.7044 28.9588ZM41.1067 33.9505L38.6147 34.1513L39.017 39.143L41.5089 38.9422L44.0008 38.7414L43.5986 33.7497L41.1067 33.9505ZM41.5089 38.9422L39.017 39.143C39.081 39.9375 39.127 40.7324 39.1551 41.5277L41.6536 41.4394L44.152 41.3512C44.1213 40.4807 44.0709 39.6108 44.0008 38.7414L41.5089 38.9422ZM41.6536 41.4394L39.1551 41.5277L39.3316 46.5248L41.83 46.4366L44.3285 46.3484L44.152 41.3512L41.6536 41.4394ZM41.83 46.4366L39.3316 46.5248L39.508 51.522L42.0065 51.4338L44.5049 51.3456L44.3285 46.3484L41.83 46.4366ZM42.0065 51.4338L39.508 51.522C39.5357 52.3058 39.5403 53.0902 39.5218 53.8753L42.0211 53.9342L44.5204 53.9931C44.5412 53.11 44.5361 52.2275 44.5049 51.3456L42.0065 51.4338ZM42.0211 53.9342L39.5218 53.8753L39.4039 58.8796L41.9032 58.9385L44.4025 58.9974L44.5204 53.9931L42.0211 53.9342ZM41.9032 58.9385L39.4039 58.8796L39.286 63.884L41.7853 63.9429L44.2846 64.0018L44.4025 58.9974L41.9032 58.9385ZM41.7853 63.9429L39.286 63.884C39.2665 64.7122 39.244 65.5404 39.2187 66.3687L41.7175 66.4453L44.2163 66.5218C44.2421 65.6817 44.2648 64.8417 44.2846 64.0018L41.7853 63.9429ZM41.7175 66.4453L39.2187 66.3687L39.0654 71.3739L41.5643 71.4505L44.0631 71.527L44.2163 66.5218L41.7175 66.4453ZM41.5643 71.4505L39.0654 71.3739L38.9122 76.3791L41.411 76.4557L43.9098 76.5322L44.0631 71.527L41.5643 71.4505ZM41.411 76.4557L38.9122 76.3791C38.8834 77.3195 38.9145 78.2586 39.0054 79.1957L41.4937 78.9544L43.982 78.713C43.9116 77.9869 43.8875 77.2602 43.9098 76.5322L41.411 76.4557ZM41.4937 78.9544L39.0054 79.1957L39.4894 84.1855L41.9777 83.9441L44.466 83.7027L43.982 78.713L41.4937 78.9544ZM41.9777 83.9441L39.4894 84.1855L39.9733 89.1752L42.4617 88.9338L44.95 88.6925L44.466 83.7027L41.9777 83.9441ZM42.4617 88.9338L39.9733 89.1752C40.0453 89.9166 40.0767 90.6586 40.0676 91.4015L42.5674 91.432L45.0672 91.4625C45.0785 90.5377 45.0394 89.6143 44.95 88.6925L42.4617 88.9338ZM42.5674 91.432L40.0676 91.4015L40.0065 96.4044L42.5063 96.4349L45.0061 96.4655L45.0672 91.4625L42.5674 91.432ZM42.5063 96.4349L40.0065 96.4044L39.9454 101.407L42.4452 101.438L44.945 101.468L45.0061 96.4655L42.5063 96.4349ZM42.4452 101.438L39.9454 101.407C39.9344 102.305 39.9579 103.202 40.0157 104.098L42.5105 103.937L45.0053 103.776C44.9557 103.008 44.9356 102.238 44.945 101.468L42.4452 101.438ZM42.5105 103.937L40.0157 104.098L40.338 109.092L42.8328 108.931L45.3276 108.77L45.0053 103.776L42.5105 103.937ZM42.8328 108.931L40.338 109.092L40.6603 114.085L43.1551 113.924L45.6499 113.763L45.3276 108.77L42.8328 108.931ZM43.1551 113.924L40.6603 114.085C40.709 114.84 40.7223 115.595 40.7003 116.351L43.1993 116.424L45.6982 116.497C45.7247 115.585 45.7086 114.673 45.6499 113.763L43.1551 113.924ZM43.1993 116.424L40.7003 116.351L40.5547 121.356L43.0536 121.429L45.5526 121.502L45.6982 116.497L43.1993 116.424ZM43.0536 121.429L40.5547 121.356L40.4091 126.361L42.908 126.434L45.407 126.507L45.5526 121.502L43.0536 121.429ZM42.908 126.434L40.4091 126.361C40.3825 127.275 40.3996 128.188 40.4604 129.1L42.9549 128.934L45.4494 128.767C45.3991 128.015 45.385 127.261 45.407 126.507L42.908 126.434ZM42.9549 128.934L40.4604 129.1L40.7936 134.093L43.2881 133.927L45.7825 133.761L45.4494 128.767L42.9549 128.934ZM43.2881 133.927L40.7936 134.093L41.1268 139.087L43.6212 138.92L46.1157 138.754L45.7825 133.761L43.2881 133.927ZM43.6212 138.92L41.1268 139.087C41.1381 139.256 41.1033 139.19 41.1798 139.006C41.2211 138.906 41.2893 138.787 41.3935 138.67C41.4982 138.552 41.614 138.465 41.7217 138.406L42.9259 140.597L44.13 142.788C45.8415 141.847 46.2053 140.097 46.1157 138.754L43.6212 138.92ZM42.9259 140.597L41.7217 138.406L38.6071 140.118L39.8112 142.309L41.0153 144.499L44.13 142.788L42.9259 140.597ZM39.8112 142.309L38.6071 140.118L35.4924 141.829L36.6965 144.02L37.9006 146.211L41.0153 144.499L39.8112 142.309ZM36.6965 144.02L35.4924 141.829C35.4015 141.879 35.1218 141.992 34.5179 142.029L34.6693 144.524L34.8207 147.02C35.8816 146.955 36.9533 146.732 37.9006 146.211L36.6965 144.02ZM34.6693 144.524L34.5179 142.029L29.5238 142.332L29.6752 144.827L29.8266 147.323L34.8207 147.02L34.6693 144.524ZM29.6752 144.827L29.5238 142.332L24.5297 142.635L24.6811 145.13L24.8325 147.626L29.8266 147.323L29.6752 144.827ZM24.6811 145.13L24.5297 142.635C23.9682 142.669 23.7101 142.584 23.6302 142.548L22.5917 144.822L21.5531 147.096C22.5944 147.571 23.7293 147.692 24.8325 147.626L24.6811 145.13ZM22.5917 144.822L23.6302 142.548L20.2667 141.012L19.2281 143.286L18.1896 145.56L21.5531 147.096L22.5917 144.822ZM19.2281 143.286L20.2667 141.012L16.9032 139.476L15.8646 141.75L14.8261 144.024L18.1896 145.56L19.2281 143.286ZM15.8646 141.75L16.9032 139.476C16.9984 139.519 17.108 139.588 17.213 139.687C17.3181 139.786 17.393 139.892 17.4422 139.986C17.535 140.162 17.5076 140.236 17.5053 140.079L15.0056 140.116L12.5058 140.152C12.5262 141.551 13.0741 143.224 14.8261 144.024L15.8646 141.75ZM15.0056 140.116L17.5053 140.079L17.4327 135.08L14.933 135.116L12.4333 135.152L12.5058 140.152L15.0056 140.116ZM14.933 135.116L17.4327 135.08L17.3602 130.08L14.8604 130.116L12.3607 130.153L12.4333 135.152L14.933 135.116ZM14.8604 130.116L17.3602 130.08C17.3472 129.189 17.3033 128.298 17.2284 127.409L14.7372 127.619L12.246 127.828C12.3112 128.603 12.3495 129.377 12.3607 130.153L14.8604 130.116ZM14.7372 127.619L17.2284 127.409L16.808 122.417L14.3169 122.627L11.8257 122.837L12.246 127.828L14.7372 127.619ZM14.3169 122.627L16.808 122.417L16.3877 117.426L13.8965 117.636L11.4053 117.846L11.8257 122.837L14.3169 122.627ZM13.8965 117.636L16.3877 117.426C16.3256 116.688 16.3053 115.95 16.3268 115.21L13.8279 115.137L11.329 115.064C11.3019 115.993 11.3274 116.92 11.4053 117.846L13.8965 117.636ZM13.8279 115.137L16.3268 115.21L16.4727 110.205L13.9738 110.132L11.4748 110.059L11.329 115.064L13.8279 115.137ZM13.9738 110.132L16.4727 110.205L16.6185 105.2L14.1196 105.127L11.6207 105.054L11.4748 110.059L13.9738 110.132ZM14.1196 105.127L16.6185 105.2C16.6425 104.377 16.6722 103.555 16.7077 102.732L14.21 102.624L11.7124 102.516C11.6759 103.362 11.6453 104.208 11.6207 105.054L14.1196 105.127ZM14.21 102.624L16.7077 102.732L16.9236 97.7249L14.4259 97.6173L11.9282 97.5096L11.7124 102.516L14.21 102.624ZM14.4259 97.6173L16.9236 97.7249L17.1394 92.7182L14.6417 92.6105L12.144 92.5029L11.9282 97.5096L14.4259 97.6173ZM14.6417 92.6105L17.1394 92.7182C17.1796 91.7857 17.1649 90.8542 17.0952 89.9241L14.6022 90.1108L12.1092 90.2975C12.1642 91.0315 12.1758 91.7664 12.144 92.5029L14.6417 92.6105ZM14.6022 90.1108L17.0952 89.9241L16.7214 84.9317L14.2283 85.1184L11.7353 85.3051L12.1092 90.2975L14.6022 90.1108ZM14.2283 85.1184L16.7214 84.9317L16.3475 79.9393L13.8545 80.126L11.3614 80.3127L11.7353 85.3051L14.2283 85.1184ZM13.8545 80.126L16.3475 79.9393C16.2849 79.1036 16.2205 78.2679 16.1542 77.4322L13.662 77.6299L11.1698 77.8276C11.2355 78.6559 11.2994 79.4843 11.3614 80.3127L13.8545 80.126ZM13.662 77.6299L16.1542 77.4322L15.7583 72.4404L13.2661 72.6381L10.7739 72.8357L11.1698 77.8276L13.662 77.6299ZM13.2661 72.6381L15.7583 72.4404L15.3623 67.4485L12.8702 67.6462L10.378 67.8439L10.7739 72.8357L13.2661 72.6381ZM12.8702 67.6462L15.3623 67.4485C15.3001 66.6641 15.2604 65.8793 15.2433 65.094L12.7439 65.1485L10.2445 65.2031C10.2637 66.084 10.3082 66.9643 10.378 67.8439L12.8702 67.6462ZM12.7439 65.1485L15.2433 65.094L15.1342 60.0952L12.6348 60.1497L10.1354 60.2042L10.2445 65.2031L12.7439 65.1485ZM12.6348 60.1497L15.1342 60.0952L15.0251 55.0963L12.5257 55.1509L10.0263 55.2054L10.1354 60.2042L12.6348 60.1497ZM12.5257 55.1509L15.0251 55.0963C15.0068 54.2577 14.9858 53.4191 14.9619 52.5805L12.4629 52.6517L9.96392 52.7228C9.98747 53.5503 10.0083 54.3778 10.0263 55.2054L12.5257 55.1509ZM12.4629 52.6517L14.9619 52.5805L14.8197 47.5825L12.3207 47.6536L9.82167 47.7248L9.96392 52.7228L12.4629 52.6517ZM12.3207 47.6536L14.8197 47.5825L14.6774 42.5845L12.1784 42.6556L9.67943 42.7267L9.82167 47.7248L12.3207 47.6536ZM12.1784 42.6556L14.6774 42.5845C14.6541 41.7647 14.6372 40.9447 14.6268 40.1245L12.127 40.1561L9.62724 40.1878C9.63795 41.0343 9.65534 41.8806 9.67943 42.7267L12.1784 42.6556ZM12.127 40.1561L14.6268 40.1245L14.5636 35.1246L12.0638 35.1562L9.56397 35.1878L9.62724 40.1878L12.127 40.1561ZM12.0638 35.1562L14.5636 35.1246L14.5003 30.1246L12.0005 30.1563L9.5007 30.1879L9.56397 35.1878L12.0638 35.1562ZM12.0005 30.1563L14.5003 30.1246C14.49 29.3106 14.4907 28.5863 14.5019 27.9496L12.0023 27.9056L9.50271 27.8615C9.49041 28.5591 9.48991 29.3352 9.5007 30.1879L12.0005 30.1563ZM12.0023 27.9056L14.5019 27.9496L14.5725 23.9467L12.0729 23.9027L9.57327 23.8586L9.50271 27.8615L12.0023 27.9056ZM12.0729 23.9027L14.5725 23.9467L14.6431 19.9438L12.1434 19.8998L9.64383 19.8557L9.57327 23.8586L12.0729 23.9027ZM12.1434 19.8998L14.6431 19.9438C14.6489 19.614 14.6546 19.3841 14.6599 19.2432C14.6628 19.1672 14.6645 19.1452 14.6638 19.1549C14.6634 19.1597 14.6623 19.1734 14.6602 19.1932C14.6585 19.21 14.6541 19.2501 14.6458 19.3031C14.6414 19.3307 14.6194 19.4756 14.5624 19.6559C14.5394 19.7289 14.4635 19.9646 14.2955 20.2315C14.2098 20.3677 14.0378 20.6131 13.748 20.8464C13.4416 21.093 12.9285 21.3811 12.2419 21.3978L12.1811 18.8986L12.1204 16.3993C10.7675 16.4322 10.139 17.4489 10.0643 17.5676C9.89541 17.8358 9.81875 18.0735 9.79485 18.1492C9.73623 18.3347 9.71257 18.4875 9.70658 18.5255C9.68914 18.6363 9.68158 18.7315 9.67877 18.7678C9.67153 18.861 9.66688 18.9641 9.66346 19.055C9.6562 19.2478 9.64977 19.5184 9.64383 19.8557L12.1434 19.8998ZM12.1811 18.8986L12.2419 21.3978L12.3221 21.3959L12.2614 18.8966L12.2007 16.3973L12.1204 16.3993L12.1811 18.8986ZM12.2614 18.8966L12.3221 21.3959L12.4023 21.3939L12.3416 18.8947L12.2809 16.3954L12.2007 16.3973L12.2614 18.8966ZM12.3416 18.8947L12.4023 21.3939C12.3675 21.3948 12.3335 21.3946 12.3707 21.3945C12.3834 21.3945 12.403 21.3945 12.4299 21.3945C12.4836 21.3945 12.5631 21.3945 12.6688 21.3945C12.88 21.3945 13.1939 21.3947 13.6106 21.3949L13.6121 18.8949L13.6136 16.3949C12.8189 16.3944 12.3357 16.3941 12.2809 16.3954L12.3416 18.8947ZM13.6121 18.8949L13.6106 21.3949L18.6121 21.3979L18.6136 18.8979L18.6151 16.3979L13.6136 16.3949L13.6121 18.8949Z" fill="black"/>
</svg>
