<svg width="56" height="164" viewBox="0 0 56 164" fill="none" xmlns="http://www.w3.org/2000/svg">
<path d="M3 4.11716L48.9864 3L52.7993 159.954L6.81289 161.071L3 4.11716Z" fill="white"/>
<path d="M39.1586 0.718478C40.2557 0.684497 41.345 0.836222 42.356 1.24645L46.0856 2.77742L49.8149 4.28886C50.5951 4.60663 51.2719 5.15775 51.7301 5.92252C51.9479 6.28783 52.0907 6.66784 52.1872 7.04456L52.3504 8.13467L52.5304 13.1318L52.6909 18.1293C52.722 19.0113 52.7372 19.9027 52.7164 20.7858L52.6035 25.79L52.4711 30.7947C52.4513 31.6339 52.4408 32.4769 52.4151 33.3163L52.1113 43.3266C52.0891 44.0536 52.1136 44.7879 52.1839 45.513L52.6568 50.503L53.1492 55.4925C53.2377 56.4083 53.266 57.3259 53.2551 58.2447L53.1465 68.2503C53.1371 69.0202 53.1534 69.8053 53.203 70.5738L53.8364 80.5613C53.8948 81.4694 53.9292 82.3849 53.9028 83.2949L53.5989 93.3052C53.5773 94.0549 53.6038 94.8029 53.6535 95.5507L53.9701 100.544L54.3064 105.538C54.37 106.492 54.3738 107.454 54.298 108.41L53.8922 113.421L53.506 118.432C53.4489 119.151 53.4368 119.867 53.4801 120.582L54.0744 130.57C54.1236 131.382 54.2006 132.197 54.2703 133.008L54.6847 137.999L55.1185 142.99C55.195 143.88 55.2486 144.771 55.2616 145.663L55.3244 150.663L55.4068 155.663C55.4173 156.387 55.284 157.2 54.857 157.962C54.4087 158.756 53.7317 159.334 52.9643 159.668L49.1167 161.325L45.2891 163C44.2529 163.451 43.1317 163.621 42.0016 163.588L31.9913 163.284C31.1455 163.26 30.2957 163.246 29.4496 163.209L24.4426 162.979L19.436 162.769C18.6269 162.734 17.8515 162.717 17.1096 162.708L7.84597 162.581C7.01222 162.569 6.01537 162.328 5.22205 161.531C4.45339 160.759 4.20606 159.787 4.14506 159.018L3.35548 149.034L3.21335 146.4L3.11144 141.401L2.92977 133.923L2.64786 123.927C2.62383 123.082 2.61644 122.233 2.60572 121.388L2.48002 111.388C2.46925 110.537 2.44907 109.681 2.45693 108.829L2.56553 98.8236C2.57347 97.9652 2.58676 97.1023 2.62007 96.2434L3.00203 86.2312C3.03104 85.4812 3.03131 84.7326 2.98653 83.9848L2.39221 73.9963C2.3372 73.0806 2.32753 72.1598 2.36438 71.2422L2.55536 66.2361L2.76586 61.2295C2.79673 60.4613 2.79869 59.6905 2.76847 58.9241L2.36941 48.9308C2.3406 48.2032 2.25861 47.4765 2.14055 46.7483L0.530908 36.7844C0.371588 35.8036 0.299044 34.8089 0.32213 33.8199L0.547883 23.8114C0.568462 22.9312 0.62574 22.0511 0.698628 21.1703L1.10439 16.1589L1.52967 11.1471C1.56026 10.7783 1.56788 10.4822 1.5669 10.2671C1.56589 10.0455 1.55909 9.95393 1.55931 9.95465L0.661607 5.17035C0.563784 4.64534 0.572242 3.96981 0.909427 3.30831C1.24062 2.66213 1.76318 2.26905 2.18775 2.04643C2.93345 1.65842 3.74298 1.62505 4.24844 1.62516L14.2512 1.61661C15.0445 1.61709 15.8414 1.61308 16.6338 1.57827L26.6261 1.14015C27.4687 1.10299 28.3205 1.06556 29.1634 1.03944L39.1586 0.718478ZM29.3239 6.03702C28.5049 6.06239 27.6835 6.09976 26.8647 6.13583L16.8724 6.57395C16.0036 6.61227 15.1251 6.61845 14.2555 6.61798L9.25409 6.62226L5.99144 6.62337L6.01144 6.64242L6.46029 9.03457C6.6006 9.7814 6.57441 10.6804 6.50195 11.5538L6.09619 16.5652L5.67091 21.577C5.60601 22.3601 5.57045 23.143 5.5521 23.9243L5.32635 33.9327C5.3105 34.6118 5.34383 35.3012 5.45425 35.981L6.2786 40.9625L7.08342 45.9444C7.23364 46.8705 7.32909 47.7997 7.36603 48.7313L7.7651 58.7246C7.80045 59.6209 7.78829 60.5233 7.75245 61.421L7.56148 66.4271L7.35097 71.4337C7.3208 72.1848 7.32195 72.9507 7.36694 73.6996L7.68363 78.6934L7.98079 83.6876C8.03524 84.598 8.04335 85.5099 8.00814 86.4222L7.62619 96.4344C7.59491 97.2409 7.5754 98.0526 7.56785 98.8584L7.45925 108.864C7.45171 109.679 7.45013 110.511 7.46044 111.326L7.54282 116.325L7.60567 121.325C7.61606 122.143 7.62264 122.968 7.64591 123.786L7.92782 133.782L8.11044 141.299L8.21235 146.298C8.22957 147.079 8.26605 147.86 8.32784 148.64L8.72263 153.632L9.0337 157.59L12.5516 157.641L17.1639 157.705C17.9599 157.715 18.7919 157.745 19.647 157.782L29.6601 158.203C30.483 158.238 31.3211 158.275 32.1437 158.299L37.1488 158.451L42.1535 158.583C42.6834 158.598 43.0413 158.523 43.2827 158.419L47.1298 156.743L50.3964 155.296L50.325 150.745L50.2621 145.746C50.2509 144.974 50.2132 144.194 50.1471 143.423L49.2794 133.442C49.2061 132.589 49.1514 131.72 49.0996 130.867L48.783 125.873L48.4858 120.879C48.429 119.935 48.4399 118.991 48.5147 118.045L48.9204 113.034L49.3066 108.023C49.3634 107.309 49.3604 106.584 49.313 105.874L48.9964 100.88L48.6602 95.8869C48.5995 94.9764 48.5867 94.0653 48.6133 93.1528L48.7457 88.1482L48.8976 83.143C48.9196 82.3872 48.9107 81.6315 48.8621 80.8776L48.5259 75.8843L48.2092 70.8905C48.1514 69.9944 48.1328 69.0937 48.1437 68.196L48.198 63.1932L48.2719 58.1899C48.2808 57.448 48.2506 56.7054 48.1787 55.9649L47.1939 45.9859C47.1033 45.0508 47.0775 44.113 47.1061 43.1747L47.4099 33.1644C47.4352 32.3381 47.4669 31.5075 47.4864 30.6813L47.7121 20.6729C47.7306 19.8878 47.741 19.0927 47.7133 18.3089L47.5333 13.3118L47.3623 8.68566L44.205 7.39477L40.4758 5.88332C40.2471 5.79025 39.883 5.6989 39.3191 5.71605L29.3239 6.03702Z" fill="#0254D9"/>
<path d="M12.2815 16.3954C12.3387 16.3941 12.82 16.4017 13.6101 16.4022L23.6129 16.3936C24.4062 16.3941 25.203 16.3901 25.9955 16.3553L35.9878 15.9172C36.6964 15.8859 37.5487 15.981 38.3446 16.4265C38.7701 16.6652 39.12 16.9689 39.4017 17.319L40.0355 18.4759L42.6397 25.9539C42.9406 26.8209 43.1162 27.765 43.1962 28.7537L43.591 33.7456L44.0053 38.737C44.0753 39.6064 44.1162 40.481 44.1469 41.3515L44.5069 51.3457C44.5381 52.2276 44.5337 53.1196 44.5129 54.0026L44.2871 64.011L43.9073 76.524C43.885 77.251 43.9097 77.9852 43.98 78.7103L44.4724 83.6998L44.9453 88.6898C45.0346 89.6111 45.0824 90.5368 45.0712 91.461L44.9974 96.4643L44.9431 101.467C44.9337 102.235 44.9497 103.004 44.999 103.771L45.3353 108.764L45.6519 113.758C45.7106 114.667 45.7252 115.582 45.6988 116.492L45.5469 121.497L45.4145 126.502C45.3925 127.257 45.3998 128.015 45.45 128.768L46.1224 138.754C46.2118 140.097 45.8411 141.848 44.1299 142.788L41.0067 144.505L37.9024 146.202C36.9551 146.723 35.8767 146.955 34.8159 147.019L29.8216 147.317L24.8279 147.633C23.7262 147.7 22.5916 147.562 21.5519 147.088L18.1937 145.567L14.835 144.027C13.0851 143.228 12.5352 141.555 12.5137 140.157L12.4314 135.157L12.3685 130.157C12.3573 129.384 12.3183 128.607 12.2535 127.835L11.8197 122.844L11.4053 117.853C11.3274 116.927 11.3105 115.989 11.3375 115.061L11.4699 110.056L11.6218 105.051C11.6465 104.206 11.68 103.354 11.7164 102.509L12.1374 92.4955C12.1688 91.7615 12.1581 91.0204 12.1033 90.2887L11.3528 80.304C11.291 79.4787 11.2408 78.6523 11.1754 77.8271L10.3858 67.8433C10.3162 66.9658 10.263 66.0882 10.2437 65.2093L10.1418 60.2103L9.96011 52.732L9.6782 42.7359C9.65421 41.8929 9.64679 41.0404 9.63606 40.1971L9.51036 30.1972C9.49957 29.3446 9.49972 28.5504 9.51201 27.8527L9.57145 23.8657L9.64995 19.8587C9.65587 19.5226 9.66232 19.2499 9.66955 19.0573C9.67297 18.9663 9.67472 18.8571 9.68196 18.7639C9.68499 18.7252 9.69868 18.6348 9.71532 18.5286C9.72128 18.4908 9.74599 18.3394 9.80393 18.1553C9.82784 18.0796 9.89421 17.8311 10.0631 17.5629C10.1456 17.4317 10.7826 16.4318 12.1253 16.3992L12.2815 16.3954ZM15.1403 60.0888L15.2422 65.0878C15.2593 65.8731 15.296 66.6646 15.3582 67.449L16.1478 77.4328C16.214 78.2684 16.283 79.1125 16.3456 79.9482L17.0961 89.933C17.1652 90.8601 17.1845 91.7961 17.1445 92.7256L16.9144 97.7326L16.7039 102.739C16.6686 103.559 16.6509 104.383 16.627 105.203L16.3232 115.213C16.3018 115.95 16.3347 116.684 16.3963 117.419L17.2249 127.402C17.2997 128.29 17.355 129.185 17.368 130.075L17.4308 135.075L17.5052 139.742L20.271 141.004L23.6297 142.544C23.7096 142.58 23.9692 142.673 24.5307 142.639L29.5245 142.322L34.5187 142.025C35.1219 141.988 35.3999 141.876 35.4907 141.826L38.614 140.109L41.101 138.739L40.7929 134.097L40.4567 129.104C40.396 128.195 40.3836 127.281 40.4098 126.37L40.5617 121.365L40.6941 116.36C40.716 115.607 40.7069 114.846 40.6586 114.094L40.0253 104.107C39.9675 103.213 39.9295 102.309 39.9403 101.413L40.0141 96.4095L40.0684 91.4067C40.0774 90.6661 40.0467 89.921 39.9753 89.1818L39.4829 84.1923L39.01 79.2023C38.9191 78.2651 38.8929 77.3119 38.9217 76.3716L39.2255 66.3612C39.2508 65.5355 39.263 64.7042 39.2824 63.8786L39.3953 58.8744L39.5277 53.8697C39.546 53.0878 39.5373 52.3064 39.5098 51.5257L39.1498 41.5315C39.1218 40.7389 39.0776 39.9432 39.0139 39.1513L38.6191 34.1594L38.2048 29.168C38.1505 28.4944 38.0443 27.9723 37.9125 27.5926L36.6104 23.8536L35.6015 20.928L31.2302 21.1319L26.234 21.351C25.3653 21.3893 24.4868 21.3955 23.6172 21.395L18.6158 21.3993L14.6107 21.3989L14.5747 23.9396L14.4962 27.9466C14.4851 28.5807 14.4801 29.3052 14.4903 30.1153L14.5727 35.1148L14.6355 40.1147C14.6459 40.9318 14.6526 41.7586 14.6758 42.5754L14.9577 52.5715L15.1403 60.0888Z" fill="#0254D9"/>
</svg>
