<svg width="733" height="162" viewBox="0 0 733 162" fill="none" xmlns="http://www.w3.org/2000/svg">
<path d="M143.406 85.375V79.75H152C153.229 79.75 154.188 79.3333 154.875 78.5C155.583 77.6667 155.938 76.5104 155.938 75.0312V68.0625C155.938 66.5208 155.583 65.3229 154.875 64.4688C154.188 63.6146 153.229 63.1875 152 63.1875H143.406V57.5625H151.875C154.021 57.5625 155.844 57.9688 157.344 58.7812C158.865 59.5938 160.021 60.7812 160.812 62.3438C161.604 63.8854 162 65.7604 162 67.9688V75.1875C162 77.3333 161.594 79.1667 160.781 80.6875C159.99 82.2083 158.833 83.375 157.312 84.1875C155.812 84.9792 154 85.375 151.875 85.375H143.406ZM140.125 103V57.5625H146.062V103H140.125ZM180.125 103V70.5625H186.062V103H180.125ZM172.812 70.5625V94.125C172.812 95.2917 173.125 96.1771 173.75 96.7812C174.375 97.3854 175.292 97.6875 176.5 97.6875C177.729 97.6875 178.635 97.375 179.219 96.75C179.823 96.125 180.125 95.2083 180.125 94L180.562 98C179.979 99.8333 179.156 101.208 178.094 102.125C177.031 103.021 175.708 103.469 174.125 103.469C171.729 103.469 169.917 102.698 168.688 101.156C167.479 99.6146 166.875 97.3542 166.875 94.375V70.5625H172.812ZM198.875 57.5625V94.4062C198.875 95.3438 199.073 96.0729 199.469 96.5938C199.885 97.1146 200.479 97.375 201.25 97.375H203.031V103H200.531C198.135 103 196.271 102.25 194.938 100.75C193.604 99.25 192.938 97.1354 192.938 94.4062V57.5625H198.875ZM213.688 57.5625V94.4062C213.688 95.3438 213.885 96.0729 214.281 96.5938C214.698 97.1146 215.292 97.375 216.062 97.375H217.844V103H215.344C212.948 103 211.083 102.25 209.75 100.75C208.417 99.25 207.75 97.1354 207.75 94.4062V57.5625H213.688ZM243.875 103.156C241.188 103.156 239.24 102.417 238.031 100.938C236.844 99.4583 236.25 97.3333 236.25 94.5625V61.125H242.188V94.5625C242.188 95.5 242.385 96.2292 242.781 96.75C243.198 97.2708 243.792 97.5312 244.562 97.5312H246.938V103.156H243.875ZM232.938 76.1875V70.5625H246.938V76.1875H232.938ZM252.25 103V57.5625H258.188V103H252.25ZM266.125 103V80.4688C266.125 78.8021 265.792 77.5625 265.125 76.75C264.479 75.9375 263.49 75.5312 262.156 75.5312C260.823 75.5312 259.823 75.9583 259.156 76.8125C258.51 77.6458 258.188 78.9167 258.188 80.625L257.531 76.0312C258.281 73.9688 259.302 72.4479 260.594 71.4688C261.885 70.4896 263.344 70 264.969 70C267.26 70 269.01 70.75 270.219 72.25C271.448 73.75 272.062 75.9167 272.062 78.75V103H266.125ZM288.188 103.469C285.062 103.469 282.635 102.531 280.906 100.656C279.177 98.7812 278.312 96.1354 278.312 92.7188V81.375C278.312 77.75 279.156 74.9479 280.844 72.9688C282.531 70.9896 284.896 70 287.938 70C291.042 70 293.438 70.9167 295.125 72.75C296.812 74.5833 297.656 77.1771 297.656 80.5312V89.0938H282.469V84.1875H291.969V80.6562C291.969 78.9688 291.615 77.6667 290.906 76.75C290.219 75.8333 289.229 75.375 287.938 75.375C286.688 75.375 285.719 75.8646 285.031 76.8438C284.344 77.8229 284 79.2188 284 81.0312V92.875C284 94.4583 284.365 95.6979 285.094 96.5938C285.823 97.4688 286.854 97.9062 288.188 97.9062C289.417 97.9062 290.365 97.5833 291.031 96.9375C291.719 96.2708 292.062 95.3333 292.062 94.125V93.9062H297.75V94.125C297.75 97.0833 296.917 99.3854 295.25 101.031C293.583 102.656 291.229 103.469 288.188 103.469ZM322.812 57.5625V94.4062C322.812 95.3438 323.01 96.0729 323.406 96.5938C323.823 97.1146 324.417 97.375 325.188 97.375H326.969V103H324.469C322.073 103 320.208 102.25 318.875 100.75C317.542 99.25 316.875 97.1354 316.875 94.4062V57.5625H322.812ZM340.938 103.469C337.812 103.469 335.385 102.531 333.656 100.656C331.927 98.7812 331.062 96.1354 331.062 92.7188V81.375C331.062 77.75 331.906 74.9479 333.594 72.9688C335.281 70.9896 337.646 70 340.688 70C343.792 70 346.188 70.9167 347.875 72.75C349.562 74.5833 350.406 77.1771 350.406 80.5312V89.0938H335.219V84.1875H344.719V80.6562C344.719 78.9688 344.365 77.6667 343.656 76.75C342.969 75.8333 341.979 75.375 340.688 75.375C339.438 75.375 338.469 75.8646 337.781 76.8438C337.094 77.8229 336.75 79.2188 336.75 81.0312V92.875C336.75 94.4583 337.115 95.6979 337.844 96.5938C338.573 97.4688 339.604 97.9062 340.938 97.9062C342.167 97.9062 343.115 97.5833 343.781 96.9375C344.469 96.2708 344.812 95.3333 344.812 94.125V93.9062H350.5V94.125C350.5 97.0833 349.667 99.3854 348 101.031C346.333 102.656 343.979 103.469 340.938 103.469ZM364.5 94.4375L369.719 70.5625H375.625L366.844 103H362.156L353.312 70.5625H359.25L364.5 94.4375ZM388.938 103.469C385.812 103.469 383.385 102.531 381.656 100.656C379.927 98.7812 379.062 96.1354 379.062 92.7188V81.375C379.062 77.75 379.906 74.9479 381.594 72.9688C383.281 70.9896 385.646 70 388.688 70C391.792 70 394.188 70.9167 395.875 72.75C397.562 74.5833 398.406 77.1771 398.406 80.5312V89.0938H383.219V84.1875H392.719V80.6562C392.719 78.9688 392.365 77.6667 391.656 76.75C390.969 75.8333 389.979 75.375 388.688 75.375C387.438 75.375 386.469 75.8646 385.781 76.8438C385.094 77.8229 384.75 79.2188 384.75 81.0312V92.875C384.75 94.4583 385.115 95.6979 385.844 96.5938C386.573 97.4688 387.604 97.9062 388.938 97.9062C390.167 97.9062 391.115 97.5833 391.781 96.9375C392.469 96.2708 392.812 95.3333 392.812 94.125V93.9062H398.5V94.125C398.5 97.0833 397.667 99.3854 396 101.031C394.333 102.656 391.979 103.469 388.938 103.469ZM404.75 103V70.5625H410.688V103H404.75ZM419.594 75.9375C419.448 75.9375 419.292 75.9375 419.125 75.9375C418.958 75.9375 418.74 75.9375 418.469 75.9375C416.052 75.9375 414.156 76.5312 412.781 77.7188C411.427 78.9062 410.729 80.5208 410.688 82.5625L410.031 76.2188C411.073 74.2812 412.417 72.7604 414.062 71.6562C415.729 70.5521 417.573 70 419.594 70V75.9375ZM446.062 103.156C443.375 103.156 441.427 102.417 440.219 100.938C439.031 99.4583 438.438 97.3333 438.438 94.5625V61.125H444.375V94.5625C444.375 95.5 444.573 96.2292 444.969 96.75C445.385 97.2708 445.979 97.5312 446.75 97.5312H449.125V103.156H446.062ZM435.125 76.1875V70.5625H449.125V76.1875H435.125ZM463.188 103.469C460.229 103.469 457.927 102.646 456.281 101C454.635 99.3542 453.812 97.0417 453.812 94.0625V79.25C453.812 76.2917 454.635 74.0104 456.281 72.4062C457.927 70.8021 460.229 70 463.188 70C466.146 70 468.427 70.8021 470.031 72.4062C471.635 74.0104 472.438 76.2917 472.438 79.25V94.1562C472.438 97.1146 471.635 99.4062 470.031 101.031C468.427 102.656 466.146 103.469 463.188 103.469ZM463.125 97.6875C464.188 97.6875 465.01 97.3646 465.594 96.7188C466.198 96.0521 466.5 95.1146 466.5 93.9062V79.5C466.5 78.3333 466.198 77.4271 465.594 76.7812C465.01 76.1146 464.188 75.7812 463.125 75.7812C462.083 75.7812 461.26 76.1146 460.656 76.7812C460.052 77.4271 459.75 78.3333 459.75 79.5V93.9062C459.75 95.1146 460.052 96.0521 460.656 96.7188C461.26 97.3646 462.083 97.6875 463.125 97.6875ZM499.812 103.469C496.771 103.469 494.375 102.604 492.625 100.875C490.875 99.125 490 96.75 490 93.75V93.5H495.875V93.75C495.875 95.1458 496.219 96.2396 496.906 97.0312C497.594 97.8021 498.562 98.1875 499.812 98.1875C501.042 98.1875 502 97.8125 502.688 97.0625C503.396 96.3125 503.75 95.2812 503.75 93.9688C503.75 92.9688 503.5 92.1979 503 91.6562C502.521 91.0938 501.875 90.6354 501.062 90.2812C500.271 89.9271 499.406 89.5833 498.469 89.25C497.531 88.8958 496.583 88.5 495.625 88.0625C494.688 87.6042 493.823 87.0312 493.031 86.3438C492.24 85.6354 491.604 84.7396 491.125 83.6562C490.646 82.5521 490.406 81.1875 490.406 79.5625C490.406 76.5833 491.219 74.25 492.844 72.5625C494.49 70.8542 496.729 70 499.562 70C502.417 70 504.656 70.8125 506.281 72.4375C507.906 74.0417 508.719 76.2604 508.719 79.0938V79.2812H502.844V79.0312C502.844 77.8646 502.552 76.9479 501.969 76.2812C501.406 75.6146 500.604 75.2812 499.562 75.2812C498.542 75.2812 497.74 75.6458 497.156 76.375C496.573 77.1042 496.281 78.125 496.281 79.4375C496.281 80.4167 496.51 81.1979 496.969 81.7812C497.427 82.3438 498.021 82.7917 498.75 83.125C499.5 83.4583 500.312 83.7708 501.188 84.0625C502.167 84.375 503.146 84.7292 504.125 85.125C505.125 85.5208 506.031 86.0625 506.844 86.75C507.677 87.4375 508.344 88.3542 508.844 89.5C509.365 90.6458 509.625 92.1354 509.625 93.9688C509.625 96.9271 508.75 99.25 507 100.938C505.25 102.625 502.854 103.469 499.812 103.469ZM523.062 103.156C520.375 103.156 518.427 102.417 517.219 100.938C516.031 99.4583 515.438 97.3333 515.438 94.5625V61.125H521.375V94.5625C521.375 95.5 521.573 96.2292 521.969 96.75C522.385 97.2708 522.979 97.5312 523.75 97.5312H526.125V103.156H523.062ZM512.125 76.1875V70.5625H526.125V76.1875H512.125ZM544.875 103V79.2812C544.875 77.9688 544.521 76.9583 543.812 76.25C543.125 75.5208 542.156 75.1562 540.906 75.1562C539.823 75.1562 538.969 75.5208 538.344 76.25C537.719 76.9583 537.406 77.9688 537.406 79.2812H531.625C531.625 76.3229 532.448 74.0417 534.094 72.4375C535.74 70.8125 538.062 70 541.062 70C544.104 70 546.458 70.8125 548.125 72.4375C549.812 74.0417 550.656 76.3229 550.656 79.2812V103H544.875ZM538.969 103.469C536.323 103.469 534.323 102.719 532.969 101.219C531.635 99.6979 530.969 97.4167 530.969 94.375C530.969 90.7292 531.802 88.0104 533.469 86.2188C535.156 84.4062 537.667 83.5 541 83.5H545.156L545.594 88.8125H541.031C539.573 88.8125 538.479 89.2812 537.75 90.2188C537.021 91.1354 536.656 92.5208 536.656 94.375C536.656 95.6458 536.969 96.5938 537.594 97.2188C538.24 97.8438 539.198 98.1562 540.469 98.1562C541.948 98.1562 543.052 97.75 543.781 96.9375C544.51 96.1042 544.875 94.8646 544.875 93.2188L545.531 96.2188C545.51 97.8229 545.25 99.1667 544.75 100.25C544.271 101.333 543.542 102.146 542.562 102.688C541.604 103.208 540.406 103.469 538.969 103.469ZM557.562 103V70.5625H563.5V103H557.562ZM572.406 75.9375C572.26 75.9375 572.104 75.9375 571.938 75.9375C571.771 75.9375 571.552 75.9375 571.281 75.9375C568.865 75.9375 566.969 76.5312 565.594 77.7188C564.24 78.9062 563.542 80.5208 563.5 82.5625L562.844 76.2188C563.885 74.2812 565.229 72.7604 566.875 71.6562C568.542 70.5521 570.385 70 572.406 70V75.9375ZM586 103.156C583.312 103.156 581.365 102.417 580.156 100.938C578.969 99.4583 578.375 97.3333 578.375 94.5625V61.125H584.312V94.5625C584.312 95.5 584.51 96.2292 584.906 96.75C585.323 97.2708 585.917 97.5312 586.688 97.5312H589.062V103.156H586ZM575.062 76.1875V70.5625H589.062V76.1875H575.062Z" fill="black"/>
<path d="M34.5 7.57281L34.5989 12.5718L34.5 7.57281ZM44.5 7.37488L44.4011 2.37586L44.5 7.37488ZM54.5 7.17695L54.5989 12.176L54.5 7.17695ZM59.5 7.11078L59.5334 12.1107L59.5 7.11078ZM69.5 7.04402L69.4666 2.04413L69.5 7.04402ZM79.5 6.97726L79.5334 11.9772L79.5 6.97726ZM84.5 6.82013L84.7804 11.8123L84.5 6.82013ZM94.5 6.25836L94.2196 1.26623L94.5 6.25836ZM104.5 5.69659L104.78 10.6887L104.5 5.69659ZM109.5 5.52862L109.445 0.528924L109.5 5.52862ZM119.5 5.41853L119.555 10.4182L119.5 5.41853ZM129.5 5.30844L129.445 0.30874L129.5 5.30844ZM134.5 5.40062L134.739 0.40634L134.5 5.40062ZM144.5 5.87944L144.261 10.8737L144.5 5.87944ZM154.5 6.35825L154.739 1.36397L154.5 6.35825ZM159.5 6.61534L159.774 1.62287L159.5 6.61534ZM169.5 7.16487L169.226 12.1573L169.5 7.16487ZM179.5 7.7144L179.774 2.72193L179.5 7.7144ZM184.5 7.67045L184.862 12.6573L184.5 7.67045ZM194.5 6.94511L194.138 1.95821L194.5 6.94511ZM204.5 6.21977L204.862 11.2067L204.5 6.21977ZM209.5 6.12971L209.682 1.13304L209.5 6.12971ZM219.5 6.49485L219.318 11.4915L219.5 6.49485ZM229.5 6.85999L229.682 1.86332L229.5 6.85999ZM234.5 6.85082L234.701 11.8468L234.5 6.85082ZM244.5 6.449L244.299 1.45303L244.5 6.449ZM254.5 6.04718L254.701 11.0431L254.5 6.04718ZM259.5 6.08028L259.767 1.0874L259.5 6.08028ZM269.5 6.61454L269.233 11.6074L269.5 6.61454ZM279.5 7.14879L279.767 2.15591L279.5 7.14879ZM284.5 7.17646L284.712 12.172L284.5 7.17646ZM294.5 6.75285L294.288 1.75733L294.5 6.75285ZM304.5 6.32925L304.712 11.3248L304.5 6.32925ZM309.5 6.48317L310.017 1.50996L309.5 6.48317ZM319.5 7.52245L318.983 12.4957L319.5 7.52245ZM329.5 8.56174L330.017 3.58852L329.5 8.56174ZM334.5 8.73074L334.682 13.7274L334.5 8.73074ZM344.5 8.36747L344.318 3.37076L344.5 8.36747ZM354.5 8.00419L354.682 13.0009L354.5 8.00419ZM359.5 7.75942L359.807 12.75L359.5 7.75942ZM369.5 7.1436L369.193 2.15305L369.5 7.1436ZM379.5 6.52778L379.807 11.5183L379.5 6.52778ZM384.5 6.39826L384.549 1.3985L384.5 6.39826ZM394.5 6.49601L394.451 11.4958L394.5 6.49601ZM404.5 6.59376L404.549 1.594L404.5 6.59376ZM409.5 6.46869L409.798 11.4598L409.5 6.46869ZM419.5 5.87068L419.202 0.879598L419.5 5.87068ZM429.5 5.27267L429.798 10.2638L429.5 5.27267ZM434.5 5.25685L434.767 0.263979L434.5 5.25685ZM444.5 5.79158L444.233 10.7844L444.5 5.79158ZM454.5 6.32631L454.767 1.33344V1.33344L454.5 6.32631ZM459.5 6.62868L459.837 1.64002H459.837L459.5 6.62868ZM469.5 7.30343L469.163 12.2921L469.5 7.30343ZM479.5 7.97818L479.837 2.98953L479.5 7.97818ZM484.5 8.02061L484.752 13.0142L484.5 8.02061ZM494.5 7.51556L494.248 2.52193L494.5 7.51556ZM504.5 7.01051L504.752 12.0041L504.5 7.01051ZM509.5 6.74696L509.774 11.7394L509.5 6.74696ZM519.5 6.19781L519.226 1.20533L519.5 6.19781ZM529.5 5.64865L529.774 10.6411V10.6411L529.5 5.64865ZM534.5 5.51754L534.512 0.517554L534.5 5.51754ZM544.5 5.54224L544.488 10.5422L544.5 5.54224ZM554.5 5.56695L554.512 0.566961L554.5 5.56695ZM559.5 5.56271L559.521 10.5627L559.5 5.56271ZM569.5 5.52106L569.479 0.521103L569.5 5.52106ZM579.5 5.47941L579.521 10.4794L579.5 5.47941ZM584.5 5.49809L584.558 0.498426L584.5 5.49809ZM594.5 5.61445L594.442 10.6141L594.5 5.61445ZM604.5 5.7308L604.558 0.731142L604.5 5.7308ZM609.5 5.84377L609.668 0.846581L609.5 5.84377ZM619.5 6.17927L619.332 11.1765L619.5 6.17927ZM629.5 6.51478L629.668 1.51759L629.5 6.51478ZM634.5 6.75649L634.815 1.76642L634.5 6.75649ZM644.5 7.38782L644.185 12.3779L644.5 7.38782ZM654.5 8.01916L654.815 3.02909V3.02909L654.5 8.01916ZM659.5 8.08766L659.679 13.0845L659.5 8.08766ZM669.5 7.73035L669.321 2.73354L669.5 7.73035ZM679.5 7.37304L679.679 12.3698L679.5 7.37304ZM684.5 7.44503L684.822 2.45541L684.5 7.44503ZM694.5 8.09032L694.178 13.0799V13.0799L694.5 8.09032ZM704.5 8.7356L704.822 3.74598L704.5 8.7356ZM708.748 9.30723L709.891 4.43952V4.43951L708.748 9.30723ZM715.741 10.9485L714.598 15.8162V15.8162L715.741 10.9485ZM722.733 12.5897L723.876 7.72198V7.72197L722.733 12.5897ZM724.825 15.5L729.779 14.8184V14.8184L724.825 15.5ZM726.201 25.5L721.248 26.1816V26.1816L726.201 25.5ZM727.577 35.5L732.531 34.8184V34.8184L727.577 35.5ZM727.802 40.5L732.797 40.738V40.738L727.802 40.5ZM727.326 50.5L722.331 50.262V50.262L727.326 50.5ZM726.849 60.5L731.843 60.7381V60.738L726.849 60.5ZM726.461 65.5L731.433 66.0343V66.0342L726.461 65.5ZM725.387 75.5L720.415 74.9657V74.9658L725.387 75.5ZM724.312 85.5L729.283 86.0343V86.0342L724.312 85.5ZM724.241 90.5L729.225 90.1063V90.1063L724.241 90.5ZM725.031 100.5L720.046 100.894V100.894L725.031 100.5ZM725.82 110.5L730.805 110.106L730.805 110.106L725.82 110.5ZM726.051 115.5L731.051 115.433V115.433L726.051 115.5ZM726.186 125.5L721.186 125.567V125.567L726.186 125.5ZM726.32 135.5L731.32 135.433V135.433L726.32 135.5ZM725.518 139.568L729.931 141.919V141.919L725.518 139.568ZM722.177 145.84L717.764 143.489V143.489L722.177 145.84ZM718.835 152.112L723.248 154.463V154.463L718.835 152.112ZM715.5 153.905L715.948 158.885L715.5 153.905ZM705.5 154.804L705.052 149.824L705.5 154.804ZM695.5 155.704L695.948 160.684H695.948L695.5 155.704ZM690.5 155.944L690.531 160.944L690.5 155.944ZM680.5 156.006L680.469 151.006L680.5 156.006ZM670.5 156.068L670.531 161.068L670.5 156.068ZM665.5 156.106L665.544 161.106L665.5 156.106ZM655.5 156.195L655.456 151.195L655.5 156.195ZM645.5 156.284L645.544 161.284L645.5 156.284ZM640.5 156.341L640.57 161.34H640.57L640.5 156.341ZM630.5 156.481L630.43 151.481L630.5 156.481ZM620.5 156.62L620.57 161.62H620.57L620.5 156.62ZM615.5 156.675L615.54 161.675L615.5 156.675ZM605.5 156.755L605.46 151.755L605.5 156.755ZM595.5 156.835L595.54 161.835L595.5 156.835ZM590.5 156.63L590.052 161.61L590.5 156.63ZM580.5 155.73L580.948 150.75L580.5 155.73ZM570.5 154.83L570.052 159.81L570.5 154.83ZM565.5 154.817L565.922 159.799L565.5 154.817ZM555.5 155.664L555.078 150.682L555.5 155.664ZM545.5 156.512L545.922 161.494L545.5 156.512ZM540.5 156.602L540.257 161.596L540.5 156.602ZM530.5 156.114L530.743 151.12L530.5 156.114ZM520.5 155.627L520.257 160.621L520.5 155.627ZM515.5 155.591L515.673 160.588L515.5 155.591ZM505.5 155.938L505.327 150.941L505.5 155.938ZM495.5 156.284L495.673 161.281V161.281L495.5 156.284ZM490.5 156.253L490.265 161.248L490.5 156.253ZM480.5 155.783L480.735 150.789L480.5 155.783ZM470.5 155.313L470.265 160.308L470.5 155.313ZM465.5 155.295L465.7 160.291L465.5 155.295ZM455.5 155.695L455.3 150.699L455.5 155.695ZM445.5 156.094L445.7 161.09L445.5 156.094ZM440.5 156.04L440.192 161.03L440.5 156.04ZM430.5 155.422L430.808 150.432L430.5 155.422ZM420.5 154.805L420.192 159.795L420.5 154.805ZM415.5 154.777L415.754 159.771H415.754L415.5 154.777ZM405.5 155.285L405.246 150.292L405.5 155.285ZM395.5 155.793L395.754 160.787L395.5 155.793ZM390.5 155.71L390.081 160.692L390.5 155.71ZM380.5 154.869L380.919 149.887L380.5 154.869ZM370.5 154.028L370.081 159.011L370.5 154.028ZM365.5 153.82L365.503 158.82L365.5 153.82ZM355.5 153.826L355.497 148.826L355.5 153.826ZM345.5 153.832L345.503 158.832H345.503L345.5 153.832ZM340.5 153.843L340.519 158.843L340.519 158.843L340.5 153.843ZM330.5 153.88L330.481 148.88L330.5 153.88ZM320.5 153.918L320.519 158.918L320.5 153.918ZM315.5 154.083L315.811 159.073L315.5 154.083ZM305.5 154.707L305.189 149.717L305.5 154.707ZM295.5 155.331L295.811 160.321L295.5 155.331ZM290.5 155.251L290.029 160.229L290.5 155.251ZM280.5 154.305L280.971 149.327L280.5 154.305ZM270.5 153.359L270.029 158.337L270.5 153.359ZM265.5 153.402L266.055 158.371L265.5 153.402ZM255.5 154.52L254.945 149.551L255.5 154.52ZM245.5 155.638L246.055 160.607H246.055L245.5 155.638ZM240.5 155.788L240.241 160.781H240.241L240.5 155.788ZM230.5 155.269L230.759 150.275L230.5 155.269ZM220.5 154.75L220.241 159.743H220.241L220.5 154.75ZM215.5 154.556L215.371 159.554H215.371L215.5 154.556ZM205.5 154.299L205.629 149.3H205.629L205.5 154.299ZM195.5 154.041L195.371 159.04L195.5 154.041ZM190.5 154.123L190.791 159.114L190.5 154.123ZM180.5 154.705L180.209 149.713L180.5 154.705ZM170.5 155.287L170.791 160.278H170.791L170.5 155.287ZM165.5 155.452L165.539 160.451L165.5 155.452ZM155.5 155.529L155.461 150.529L155.5 155.529ZM145.5 155.607L145.539 160.607L145.5 155.607ZM140.5 155.679L140.606 160.678H140.606L140.5 155.679ZM130.5 155.89L130.394 150.892H130.394L130.5 155.89ZM120.5 156.102L120.606 161.101H120.606L120.5 156.102ZM115.5 156.018L115.228 161.011H115.228L115.5 156.018ZM105.5 155.473L105.772 150.48H105.772L105.5 155.473ZM95.5 154.927L95.2275 159.919H95.2275L95.5 154.927ZM90.5 154.883L90.6846 159.879H90.6847L90.5 154.883ZM80.5 155.252L80.3153 150.256L80.5 155.252ZM70.5 155.622L70.6847 160.619H70.6847L70.5 155.622ZM65.5 155.757L65.5859 160.757H65.5859L65.5 155.757ZM55.5 155.929L55.4141 150.93L55.5 155.929ZM45.5 156.101L45.5859 161.1H45.5859L45.5 156.101ZM40.5 156.044L40.3014 161.04H40.3014L40.5 156.044ZM30.5 155.647L30.6986 150.651H30.6986L30.5 155.647ZM20.5 155.249L20.3014 160.246H20.3014L20.5 155.249ZM16.8219 153.735L12.9794 156.934H12.9794L16.8219 153.735ZM12.1094 148.075L15.952 144.876H15.952L12.1094 148.075ZM7.39697 142.415L3.55445 145.614H3.55445L7.39697 142.415ZM6.14344 138.5L1.14571 138.651L6.14344 138.5ZM5.84174 128.5L10.8395 128.349L5.84174 128.5ZM5.54005 118.5L0.542325 118.651L5.54005 118.5ZM5.77653 113.5L10.7381 114.119L5.77653 113.5ZM7.02415 103.5L2.06261 102.881L7.02415 103.5ZM8.27176 93.5L13.2333 94.119H13.2333L8.27176 93.5ZM8.34221 88.5L3.36537 88.9807L8.34221 88.5ZM7.37639 78.5L12.3532 78.0193L7.37639 78.5ZM6.41057 68.5L1.43373 68.9807L6.41057 68.5ZM6.29568 63.5L11.2893 63.7528L6.29568 63.5ZM6.80195 53.5L1.80835 53.2472L6.80195 53.5ZM7.30822 43.5L12.3018 43.7528L7.30822 43.5ZM7.39992 38.5L2.40041 38.5697L7.39992 38.5ZM7.26043 28.5L12.2599 28.4303L7.26043 28.5ZM7.12095 18.5L2.12144 18.5697L7.12095 18.5ZM19.5 7.31115L19.3756 12.3096L29.3756 12.5585L29.5 7.56007L29.6244 2.56161L19.6244 2.3127L19.5 7.31115ZM29.5 7.56007L29.3756 12.5585C31.1167 12.6019 32.8578 12.6063 34.5989 12.5718L34.5 7.57281L34.4011 2.57379C32.8088 2.60531 31.2167 2.60125 29.6244 2.56161L29.5 7.56007ZM34.5 7.57281L34.5989 12.5718L44.5989 12.3739L44.5 7.37488L44.4011 2.37586L34.4011 2.57379L34.5 7.57281ZM44.5 7.37488L44.5989 12.3739L54.5989 12.176L54.5 7.17695L54.4011 2.17793L44.4011 2.37586L44.5 7.37488ZM54.5 7.17695L54.5989 12.176C56.2438 12.1434 57.8886 12.1216 59.5334 12.1107L59.5 7.11078L59.4666 2.11089C57.7781 2.12216 56.0896 2.14451 54.4011 2.17793L54.5 7.17695ZM59.5 7.11078L59.5334 12.1107L69.5334 12.0439L69.5 7.04402L69.4666 2.04413L59.4666 2.11089L59.5 7.11078ZM69.5 7.04402L69.5334 12.0439L79.5334 11.9772L79.5 6.97726L79.4666 1.97737L69.4666 2.04413L69.5 7.04402ZM79.5 6.97726L79.5334 11.9772C81.2826 11.9655 83.0316 11.9105 84.7804 11.8123L84.5 6.82013L84.2196 1.828C82.635 1.91702 81.0508 1.9668 79.4666 1.97737L79.5 6.97726ZM84.5 6.82013L84.7804 11.8123L94.7804 11.2505L94.5 6.25836L94.2196 1.26623L84.2196 1.828L84.5 6.82013ZM94.5 6.25836L94.7804 11.2505L104.78 10.6887L104.5 5.69659L104.22 0.704458L94.2196 1.26623L94.5 6.25836ZM104.5 5.69659L104.78 10.6887C106.372 10.5993 107.964 10.5458 109.555 10.5283L109.5 5.52862L109.445 0.528924C107.703 0.548101 105.961 0.606619 104.22 0.704458L104.5 5.69659ZM109.5 5.52862L109.555 10.5283L119.555 10.4182L119.5 5.41853L119.445 0.418832L109.445 0.528924L109.5 5.52862ZM119.5 5.41853L119.555 10.4182L129.555 10.3081L129.5 5.30844L129.445 0.30874L119.445 0.418832L119.5 5.41853ZM129.5 5.30844L129.555 10.3081C131.124 10.2909 132.692 10.3198 134.261 10.3949L134.5 5.40062L134.739 0.40634C132.975 0.32185 131.21 0.28931 129.445 0.30874L129.5 5.30844ZM134.5 5.40062L134.261 10.3949L144.261 10.8737L144.5 5.87944L144.739 0.885157L134.739 0.40634L134.5 5.40062ZM144.5 5.87944L144.261 10.8737L154.261 11.3525L154.5 6.35825L154.739 1.36397L144.739 0.885157L144.5 5.87944ZM154.5 6.35825L154.261 11.3525C155.916 11.4318 157.571 11.5169 159.226 11.6078L159.5 6.61534L159.774 1.62287C158.096 1.53064 156.418 1.44434 154.739 1.36397L154.5 6.35825ZM159.5 6.61534L159.226 11.6078L169.226 12.1573L169.5 7.16487L169.774 2.1724L159.774 1.62287L159.5 6.61534ZM169.5 7.16487L169.226 12.1573L179.226 12.7069L179.5 7.7144L179.774 2.72193L169.774 2.1724L169.5 7.16487ZM179.5 7.7144L179.226 12.7069C181.104 12.8101 182.984 12.7936 184.862 12.6573L184.5 7.67045L184.138 2.68355C182.683 2.7891 181.229 2.80186 179.774 2.72193L179.5 7.7144ZM184.5 7.67045L184.862 12.6573L194.862 11.932L194.5 6.94511L194.138 1.95821L184.138 2.68355L184.5 7.67045ZM194.5 6.94511L194.862 11.932L204.862 11.2067L204.5 6.21977L204.138 1.23287L194.138 1.95821L194.5 6.94511ZM204.5 6.21977L204.862 11.2067C206.348 11.0989 207.833 11.0722 209.318 11.1264L209.5 6.12971L209.682 1.13304C207.834 1.06555 205.986 1.09887 204.138 1.23287L204.5 6.21977ZM209.5 6.12971L209.318 11.1264L219.318 11.4915L219.5 6.49485L219.682 1.49818L209.682 1.13304L209.5 6.12971ZM219.5 6.49485L219.318 11.4915L229.318 11.8567L229.5 6.85999L229.682 1.86332L219.682 1.49818L219.5 6.49485ZM229.5 6.85999L229.318 11.8567C231.112 11.9222 232.906 11.9189 234.701 11.8468L234.5 6.85082L234.299 1.85485C232.76 1.91669 231.221 1.91951 229.682 1.86332L229.5 6.85999ZM234.5 6.85082L234.701 11.8468L244.701 11.445L244.5 6.449L244.299 1.45303L234.299 1.85485L234.5 6.85082ZM244.5 6.449L244.701 11.445L254.701 11.0431L254.5 6.04718L254.299 1.05121L244.299 1.45303L244.5 6.449ZM254.5 6.04718L254.701 11.0431C256.212 10.9824 257.722 10.9924 259.233 11.0732L259.5 6.08028L259.767 1.0874C257.944 0.990049 256.122 0.977973 254.299 1.05121L254.5 6.04718ZM259.5 6.08028L259.233 11.0732L269.233 11.6074L269.5 6.61454L269.767 1.62166L259.767 1.0874L259.5 6.08028ZM269.5 6.61454L269.233 11.6074L279.233 12.1417L279.5 7.14879L279.767 2.15591L269.767 1.62166L269.5 6.61454ZM279.5 7.14879L279.233 12.1417C281.059 12.2392 282.885 12.2493 284.712 12.172L284.5 7.17646L284.288 2.18094C282.781 2.24478 281.274 2.23645 279.767 2.15591L279.5 7.14879ZM284.5 7.17646L284.712 12.172L294.712 11.7484L294.5 6.75285L294.288 1.75733L284.288 2.18094L284.5 7.17646ZM294.5 6.75285L294.712 11.7484L304.712 11.3248L304.5 6.32925L304.288 1.33373L294.288 1.75733L294.5 6.75285ZM304.5 6.32925L304.712 11.3248C306.134 11.2645 307.557 11.3082 308.983 11.4564L309.5 6.48317L310.017 1.50996C308.109 1.31171 306.199 1.25279 304.288 1.33373L304.5 6.32925ZM309.5 6.48317L308.983 11.4564L318.983 12.4957L319.5 7.52245L320.017 2.54924L310.017 1.50996L309.5 6.48317ZM319.5 7.52245L318.983 12.4957L328.983 13.535L329.5 8.56174L330.017 3.58852L320.017 2.54924L319.5 7.52245ZM329.5 8.56174L328.983 13.535C330.881 13.7322 332.781 13.7965 334.682 13.7274L334.5 8.73074L334.318 3.73404C332.886 3.78608 331.453 3.73775 330.017 3.58852L329.5 8.56174ZM334.5 8.73074L334.682 13.7274L344.682 13.3642L344.5 8.36747L344.318 3.37076L334.318 3.73404L334.5 8.73074ZM344.5 8.36747L344.682 13.3642L354.682 13.0009L354.5 8.00419L354.318 3.00749L344.318 3.37076L344.5 8.36747ZM354.5 8.00419L354.682 13.0009C356.39 12.9388 358.099 12.8552 359.807 12.75L359.5 7.75942L359.193 2.76887C357.568 2.86893 355.943 2.94847 354.318 3.00749L354.5 8.00419ZM359.5 7.75942L359.807 12.75L369.807 12.1341L369.5 7.1436L369.193 2.15305L359.193 2.76887L359.5 7.75942ZM369.5 7.1436L369.807 12.1341L379.807 11.5183L379.5 6.52778L379.193 1.53723L369.193 2.15305L369.5 7.1436ZM379.5 6.52778L379.807 11.5183C381.356 11.423 382.904 11.3829 384.451 11.398L384.5 6.39826L384.549 1.3985C382.763 1.38104 380.978 1.4273 379.193 1.53723L379.5 6.52778ZM384.5 6.39826L384.451 11.398L394.451 11.4958L394.5 6.49601L394.549 1.49625L384.549 1.3985L384.5 6.39826ZM394.5 6.49601L394.451 11.4958L404.451 11.5935L404.5 6.59376L404.549 1.594L394.549 1.49625L394.5 6.49601ZM404.5 6.59376L404.451 11.5935C406.234 11.6109 408.016 11.5664 409.798 11.4598L409.5 6.46869L409.202 1.47761C407.65 1.57038 406.099 1.60916 404.549 1.594L404.5 6.59376ZM409.5 6.46869L409.798 11.4598L419.798 10.8618L419.5 5.87068L419.202 0.879598L409.202 1.47761L409.5 6.46869ZM419.5 5.87068L419.798 10.8618L429.798 10.2638L429.5 5.27267L429.202 0.281583L419.202 0.879598L419.5 5.87068ZM429.5 5.27267L429.798 10.2638C431.277 10.1753 432.755 10.1707 434.233 10.2497L434.5 5.25685L434.767 0.263979C432.912 0.164781 431.056 0.170658 429.202 0.281583L429.5 5.27267ZM434.5 5.25685L434.233 10.2497L444.233 10.7844L444.5 5.79158L444.767 0.798709L434.767 0.263979L434.5 5.25685ZM444.5 5.79158L444.233 10.7844L454.233 11.3192L454.5 6.32631L454.767 1.33344L444.767 0.798709L444.5 5.79158ZM454.5 6.32631L454.233 11.3192C455.876 11.4071 457.52 11.5064 459.163 11.6173L459.5 6.62868L459.837 1.64002C458.147 1.526 456.457 1.4238 454.767 1.33344L454.5 6.32631ZM459.5 6.62868L459.163 11.6173L469.163 12.2921L469.5 7.30343L469.837 2.31477L459.837 1.64002L459.5 6.62868ZM469.5 7.30343L469.163 12.2921L479.163 12.9668L479.5 7.97818L479.837 2.98953L469.837 2.31477L469.5 7.30343ZM479.5 7.97818L479.163 12.9668C481.026 13.0925 482.889 13.1083 484.752 13.0142L484.5 8.02061L484.248 3.02697C482.778 3.10123 481.307 3.08877 479.837 2.98953L479.5 7.97818ZM484.5 8.02061L484.752 13.0142L494.752 12.5092L494.5 7.51556L494.248 2.52193L484.248 3.02697L484.5 8.02061ZM494.5 7.51556L494.752 12.5092L504.752 12.0041L504.5 7.01051L504.248 2.01688L494.248 2.52193L494.5 7.51556ZM504.5 7.01051L504.752 12.0041C506.426 11.9196 508.1 11.8314 509.774 11.7394L509.5 6.74696L509.226 1.75448C507.566 1.84561 505.907 1.93307 504.248 2.01688L504.5 7.01051ZM509.5 6.74696L509.774 11.7394L519.774 11.1903L519.5 6.19781L519.226 1.20533L509.226 1.75448L509.5 6.74696ZM519.5 6.19781L519.774 11.1903L529.774 10.6411L529.5 5.64865L529.226 0.656174L519.226 1.20533L519.5 6.19781ZM529.5 5.64865L529.774 10.6411C531.346 10.5548 532.917 10.5136 534.488 10.5175L534.5 5.51754L534.512 0.517554C532.75 0.513201 530.988 0.559417 529.226 0.656174L529.5 5.64865ZM534.5 5.51754L534.488 10.5175L544.488 10.5422L544.5 5.54224L544.512 0.542258L534.512 0.517554L534.5 5.51754ZM544.5 5.54224L544.488 10.5422L554.488 10.5669L554.5 5.56695L554.512 0.566961L544.512 0.542258L544.5 5.54224ZM554.5 5.56695L554.488 10.5669C556.165 10.5711 557.843 10.5697 559.521 10.5627L559.5 5.56271L559.479 0.562753C557.824 0.569648 556.168 0.571051 554.512 0.566961L554.5 5.56695ZM559.5 5.56271L559.521 10.5627L569.521 10.521L569.5 5.52106L569.479 0.521103L559.479 0.562753L559.5 5.56271ZM569.5 5.52106L569.521 10.521L579.521 10.4794L579.5 5.47941L579.479 0.479455L569.479 0.521103L569.5 5.52106ZM579.5 5.47941L579.521 10.4794C581.161 10.4725 582.802 10.4787 584.442 10.4977L584.5 5.49809L584.558 0.498426C582.865 0.478727 581.172 0.472403 579.479 0.479455L579.5 5.47941ZM584.5 5.49809L584.442 10.4977L594.442 10.6141L594.5 5.61445L594.558 0.614784L584.558 0.498426L584.5 5.49809ZM594.5 5.61445L594.442 10.6141L604.442 10.7305L604.5 5.7308L604.558 0.731142L594.558 0.614784L594.5 5.61445ZM604.5 5.7308L604.442 10.7305C606.072 10.7494 607.702 10.7863 609.332 10.841L609.5 5.84377L609.668 0.846581C607.965 0.78944 606.261 0.75096 604.558 0.731142L604.5 5.7308ZM609.5 5.84377L609.332 10.841L619.332 11.1765L619.5 6.17927L619.668 1.18208L609.668 0.846581L609.5 5.84377ZM619.5 6.17927L619.332 11.1765L629.332 11.512L629.5 6.51478L629.668 1.51759L619.668 1.18208L619.5 6.17927ZM629.5 6.51478L629.332 11.512C630.95 11.5662 632.567 11.6444 634.185 11.7466L634.5 6.75649L634.815 1.76642C633.099 1.6581 631.384 1.57516 629.668 1.51759L629.5 6.51478ZM634.5 6.75649L634.185 11.7466L644.185 12.3779L644.5 7.38782L644.815 2.39776L634.815 1.76642L634.5 6.75649ZM644.5 7.38782L644.185 12.3779L654.185 13.0092L654.5 8.01916L654.815 3.02909L644.815 2.39776L644.5 7.38782ZM654.5 8.01916L654.185 13.0092C656.016 13.1248 657.847 13.1499 659.679 13.0845L659.5 8.08766L659.321 3.09085C657.82 3.14452 656.318 3.12396 654.815 3.02909L654.5 8.01916ZM659.5 8.08766L659.679 13.0845L669.679 12.7272L669.5 7.73035L669.321 2.73354L659.321 3.09085L659.5 8.08766ZM669.5 7.73035L669.679 12.7272L679.679 12.3698L679.5 7.37304L679.321 2.37623L669.321 2.73354L669.5 7.73035ZM679.5 7.37304L679.679 12.3698C681.178 12.3163 682.678 12.3378 684.178 12.4347L684.5 7.44503L684.822 2.45541C682.989 2.33713 681.155 2.3107 679.321 2.37623L679.5 7.37304ZM684.5 7.44503L684.178 12.4347L694.178 13.0799L694.5 8.09032L694.822 3.1007L684.822 2.45541L684.5 7.44503ZM694.5 8.09032L694.178 13.0799L704.178 13.7252L704.5 8.7356L704.822 3.74598L694.822 3.10069L694.5 8.09032ZM704.5 8.7356L704.178 13.7252C705.667 13.8213 706.792 13.984 707.606 14.175L708.748 9.30723L709.891 4.43951C708.373 4.08342 706.666 3.86496 704.822 3.74598L704.5 8.7356ZM708.748 9.30723L707.606 14.1749L714.598 15.8162L715.741 10.9485L716.883 6.08075L709.891 4.43952L708.748 9.30723ZM715.741 10.9485L714.598 15.8162L721.591 17.4574L722.733 12.5897L723.876 7.72197L716.883 6.08074L715.741 10.9485ZM722.733 12.5897L721.591 17.4574C721.34 17.3985 721.042 17.283 720.743 17.0839C720.445 16.8846 720.223 16.6525 720.07 16.4409C719.789 16.0498 719.826 15.8454 719.872 16.1816L724.825 15.5L729.779 14.8184C729.596 13.4879 729.169 11.9652 728.19 10.6039C727.135 9.13596 725.632 8.13417 723.876 7.72198L722.733 12.5897ZM724.825 15.5L719.872 16.1816L721.248 26.1816L726.201 25.5L731.155 24.8184L729.779 14.8184L724.825 15.5ZM726.201 25.5L721.248 26.1816L722.624 36.1816L727.577 35.5L732.531 34.8184L731.155 24.8184L726.201 25.5ZM727.577 35.5L722.624 36.1816C722.812 37.5461 722.873 38.905 722.808 40.262L727.802 40.5L732.797 40.738C732.891 38.7617 732.802 36.7872 732.531 34.8184L727.577 35.5ZM727.802 40.5L722.808 40.262L722.331 50.262L727.326 50.5L732.32 50.738L732.797 40.738L727.802 40.5ZM727.326 50.5L722.331 50.262L721.855 60.262L726.849 60.5L731.843 60.738L732.32 50.738L727.326 50.5ZM726.849 60.5L721.855 60.2619C721.78 61.8292 721.658 63.3971 721.49 64.9658L726.461 65.5L731.433 66.0342C731.622 64.2695 731.759 62.5041 731.843 60.7381L726.849 60.5ZM726.461 65.5L721.49 64.9657L720.415 74.9657L725.387 75.5L730.358 76.0343L731.433 66.0343L726.461 65.5ZM725.387 75.5L720.415 74.9658L719.341 84.9658L724.312 85.5L729.283 86.0342L730.358 76.0342L725.387 75.5ZM724.312 85.5L719.341 84.9657C719.128 86.9398 719.1 88.9172 719.256 90.8937L724.241 90.5L729.225 90.1063C729.118 88.7495 729.137 87.3935 729.283 86.0343L724.312 85.5ZM724.241 90.5L719.256 90.8937L720.046 100.894L725.031 100.5L730.015 100.106L729.225 90.1063L724.241 90.5ZM725.031 100.5L720.046 100.894L720.836 110.894L725.82 110.5L730.805 110.106L730.015 100.106L725.031 100.5ZM725.82 110.5L720.836 110.894C720.959 112.452 721.031 114.01 721.052 115.567L726.051 115.5L731.051 115.433C731.027 113.657 730.945 111.881 730.805 110.106L725.82 110.5ZM726.051 115.5L721.052 115.567L721.186 125.567L726.186 125.5L731.185 125.433L731.051 115.433L726.051 115.5ZM726.186 125.5L721.186 125.567L721.321 135.567L726.32 135.5L731.32 135.433L731.185 125.433L726.186 125.5ZM726.32 135.5L721.321 135.567C721.336 136.715 721.138 137.157 721.106 137.217L725.518 139.568L729.931 141.919C731.013 139.888 731.349 137.618 731.32 135.433L726.32 135.5ZM725.518 139.568L721.106 137.217L717.764 143.489L722.177 145.84L726.59 148.191L729.931 141.919L725.518 139.568ZM722.177 145.84L717.764 143.489L714.423 149.761L718.835 152.112L723.248 154.463L726.59 148.191L722.177 145.84ZM718.835 152.112L714.423 149.761C714.519 149.58 714.649 149.404 714.806 149.249C714.961 149.096 715.109 148.998 715.217 148.94C715.415 148.834 715.421 148.892 715.052 148.925L715.5 153.905L715.948 158.885C718.54 158.652 721.598 157.561 723.248 154.463L718.835 152.112ZM715.5 153.905L715.052 148.925L705.052 149.824L705.5 154.804L705.948 159.784L715.948 158.885L715.5 153.905ZM705.5 154.804L705.052 149.824L695.052 150.724L695.5 155.704L695.948 160.684L705.948 159.784L705.5 154.804ZM695.5 155.704L695.052 150.724C693.523 150.861 691.996 150.935 690.469 150.944L690.5 155.944L690.531 160.944C692.337 160.933 694.143 160.846 695.948 160.684L695.5 155.704ZM690.5 155.944L690.469 150.944L680.469 151.006L680.5 156.006L680.531 161.006L690.531 160.944L690.5 155.944ZM680.5 156.006L680.469 151.006L670.469 151.069L670.5 156.068L670.531 161.068L680.531 161.006L680.5 156.006ZM670.5 156.068L670.469 151.069C668.798 151.079 667.127 151.092 665.456 151.106L665.5 156.106L665.544 161.106C667.207 161.091 668.869 161.079 670.531 161.068L670.5 156.068ZM665.5 156.106L665.456 151.106L655.456 151.195L655.5 156.195L655.544 161.195L665.544 161.106L665.5 156.106ZM655.5 156.195L655.456 151.195L645.456 151.284L645.5 156.284L645.544 161.284L655.544 161.195L655.5 156.195ZM645.5 156.284L645.456 151.284C643.78 151.299 642.105 151.318 640.43 151.341L640.5 156.341L640.57 161.34C642.228 161.317 643.886 161.298 645.544 161.284L645.5 156.284ZM640.5 156.341L640.43 151.341L630.43 151.481L630.5 156.481L630.57 161.48L640.57 161.34L640.5 156.341ZM630.5 156.481L630.43 151.481L620.43 151.621L620.5 156.62L620.57 161.62L630.57 161.48L630.5 156.481ZM620.5 156.62L620.43 151.621C618.773 151.644 617.117 151.662 615.46 151.675L615.5 156.675L615.54 161.675C617.217 161.662 618.893 161.643 620.57 161.62L620.5 156.62ZM615.5 156.675L615.46 151.675L605.46 151.755L605.5 156.755L605.54 161.755L615.54 161.675L615.5 156.675ZM605.5 156.755L605.46 151.755L595.46 151.835L595.5 156.835L595.54 161.835L605.54 161.755L605.5 156.755ZM595.5 156.835L595.46 151.835C593.957 151.847 592.453 151.786 590.948 151.65L590.5 156.63L590.052 161.61C591.88 161.775 593.71 161.85 595.54 161.835L595.5 156.835ZM590.5 156.63L590.948 151.65L580.948 150.75L580.5 155.73L580.052 160.71L590.052 161.61L590.5 156.63ZM580.5 155.73L580.948 150.75L570.948 149.85L570.5 154.83L570.052 159.81L580.052 160.71L580.5 155.73ZM570.5 154.83L570.948 149.85C568.992 149.674 567.034 149.669 565.078 149.835L565.5 154.817L565.922 159.799C567.299 159.682 568.674 159.686 570.052 159.81L570.5 154.83ZM565.5 154.817L565.078 149.835L555.078 150.682L555.5 155.664L555.922 160.647L565.922 159.799L565.5 154.817ZM555.5 155.664L555.078 150.682L545.078 151.53L545.5 156.512L545.922 161.494L555.922 160.647L555.5 155.664ZM545.5 156.512L545.078 151.53C543.632 151.652 542.188 151.678 540.743 151.608L540.5 156.602L540.257 161.596C542.146 161.688 544.035 161.654 545.922 161.494L545.5 156.512ZM540.5 156.602L540.743 151.608L530.743 151.12L530.5 156.114L530.256 161.108L540.257 161.596L540.5 156.602ZM530.5 156.114L530.743 151.12L520.743 150.633L520.5 155.627L520.257 160.621L530.257 161.108L530.5 156.114ZM520.5 155.627L520.743 150.633C518.938 150.545 517.132 150.532 515.327 150.594L515.5 155.591L515.673 160.588C517.201 160.535 518.729 160.546 520.257 160.621L520.5 155.627ZM515.5 155.591L515.327 150.594L505.327 150.941L505.5 155.938L505.673 160.935L515.673 160.588L515.5 155.591ZM505.5 155.938L505.327 150.941L495.327 151.287L495.5 156.284L495.673 161.281L505.673 160.935L505.5 155.938ZM495.5 156.284L495.327 151.287C493.796 151.34 492.266 151.331 490.735 151.259L490.5 156.253L490.265 161.248C492.068 161.332 493.87 161.344 495.673 161.281L495.5 156.284ZM490.5 156.253L490.735 151.259L480.735 150.789L480.5 155.783L480.265 160.778L490.265 161.248L490.5 156.253ZM480.5 155.783L480.735 150.789L470.735 150.319L470.5 155.313L470.265 160.308L480.265 160.778L480.5 155.783ZM470.5 155.313L470.735 150.319C468.923 150.233 467.112 150.227 465.3 150.299L465.5 155.295L465.7 160.291C467.221 160.231 468.743 160.236 470.265 160.308L470.5 155.313ZM465.5 155.295L465.301 150.299L455.3 150.699L455.5 155.695L455.7 160.691L465.7 160.291L465.5 155.295ZM455.5 155.695L455.3 150.699L445.3 151.098L445.5 156.094L445.7 161.09L455.7 160.691L455.5 155.695ZM445.5 156.094L445.301 151.098C443.803 151.158 442.306 151.142 440.808 151.049L440.5 156.04L440.192 161.03C442.027 161.143 443.863 161.163 445.7 161.09L445.5 156.094ZM440.5 156.04L440.808 151.049L430.808 150.432L430.5 155.422L430.192 160.413L440.192 161.03L440.5 156.04ZM430.5 155.422L430.808 150.432L420.808 149.814L420.5 154.805L420.192 159.795L430.192 160.413L430.5 155.422ZM420.5 154.805L420.808 149.814C418.955 149.7 417.1 149.689 415.246 149.784L415.5 154.777L415.754 159.771C417.233 159.696 418.712 159.704 420.192 159.795L420.5 154.805ZM415.5 154.777L415.246 149.784L405.246 150.292L405.5 155.285L405.754 160.279L415.754 159.771L415.5 154.777ZM405.5 155.285L405.246 150.292L395.246 150.8L395.5 155.793L395.754 160.787L405.754 160.279L405.5 155.285ZM395.5 155.793L395.246 150.8C393.804 150.873 392.362 150.849 390.919 150.727L390.5 155.71L390.081 160.692C391.971 160.851 393.862 160.883 395.754 160.787L395.5 155.793ZM390.5 155.71L390.919 150.727L380.919 149.887L380.5 154.869L380.081 159.852L390.081 160.692L390.5 155.71ZM380.5 154.869L380.919 149.887L370.919 149.046L370.5 154.028L370.081 159.011L380.081 159.852L380.5 154.869ZM370.5 154.028L370.919 149.046C369.112 148.894 367.305 148.819 365.497 148.82L365.5 153.82L365.503 158.82C367.028 158.819 368.554 158.882 370.081 159.011L370.5 154.028ZM365.5 153.82L365.497 148.82L355.497 148.826L355.5 153.826L355.503 158.826L365.503 158.82L365.5 153.82ZM355.5 153.826L355.497 148.826L345.497 148.832L345.5 153.832L345.503 158.832L355.503 158.826L355.5 153.826ZM345.5 153.832L345.497 148.832C343.825 148.833 342.153 148.836 340.481 148.843L340.5 153.843L340.519 158.843C342.18 158.836 343.842 158.833 345.503 158.832L345.5 153.832ZM340.5 153.843L340.481 148.843L330.481 148.88L330.5 153.88L330.519 158.88L340.519 158.843L340.5 153.843ZM330.5 153.88L330.481 148.88L320.481 148.918L320.5 153.918L320.519 158.918L330.519 158.88L330.5 153.88ZM320.5 153.918L320.481 148.918C318.717 148.924 316.952 148.983 315.189 149.093L315.5 154.083L315.811 159.073C317.381 158.975 318.95 158.924 320.519 158.918L320.5 153.918ZM315.5 154.083L315.189 149.093L305.189 149.717L305.5 154.707L305.811 159.697L315.811 159.073L315.5 154.083ZM305.5 154.707L305.189 149.717L295.189 150.341L295.5 155.331L295.811 160.321L305.811 159.697L305.5 154.707ZM295.5 155.331L295.189 150.341C293.783 150.429 292.378 150.406 290.971 150.273L290.5 155.251L290.029 160.229C291.955 160.411 293.883 160.442 295.811 160.321L295.5 155.331ZM290.5 155.251L290.971 150.273L280.971 149.327L280.5 154.305L280.029 159.283L290.029 160.229L290.5 155.251ZM280.5 154.305L280.971 149.327L270.971 148.381L270.5 153.359L270.029 158.337L280.029 159.283L280.5 154.305ZM270.5 153.359L270.971 148.381C268.962 148.191 266.951 148.209 264.945 148.433L265.5 153.402L266.055 158.371C267.382 158.223 268.705 158.212 270.029 158.337L270.5 153.359ZM265.5 153.402L264.945 148.433L254.945 149.551L255.5 154.52L256.055 159.489L266.055 158.371L265.5 153.402ZM255.5 154.52L254.945 149.551L244.945 150.669L245.5 155.638L246.055 160.607L256.055 159.489L255.5 154.52ZM245.5 155.638L244.945 150.669C243.547 150.825 242.153 150.867 240.759 150.794L240.5 155.788L240.241 160.781C242.181 160.882 244.12 160.823 246.055 160.607L245.5 155.638ZM240.5 155.788L240.759 150.794L230.759 150.275L230.5 155.269L230.241 160.262L240.241 160.781L240.5 155.788ZM230.5 155.269L230.759 150.275L220.759 149.756L220.5 154.75L220.241 159.743L230.241 160.262L230.5 155.269ZM220.5 154.75L220.759 149.756C219.049 149.668 217.339 149.601 215.629 149.557L215.5 154.556L215.371 159.554C216.995 159.596 218.618 159.659 220.241 159.743L220.5 154.75ZM215.5 154.556L215.629 149.557L205.629 149.3L205.5 154.299L205.371 159.297L215.371 159.554L215.5 154.556ZM205.5 154.299L205.629 149.3L195.629 149.043L195.5 154.041L195.371 159.04L205.371 159.297L205.5 154.299ZM195.5 154.041L195.629 149.043C193.822 148.997 192.015 149.026 190.209 149.131L190.5 154.123L190.791 159.114C192.318 159.025 193.845 159 195.371 159.04L195.5 154.041ZM190.5 154.123L190.209 149.131L180.209 149.713L180.5 154.705L180.791 159.696L190.791 159.114L190.5 154.123ZM180.5 154.705L180.209 149.713L170.209 150.295L170.5 155.287L170.791 160.278L180.791 159.696L180.5 154.705ZM170.5 155.287L170.209 150.295C168.626 150.387 167.044 150.439 165.461 150.452L165.5 155.452L165.539 160.451C167.29 160.438 169.04 160.38 170.791 160.278L170.5 155.287ZM165.5 155.452L165.461 150.452L155.461 150.529L155.5 155.529L155.539 160.529L165.539 160.451L165.5 155.452ZM155.5 155.529L155.461 150.529L145.461 150.607L145.5 155.607L145.539 160.607L155.539 160.529L155.5 155.529ZM145.5 155.607L145.461 150.607C143.772 150.62 142.083 150.644 140.394 150.68L140.5 155.679L140.606 160.678C142.25 160.643 143.894 160.619 145.539 160.607L145.5 155.607ZM140.5 155.679L140.394 150.68L130.394 150.892L130.5 155.89L130.606 160.889L140.606 160.678L140.5 155.679ZM130.5 155.89L130.394 150.892L120.394 151.103L120.5 156.102L120.606 161.101L130.606 160.889L130.5 155.89ZM120.5 156.102L120.394 151.103C118.854 151.136 117.313 151.11 115.772 151.026L115.5 156.018L115.228 161.011C117.02 161.109 118.813 161.139 120.606 161.101L120.5 156.102ZM115.5 156.018L115.772 151.026L105.772 150.48L105.5 155.473L105.228 160.465L115.228 161.011L115.5 156.018ZM105.5 155.473L105.772 150.48L95.7724 149.934L95.5 154.927L95.2275 159.919L105.228 160.465L105.5 155.473ZM95.5 154.927L95.7724 149.934C93.9537 149.835 92.1345 149.819 90.3153 149.886L90.5 154.883L90.6847 159.879C92.1988 159.823 93.713 159.837 95.2275 159.919L95.5 154.927ZM90.5 154.883L90.3153 149.886L80.3153 150.256L80.5 155.252L80.6847 160.249L90.6846 159.879L90.5 154.883ZM80.5 155.252L80.3153 150.256L70.3153 150.625L70.5 155.622L70.6847 160.619L80.6847 160.249L80.5 155.252ZM70.5 155.622L70.3153 150.625C68.6816 150.686 67.0478 150.73 65.4141 150.758L65.5 155.757L65.5859 160.757C67.2855 160.727 68.9851 160.681 70.6847 160.619L70.5 155.622ZM65.5 155.757L65.4141 150.758L55.4141 150.93L55.5 155.929L55.5859 160.928L65.5859 160.757L65.5 155.757ZM55.5 155.929L55.4141 150.93L45.4141 151.102L45.5 156.101L45.5859 161.1L55.5859 160.928L55.5 155.929ZM45.5 156.101L45.4142 151.102C43.8424 151.129 42.2706 151.111 40.6986 151.048L40.5 156.044L40.3014 161.04C42.0628 161.11 43.8243 161.13 45.5859 161.1L45.5 156.101ZM40.5 156.044L40.6986 151.048L30.6986 150.651L30.5 155.647L30.3014 160.643L40.3014 161.04L40.5 156.044ZM30.5 155.647L30.6986 150.651L20.6986 150.253L20.5 155.249L20.3014 160.246L30.3014 160.643L30.5 155.647ZM20.5 155.249L20.6986 150.253C20.3062 150.238 20.1855 150.178 20.2341 150.198C20.2627 150.21 20.3291 150.241 20.4149 150.303C20.5022 150.365 20.5885 150.445 20.6644 150.536L16.8219 153.735L12.9794 156.934C14.9615 159.315 17.7499 160.144 20.3014 160.246L20.5 155.249ZM16.8219 153.735L20.6644 150.536L15.952 144.876L12.1094 148.075L8.2669 151.274L12.9794 156.934L16.8219 153.735ZM12.1094 148.075L15.952 144.876L11.2395 139.216L7.39697 142.415L3.55445 145.614L8.26691 151.274L12.1094 148.075ZM7.39697 142.415L11.2395 139.216C11.3871 139.393 11.1697 139.296 11.1412 138.349L6.14344 138.5L1.14571 138.651C1.21771 141.037 1.83603 143.55 3.55445 145.614L7.39697 142.415ZM6.14344 138.5L11.1412 138.349L10.8395 128.349L5.84174 128.5L0.844018 128.651L1.14571 138.651L6.14344 138.5ZM5.84174 128.5L10.8395 128.349L10.5378 118.349L5.54005 118.5L0.542325 118.651L0.844018 128.651L5.84174 128.5ZM5.54005 118.5L10.5378 118.349C10.4953 116.942 10.5617 115.532 10.7381 114.119L5.77653 113.5L0.814997 112.881C0.575444 114.801 0.484229 116.725 0.542325 118.651L5.54005 118.5ZM5.77653 113.5L10.7381 114.119L11.9857 104.119L7.02415 103.5L2.06261 102.881L0.814997 112.881L5.77653 113.5ZM7.02415 103.5L11.9857 104.119L13.2333 94.119L8.27176 93.5L3.31022 92.881L2.06261 102.881L7.02415 103.5ZM8.27176 93.5L13.2333 94.119C13.4866 92.0886 13.5155 90.0531 13.319 88.0193L8.34221 88.5L3.36537 88.9807C3.49088 90.2802 3.47278 91.5781 3.31022 92.881L8.27176 93.5ZM8.34221 88.5L13.319 88.0193L12.3532 78.0193L7.37639 78.5L2.39955 78.9807L3.36537 88.9807L8.34221 88.5ZM7.37639 78.5L12.3532 78.0193L11.3874 68.0193L6.41057 68.5L1.43373 68.9807L2.39955 78.9807L7.37639 78.5ZM6.41057 68.5L11.3874 68.0193C11.2499 66.5956 11.2173 65.1741 11.2893 63.7528L6.29568 63.5L1.30208 63.2472C1.20527 65.1593 1.24929 67.0711 1.43373 68.9807L6.41057 68.5ZM6.29568 63.5L11.2893 63.7528L11.7956 53.7528L6.80195 53.5L1.80835 53.2472L1.30208 63.2472L6.29568 63.5ZM6.80195 53.5L11.7956 53.7528L12.3018 43.7528L7.30822 43.5L2.31462 43.2472L1.80835 53.2472L6.80195 53.5ZM7.30822 43.5L12.3018 43.7528C12.3916 41.9788 12.4242 40.2046 12.3994 38.4303L7.39992 38.5L2.40041 38.5697C2.42215 40.1287 2.39356 41.6878 2.31462 43.2472L7.30822 43.5ZM7.39992 38.5L12.3994 38.4303L12.2599 28.4303L7.26043 28.5L2.26092 28.5697L2.40041 38.5697L7.39992 38.5ZM7.26043 28.5L12.2599 28.4303L12.1205 18.4303L7.12095 18.5L2.12144 18.5697L2.26092 28.5697L7.26043 28.5ZM7.12095 18.5L12.1205 18.4303C12.0972 16.7624 12.0829 15.6396 12.0772 15.0522L7.07747 15.1L2.0777 15.1478C2.08356 15.7604 2.09821 16.9043 2.12144 18.5697L7.12095 18.5ZM7.07747 15.1L12.0772 15.0522L12.0428 11.4522L7.04304 11.5L2.04327 11.5478L2.0777 15.1478L7.07747 15.1ZM7.04304 11.5L12.0428 11.4522L12.0084 7.85218L7.00861 7.9L2.00884 7.94782L2.04327 11.5478L7.04304 11.5ZM7.00861 7.9L12.0084 7.85218C12.0193 8.99592 11.581 10.1066 10.8079 10.9308C10.1477 11.6347 9.46523 11.8976 9.22079 11.9798C8.78591 12.126 8.69725 12.0438 9.37558 12.0607L9.5 7.06223L9.62442 2.06378C8.63609 2.03918 7.29886 2.07583 6.03351 2.50133C5.37385 2.72315 4.3807 3.16579 3.51428 4.0895C2.53501 5.13352 1.99503 6.50408 2.00884 7.94782L7.00861 7.9ZM9.5 7.06223L9.37558 12.0607L19.3756 12.3096L19.5 7.31115L19.6244 2.3127L9.62442 2.06378L9.5 7.06223Z" fill="#010101"/>
</svg>
