<svg width="586" height="182" viewBox="0 0 586 182" fill="none" xmlns="http://www.w3.org/2000/svg">
<path d="M34.5 7.57281L34.5989 12.5718L34.5 7.57281ZM44.5 7.37488L44.4011 2.37586L44.5 7.37488ZM54.5 7.17695L54.5989 12.176L54.5 7.17695ZM59.5 7.11078L59.5334 12.1107L59.5 7.11078ZM69.5 7.04402L69.4666 2.04413L69.5 7.04402ZM79.5 6.97726L79.5334 11.9772L79.5 6.97726ZM84.5 6.82013L84.7804 11.8123L84.5 6.82013ZM94.5 6.25836L94.2196 1.26623L94.5 6.25836ZM104.5 5.69659L104.78 10.6887L104.5 5.69659ZM109.5 5.52862L109.445 0.528924L109.5 5.52862ZM119.5 5.41853L119.555 10.4182L119.5 5.41853ZM129.5 5.30844L129.445 0.30874L129.5 5.30844ZM134.5 5.40062L134.739 0.40634L134.5 5.40062ZM144.5 5.87944L144.261 10.8737L144.5 5.87944ZM154.5 6.35825L154.739 1.36397L154.5 6.35825ZM159.5 6.61534L159.774 1.62287L159.5 6.61534ZM169.5 7.16487L169.226 12.1573L169.5 7.16487ZM179.5 7.7144L179.774 2.72193L179.5 7.7144ZM184.5 7.67045L184.862 12.6573L184.5 7.67045ZM194.5 6.94511L194.138 1.95821L194.5 6.94511ZM204.5 6.21977L204.862 11.2067L204.5 6.21977ZM209.5 6.12971L209.682 1.13304L209.5 6.12971ZM219.5 6.49485L219.318 11.4915L219.5 6.49485ZM229.5 6.85999L229.682 1.86332L229.5 6.85999ZM234.5 6.85082L234.701 11.8468L234.5 6.85082ZM244.5 6.449L244.299 1.45303L244.5 6.449ZM254.5 6.04718L254.701 11.0431L254.5 6.04718ZM259.5 6.08028L259.767 1.0874L259.5 6.08028ZM269.5 6.61454L269.233 11.6074L269.5 6.61454ZM279.5 7.14879L279.767 2.15591L279.5 7.14879ZM284.5 7.17646L284.712 12.172L284.5 7.17646ZM294.5 6.75285L294.288 1.75733L294.5 6.75285ZM304.5 6.32925L304.712 11.3248L304.5 6.32925ZM309.5 6.48317L310.017 1.50996L309.5 6.48317ZM319.5 7.52245L318.983 12.4957L319.5 7.52245ZM329.5 8.56174L330.017 3.58852L329.5 8.56174ZM334.5 8.73074L334.682 13.7274L334.5 8.73074ZM344.5 8.36747L344.318 3.37076L344.5 8.36747ZM354.5 8.00419L354.682 13.0009L354.5 8.00419ZM359.5 7.75942L359.807 12.75L359.5 7.75942ZM369.5 7.1436L369.193 2.15305L369.5 7.1436ZM379.5 6.52778L379.807 11.5183L379.5 6.52778ZM384.5 6.39826L384.549 1.3985L384.5 6.39826ZM394.5 6.49601L394.451 11.4958L394.5 6.49601ZM404.5 6.59376L404.549 1.594L404.5 6.59376ZM409.5 6.46869L409.798 11.4598L409.5 6.46869ZM419.5 5.87068L419.202 0.879597V0.879598L419.5 5.87068ZM429.5 5.27267L429.798 10.2638L429.5 5.27267ZM434.5 5.25685L434.767 0.263979L434.5 5.25685ZM444.5 5.79158L444.233 10.7844L444.5 5.79158ZM454.5 6.32631L454.767 1.33344V1.33344L454.5 6.32631ZM459.5 6.62868L459.837 1.64002L459.5 6.62868ZM469.5 7.30343L469.163 12.2921L469.5 7.30343ZM479.5 7.97818L479.837 2.98953L479.5 7.97818ZM484.5 8.02061L484.752 13.0142V13.0142L484.5 8.02061ZM494.5 7.51556L494.248 2.52193L494.5 7.51556ZM504.5 7.01051L504.752 12.0041L504.5 7.01051ZM509.5 6.74696L509.774 11.7394L509.774 11.7394L509.5 6.74696ZM519.5 6.19781L519.226 1.20533L519.5 6.19781ZM529.5 5.64865L529.774 10.6411V10.6411L529.5 5.64865ZM534.5 5.51754L534.512 0.517554L534.5 5.51754ZM544.5 5.54224L544.488 10.5422L544.5 5.54224ZM554.5 5.56695L554.512 0.566961L554.5 5.56695ZM559.353 6.01581L560.278 1.10201V1.10201L559.353 6.01581ZM568.766 7.78656L567.841 12.7004V12.7004L568.766 7.78656ZM578.178 9.55731L579.102 4.64351V4.64351L578.178 9.55731ZM580.502 12.5L585.502 12.5582V12.5582L580.502 12.5ZM580.386 22.5L575.386 22.4418V22.4418L580.386 22.5ZM580.269 32.5L585.269 32.5582V32.5582L580.269 32.5ZM580.156 37.5L585.153 37.6677V37.6676L580.156 37.5ZM579.821 47.5L574.824 47.3323V47.3323L579.821 47.5ZM579.485 57.5L584.482 57.6677V57.6677L579.485 57.5ZM579.244 62.5L584.234 62.815V62.815L579.244 62.5ZM578.612 72.5L573.622 72.185V72.185L578.612 72.5ZM577.981 82.5L582.971 82.8151V82.815L577.981 82.5ZM577.912 87.5L582.909 87.3215V87.3214L577.912 87.5ZM578.27 97.5L573.273 97.6785V97.6785L578.27 97.5ZM578.627 107.5L583.624 107.321V107.321L578.627 107.5ZM578.555 112.5L583.545 112.822V112.822L578.555 112.5ZM577.91 122.5L572.92 122.178V122.178L577.91 122.5ZM577.264 132.5L582.254 132.822V132.822L577.264 132.5ZM577.141 137.5L582.14 137.424V137.424L577.141 137.5ZM577.292 147.5L572.293 147.576V147.576L577.292 147.5ZM577.444 157.5L582.443 157.424V157.424L577.444 157.5ZM576.633 161.692L581.103 163.933V163.933L576.633 161.692ZM573.241 168.461L568.771 166.22L573.241 168.461ZM569.848 175.229L574.318 177.47L574.318 177.47L569.848 175.229ZM566.5 176.802L566.262 181.797L566.5 176.802ZM556.5 176.326L556.738 171.331L556.5 176.326ZM546.5 175.849L546.262 180.843L546.5 175.849ZM541.5 175.461L540.966 180.433L541.5 175.461ZM531.5 174.387L532.034 169.415L531.5 174.387ZM521.5 173.312L520.966 178.283L521.5 173.312ZM516.5 173.241L516.894 178.225H516.894L516.5 173.241ZM506.5 174.031L506.106 169.046L506.5 174.031ZM496.5 174.82L496.894 179.805L496.5 174.82ZM491.5 175.051L491.567 180.051L491.5 175.051ZM481.5 175.186L481.433 170.186H481.433L481.5 175.186ZM471.5 175.32L471.567 180.32L471.5 175.32ZM466.5 175.186L466.166 180.175L466.5 175.186ZM456.5 174.517L456.834 169.528L456.5 174.517ZM446.5 173.847L446.166 178.836L446.5 173.847ZM441.5 173.905L441.948 178.885L441.5 173.905ZM431.5 174.804L431.052 169.824L431.5 174.804ZM421.5 175.704L421.948 180.684L421.5 175.704ZM416.5 175.944L416.531 180.944H416.531L416.5 175.944ZM406.5 176.006L406.469 171.006L406.5 176.006ZM396.5 176.068L396.531 181.068H396.531L396.5 176.068ZM391.5 176.106L391.544 181.106H391.544L391.5 176.106ZM381.5 176.195L381.456 171.195L381.5 176.195ZM371.5 176.284L371.544 181.284L371.5 176.284ZM366.5 176.341L366.57 181.34L366.5 176.341ZM356.5 176.481L356.43 171.481L356.5 176.481ZM346.5 176.62L346.57 181.62L346.5 176.62ZM341.5 176.675L341.54 181.675L341.5 176.675ZM331.5 176.755L331.46 171.755L331.5 176.755ZM321.5 176.835L321.54 181.835L321.5 176.835ZM316.5 176.63L316.052 181.61L316.5 176.63ZM306.5 175.73L306.948 170.75L306.5 175.73ZM296.5 174.83L296.052 179.81L296.5 174.83ZM291.5 174.817L291.922 179.799L291.5 174.817ZM281.5 175.664L281.078 170.682L281.5 175.664ZM271.5 176.512L271.922 181.494L271.5 176.512ZM266.5 176.602L266.257 181.596L266.5 176.602ZM256.5 176.114L256.743 171.12L256.5 176.114ZM246.5 175.627L246.257 180.621L246.5 175.627ZM241.5 175.591L241.673 180.588L241.5 175.591ZM231.5 175.938L231.327 170.941L231.5 175.938ZM221.5 176.284L221.673 181.281L221.5 176.284ZM216.5 176.253L216.265 181.248H216.265L216.5 176.253ZM206.5 175.783L206.735 170.789L206.5 175.783ZM196.5 175.313L196.265 180.308L196.5 175.313ZM191.5 175.295L191.7 180.291H191.7L191.5 175.295ZM181.5 175.695L181.3 170.699L181.5 175.695ZM171.5 176.094L171.7 181.09L171.5 176.094ZM166.5 176.04L166.192 181.03H166.192L166.5 176.04ZM156.5 175.422L156.808 170.432L156.5 175.422ZM146.5 174.805L146.192 179.795L146.5 174.805ZM141.5 174.777L141.754 179.771L141.5 174.777ZM131.5 175.285L131.246 170.292L131.5 175.285ZM121.5 175.793L121.754 180.787H121.754L121.5 175.793ZM116.5 175.71L116.081 180.692H116.081L116.5 175.71ZM106.5 174.869L106.919 169.887H106.919L106.5 174.869ZM96.5 174.028L96.0811 179.011H96.0811L96.5 174.028ZM91.5 173.82L91.503 178.82H91.503L91.5 173.82ZM81.5 173.826L81.497 168.826L81.5 173.826ZM71.5 173.832L71.503 178.832L71.5 173.832ZM66.5 173.843L66.5187 178.843H66.5188L66.5 173.843ZM56.5 173.88L56.4812 168.88H56.4812L56.5 173.88ZM46.5 173.918L46.5187 178.918H46.5187L46.5 173.918ZM41.5 174.083L41.8114 179.073L41.8114 179.073L41.5 174.083ZM31.5 174.707L31.1886 169.717H31.1886L31.5 174.707ZM21.5 175.331L21.8114 180.321H21.8114L21.5 175.331ZM17.9877 174.138L13.9888 177.14H13.9888L17.9877 174.138ZM13.9387 168.744L17.9376 165.742H17.9376L13.9387 168.744ZM9.88959 163.349L5.89063 166.35L5.89063 166.35L9.88959 163.349ZM8.59786 159.5L3.62881 160.055L8.59786 159.5ZM7.48 149.5L12.449 148.945L7.48 149.5ZM6.36214 139.5L1.39309 140.055L6.36214 139.5ZM6.21241 134.5L11.2057 134.759L6.21241 134.5ZM6.73135 124.5L1.73807 124.241L6.73135 124.5ZM7.2503 114.5L12.2436 114.759L7.2503 114.5ZM7.44432 109.5L12.4427 109.629L7.44432 109.5ZM7.70149 99.5L2.70314 99.3715L7.70149 99.5ZM7.95865 89.5L12.957 89.6285L7.95865 89.5ZM7.87743 84.5L2.88588 84.7905L7.87743 84.5ZM7.29537 74.5L12.2869 74.2095L7.29537 74.5ZM6.71331 64.5L1.72176 64.7905L6.71331 64.5ZM6.5484 59.5L1.54855 59.5388L6.5484 59.5ZM6.4708 49.5L11.4706 49.4612L6.4708 49.5ZM6.3932 39.5L1.39335 39.5388L6.3932 39.5ZM6.32094 34.5L1.32206 34.6057L6.32094 34.5ZM6.10954 24.5L11.1084 24.3943L6.10954 24.5ZM5.89814 14.5L0.899255 14.6057L5.89814 14.5ZM19.5 7.31115L19.3756 12.3096L29.3756 12.5585L29.5 7.56007L29.6244 2.56161L19.6244 2.3127L19.5 7.31115ZM29.5 7.56007L29.3756 12.5585C31.1167 12.6019 32.8578 12.6063 34.5989 12.5718L34.5 7.57281L34.4011 2.57379C32.8088 2.60531 31.2167 2.60125 29.6244 2.56161L29.5 7.56007ZM34.5 7.57281L34.5989 12.5718L44.5989 12.3739L44.5 7.37488L44.4011 2.37586L34.4011 2.57379L34.5 7.57281ZM44.5 7.37488L44.5989 12.3739L54.5989 12.176L54.5 7.17695L54.4011 2.17793L44.4011 2.37586L44.5 7.37488ZM54.5 7.17695L54.5989 12.176C56.2438 12.1434 57.8886 12.1216 59.5334 12.1107L59.5 7.11078L59.4666 2.11089C57.7781 2.12216 56.0896 2.14451 54.4011 2.17793L54.5 7.17695ZM59.5 7.11078L59.5334 12.1107L69.5334 12.0439L69.5 7.04402L69.4666 2.04413L59.4666 2.11089L59.5 7.11078ZM69.5 7.04402L69.5334 12.0439L79.5334 11.9772L79.5 6.97726L79.4666 1.97737L69.4666 2.04413L69.5 7.04402ZM79.5 6.97726L79.5334 11.9772C81.2826 11.9655 83.0316 11.9105 84.7804 11.8123L84.5 6.82013L84.2196 1.828C82.635 1.91702 81.0508 1.9668 79.4666 1.97737L79.5 6.97726ZM84.5 6.82013L84.7804 11.8123L94.7804 11.2505L94.5 6.25836L94.2196 1.26623L84.2196 1.828L84.5 6.82013ZM94.5 6.25836L94.7804 11.2505L104.78 10.6887L104.5 5.69659L104.22 0.704458L94.2196 1.26623L94.5 6.25836ZM104.5 5.69659L104.78 10.6887C106.372 10.5993 107.964 10.5458 109.555 10.5283L109.5 5.52862L109.445 0.528924C107.703 0.548101 105.961 0.606619 104.22 0.704458L104.5 5.69659ZM109.5 5.52862L109.555 10.5283L119.555 10.4182L119.5 5.41853L119.445 0.418832L109.445 0.528924L109.5 5.52862ZM119.5 5.41853L119.555 10.4182L129.555 10.3081L129.5 5.30844L129.445 0.30874L119.445 0.418832L119.5 5.41853ZM129.5 5.30844L129.555 10.3081C131.124 10.2909 132.692 10.3198 134.261 10.3949L134.5 5.40062L134.739 0.40634C132.975 0.32185 131.21 0.28931 129.445 0.30874L129.5 5.30844ZM134.5 5.40062L134.261 10.3949L144.261 10.8737L144.5 5.87944L144.739 0.885157L134.739 0.40634L134.5 5.40062ZM144.5 5.87944L144.261 10.8737L154.261 11.3525L154.5 6.35825L154.739 1.36397L144.739 0.885157L144.5 5.87944ZM154.5 6.35825L154.261 11.3525C155.916 11.4318 157.571 11.5169 159.226 11.6078L159.5 6.61534L159.774 1.62287C158.096 1.53064 156.418 1.44434 154.739 1.36397L154.5 6.35825ZM159.5 6.61534L159.226 11.6078L169.226 12.1573L169.5 7.16487L169.774 2.1724L159.774 1.62287L159.5 6.61534ZM169.5 7.16487L169.226 12.1573L179.226 12.7069L179.5 7.7144L179.774 2.72193L169.774 2.1724L169.5 7.16487ZM179.5 7.7144L179.226 12.7069C181.104 12.8101 182.984 12.7936 184.862 12.6573L184.5 7.67045L184.138 2.68355C182.683 2.7891 181.229 2.80186 179.774 2.72193L179.5 7.7144ZM184.5 7.67045L184.862 12.6573L194.862 11.932L194.5 6.94511L194.138 1.95821L184.138 2.68355L184.5 7.67045ZM194.5 6.94511L194.862 11.932L204.862 11.2067L204.5 6.21977L204.138 1.23287L194.138 1.95821L194.5 6.94511ZM204.5 6.21977L204.862 11.2067C206.348 11.0989 207.833 11.0722 209.318 11.1264L209.5 6.12971L209.682 1.13304C207.834 1.06555 205.986 1.09887 204.138 1.23287L204.5 6.21977ZM209.5 6.12971L209.318 11.1264L219.318 11.4915L219.5 6.49485L219.682 1.49818L209.682 1.13304L209.5 6.12971ZM219.5 6.49485L219.318 11.4915L229.318 11.8567L229.5 6.85999L229.682 1.86332L219.682 1.49818L219.5 6.49485ZM229.5 6.85999L229.318 11.8567C231.112 11.9222 232.906 11.9189 234.701 11.8468L234.5 6.85082L234.299 1.85485C232.76 1.91669 231.221 1.91951 229.682 1.86332L229.5 6.85999ZM234.5 6.85082L234.701 11.8468L244.701 11.445L244.5 6.449L244.299 1.45303L234.299 1.85485L234.5 6.85082ZM244.5 6.449L244.701 11.445L254.701 11.0431L254.5 6.04718L254.299 1.05121L244.299 1.45303L244.5 6.449ZM254.5 6.04718L254.701 11.0431C256.212 10.9824 257.722 10.9924 259.233 11.0732L259.5 6.08028L259.767 1.0874C257.944 0.990049 256.122 0.977973 254.299 1.05121L254.5 6.04718ZM259.5 6.08028L259.233 11.0732L269.233 11.6074L269.5 6.61454L269.767 1.62166L259.767 1.0874L259.5 6.08028ZM269.5 6.61454L269.233 11.6074L279.233 12.1417L279.5 7.14879L279.767 2.15591L269.767 1.62166L269.5 6.61454ZM279.5 7.14879L279.233 12.1417C281.059 12.2392 282.885 12.2493 284.712 12.172L284.5 7.17646L284.288 2.18094C282.781 2.24478 281.274 2.23645 279.767 2.15591L279.5 7.14879ZM284.5 7.17646L284.712 12.172L294.712 11.7484L294.5 6.75285L294.288 1.75733L284.288 2.18094L284.5 7.17646ZM294.5 6.75285L294.712 11.7484L304.712 11.3248L304.5 6.32925L304.288 1.33373L294.288 1.75733L294.5 6.75285ZM304.5 6.32925L304.712 11.3248C306.134 11.2645 307.557 11.3082 308.983 11.4564L309.5 6.48317L310.017 1.50996C308.109 1.31171 306.199 1.25279 304.288 1.33373L304.5 6.32925ZM309.5 6.48317L308.983 11.4564L318.983 12.4957L319.5 7.52245L320.017 2.54924L310.017 1.50996L309.5 6.48317ZM319.5 7.52245L318.983 12.4957L328.983 13.535L329.5 8.56174L330.017 3.58852L320.017 2.54924L319.5 7.52245ZM329.5 8.56174L328.983 13.535C330.881 13.7322 332.781 13.7965 334.682 13.7274L334.5 8.73074L334.318 3.73404C332.886 3.78608 331.453 3.73775 330.017 3.58852L329.5 8.56174ZM334.5 8.73074L334.682 13.7274L344.682 13.3642L344.5 8.36747L344.318 3.37076L334.318 3.73404L334.5 8.73074ZM344.5 8.36747L344.682 13.3642L354.682 13.0009L354.5 8.00419L354.318 3.00749L344.318 3.37076L344.5 8.36747ZM354.5 8.00419L354.682 13.0009C356.39 12.9388 358.099 12.8552 359.807 12.75L359.5 7.75942L359.193 2.76887C357.568 2.86893 355.943 2.94847 354.318 3.00749L354.5 8.00419ZM359.5 7.75942L359.807 12.75L369.807 12.1341L369.5 7.1436L369.193 2.15305L359.193 2.76887L359.5 7.75942ZM369.5 7.1436L369.807 12.1341L379.807 11.5183L379.5 6.52778L379.193 1.53723L369.193 2.15305L369.5 7.1436ZM379.5 6.52778L379.807 11.5183C381.356 11.423 382.904 11.3829 384.451 11.398L384.5 6.39826L384.549 1.3985C382.763 1.38104 380.978 1.4273 379.193 1.53723L379.5 6.52778ZM384.5 6.39826L384.451 11.398L394.451 11.4958L394.5 6.49601L394.549 1.49625L384.549 1.3985L384.5 6.39826ZM394.5 6.49601L394.451 11.4958L404.451 11.5935L404.5 6.59376L404.549 1.594L394.549 1.49625L394.5 6.49601ZM404.5 6.59376L404.451 11.5935C406.234 11.6109 408.016 11.5664 409.798 11.4598L409.5 6.46869L409.202 1.47761C407.65 1.57038 406.099 1.60916 404.549 1.594L404.5 6.59376ZM409.5 6.46869L409.798 11.4598L419.798 10.8618L419.5 5.87068L419.202 0.879598L409.202 1.47761L409.5 6.46869ZM419.5 5.87068L419.798 10.8618L429.798 10.2638L429.5 5.27267L429.202 0.281583L419.202 0.879597L419.5 5.87068ZM429.5 5.27267L429.798 10.2638C431.277 10.1753 432.755 10.1707 434.233 10.2497L434.5 5.25685L434.767 0.263979C432.912 0.164781 431.056 0.170658 429.202 0.281583L429.5 5.27267ZM434.5 5.25685L434.233 10.2497L444.233 10.7844L444.5 5.79158L444.767 0.798709L434.767 0.263979L434.5 5.25685ZM444.5 5.79158L444.233 10.7844L454.233 11.3192L454.5 6.32631L454.767 1.33344L444.767 0.798709L444.5 5.79158ZM454.5 6.32631L454.233 11.3192C455.876 11.4071 457.52 11.5064 459.163 11.6173L459.5 6.62868L459.837 1.64002C458.147 1.526 456.457 1.4238 454.767 1.33344L454.5 6.32631ZM459.5 6.62868L459.163 11.6173L469.163 12.2921L469.5 7.30343L469.837 2.31477L459.837 1.64002L459.5 6.62868ZM469.5 7.30343L469.163 12.2921L479.163 12.9668L479.5 7.97818L479.837 2.98953L469.837 2.31477L469.5 7.30343ZM479.5 7.97818L479.163 12.9668C481.026 13.0925 482.889 13.1083 484.752 13.0142L484.5 8.02061L484.248 3.02697C482.778 3.10123 481.307 3.08877 479.837 2.98953L479.5 7.97818ZM484.5 8.02061L484.752 13.0142L494.752 12.5092L494.5 7.51556L494.248 2.52193L484.248 3.02697L484.5 8.02061ZM494.5 7.51556L494.752 12.5092L504.752 12.0041L504.5 7.01051L504.248 2.01688L494.248 2.52193L494.5 7.51556ZM504.5 7.01051L504.752 12.0041C506.426 11.9196 508.1 11.8314 509.774 11.7394L509.5 6.74696L509.226 1.75448C507.566 1.84561 505.907 1.93307 504.248 2.01688L504.5 7.01051ZM509.5 6.74696L509.774 11.7394L519.774 11.1903L519.5 6.19781L519.226 1.20533L509.226 1.75448L509.5 6.74696ZM519.5 6.19781L519.774 11.1903L529.774 10.6411L529.5 5.64865L529.226 0.656174L519.226 1.20533L519.5 6.19781ZM529.5 5.64865L529.774 10.6411C531.346 10.5548 532.917 10.5136 534.488 10.5175L534.5 5.51754L534.512 0.517554C532.75 0.513201 530.988 0.559417 529.226 0.656174L529.5 5.64865ZM534.5 5.51754L534.488 10.5175L544.488 10.5422L544.5 5.54224L544.512 0.542258L534.512 0.517554L534.5 5.51754ZM544.5 5.54224L544.488 10.5422L554.488 10.5669L554.5 5.56695L554.512 0.566961L544.512 0.542258L544.5 5.54224ZM554.5 5.56695L554.488 10.5669C555.862 10.5703 557.174 10.6935 558.429 10.9296L559.353 6.01581L560.278 1.10201C558.395 0.747874 556.472 0.571801 554.512 0.566961L554.5 5.56695ZM559.353 6.01581L558.429 10.9296L567.841 12.7004L568.766 7.78656L569.69 2.87276L560.278 1.10201L559.353 6.01581ZM568.766 7.78656L567.841 12.7004L577.253 14.4711L578.178 9.55731L579.102 4.64351L569.69 2.87276L568.766 7.78656ZM578.178 9.55731L577.253 14.4711C577.189 14.4591 576.561 14.3087 576.012 13.6132C575.484 12.9452 575.503 12.3704 575.502 12.4418L580.502 12.5L585.502 12.5582C585.52 10.963 585.162 9.06432 583.859 7.41542C582.535 5.73909 580.735 4.95068 579.102 4.64351L578.178 9.55731ZM580.502 12.5L575.502 12.4418L575.386 22.4418L580.386 22.5L585.385 22.5582L585.502 12.5582L580.502 12.5ZM580.386 22.5L575.386 22.4418L575.27 32.4418L580.269 32.5L585.269 32.5582L585.385 22.5582L580.386 22.5ZM580.269 32.5L575.27 32.4418C575.251 34.072 575.214 35.7021 575.159 37.3324L580.156 37.5L585.153 37.6676C585.211 35.9645 585.249 34.2614 585.269 32.5582L580.269 32.5ZM580.156 37.5L575.159 37.3323L574.824 47.3323L579.821 47.5L584.818 47.6677L585.153 37.6677L580.156 37.5ZM579.821 47.5L574.824 47.3323L574.488 57.3323L579.485 57.5L584.482 57.6677L584.818 47.6677L579.821 47.5ZM579.485 57.5L574.488 57.3323C574.434 58.9498 574.356 60.5673 574.253 62.185L579.244 62.5L584.234 62.815C584.342 61.0993 584.425 59.3836 584.482 57.6677L579.485 57.5ZM579.244 62.5L574.253 62.185L573.622 72.185L578.612 72.5L583.602 72.815L584.234 62.815L579.244 62.5ZM578.612 72.5L573.622 72.185L572.991 82.185L577.981 82.5L582.971 82.815L583.602 72.815L578.612 72.5ZM577.981 82.5L572.991 82.1849C572.875 84.0157 572.85 85.8471 572.916 87.6786L577.912 87.5L582.909 87.3214C582.855 85.8195 582.876 84.3176 582.971 82.8151L577.981 82.5ZM577.912 87.5L572.916 87.6785L573.273 97.6785L578.27 97.5L583.266 97.3215L582.909 87.3215L577.912 87.5ZM578.27 97.5L573.273 97.6785L573.63 107.679L578.627 107.5L583.624 107.321L583.266 97.3214L578.27 97.5ZM578.627 107.5L573.63 107.679C573.684 109.178 573.662 110.678 573.565 112.178L578.555 112.5L583.545 112.822C583.663 110.989 583.689 109.155 583.624 107.321L578.627 107.5ZM578.555 112.5L573.565 112.178L572.92 122.178L577.91 122.5L582.899 122.822L583.545 112.822L578.555 112.5ZM577.91 122.5L572.92 122.178L572.275 132.178L577.264 132.5L582.254 132.822L582.899 122.822L577.91 122.5ZM577.264 132.5L572.275 132.178C572.159 133.977 572.114 135.776 572.141 137.576L577.141 137.5L582.14 137.424C582.117 135.891 582.155 134.357 582.254 132.822L577.264 132.5ZM577.141 137.5L572.141 137.576L572.293 147.576L577.292 147.5L582.292 147.424L582.14 137.424L577.141 137.5ZM577.292 147.5L572.293 147.576L572.444 157.576L577.444 157.5L582.443 157.424L582.292 147.424L577.292 147.5ZM577.444 157.5L572.444 157.576C572.461 158.687 572.272 159.235 572.163 159.452L576.633 161.692L581.103 163.933C582.125 161.893 582.477 159.646 582.443 157.424L577.444 157.5ZM576.633 161.692L572.163 159.452L568.771 166.22L573.241 168.461L577.711 170.701L581.103 163.933L576.633 161.692ZM573.241 168.461L568.771 166.22L565.378 172.989L569.848 175.229L574.318 177.47L577.711 170.701L573.241 168.461ZM569.848 175.229L565.378 172.989C565.466 172.814 565.607 172.601 565.816 172.396C566.026 172.189 566.253 172.041 566.461 171.943C566.855 171.758 567.032 171.822 566.738 171.808L566.5 176.802L566.262 181.797C567.635 181.862 569.203 181.704 570.713 180.994C572.312 180.243 573.545 179.011 574.318 177.47L569.848 175.229ZM566.5 176.802L566.738 171.808L556.738 171.331L556.5 176.326L556.262 181.32L566.262 181.797L566.5 176.802ZM556.5 176.326L556.738 171.331L546.738 170.855L546.5 175.849L546.262 180.843L556.262 181.32L556.5 176.326ZM546.5 175.849L546.738 170.855C545.171 170.78 543.603 170.658 542.034 170.49L541.5 175.461L540.966 180.433C542.73 180.622 544.496 180.759 546.262 180.843L546.5 175.849ZM541.5 175.461L542.034 170.49L532.034 169.415L531.5 174.387L530.966 179.358L540.966 180.433L541.5 175.461ZM531.5 174.387L532.034 169.415L522.034 168.34L521.5 173.312L520.966 178.283L530.966 179.358L531.5 174.387ZM521.5 173.312L522.034 168.34C520.06 168.128 518.083 168.1 516.106 168.256L516.5 173.241L516.894 178.225C518.251 178.118 519.607 178.137 520.966 178.283L521.5 173.312ZM516.5 173.241L516.106 168.256L506.106 169.046L506.5 174.031L506.894 179.015L516.894 178.225L516.5 173.241ZM506.5 174.031L506.106 169.046L496.106 169.836L496.5 174.82L496.894 179.805L506.894 179.015L506.5 174.031ZM496.5 174.82L496.106 169.836C494.548 169.959 492.99 170.031 491.433 170.052L491.5 175.051L491.567 180.051C493.343 180.027 495.119 179.945 496.894 179.805L496.5 174.82ZM491.5 175.051L491.433 170.052L481.433 170.186L481.5 175.186L481.567 180.185L491.567 180.051L491.5 175.051ZM481.5 175.186L481.433 170.186L471.433 170.321L471.5 175.32L471.567 180.32L481.567 180.185L481.5 175.186ZM471.5 175.32L471.433 170.321C469.9 170.341 468.367 170.3 466.834 170.197L466.5 175.186L466.166 180.175C467.966 180.296 469.766 180.344 471.567 180.32L471.5 175.32ZM466.5 175.186L466.834 170.197L456.834 169.528L456.5 174.517L456.166 179.506L466.166 180.175L466.5 175.186ZM456.5 174.517L456.834 169.528L446.834 168.859L446.5 173.847L446.166 178.836L456.166 179.506L456.5 174.517ZM446.5 173.847L446.834 168.859C444.906 168.729 442.978 168.752 441.052 168.925L441.5 173.905L441.948 178.885C443.355 178.758 444.76 178.742 446.166 178.836L446.5 173.847ZM441.5 173.905L441.052 168.925L431.052 169.824L431.5 174.804L431.948 179.784L441.948 178.885L441.5 173.905ZM431.5 174.804L431.052 169.824L421.052 170.724L421.5 175.704L421.948 180.684L431.948 179.784L431.5 174.804ZM421.5 175.704L421.052 170.724C419.523 170.861 417.996 170.935 416.469 170.944L416.5 175.944L416.531 180.944C418.337 180.933 420.143 180.846 421.948 180.684L421.5 175.704ZM416.5 175.944L416.469 170.944L406.469 171.006L406.5 176.006L406.531 181.006L416.531 180.944L416.5 175.944ZM406.5 176.006L406.469 171.006L396.469 171.069L396.5 176.068L396.531 181.068L406.531 181.006L406.5 176.006ZM396.5 176.068L396.469 171.069C394.798 171.079 393.127 171.092 391.456 171.106L391.5 176.106L391.544 181.106C393.207 181.091 394.869 181.079 396.531 181.068L396.5 176.068ZM391.5 176.106L391.456 171.106L381.456 171.195L381.5 176.195L381.544 181.195L391.544 181.106L391.5 176.106ZM381.5 176.195L381.456 171.195L371.456 171.284L371.5 176.284L371.544 181.284L381.544 181.195L381.5 176.195ZM371.5 176.284L371.456 171.284C369.78 171.299 368.105 171.318 366.43 171.341L366.5 176.341L366.57 181.34C368.228 181.317 369.886 181.298 371.544 181.284L371.5 176.284ZM366.5 176.341L366.43 171.341L356.43 171.481L356.5 176.481L356.57 181.48L366.57 181.34L366.5 176.341ZM356.5 176.481L356.43 171.481L346.43 171.621L346.5 176.62L346.57 181.62L356.57 181.48L356.5 176.481ZM346.5 176.62L346.43 171.621C344.773 171.644 343.117 171.662 341.46 171.675L341.5 176.675L341.54 181.675C343.217 181.662 344.893 181.643 346.57 181.62L346.5 176.62ZM341.5 176.675L341.46 171.675L331.46 171.755L331.5 176.755L331.54 181.755L341.54 181.675L341.5 176.675ZM331.5 176.755L331.46 171.755L321.46 171.835L321.5 176.835L321.54 181.835L331.54 181.755L331.5 176.755ZM321.5 176.835L321.46 171.835C319.957 171.847 318.453 171.786 316.948 171.65L316.5 176.63L316.052 181.61C317.88 181.775 319.71 181.85 321.54 181.835L321.5 176.835ZM316.5 176.63L316.948 171.65L306.948 170.75L306.5 175.73L306.052 180.71L316.052 181.61L316.5 176.63ZM306.5 175.73L306.948 170.75L296.948 169.85L296.5 174.83L296.052 179.81L306.052 180.71L306.5 175.73ZM296.5 174.83L296.948 169.85C294.992 169.674 293.034 169.669 291.078 169.835L291.5 174.817L291.922 179.799C293.299 179.682 294.675 179.686 296.052 179.81L296.5 174.83ZM291.5 174.817L291.078 169.835L281.078 170.682L281.5 175.664L281.922 180.647L291.922 179.799L291.5 174.817ZM281.5 175.664L281.078 170.682L271.078 171.53L271.5 176.512L271.922 181.494L281.922 180.647L281.5 175.664ZM271.5 176.512L271.078 171.53C269.632 171.652 268.188 171.678 266.743 171.608L266.5 176.602L266.257 181.596C268.146 181.688 270.035 181.654 271.922 181.494L271.5 176.512ZM266.5 176.602L266.743 171.608L256.743 171.12L256.5 176.114L256.257 181.108L266.257 181.596L266.5 176.602ZM256.5 176.114L256.743 171.12L246.743 170.633L246.5 175.627L246.257 180.621L256.257 181.108L256.5 176.114ZM246.5 175.627L246.743 170.633C244.938 170.545 243.132 170.532 241.327 170.594L241.5 175.591L241.673 180.588C243.201 180.535 244.729 180.546 246.257 180.621L246.5 175.627ZM241.5 175.591L241.327 170.594L231.327 170.941L231.5 175.938L231.673 180.935L241.673 180.588L241.5 175.591ZM231.5 175.938L231.327 170.941L221.327 171.287L221.5 176.284L221.673 181.281L231.673 180.935L231.5 175.938ZM221.5 176.284L221.327 171.287C219.796 171.34 218.266 171.331 216.735 171.259L216.5 176.253L216.265 181.248C218.068 181.332 219.87 181.344 221.673 181.281L221.5 176.284ZM216.5 176.253L216.735 171.259L206.735 170.789L206.5 175.783L206.265 180.778L216.265 181.248L216.5 176.253ZM206.5 175.783L206.735 170.789L196.735 170.319L196.5 175.313L196.265 180.308L206.265 180.778L206.5 175.783ZM196.5 175.313L196.735 170.319C194.923 170.233 193.112 170.227 191.3 170.299L191.5 175.295L191.7 180.291C193.221 180.231 194.743 180.236 196.265 180.308L196.5 175.313ZM191.5 175.295L191.3 170.299L181.3 170.699L181.5 175.695L181.7 180.691L191.7 180.291L191.5 175.295ZM181.5 175.695L181.3 170.699L171.3 171.098L171.5 176.094L171.7 181.09L181.7 180.691L181.5 175.695ZM171.5 176.094L171.3 171.098C169.803 171.158 168.306 171.142 166.808 171.049L166.5 176.04L166.192 181.03C168.027 181.143 169.863 181.163 171.7 181.09L171.5 176.094ZM166.5 176.04L166.808 171.049L156.808 170.432L156.5 175.422L156.192 180.413L166.192 181.03L166.5 176.04ZM156.5 175.422L156.808 170.432L146.808 169.814L146.5 174.805L146.192 179.795L156.192 180.413L156.5 175.422ZM146.5 174.805L146.808 169.814C144.955 169.7 143.1 169.689 141.246 169.784L141.5 174.777L141.754 179.771C143.233 179.696 144.712 179.704 146.192 179.795L146.5 174.805ZM141.5 174.777L141.246 169.784L131.246 170.292L131.5 175.285L131.754 180.279L141.754 179.771L141.5 174.777ZM131.5 175.285L131.246 170.292L121.246 170.8L121.5 175.793L121.754 180.787L131.754 180.279L131.5 175.285ZM121.5 175.793L121.246 170.8C119.804 170.873 118.362 170.849 116.919 170.727L116.5 175.71L116.081 180.692C117.971 180.851 119.862 180.883 121.754 180.787L121.5 175.793ZM116.5 175.71L116.919 170.727L106.919 169.887L106.5 174.869L106.081 179.852L116.081 180.692L116.5 175.71ZM106.5 174.869L106.919 169.887L96.9189 169.046L96.5 174.028L96.0811 179.011L106.081 179.852L106.5 174.869ZM96.5 174.028L96.9189 169.046C95.1124 168.894 93.305 168.819 91.497 168.82L91.5 173.82L91.503 178.82C93.0283 178.819 94.5543 178.882 96.0811 179.011L96.5 174.028ZM91.5 173.82L91.497 168.82L81.497 168.826L81.5 173.826L81.503 178.826L91.503 178.82L91.5 173.82ZM81.5 173.826L81.497 168.826L71.497 168.832L71.5 173.832L71.503 178.832L81.503 178.826L81.5 173.826ZM71.5 173.832L71.497 168.832C69.8251 168.833 68.1531 168.836 66.4812 168.843L66.5 173.843L66.5188 178.843C68.1802 178.836 69.8416 178.833 71.503 178.832L71.5 173.832ZM66.5 173.843L66.4812 168.843L56.4812 168.88L56.5 173.88L56.5187 178.88L66.5187 178.843L66.5 173.843ZM56.5 173.88L56.4812 168.88L46.4812 168.918L46.5 173.918L46.5187 178.918L56.5187 178.88L56.5 173.88ZM46.5 173.918L46.4812 168.918C44.7167 168.924 42.9525 168.983 41.1886 169.093L41.5 174.083L41.8114 179.073C43.3808 178.975 44.9499 178.924 46.5187 178.918L46.5 173.918ZM41.5 174.083L41.1886 169.093L31.1886 169.717L31.5 174.707L31.8114 179.697L41.8114 179.073L41.5 174.083ZM31.5 174.707L31.1886 169.717L21.1886 170.341L21.5 175.331L21.8114 180.321L31.8114 179.697L31.5 174.707ZM21.5 175.331L21.1886 170.341C20.7911 170.366 20.7729 170.306 20.9797 170.377C21.0947 170.416 21.267 170.491 21.4613 170.628C21.659 170.767 21.8391 170.94 21.9867 171.137L17.9877 174.138L13.9888 177.14C16.104 179.958 19.3338 180.476 21.8114 180.321L21.5 175.331ZM17.9877 174.138L21.9867 171.137L17.9376 165.742L13.9387 168.744L9.93971 171.745L13.9888 177.14L17.9877 174.138ZM13.9387 168.744L17.9376 165.742L13.8886 160.347L9.88959 163.349L5.89063 166.35L9.93971 171.745L13.9387 168.744ZM9.88959 163.349L13.8886 160.347C13.9297 160.402 13.8794 160.356 13.8007 160.121C13.7212 159.884 13.6296 159.506 13.5669 158.945L8.59786 159.5L3.62881 160.055C3.86898 162.204 4.47889 164.469 5.89063 166.35L9.88959 163.349ZM8.59786 159.5L13.5669 158.945L12.449 148.945L7.48 149.5L2.51095 150.055L3.62881 160.055L8.59786 159.5ZM7.48 149.5L12.449 148.945L11.3312 138.945L6.36214 139.5L1.39309 140.055L2.51095 150.055L7.48 149.5ZM6.36214 139.5L11.3312 138.945C11.175 137.547 11.1334 136.153 11.2057 134.759L6.21241 134.5L1.21913 134.241C1.11847 136.181 1.1767 138.12 1.39309 140.055L6.36214 139.5ZM6.21241 134.5L11.2057 134.759L11.7246 124.759L6.73135 124.5L1.73807 124.241L1.21913 134.241L6.21241 134.5ZM6.73135 124.5L11.7246 124.759L12.2436 114.759L7.2503 114.5L2.25702 114.241L1.73807 124.241L6.73135 124.5ZM7.2503 114.5L12.2436 114.759C12.3323 113.049 12.3987 111.339 12.4427 109.629L7.44432 109.5L2.44598 109.371C2.40424 110.995 2.34125 112.618 2.25702 114.241L7.2503 114.5ZM7.44432 109.5L12.4427 109.629L12.6998 99.6285L7.70149 99.5L2.70314 99.3715L2.44598 109.371L7.44432 109.5ZM7.70149 99.5L12.6998 99.6285L12.957 89.6285L7.95865 89.5L2.9603 89.3715L2.70314 99.3715L7.70149 99.5ZM7.95865 89.5L12.957 89.6285C13.0035 87.822 12.9741 86.0155 12.869 84.2095L7.87743 84.5L2.88588 84.7905C2.97478 86.3179 2.99957 87.8447 2.9603 89.3715L7.95865 89.5ZM7.87743 84.5L12.869 84.2095L12.2869 74.2095L7.29537 74.5L2.30382 74.7905L2.88588 84.7905L7.87743 84.5ZM7.29537 74.5L12.2869 74.2095L11.7049 64.2095L6.71331 64.5L1.72176 64.7905L2.30382 74.7905L7.29537 74.5ZM6.71331 64.5L11.7049 64.2095C11.6127 62.6265 11.5605 61.0438 11.5482 59.4612L6.5484 59.5L1.54855 59.5388C1.56214 61.2896 1.61988 63.0402 1.72176 64.7905L6.71331 64.5ZM6.5484 59.5L11.5482 59.4612L11.4706 49.4612L6.4708 49.5L1.47095 49.5388L1.54855 59.5388L6.5484 59.5ZM6.4708 49.5L11.4706 49.4612L11.393 39.4612L6.3932 39.5L1.39335 39.5388L1.47095 49.5388L6.4708 49.5ZM6.3932 39.5L11.393 39.4612C11.3799 37.7722 11.3555 36.0833 11.3198 34.3943L6.32094 34.5L1.32206 34.6057C1.35682 36.2501 1.38059 37.8944 1.39335 39.5388L6.3932 39.5ZM6.32094 34.5L11.3198 34.3943L11.1084 24.3943L6.10954 24.5L1.11066 24.6057L1.32206 34.6057L6.32094 34.5ZM6.10954 24.5L11.1084 24.3943L10.897 14.3943L5.89814 14.5L0.899255 14.6057L1.11066 24.6057L6.10954 24.5ZM5.89814 14.5L10.897 14.3943C10.8801 13.5916 10.8779 13.0037 10.8863 12.6043C10.8905 12.4035 10.8966 12.2894 10.9001 12.241C10.9018 12.2181 10.9011 12.2349 10.8954 12.2809C10.8909 12.3159 10.8743 12.4443 10.8325 12.6251L5.96076 11.5L1.08899 10.3749C0.91548 11.1262 0.897251 11.9744 0.888457 12.3957C0.87592 12.9963 0.880991 13.7417 0.899255 14.6057L5.89814 14.5ZM5.96076 11.5L10.8325 12.6251L11.2944 10.6251L6.42264 9.5L1.55087 8.3749L1.08899 10.3749L5.96076 11.5ZM6.42264 9.5L11.2944 10.6251L11.7563 8.6251L6.88453 7.5L2.01276 6.3749L1.55087 8.3749L6.42264 9.5ZM6.88453 7.5L11.7563 8.6251C11.2924 10.634 9.81601 11.5105 9.34561 11.7481C9.05163 11.8966 8.81249 11.9738 8.68309 12.0108C8.54627 12.05 8.45275 12.0667 8.42154 12.072C8.37956 12.079 8.63358 12.0422 9.37558 12.0607L9.5 7.06223L9.62442 2.06378C8.69976 2.04076 7.68453 2.05621 6.77073 2.20916C6.33863 2.28148 5.60501 2.43423 4.83698 2.82218C4.12938 3.17959 2.51518 4.19937 2.01276 6.3749L6.88453 7.5ZM9.5 7.06223L9.37558 12.0607L19.3756 12.3096L19.5 7.31115L19.6244 2.3127L9.62442 2.06378L9.5 7.06223Z" fill="black"/>
<path d="M83.5 75.4272L83.5989 70.4282L83.5 75.4272ZM93.5 75.6251L93.4011 80.6241L93.5 75.6251ZM103.5 75.8231L103.599 70.824L103.5 75.8231ZM108.5 75.8892L108.533 70.8893L108.5 75.8892ZM118.5 75.956L118.467 80.9559L118.5 75.956ZM128.5 76.0227L128.533 71.0228L128.5 76.0227ZM130.7 73.6911L135.66 73.0575V73.0575L130.7 73.6911ZM129.5 64.2978L124.54 64.9314V64.9314L129.5 64.2978ZM128.3 54.9045L133.26 54.2709L133.26 54.2709L128.3 54.9045ZM125.5 52.5286L125.555 47.5289L125.5 52.5286ZM115.5 52.4185L115.445 57.4182L115.5 52.4185ZM105.5 52.3084L105.555 47.3087L105.5 52.3084ZM100.5 52.4006L100.261 47.4063H100.261L100.5 52.4006ZM90.5 52.8794L90.7391 57.8737L90.5 52.8794ZM80.5 53.3583L80.2609 48.364H80.2609L80.5 53.3583ZM75.8852 53.8302L75.0638 48.8981H75.0638L75.8852 53.8302ZM67.4259 55.239L68.2473 60.171L67.4259 55.239ZM58.9666 56.6478L58.1452 51.7157H58.1452L58.9666 56.6478ZM56.6704 58.9L51.6931 58.425L56.6704 58.9ZM55.9451 66.5L60.9225 66.975L55.9451 66.5ZM55.2198 74.1L50.2424 73.625L55.2198 74.1ZM68.5 75.6889L68.3756 70.6904L78.3756 70.4415L78.5 75.4399L78.6244 80.4384L68.6244 80.6873L68.5 75.6889ZM78.5 75.4399L78.3756 70.4415C80.1167 70.3981 81.8578 70.3937 83.5989 70.4282L83.5 75.4272L83.4011 80.4262C81.8088 80.3947 80.2167 80.3988 78.6244 80.4384L78.5 75.4399ZM83.5 75.4272L83.5989 70.4282L93.5989 70.6261L93.5 75.6251L93.4011 80.6241L83.4011 80.4262L83.5 75.4272ZM93.5 75.6251L93.5989 70.6261L103.599 70.824L103.5 75.8231L103.401 80.8221L93.4011 80.6241L93.5 75.6251ZM103.5 75.8231L103.599 70.824C105.244 70.8566 106.889 70.8784 108.533 70.8893L108.5 75.8892L108.467 80.8891C106.778 80.8778 105.09 80.8555 103.401 80.8221L103.5 75.8231ZM108.5 75.8892L108.533 70.8893L118.533 70.9561L118.5 75.956L118.467 80.9559L108.467 80.8891L108.5 75.8892ZM118.5 75.956L118.533 70.9561L128.533 71.0228L128.5 76.0227L128.467 81.0226L118.467 80.9559L118.5 75.956ZM128.5 76.0227L128.533 71.0228C128.743 71.0242 127.67 70.9493 126.663 72.0168C126.16 72.5497 125.906 73.1405 125.8 73.6076C125.703 74.0343 125.738 74.3068 125.74 74.3247L130.7 73.6911L135.66 73.0575C135.856 74.5979 135.745 76.9626 133.937 78.8796C132.196 80.7242 129.924 81.0324 128.467 81.0226L128.5 76.0227ZM130.7 73.6911L125.74 74.3247L124.54 64.9314L129.5 64.2978L134.46 63.6642L135.66 73.0575L130.7 73.6911ZM129.5 64.2978L124.54 64.9314L123.34 55.5381L128.3 54.9045L133.26 54.2709L134.46 63.6642L129.5 64.2978ZM128.3 54.9045L123.34 55.5381C123.351 55.6237 123.48 56.3252 124.215 56.9488C124.913 57.5409 125.533 57.5293 125.445 57.5283L125.5 52.5286L125.555 47.5289C127.133 47.5463 129.054 47.9398 130.685 49.3239C132.353 50.7394 133.049 52.6197 133.26 54.2709L128.3 54.9045ZM125.5 52.5286L125.445 57.5283L115.445 57.4182L115.5 52.4185L115.555 47.4188L125.555 47.5289L125.5 52.5286ZM115.5 52.4185L115.445 57.4182L105.445 57.3081L105.5 52.3084L105.555 47.3087L115.555 47.4188L115.5 52.4185ZM105.5 52.3084L105.445 57.3081C103.876 57.2909 102.308 57.3198 100.739 57.3949L100.5 52.4006L100.261 47.4063C102.025 47.3218 103.79 47.2893 105.555 47.3087L105.5 52.3084ZM100.5 52.4006L100.739 57.3949L90.7391 57.8737L90.5 52.8794L90.2609 47.8852L100.261 47.4063L100.5 52.4006ZM90.5 52.8794L90.7391 57.8737L80.7391 58.3525L80.5 53.3583L80.2609 48.364L90.2609 47.8852L90.5 52.8794ZM80.5 53.3583L80.7391 58.3525C79.2362 58.4245 77.8951 58.5643 76.7066 58.7622L75.8852 53.8302L75.0638 48.8981C76.6951 48.6264 78.4305 48.4516 80.2609 48.364L80.5 53.3583ZM75.8852 53.8302L76.7066 58.7622L68.2473 60.171L67.4259 55.239L66.6045 50.3069L75.0638 48.8981L75.8852 53.8302ZM67.4259 55.239L68.2473 60.171L59.788 61.5799L58.9666 56.6478L58.1452 51.7157L66.6045 50.3069L67.4259 55.239ZM58.9666 56.6478L59.788 61.5799C59.7882 61.5798 59.795 61.5787 59.8081 61.5758C59.8211 61.5728 59.8408 61.568 59.8666 61.5605C59.9178 61.5456 59.9958 61.5193 60.0935 61.475C60.2945 61.3839 60.565 61.2226 60.8364 60.9565C61.4462 60.3583 61.6182 59.6853 61.6478 59.375L56.6704 58.9L51.6931 58.425C51.8436 56.848 52.4587 55.1663 53.8339 53.8174C55.1574 52.5193 56.7605 51.9463 58.1452 51.7157L58.9666 56.6478ZM56.6704 58.9L61.6478 59.375L60.9225 66.975L55.9451 66.5L50.9677 66.025L51.6931 58.425L56.6704 58.9ZM55.9451 66.5L60.9225 66.975L60.1971 74.575L55.2198 74.1L50.2424 73.625L50.9677 66.025L55.9451 66.5ZM55.2198 74.1L60.1971 74.575C60.1384 75.1902 60.1111 75.5629 60.1028 75.7489C60.0974 75.87 60.1062 75.7825 60.0959 75.5998C60.0935 75.5561 60.0771 75.1877 59.9554 74.7175C59.904 74.5188 59.7378 73.903 59.2896 73.2277C58.8421 72.5534 57.5143 71 55.1346 71V76V81C52.7469 81 51.4118 79.4416 50.9577 78.7575C50.5029 78.0723 50.3309 77.4416 50.2744 77.2231C50.1425 76.7134 50.1187 76.2855 50.1118 76.1627C50.0925 75.8216 50.104 75.4967 50.1128 75.3011C50.1329 74.8538 50.1802 74.2765 50.2424 73.625L55.2198 74.1ZM55.1346 76V71H55.5192V76V81H55.1346V76ZM55.5192 76V71H55.9038V76V81H55.5192V76ZM55.9038 76V71C55.8477 71 55.8339 71.0009 55.9906 70.9974C56.1026 70.9949 56.2656 70.991 56.4811 70.9859C56.9115 70.9756 57.5427 70.9601 58.3756 70.9393L58.5 75.9378L58.6244 80.9362C57.0286 80.9759 56.0507 81 55.9038 81V76ZM58.5 75.9378L58.3756 70.9393L68.3756 70.6904L68.5 75.6889L68.6244 80.6873L58.6244 80.9362L58.5 75.9378Z" fill="black"/>
<path d="M83.5 76.5728L83.5989 81.5718L83.5 76.5728ZM93.5 76.3749L93.4011 71.3759L93.5 76.3749ZM103.5 76.1769L103.599 81.176L103.5 76.1769ZM108.5 76.1108L108.533 81.1107L108.5 76.1108ZM118.5 76.044L118.467 71.0441L118.5 76.044ZM128.5 75.9773L128.533 80.9772L128.5 75.9773ZM131.144 78.4645L136.136 78.1767V78.1767L131.144 78.4645ZM131.722 88.4803L126.73 88.7681V88.7681L131.722 88.4803ZM132.299 98.4961L137.291 98.2082L137.291 98.2082L132.299 98.4961ZM132.471 103.5L137.471 103.445V103.445L132.471 103.5ZM132.581 113.5L127.582 113.555L132.581 113.5ZM132.692 123.5L137.691 123.445L132.692 123.5ZM130.247 126.252L130.755 131.226L130.247 126.252ZM120.36 127.261L119.852 122.287L120.36 127.261ZM110.472 128.27L110.979 133.244H110.979L110.472 128.27ZM105.5 128.385L105.226 133.377H105.226L105.5 128.385ZM95.5 127.835L95.7744 122.843L95.5 127.835ZM85.5 127.286L85.2256 132.278H85.2257L85.5 127.286ZM80.5 127.33L80.8617 132.316H80.8617L80.5 127.33ZM70.5 128.055L70.1383 123.068H70.1383L70.5 128.055ZM60.5 128.78L60.8617 133.767H60.8617L60.5 128.78ZM57.7951 126.565L52.8133 126.991V126.991L57.7951 126.565ZM56.9756 116.981L61.9575 116.555L56.9756 116.981ZM56.1561 107.396L51.1743 107.822L56.1561 107.396ZM55.8508 102.5L50.8549 102.701L55.8508 102.5ZM55.449 92.5L60.445 92.2993L55.449 92.5ZM55.0472 82.5L50.0512 82.7007L55.0472 82.5ZM55.052 79.6L50.2169 78.3268L55.052 79.6ZM68.5 76.3111L68.3756 81.3096L78.3756 81.5585L78.5 76.5601L78.6244 71.5616L68.6244 71.3127L68.5 76.3111ZM78.5 76.5601L78.3756 81.5585C80.1167 81.6019 81.8578 81.6063 83.5989 81.5718L83.5 76.5728L83.4011 71.5738C81.8088 71.6053 80.2167 71.6012 78.6244 71.5616L78.5 76.5601ZM83.5 76.5728L83.5989 81.5718L93.5989 81.3739L93.5 76.3749L93.4011 71.3759L83.4011 71.5738L83.5 76.5728ZM93.5 76.3749L93.5989 81.3739L103.599 81.176L103.5 76.1769L103.401 71.1779L93.4011 71.3759L93.5 76.3749ZM103.5 76.1769L103.599 81.176C105.244 81.1434 106.889 81.1216 108.533 81.1107L108.5 76.1108L108.467 71.1109C106.778 71.1222 105.09 71.1445 103.401 71.1779L103.5 76.1769ZM108.5 76.1108L108.533 81.1107L118.533 81.0439L118.5 76.044L118.467 71.0441L108.467 71.1109L108.5 76.1108ZM118.5 76.044L118.533 81.0439L128.533 80.9772L128.5 75.9773L128.467 70.9774L118.467 71.0441L118.5 76.044ZM128.5 75.9773L128.533 80.9772C128.533 80.9772 128.531 80.9772 128.526 80.977C128.521 80.9769 128.514 80.9767 128.505 80.9761C128.486 80.975 128.456 80.9725 128.418 80.9673C128.342 80.957 128.223 80.9349 128.075 80.8872C127.761 80.7865 127.362 80.5866 126.985 80.2328C126.188 79.4825 126.15 78.7017 126.153 78.7524L131.144 78.4645L136.136 78.1767C136.043 76.558 135.516 74.5281 133.837 72.9486C132.155 71.3667 130.093 70.9665 128.467 70.9774L128.5 75.9773ZM131.144 78.4645L126.153 78.7524L126.73 88.7681L131.722 88.4803L136.714 88.1924L136.136 78.1767L131.144 78.4645ZM131.722 88.4803L126.73 88.7681L127.308 98.7839L132.299 98.4961L137.291 98.2082L136.714 88.1924L131.722 88.4803ZM132.299 98.4961L127.308 98.7839C127.4 100.376 127.454 101.966 127.472 103.555L132.471 103.5L137.471 103.445C137.452 101.7 137.392 99.9548 137.291 98.2082L132.299 98.4961ZM132.471 103.5L127.472 103.555L127.582 113.555L132.581 113.5L137.581 113.445L137.471 103.445L132.471 103.5ZM132.581 113.5L127.582 113.555L127.692 123.555L132.692 123.5L137.691 123.445L137.581 113.445L132.581 113.5ZM132.692 123.5L127.692 123.555C127.692 123.596 127.681 122.878 128.356 122.118C128.674 121.76 129.025 121.536 129.31 121.41C129.446 121.351 129.555 121.318 129.628 121.3C129.699 121.282 129.739 121.278 129.74 121.278L130.247 126.252L130.755 131.226C132.382 131.06 134.339 130.44 135.833 128.758C137.322 127.081 137.709 125.07 137.691 123.445L132.692 123.5ZM130.247 126.252L129.74 121.278L119.852 122.287L120.36 127.261L120.867 132.235L130.755 131.226L130.247 126.252ZM120.36 127.261L119.852 122.287L109.964 123.296L110.472 128.27L110.979 133.244L120.867 132.235L120.36 127.261ZM110.472 128.27L109.964 123.296C108.578 123.437 107.182 123.47 105.774 123.392L105.5 128.385L105.226 133.377C107.151 133.483 109.07 133.439 110.979 133.244L110.472 128.27ZM105.5 128.385L105.774 123.392L95.7744 122.843L95.5 127.835L95.2256 132.828L105.226 133.377L105.5 128.385ZM95.5 127.835L95.7744 122.843L85.7744 122.293L85.5 127.286L85.2257 132.278L95.2257 132.828L95.5 127.835ZM85.5 127.286L85.7744 122.293C83.8955 122.19 82.0164 122.206 80.1383 122.343L80.5 127.33L80.8617 132.316C82.3169 132.211 83.7711 132.198 85.2256 132.278L85.5 127.286ZM80.5 127.33L80.1383 122.343L70.1383 123.068L70.5 128.055L70.8617 133.042L80.8617 132.316L80.5 127.33ZM70.5 128.055L70.1383 123.068L60.1383 123.793L60.5 128.78L60.8617 133.767L70.8617 133.042L70.5 128.055ZM60.5 128.78L60.1383 123.793C60.0286 123.801 60.8437 123.714 61.7415 124.449C62.6793 125.217 62.7746 126.112 62.7769 126.139L57.7951 126.565L52.8133 126.991C52.9523 128.617 53.5667 130.68 55.4061 132.186C57.2055 133.659 59.3047 133.88 60.8617 133.767L60.5 128.78ZM57.7951 126.565L62.7769 126.139L61.9575 116.555L56.9756 116.981L51.9938 117.407L52.8133 126.991L57.7951 126.565ZM56.9756 116.981L61.9575 116.555L61.138 106.97L56.1561 107.396L51.1743 107.822L51.9938 117.407L56.9756 116.981ZM56.1561 107.396L61.138 106.97C61.008 105.451 60.9109 103.894 60.8468 102.299L55.8508 102.5L50.8549 102.701C50.9247 104.44 51.0311 106.147 51.1743 107.822L56.1561 107.396ZM55.8508 102.5L60.8468 102.299L60.445 92.2993L55.449 92.5L50.453 92.7007L50.8549 102.701L55.8508 102.5ZM55.449 92.5L60.445 92.2993L60.0431 82.2993L55.0472 82.5L50.0512 82.7007L50.453 92.7007L55.449 92.5ZM55.0472 82.5L60.0431 82.2993C60.0108 81.4936 59.9975 80.9148 59.9982 80.5334C59.9985 80.3398 60.0024 80.2453 60.0038 80.222C60.0044 80.2111 60.0025 80.2525 59.9932 80.3293C59.9869 80.3823 59.9613 80.5918 59.8872 80.8732L55.052 79.6L50.2169 78.3268C50.0619 78.9153 50.0313 79.4591 50.0207 79.6405C50.0041 79.9256 49.9987 80.2268 49.9982 80.5166C49.9972 81.1019 50.0166 81.8398 50.0512 82.7007L55.0472 82.5ZM55.052 79.6L59.8872 80.8732L60.3085 79.2732L55.4734 78L50.6382 76.7268L50.2169 78.3268L55.052 79.6ZM55.4734 78L60.3085 79.2732L60.7299 77.6732L55.8947 76.4L51.0595 75.1268L50.6382 76.7268L55.4734 78ZM55.8947 76.4L60.7299 77.6732C60.4122 78.8795 59.7172 79.6767 59.1871 80.125C58.6814 80.5527 58.2095 80.768 57.9701 80.8648C57.7086 80.9705 57.5061 81.0209 57.4122 81.0421C57.3095 81.0653 57.2473 81.0733 57.2415 81.0741C57.2363 81.0747 57.3238 81.0641 57.5399 81.058C57.7462 81.0523 58.0215 81.0519 58.3756 81.0607L58.5 76.0622L58.6244 71.0638C57.7199 71.0413 56.7786 71.0504 55.9558 71.1571C55.5755 71.2064 54.9209 71.3114 54.2239 71.593C53.8026 71.7632 51.7155 72.6353 51.0595 75.1268L55.8947 76.4ZM58.5 76.0622L58.3756 81.0607L68.3756 81.3096L68.5 76.3111L68.6244 71.3127L58.6244 71.0638L58.5 76.0622Z" fill="black"/>
</svg>
